<svg xmlns="http://www.w3.org/2000/svg" xmlns:xlink="http://www.w3.org/1999/xlink" width="500" zoomAndPan="magnify" viewBox="0 0 375 374.999991" height="500" preserveAspectRatio="xMidYMid meet" version="1.0"><defs><g/><clipPath id="b3e1e78927"><path d="M 0.226562 0.75 L 246.550781 0.75 L 246.550781 304.945312 L 0.226562 304.945312 Z M 0.226562 0.75 " clip-rule="nonzero"/></clipPath><clipPath id="3dd21e1ff0"><rect x="0" width="248" y="0" height="372"/></clipPath></defs><g transform="matrix(1, 0, 0, 1, 64, 3)"><g clip-path="url(#3dd21e1ff0)"><g fill="#242424" fill-opacity="1"><g transform="translate(28.635078, 359.496233)"><g><path d="M 31.15625 -42.140625 L 31.15625 -33.921875 L 13.984375 -33.921875 L 13.984375 -25.03125 L 26.828125 -25.03125 L 26.828125 -17.046875 L 13.984375 -17.046875 L 13.984375 0 L 3.71875 0 L 3.71875 -42.140625 Z M 31.15625 -42.140625 "/></g></g></g><g fill="#242424" fill-opacity="1"><g transform="translate(61.470285, 359.496233)"><g><path d="M 1.6875 -16.8125 C 1.6875 -20.25 2.332031 -23.269531 3.625 -25.875 C 4.925781 -28.476562 6.695312 -30.476562 8.9375 -31.875 C 11.1875 -33.28125 13.691406 -33.984375 16.453125 -33.984375 C 18.804688 -33.984375 20.875 -33.5 22.65625 -32.53125 C 24.4375 -31.570312 25.8125 -30.3125 26.78125 -28.75 L 26.78125 -33.5 L 37.046875 -33.5 L 37.046875 0 L 26.78125 0 L 26.78125 -4.75 C 25.769531 -3.1875 24.375 -1.921875 22.59375 -0.953125 C 20.820312 0.00390625 18.753906 0.484375 16.390625 0.484375 C 13.671875 0.484375 11.1875 -0.222656 8.9375 -1.640625 C 6.695312 -3.066406 4.925781 -5.085938 3.625 -7.703125 C 2.332031 -10.328125 1.6875 -13.363281 1.6875 -16.8125 Z M 26.78125 -16.75 C 26.78125 -19.3125 26.066406 -21.332031 24.640625 -22.8125 C 23.222656 -24.289062 21.492188 -25.03125 19.453125 -25.03125 C 17.410156 -25.03125 15.675781 -24.300781 14.25 -22.84375 C 12.832031 -21.382812 12.125 -19.375 12.125 -16.8125 C 12.125 -14.25 12.832031 -12.21875 14.25 -10.71875 C 15.675781 -9.21875 17.410156 -8.46875 19.453125 -8.46875 C 21.492188 -8.46875 23.222656 -9.207031 24.640625 -10.6875 C 26.066406 -12.164062 26.78125 -14.1875 26.78125 -16.75 Z M 26.78125 -16.75 "/></g></g></g><g fill="#242424" fill-opacity="1"><g transform="translate(102.229148, 359.496233)"><g><path d="M 1.6875 -16.8125 C 1.6875 -20.25 2.332031 -23.269531 3.625 -25.875 C 4.925781 -28.476562 6.695312 -30.476562 8.9375 -31.875 C 11.1875 -33.28125 13.691406 -33.984375 16.453125 -33.984375 C 18.804688 -33.984375 20.875 -33.5 22.65625 -32.53125 C 24.4375 -31.570312 25.8125 -30.3125 26.78125 -28.75 L 26.78125 -33.5 L 37.046875 -33.5 L 37.046875 0 L 26.78125 0 L 26.78125 -4.75 C 25.769531 -3.1875 24.375 -1.921875 22.59375 -0.953125 C 20.820312 0.00390625 18.753906 0.484375 16.390625 0.484375 C 13.671875 0.484375 11.1875 -0.222656 8.9375 -1.640625 C 6.695312 -3.066406 4.925781 -5.085938 3.625 -7.703125 C 2.332031 -10.328125 1.6875 -13.363281 1.6875 -16.8125 Z M 26.78125 -16.75 C 26.78125 -19.3125 26.066406 -21.332031 24.640625 -22.8125 C 23.222656 -24.289062 21.492188 -25.03125 19.453125 -25.03125 C 17.410156 -25.03125 15.675781 -24.300781 14.25 -22.84375 C 12.832031 -21.382812 12.125 -19.375 12.125 -16.8125 C 12.125 -14.25 12.832031 -12.21875 14.25 -10.71875 C 15.675781 -9.21875 17.410156 -8.46875 19.453125 -8.46875 C 21.492188 -8.46875 23.222656 -9.207031 24.640625 -10.6875 C 26.066406 -12.164062 26.78125 -14.1875 26.78125 -16.75 Z M 26.78125 -16.75 "/></g></g></g><g fill="#242424" fill-opacity="1"><g transform="translate(142.988012, 359.496233)"><g><path d="M 24.1875 0 L 13.984375 -14.046875 L 13.984375 0 L 3.71875 0 L 3.71875 -44.421875 L 13.984375 -44.421875 L 13.984375 -19.875 L 24.125 -33.5 L 36.796875 -33.5 L 22.875 -16.6875 L 36.921875 0 Z M 24.1875 0 "/></g></g></g><g fill="#242424" fill-opacity="1"><g transform="translate(180.085193, 359.496233)"><g><path d="M 18.96875 0.484375 C 15.6875 0.484375 12.734375 -0.210938 10.109375 -1.609375 C 7.492188 -3.015625 5.4375 -5.019531 3.9375 -7.625 C 2.4375 -10.226562 1.6875 -13.269531 1.6875 -16.75 C 1.6875 -20.1875 2.445312 -23.21875 3.96875 -25.84375 C 5.488281 -28.46875 7.566406 -30.476562 10.203125 -31.875 C 12.847656 -33.28125 15.8125 -33.984375 19.09375 -33.984375 C 22.375 -33.984375 25.332031 -33.28125 27.96875 -31.875 C 30.613281 -30.476562 32.695312 -28.46875 34.21875 -25.84375 C 35.738281 -23.21875 36.5 -20.1875 36.5 -16.75 C 36.5 -13.3125 35.726562 -10.28125 34.1875 -7.65625 C 32.644531 -5.03125 30.539062 -3.015625 27.875 -1.609375 C 25.21875 -0.210938 22.25 0.484375 18.96875 0.484375 Z M 18.96875 -8.40625 C 20.925781 -8.40625 22.59375 -9.125 23.96875 -10.5625 C 25.351562 -12.007812 26.046875 -14.070312 26.046875 -16.75 C 26.046875 -19.425781 25.375 -21.484375 24.03125 -22.921875 C 22.695312 -24.367188 21.050781 -25.09375 19.09375 -25.09375 C 17.09375 -25.09375 15.429688 -24.378906 14.109375 -22.953125 C 12.785156 -21.535156 12.125 -19.46875 12.125 -16.75 C 12.125 -14.070312 12.773438 -12.007812 14.078125 -10.5625 C 15.378906 -9.125 17.007812 -8.40625 18.96875 -8.40625 Z M 18.96875 -8.40625 "/></g></g></g><g clip-path="url(#b3e1e78927)"><path fill="#4a3931" d="M 30.867188 117.734375 C 47.847656 117.734375 61.875 104.121094 61.875 87.191406 C 61.875 70.277344 47.847656 56.285156 30.867188 56.285156 C 13.902344 56.285156 0.238281 70.277344 0.238281 87.191406 C 0.238281 104.121094 13.902344 117.734375 30.867188 117.734375 Z M 216.117188 117.734375 C 233.097656 117.734375 246.746094 104.121094 246.746094 87.191406 C 246.746094 70.277344 233.09375 56.285156 216.117188 56.285156 C 199.152344 56.285156 185.5 70.277344 185.5 87.191406 C 185.5 104.121094 199.152344 117.734375 216.117188 117.734375 Z M 216.117188 102.644531 C 224.980469 102.644531 231.621094 95.664062 231.621094 87.191406 C 231.621094 78.734375 224.976562 71.738281 216.117188 71.738281 C 207.632812 71.738281 200.625 78.734375 200.625 87.191406 C 200.625 95.664062 207.632812 102.644531 216.117188 102.644531 Z M 123.5 62.183594 C 140.84375 62.183594 154.492188 48.195312 154.492188 31.277344 C 154.492188 14.714844 140.84375 0.75 123.5 0.75 C 106.519531 0.75 92.871094 14.714844 92.871094 31.277344 C 92.871094 48.191406 106.519531 62.183594 123.5 62.183594 Z M 123.5 46.730469 C 132.359375 46.730469 139.367188 40.101562 139.367188 31.277344 C 139.367188 22.808594 132.359375 15.824219 123.5 15.824219 C 115.015625 15.824219 108.007812 22.808594 108.007812 31.277344 C 108.007812 40.101562 115.015625 46.730469 123.5 46.730469 Z M 15.742188 183.578125 L 15.742188 162.984375 C 15.742188 154.523438 22.75 147.53125 31.246094 147.53125 C 39.730469 147.53125 46.371094 154.523438 46.371094 162.984375 L 46.371094 188.734375 L 61.875 188.734375 L 61.875 162.984375 C 61.875 146.054688 47.847656 132.441406 31.246094 132.441406 C 14.269531 132.441406 0.238281 146.054688 0.238281 162.984375 L 0.238281 190.941406 C 0.238281 203.820312 10.574219 214.121094 23.496094 214.121094 L 46.371094 214.121094 L 46.371094 274.078125 C 46.371094 290.644531 60.386719 304.621094 77.378906 304.621094 C 94.34375 304.621094 108.007812 290.640625 108.007812 274.078125 L 108.007812 224.050781 L 92.871094 224.050781 L 92.871094 274.078125 C 92.871094 282.171875 85.863281 289.167969 77.378906 289.167969 C 68.882812 289.167969 61.875 282.171875 61.875 274.078125 L 61.875 214.121094 L 139.003906 214.121094 L 139.003906 274.078125 C 139.003906 290.644531 153.019531 304.621094 169.996094 304.621094 C 186.597656 304.621094 200.625 290.640625 200.625 274.078125 L 200.625 224.050781 L 185.121094 224.050781 L 185.121094 274.078125 C 185.121094 282.171875 178.480469 289.167969 169.996094 289.167969 C 161.515625 289.167969 154.492188 282.171875 154.492188 274.078125 L 154.492188 214.121094 L 223.871094 214.121094 C 236.425781 214.121094 246.746094 203.820312 246.746094 190.941406 L 246.746094 162.984375 C 246.746094 146.054688 233.09375 132.441406 216.117188 132.441406 C 199.152344 132.441406 185.121094 146.054688 185.121094 162.984375 L 185.121094 198.667969 L 108.007812 198.667969 L 108.007812 182.847656 L 108.007812 183.578125 L 108.007812 107.433594 C 108.007812 98.964844 115.015625 91.980469 123.5 91.980469 C 132.359375 91.980469 139.003906 98.964844 139.003906 107.433594 L 139.003906 183.578125 L 139.003906 182.847656 L 139.003906 188.734375 L 154.492188 188.734375 L 154.492188 182.847656 L 154.492188 183.578125 L 154.492188 107.433594 C 154.492188 90.507812 140.476562 76.527344 123.5 76.527344 C 106.519531 76.527344 92.871094 90.507812 92.871094 107.433594 L 92.871094 183.578125 L 92.871094 182.847656 L 92.871094 198.667969 L 23.496094 198.667969 C 19.070312 198.667969 15.742188 194.984375 15.742188 190.941406 Z M 200.625 198.667969 L 200.625 162.984375 C 200.625 154.527344 207.632812 147.53125 216.117188 147.53125 C 224.613281 147.53125 231.621094 154.527344 231.621094 162.984375 L 231.621094 190.941406 C 231.621094 194.988281 227.929688 198.667969 223.867188 198.667969 Z M 30.867188 102.644531 C 39.730469 102.644531 46.371094 95.664062 46.371094 87.191406 C 46.371094 78.734375 39.730469 71.738281 30.867188 71.738281 C 22.386719 71.738281 15.375 78.734375 15.375 87.191406 C 15.375 95.664062 22.386719 102.644531 30.867188 102.644531 Z M 30.867188 102.644531 " fill-opacity="1" fill-rule="evenodd"/></g></g></g></svg>