<svg xmlns="http://www.w3.org/2000/svg" xmlns:xlink="http://www.w3.org/1999/xlink" width="300" zoomAndPan="magnify" viewBox="0 0 224.87999 225" height="300" preserveAspectRatio="xMidYMid meet" version="1.0"><defs><filter x="0%" y="0%" width="100%" height="100%" id="39df089e50"><feColorMatrix values="0 0 0 0 1 0 0 0 0 1 0 0 0 0 1 0 0 0 1 0" color-interpolation-filters="sRGB"/></filter><g/><clipPath id="363c823af0"><path d="M 0 0.0585938 L 224.761719 0.0585938 L 224.761719 224.9375 L 0 224.9375 Z M 0 0.0585938 " clip-rule="nonzero"/></clipPath><mask id="c104f58f58"><g filter="url(#39df089e50)"><rect x="-22.487999" width="269.855988" fill="#000000" y="-22.5" height="270" fill-opacity="0.1"/></g></mask><clipPath id="1b86feb3d1"><path d="M 91 0.0585938 L 148 0.0585938 L 148 98 L 91 98 Z M 91 0.0585938 " clip-rule="nonzero"/></clipPath><clipPath id="c857c16eab"><path d="M 80 122 L 133 122 L 133 224.191406 L 80 224.191406 Z M 80 122 " clip-rule="nonzero"/></clipPath><clipPath id="61d6f6d9f6"><path d="M 122 92 L 224.128906 92 L 224.128906 145 L 122 145 Z M 122 92 " clip-rule="nonzero"/></clipPath><clipPath id="4f2f2a781d"><rect x="0" width="225" y="0" height="225"/></clipPath><clipPath id="7e30058523"><path d="M 49.929688 17.546875 L 174.363281 17.546875 L 174.363281 171.214844 L 49.929688 171.214844 Z M 49.929688 17.546875 " clip-rule="nonzero"/></clipPath></defs><g clip-path="url(#363c823af0)"><g mask="url(#c104f58f58)"><g transform="matrix(1, 0, 0, 1, 0, -0.000000000000003234)"><g clip-path="url(#4f2f2a781d)"><path fill="#ffffff" d="M 145.445312 182.539062 C 142.605469 182.539062 140.300781 180.238281 140.300781 177.394531 C 140.300781 174.554688 142.605469 172.25 145.445312 172.25 C 148.289062 172.25 150.59375 174.554688 150.59375 177.394531 C 150.59375 180.238281 148.289062 182.539062 145.445312 182.539062 Z M 149.683594 167.222656 L 149.683594 109.933594 L 141.207031 109.933594 L 141.207031 167.226562 C 137.230469 168.886719 134.429688 172.8125 134.429688 177.394531 C 134.429688 183.480469 139.363281 188.410156 145.445312 188.410156 C 151.53125 188.410156 156.464844 183.480469 156.464844 177.394531 C 156.464844 172.8125 153.664062 168.882812 149.683594 167.222656 " fill-opacity="1" fill-rule="nonzero"/><g clip-path="url(#1b86feb3d1)"><path fill="#ffffff" d="M 102.972656 16.222656 C 100.132812 16.222656 97.828125 13.917969 97.828125 11.074219 C 97.828125 8.234375 100.132812 5.933594 102.972656 5.933594 C 105.8125 5.933594 108.117188 8.234375 108.117188 11.074219 C 108.117188 13.917969 105.8125 16.222656 102.972656 16.222656 Z M 136.257812 96.019531 C 136.496094 96.164062 136.726562 96.324219 136.949219 96.484375 C 138.214844 96.257812 139.511719 96.132812 140.835938 96.132812 L 147.566406 96.132812 C 146.015625 93.160156 143.664062 90.617188 140.675781 88.789062 C 135.035156 85.34375 128.15625 85.089844 122.277344 88.105469 C 119.042969 89.765625 115.261719 89.621094 112.160156 87.726562 C 109.0625 85.835938 107.210938 82.535156 107.210938 78.902344 L 107.210938 21.246094 C 111.191406 19.585938 113.988281 15.660156 113.988281 11.074219 C 113.988281 4.992188 109.058594 0.0585938 102.972656 0.0585938 C 96.886719 0.0585938 91.957031 4.992188 91.957031 11.074219 C 91.957031 15.660156 94.753906 19.585938 98.738281 21.25 L 98.738281 78.902344 C 98.738281 85.511719 102.105469 91.515625 107.746094 94.960938 C 113.386719 98.40625 120.265625 98.660156 126.144531 95.644531 C 129.375 93.984375 133.15625 94.125 136.257812 96.019531 " fill-opacity="1" fill-rule="nonzero"/></g><path fill="#ffffff" d="M 78.953125 41.980469 C 81.792969 41.980469 84.097656 44.285156 84.097656 47.125 C 84.097656 49.964844 81.792969 52.269531 78.953125 52.269531 C 76.109375 52.269531 73.808594 49.964844 73.808594 47.125 C 73.808594 44.285156 76.109375 41.980469 78.953125 41.980469 Z M 74.714844 57.296875 L 74.714844 114.585938 L 78.84375 114.585938 C 80.433594 114.585938 81.933594 114.105469 83.191406 113.238281 L 83.191406 57.292969 C 87.171875 55.632812 89.96875 51.707031 89.96875 47.125 C 89.96875 41.039062 85.035156 36.109375 78.953125 36.109375 C 72.867188 36.109375 67.9375 41.039062 67.9375 47.125 C 67.9375 51.707031 70.734375 55.636719 74.714844 57.296875 " fill-opacity="1" fill-rule="nonzero"/><g clip-path="url(#c857c16eab)"><path fill="#ffffff" d="M 121.425781 218.589844 C 118.585938 218.589844 116.28125 216.285156 116.28125 213.445312 C 116.28125 210.601562 118.585938 208.296875 121.425781 208.296875 C 124.269531 208.296875 126.574219 210.601562 126.574219 213.445312 C 126.574219 216.285156 124.269531 218.589844 121.425781 218.589844 Z M 125.664062 203.273438 L 125.664062 140.894531 C 125.664062 134.285156 122.296875 128.285156 116.65625 124.835938 C 111.015625 121.394531 104.136719 121.136719 98.253906 124.15625 C 95.851562 125.386719 93.140625 125.621094 90.632812 124.882812 C 87.589844 126.886719 84.050781 128.089844 80.296875 128.335938 C 81.320312 129.339844 82.464844 130.238281 83.722656 131.007812 C 89.363281 134.453125 96.242188 134.710938 102.125 131.691406 C 105.355469 130.035156 109.136719 130.175781 112.238281 132.070312 C 115.335938 133.964844 117.1875 137.261719 117.1875 140.894531 L 117.1875 203.273438 C 113.207031 204.933594 110.410156 208.863281 110.410156 213.445312 C 110.410156 219.527344 115.34375 224.460938 121.425781 224.460938 C 127.511719 224.460938 132.441406 219.527344 132.441406 213.445312 C 132.441406 208.863281 129.644531 204.933594 125.664062 203.273438 " fill-opacity="1" fill-rule="nonzero"/></g><g clip-path="url(#61d6f6d9f6)"><path fill="#ffffff" d="M 213.382812 108.179688 C 210.542969 108.179688 208.238281 105.875 208.238281 103.03125 C 208.238281 100.191406 210.542969 97.886719 213.382812 97.886719 C 216.222656 97.886719 218.527344 100.191406 218.527344 103.03125 C 218.527344 105.875 216.222656 108.179688 213.382812 108.179688 Z M 213.382812 92.015625 C 208.800781 92.015625 204.871094 94.816406 203.210938 98.796875 L 140.835938 98.796875 C 134.226562 98.796875 128.222656 102.164062 124.777344 107.804688 C 121.332031 113.445312 121.078125 120.324219 124.09375 126.203125 C 124.65625 127.296875 125.003906 128.453125 125.152344 129.625 C 127.203125 132.945312 128.328125 136.820312 128.328125 140.894531 L 128.328125 144.113281 C 129.3125 143.105469 130.191406 141.976562 130.949219 140.734375 C 134.394531 135.09375 134.652344 128.21875 131.632812 122.335938 C 129.972656 119.101562 130.113281 115.324219 132.007812 112.222656 C 133.902344 109.121094 137.203125 107.269531 140.835938 107.269531 L 203.214844 107.269531 C 204.875 111.25 208.800781 114.046875 213.382812 114.046875 C 219.46875 114.046875 224.398438 109.117188 224.398438 103.03125 C 224.398438 96.949219 219.46875 92.015625 213.382812 92.015625 " fill-opacity="1" fill-rule="nonzero"/></g><path fill="#ffffff" d="M 47.0625 150.652344 C 44.222656 150.652344 41.917969 148.347656 41.917969 145.507812 C 41.917969 142.664062 44.222656 140.363281 47.0625 140.363281 C 49.90625 140.363281 52.210938 142.664062 52.210938 145.507812 C 52.210938 148.347656 49.90625 150.652344 47.0625 150.652344 Z M 114.527344 141.269531 L 57.234375 141.269531 C 55.574219 137.289062 51.648438 134.492188 47.0625 134.492188 C 40.980469 134.492188 36.046875 139.421875 36.046875 145.507812 C 36.046875 151.589844 40.980469 156.523438 47.0625 156.523438 C 51.648438 156.523438 55.578125 153.722656 57.234375 149.742188 L 114.527344 149.742188 L 114.527344 141.269531 " fill-opacity="1" fill-rule="nonzero"/><path fill="#ffffff" d="M 11.015625 126.632812 C 8.175781 126.632812 5.871094 124.328125 5.871094 121.488281 C 5.871094 118.644531 8.175781 116.339844 11.015625 116.339844 C 13.859375 116.339844 16.160156 118.644531 16.160156 121.488281 C 16.160156 124.328125 13.859375 126.632812 11.015625 126.632812 Z M 95.960938 88.203125 C 96.375 87.527344 96.855469 86.914062 97.390625 86.363281 C 96.53125 84.019531 96.074219 81.503906 96.074219 78.902344 L 96.074219 76.894531 C 93.101562 78.441406 90.554688 80.792969 88.730469 83.785156 C 85.285156 89.425781 85.027344 96.300781 88.046875 102.183594 C 89.703125 105.417969 89.5625 109.195312 87.667969 112.296875 C 85.773438 115.398438 82.476562 117.25 78.84375 117.25 L 21.1875 117.25 C 19.527344 113.269531 15.597656 110.472656 11.015625 110.472656 C 4.933594 110.472656 0 115.402344 0 121.488281 C 0 127.570312 4.933594 132.503906 11.015625 132.503906 C 15.597656 132.503906 19.527344 129.703125 21.1875 125.722656 L 78.84375 125.722656 C 85.453125 125.722656 91.453125 122.355469 94.902344 116.714844 C 98.34375 111.074219 98.601562 104.195312 95.585938 98.316406 C 93.925781 95.082031 94.066406 91.304688 95.960938 88.203125 " fill-opacity="1" fill-rule="nonzero"/><path fill="#ffffff" d="M 177.335938 84.160156 C 174.492188 84.160156 172.191406 81.855469 172.191406 79.011719 C 172.191406 76.171875 174.492188 73.867188 177.335938 73.867188 C 180.175781 73.867188 182.480469 76.171875 182.480469 79.011719 C 182.480469 81.855469 180.175781 84.160156 177.335938 84.160156 Z M 177.335938 67.996094 C 172.753906 67.996094 168.824219 70.796875 167.164062 74.777344 L 109.875 74.777344 L 109.875 78.902344 C 109.875 80.492188 110.355469 81.996094 111.21875 83.25 L 167.164062 83.25 C 168.824219 87.230469 172.753906 90.027344 177.335938 90.027344 C 183.417969 90.027344 188.351562 85.097656 188.351562 79.011719 C 188.351562 72.929688 183.417969 67.996094 177.335938 67.996094 " fill-opacity="1" fill-rule="nonzero"/></g></g></g></g><g fill="#ffffff" fill-opacity="1"><g transform="translate(64.282104, 198.771126)"><g><path d="M 15.734375 -21.296875 L 15.734375 -17.140625 L 7.0625 -17.140625 L 7.0625 -12.640625 L 13.5625 -12.640625 L 13.5625 -8.609375 L 7.0625 -8.609375 L 7.0625 0 L 1.875 0 L 1.875 -21.296875 Z M 15.734375 -21.296875 "/></g></g></g><g fill="#ffffff" fill-opacity="1"><g transform="translate(80.869175, 198.771126)"><g><path d="M 0.84375 -8.484375 C 0.84375 -10.222656 1.171875 -11.75 1.828125 -13.0625 C 2.492188 -14.382812 3.390625 -15.398438 4.515625 -16.109375 C 5.648438 -16.816406 6.914062 -17.171875 8.3125 -17.171875 C 9.5 -17.171875 10.539062 -16.925781 11.4375 -16.4375 C 12.34375 -15.945312 13.039062 -15.3125 13.53125 -14.53125 L 13.53125 -16.921875 L 18.71875 -16.921875 L 18.71875 0 L 13.53125 0 L 13.53125 -2.390625 C 13.019531 -1.609375 12.3125 -0.972656 11.40625 -0.484375 C 10.507812 0.00390625 9.46875 0.25 8.28125 0.25 C 6.90625 0.25 5.648438 -0.109375 4.515625 -0.828125 C 3.390625 -1.546875 2.492188 -2.566406 1.828125 -3.890625 C 1.171875 -5.222656 0.84375 -6.753906 0.84375 -8.484375 Z M 13.53125 -8.46875 C 13.53125 -9.757812 13.171875 -10.773438 12.453125 -11.515625 C 11.734375 -12.265625 10.859375 -12.640625 9.828125 -12.640625 C 8.796875 -12.640625 7.921875 -12.269531 7.203125 -11.53125 C 6.484375 -10.800781 6.125 -9.785156 6.125 -8.484375 C 6.125 -7.191406 6.484375 -6.164062 7.203125 -5.40625 C 7.921875 -4.65625 8.796875 -4.28125 9.828125 -4.28125 C 10.859375 -4.28125 11.734375 -4.648438 12.453125 -5.390625 C 13.171875 -6.140625 13.53125 -7.164062 13.53125 -8.46875 Z M 13.53125 -8.46875 "/></g></g></g><g fill="#ffffff" fill-opacity="1"><g transform="translate(101.458971, 198.771126)"><g><path d="M 0.84375 -8.484375 C 0.84375 -10.222656 1.171875 -11.75 1.828125 -13.0625 C 2.492188 -14.382812 3.390625 -15.398438 4.515625 -16.109375 C 5.648438 -16.816406 6.914062 -17.171875 8.3125 -17.171875 C 9.5 -17.171875 10.539062 -16.925781 11.4375 -16.4375 C 12.34375 -15.945312 13.039062 -15.3125 13.53125 -14.53125 L 13.53125 -16.921875 L 18.71875 -16.921875 L 18.71875 0 L 13.53125 0 L 13.53125 -2.390625 C 13.019531 -1.609375 12.3125 -0.972656 11.40625 -0.484375 C 10.507812 0.00390625 9.46875 0.25 8.28125 0.25 C 6.90625 0.25 5.648438 -0.109375 4.515625 -0.828125 C 3.390625 -1.546875 2.492188 -2.566406 1.828125 -3.890625 C 1.171875 -5.222656 0.84375 -6.753906 0.84375 -8.484375 Z M 13.53125 -8.46875 C 13.53125 -9.757812 13.171875 -10.773438 12.453125 -11.515625 C 11.734375 -12.265625 10.859375 -12.640625 9.828125 -12.640625 C 8.796875 -12.640625 7.921875 -12.269531 7.203125 -11.53125 C 6.484375 -10.800781 6.125 -9.785156 6.125 -8.484375 C 6.125 -7.191406 6.484375 -6.164062 7.203125 -5.40625 C 7.921875 -4.65625 8.796875 -4.28125 9.828125 -4.28125 C 10.859375 -4.28125 11.734375 -4.648438 12.453125 -5.390625 C 13.171875 -6.140625 13.53125 -7.164062 13.53125 -8.46875 Z M 13.53125 -8.46875 "/></g></g></g><g fill="#ffffff" fill-opacity="1"><g transform="translate(122.048766, 198.771126)"><g><path d="M 12.21875 0 L 7.0625 -7.09375 L 7.0625 0 L 1.875 0 L 1.875 -22.4375 L 7.0625 -22.4375 L 7.0625 -10.03125 L 12.1875 -16.921875 L 18.59375 -16.921875 L 11.5625 -8.4375 L 18.65625 0 Z M 12.21875 0 "/></g></g></g><g fill="#ffffff" fill-opacity="1"><g transform="translate(140.788821, 198.771126)"><g><path d="M 9.578125 0.25 C 7.921875 0.25 6.429688 -0.101562 5.109375 -0.8125 C 3.785156 -1.519531 2.742188 -2.53125 1.984375 -3.84375 C 1.222656 -5.164062 0.84375 -6.707031 0.84375 -8.46875 C 0.84375 -10.195312 1.226562 -11.722656 2 -13.046875 C 2.769531 -14.378906 3.820312 -15.398438 5.15625 -16.109375 C 6.488281 -16.816406 7.984375 -17.171875 9.640625 -17.171875 C 11.296875 -17.171875 12.789062 -16.816406 14.125 -16.109375 C 15.46875 -15.398438 16.519531 -14.378906 17.28125 -13.046875 C 18.050781 -11.722656 18.4375 -10.195312 18.4375 -8.46875 C 18.4375 -6.726562 18.046875 -5.191406 17.265625 -3.859375 C 16.492188 -2.535156 15.4375 -1.519531 14.09375 -0.8125 C 12.75 -0.101562 11.242188 0.25 9.578125 0.25 Z M 9.578125 -4.25 C 10.566406 -4.25 11.410156 -4.609375 12.109375 -5.328125 C 12.804688 -6.054688 13.15625 -7.101562 13.15625 -8.46875 C 13.15625 -9.820312 12.816406 -10.859375 12.140625 -11.578125 C 11.460938 -12.304688 10.628906 -12.671875 9.640625 -12.671875 C 8.628906 -12.671875 7.789062 -12.3125 7.125 -11.59375 C 6.457031 -10.882812 6.125 -9.84375 6.125 -8.46875 C 6.125 -7.101562 6.453125 -6.054688 7.109375 -5.328125 C 7.765625 -4.609375 8.585938 -4.25 9.578125 -4.25 Z M 9.578125 -4.25 "/></g></g></g><g clip-path="url(#7e30058523)"><path fill="#ffffff" d="M 65.410156 76.640625 C 73.988281 76.640625 81.074219 69.765625 81.074219 61.214844 C 81.074219 52.667969 73.988281 45.601562 65.410156 45.601562 C 56.839844 45.601562 49.9375 52.667969 49.9375 61.214844 C 49.9375 69.765625 56.839844 76.640625 65.410156 76.640625 Z M 158.992188 76.640625 C 167.566406 76.640625 174.464844 69.765625 174.464844 61.214844 C 174.464844 52.667969 167.566406 45.601562 158.992188 45.601562 C 150.421875 45.601562 143.523438 52.667969 143.523438 61.214844 C 143.523438 69.765625 150.421875 76.640625 158.992188 76.640625 Z M 158.992188 69.019531 C 163.46875 69.019531 166.824219 65.492188 166.824219 61.214844 C 166.824219 56.941406 163.46875 53.40625 158.992188 53.40625 C 154.707031 53.40625 151.164062 56.941406 151.164062 61.214844 C 151.164062 65.492188 154.707031 69.019531 158.992188 69.019531 Z M 112.203125 48.582031 C 120.964844 48.582031 127.859375 41.511719 127.859375 32.96875 C 127.859375 24.601562 120.964844 17.546875 112.203125 17.546875 C 103.625 17.546875 96.730469 24.601562 96.730469 32.96875 C 96.730469 41.511719 103.625 48.582031 112.203125 48.582031 Z M 112.203125 40.773438 C 116.679688 40.773438 120.21875 37.425781 120.21875 32.96875 C 120.21875 28.6875 116.679688 25.160156 112.203125 25.160156 C 107.917969 25.160156 104.378906 28.691406 104.378906 32.96875 C 104.378906 37.425781 107.917969 40.773438 112.203125 40.773438 Z M 57.769531 109.90625 L 57.769531 99.5 C 57.769531 95.226562 61.308594 91.695312 65.601562 91.695312 C 69.886719 91.695312 73.242188 95.226562 73.242188 99.5 L 73.242188 112.507812 L 81.074219 112.507812 L 81.074219 99.5 C 81.074219 90.949219 73.988281 84.074219 65.601562 84.074219 C 57.023438 84.074219 49.9375 90.949219 49.9375 99.5 L 49.9375 113.625 C 49.9375 120.128906 55.160156 125.332031 61.683594 125.332031 L 73.242188 125.332031 L 73.242188 155.621094 C 73.242188 163.988281 80.324219 171.050781 88.90625 171.050781 C 97.476562 171.050781 104.378906 163.988281 104.378906 155.621094 L 104.378906 130.351562 L 96.730469 130.351562 L 96.730469 155.621094 C 96.730469 159.710938 93.191406 163.242188 88.90625 163.242188 C 84.613281 163.242188 81.074219 159.710938 81.074219 155.621094 L 81.074219 125.332031 L 120.035156 125.332031 L 120.035156 155.621094 C 120.035156 163.988281 127.117188 171.050781 135.691406 171.050781 C 144.078125 171.050781 151.164062 163.988281 151.164062 155.621094 L 151.164062 130.351562 L 143.332031 130.351562 L 143.332031 155.621094 C 143.332031 159.710938 139.976562 163.242188 135.691406 163.242188 C 131.40625 163.242188 127.859375 159.710938 127.859375 155.621094 L 127.859375 125.332031 L 162.90625 125.332031 C 169.25 125.332031 174.464844 120.128906 174.464844 113.625 L 174.464844 99.5 C 174.464844 90.949219 167.566406 84.074219 158.992188 84.074219 C 150.421875 84.074219 143.332031 90.949219 143.332031 99.5 L 143.332031 117.527344 L 104.378906 117.527344 L 104.378906 109.535156 L 104.378906 109.90625 L 104.378906 71.441406 C 104.378906 67.160156 107.917969 63.632812 112.203125 63.632812 C 116.679688 63.632812 120.035156 67.160156 120.035156 71.441406 L 120.035156 109.90625 L 120.035156 109.535156 L 120.035156 112.507812 L 127.859375 112.507812 L 127.859375 109.535156 L 127.859375 109.90625 L 127.859375 71.441406 C 127.859375 62.886719 120.78125 55.828125 112.203125 55.828125 C 103.625 55.828125 96.730469 62.886719 96.730469 71.441406 L 96.730469 109.90625 L 96.730469 109.535156 L 96.730469 117.527344 L 61.683594 117.527344 C 59.449219 117.527344 57.769531 115.667969 57.769531 113.625 Z M 151.164062 117.527344 L 151.164062 99.5 C 151.164062 95.226562 154.707031 91.695312 158.992188 91.695312 C 163.28125 91.695312 166.824219 95.226562 166.824219 99.5 L 166.824219 113.625 C 166.824219 115.667969 164.957031 117.527344 162.90625 117.527344 Z M 65.410156 69.019531 C 69.886719 69.019531 73.242188 65.492188 73.242188 61.214844 C 73.242188 56.941406 69.886719 53.40625 65.410156 53.40625 C 61.125 53.40625 57.585938 56.941406 57.585938 61.214844 C 57.585938 65.492188 61.125 69.019531 65.410156 69.019531 Z M 65.410156 69.019531 " fill-opacity="1" fill-rule="evenodd"/></g></svg>