<svg xmlns="http://www.w3.org/2000/svg" xmlns:xlink="http://www.w3.org/1999/xlink" width="176" zoomAndPan="magnify" viewBox="0 0 132 206.249992" height="275" preserveAspectRatio="xMidYMid meet" version="1.0"><defs><g/><clipPath id="40cb81c32e"><path d="M 3.808594 0 L 127.859375 0 L 127.859375 153.191406 L 3.808594 153.191406 Z M 3.808594 0 " clip-rule="nonzero"/></clipPath></defs><g fill="#242424" fill-opacity="1"><g transform="translate(18.117273, 180.664402)"><g><path d="M 15.6875 -21.21875 L 15.6875 -17.078125 L 7.046875 -17.078125 L 7.046875 -12.609375 L 13.515625 -12.609375 L 13.515625 -8.59375 L 7.046875 -8.59375 L 7.046875 0 L 1.875 0 L 1.875 -21.21875 Z M 15.6875 -21.21875 "/></g></g></g><g fill="#242424" fill-opacity="1"><g transform="translate(34.653066, 180.664402)"><g><path d="M 0.84375 -8.46875 C 0.84375 -10.195312 1.171875 -11.71875 1.828125 -13.03125 C 2.484375 -14.34375 3.375 -15.347656 4.5 -16.046875 C 5.632812 -16.753906 6.894531 -17.109375 8.28125 -17.109375 C 9.46875 -17.109375 10.507812 -16.863281 11.40625 -16.375 C 12.3125 -15.894531 13.003906 -15.265625 13.484375 -14.484375 L 13.484375 -16.875 L 18.65625 -16.875 L 18.65625 0 L 13.484375 0 L 13.484375 -2.390625 C 12.984375 -1.597656 12.28125 -0.960938 11.375 -0.484375 C 10.476562 -0.00390625 9.4375 0.234375 8.25 0.234375 C 6.882812 0.234375 5.632812 -0.117188 4.5 -0.828125 C 3.375 -1.546875 2.484375 -2.5625 1.828125 -3.875 C 1.171875 -5.195312 0.84375 -6.726562 0.84375 -8.46875 Z M 13.484375 -8.4375 C 13.484375 -9.726562 13.125 -10.742188 12.40625 -11.484375 C 11.695312 -12.234375 10.828125 -12.609375 9.796875 -12.609375 C 8.765625 -12.609375 7.890625 -12.238281 7.171875 -11.5 C 6.460938 -10.769531 6.109375 -9.757812 6.109375 -8.46875 C 6.109375 -7.175781 6.460938 -6.148438 7.171875 -5.390625 C 7.890625 -4.640625 8.765625 -4.265625 9.796875 -4.265625 C 10.828125 -4.265625 11.695312 -4.632812 12.40625 -5.375 C 13.125 -6.125 13.484375 -7.144531 13.484375 -8.4375 Z M 13.484375 -8.4375 "/></g></g></g><g fill="#242424" fill-opacity="1"><g transform="translate(55.179208, 180.664402)"><g><path d="M 0.84375 -8.46875 C 0.84375 -10.195312 1.171875 -11.71875 1.828125 -13.03125 C 2.484375 -14.34375 3.375 -15.347656 4.5 -16.046875 C 5.632812 -16.753906 6.894531 -17.109375 8.28125 -17.109375 C 9.46875 -17.109375 10.507812 -16.863281 11.40625 -16.375 C 12.3125 -15.894531 13.003906 -15.265625 13.484375 -14.484375 L 13.484375 -16.875 L 18.65625 -16.875 L 18.65625 0 L 13.484375 0 L 13.484375 -2.390625 C 12.984375 -1.597656 12.28125 -0.960938 11.375 -0.484375 C 10.476562 -0.00390625 9.4375 0.234375 8.25 0.234375 C 6.882812 0.234375 5.632812 -0.117188 4.5 -0.828125 C 3.375 -1.546875 2.484375 -2.5625 1.828125 -3.875 C 1.171875 -5.195312 0.84375 -6.726562 0.84375 -8.46875 Z M 13.484375 -8.4375 C 13.484375 -9.726562 13.125 -10.742188 12.40625 -11.484375 C 11.695312 -12.234375 10.828125 -12.609375 9.796875 -12.609375 C 8.765625 -12.609375 7.890625 -12.238281 7.171875 -11.5 C 6.460938 -10.769531 6.109375 -9.757812 6.109375 -8.46875 C 6.109375 -7.175781 6.460938 -6.148438 7.171875 -5.390625 C 7.890625 -4.640625 8.765625 -4.265625 9.796875 -4.265625 C 10.828125 -4.265625 11.695312 -4.632812 12.40625 -5.375 C 13.125 -6.125 13.484375 -7.144531 13.484375 -8.4375 Z M 13.484375 -8.4375 "/></g></g></g><g fill="#242424" fill-opacity="1"><g transform="translate(75.70535, 180.664402)"><g><path d="M 12.1875 0 L 7.046875 -7.078125 L 7.046875 0 L 1.875 0 L 1.875 -22.375 L 7.046875 -22.375 L 7.046875 -10 L 12.15625 -16.875 L 18.53125 -16.875 L 11.515625 -8.40625 L 18.59375 0 Z M 12.1875 0 "/></g></g></g><g fill="#242424" fill-opacity="1"><g transform="translate(94.38747, 180.664402)"><g><path d="M 9.546875 0.234375 C 7.898438 0.234375 6.414062 -0.113281 5.09375 -0.8125 C 3.769531 -1.519531 2.726562 -2.53125 1.96875 -3.84375 C 1.21875 -5.15625 0.84375 -6.6875 0.84375 -8.4375 C 0.84375 -10.164062 1.222656 -11.691406 1.984375 -13.015625 C 2.753906 -14.335938 3.804688 -15.347656 5.140625 -16.046875 C 6.472656 -16.753906 7.960938 -17.109375 9.609375 -17.109375 C 11.265625 -17.109375 12.753906 -16.753906 14.078125 -16.046875 C 15.410156 -15.347656 16.457031 -14.335938 17.21875 -13.015625 C 17.988281 -11.691406 18.375 -10.164062 18.375 -8.4375 C 18.375 -6.695312 17.984375 -5.164062 17.203125 -3.84375 C 16.429688 -2.53125 15.375 -1.519531 14.03125 -0.8125 C 12.695312 -0.113281 11.203125 0.234375 9.546875 0.234375 Z M 9.546875 -4.234375 C 10.535156 -4.234375 11.378906 -4.59375 12.078125 -5.3125 C 12.773438 -6.039062 13.125 -7.082031 13.125 -8.4375 C 13.125 -9.789062 12.785156 -10.828125 12.109375 -11.546875 C 11.429688 -12.273438 10.597656 -12.640625 9.609375 -12.640625 C 8.609375 -12.640625 7.773438 -12.28125 7.109375 -11.5625 C 6.441406 -10.84375 6.109375 -9.800781 6.109375 -8.4375 C 6.109375 -7.082031 6.4375 -6.039062 7.09375 -5.3125 C 7.75 -4.59375 8.566406 -4.234375 9.546875 -4.234375 Z M 9.546875 -4.234375 "/></g></g></g><g clip-path="url(#40cb81c32e)"><path fill="#4a3931" d="M 19.242188 58.914062 C 27.792969 58.914062 34.855469 52.058594 34.855469 43.53125 C 34.855469 35.015625 27.792969 27.96875 19.242188 27.96875 C 10.699219 27.96875 3.816406 35.011719 3.816406 43.53125 C 3.816406 52.058594 10.699219 58.914062 19.242188 58.914062 Z M 112.535156 58.914062 C 121.082031 58.914062 127.957031 52.058594 127.957031 43.53125 C 127.957031 35.015625 121.082031 27.96875 112.535156 27.96875 C 103.988281 27.96875 97.113281 35.015625 97.113281 43.53125 C 97.113281 52.058594 103.988281 58.914062 112.535156 58.914062 Z M 112.535156 51.316406 C 116.996094 51.316406 120.339844 47.796875 120.339844 43.53125 C 120.339844 39.273438 116.996094 35.75 112.535156 35.75 C 108.261719 35.75 104.730469 39.273438 104.730469 43.53125 C 104.730469 47.796875 108.261719 51.316406 112.535156 51.316406 Z M 65.890625 30.9375 C 74.625 30.9375 81.5 23.894531 81.5 15.375 C 81.5 7.03125 74.625 0 65.890625 0 C 57.339844 0 50.464844 7.03125 50.464844 15.375 C 50.464844 23.890625 57.339844 30.9375 65.890625 30.9375 Z M 65.890625 23.15625 C 70.351562 23.15625 73.882812 19.816406 73.882812 15.375 C 73.882812 11.109375 70.351562 7.59375 65.890625 7.59375 C 61.617188 7.59375 58.089844 11.109375 58.089844 15.375 C 58.089844 19.816406 61.617188 23.15625 65.890625 23.15625 Z M 11.625 92.074219 L 11.625 81.699219 C 11.625 77.441406 15.152344 73.917969 19.433594 73.917969 C 23.703125 73.917969 27.050781 77.441406 27.050781 81.699219 L 27.050781 94.667969 L 34.855469 94.667969 L 34.855469 81.699219 C 34.855469 73.175781 27.792969 66.320312 19.433594 66.320312 C 10.882812 66.320312 3.816406 73.175781 3.816406 81.699219 L 3.816406 95.78125 C 3.816406 102.265625 9.023438 107.453125 15.527344 107.453125 L 27.050781 107.453125 L 27.050781 137.648438 C 27.050781 145.988281 34.109375 153.027344 42.664062 153.027344 C 51.207031 153.027344 58.089844 145.988281 58.089844 137.648438 L 58.089844 112.453125 L 50.464844 112.453125 L 50.464844 137.648438 C 50.464844 141.722656 46.9375 145.246094 42.664062 145.246094 C 38.386719 145.246094 34.855469 141.722656 34.855469 137.648438 L 34.855469 107.453125 L 73.699219 107.453125 L 73.699219 137.648438 C 73.699219 145.988281 80.757812 153.027344 89.308594 153.027344 C 97.667969 153.027344 104.730469 145.988281 104.730469 137.648438 L 104.730469 112.453125 L 96.925781 112.453125 L 96.925781 137.648438 C 96.925781 141.722656 93.578125 145.246094 89.308594 145.246094 C 85.035156 145.246094 81.5 141.722656 81.5 137.648438 L 81.5 107.453125 L 116.4375 107.453125 C 122.757812 107.453125 127.957031 102.265625 127.957031 95.78125 L 127.957031 81.699219 C 127.957031 73.175781 121.082031 66.320312 112.535156 66.320312 C 103.988281 66.320312 96.925781 73.175781 96.925781 81.699219 L 96.925781 99.671875 L 58.089844 99.671875 L 58.089844 91.703125 L 58.089844 92.074219 L 58.089844 53.726562 C 58.089844 49.460938 61.617188 45.945312 65.890625 45.945312 C 70.351562 45.945312 73.699219 49.460938 73.699219 53.726562 L 73.699219 92.074219 L 73.699219 91.703125 L 73.699219 94.667969 L 81.5 94.667969 L 81.5 91.703125 L 81.5 92.074219 L 81.5 53.726562 C 81.5 45.203125 74.441406 38.164062 65.890625 38.164062 C 57.339844 38.164062 50.464844 45.203125 50.464844 53.726562 L 50.464844 92.074219 L 50.464844 91.703125 L 50.464844 99.671875 L 15.527344 99.671875 C 13.300781 99.671875 11.625 97.816406 11.625 95.78125 Z M 104.730469 99.671875 L 104.730469 81.699219 C 104.730469 77.441406 108.261719 73.917969 112.535156 73.917969 C 116.8125 73.917969 120.339844 77.441406 120.339844 81.699219 L 120.339844 95.78125 C 120.339844 97.816406 118.480469 99.671875 116.4375 99.671875 Z M 19.242188 51.316406 C 23.703125 51.316406 27.050781 47.796875 27.050781 43.53125 C 27.050781 39.273438 23.703125 35.75 19.242188 35.75 C 14.96875 35.75 11.441406 39.273438 11.441406 43.53125 C 11.441406 47.796875 14.96875 51.316406 19.242188 51.316406 Z M 19.242188 51.316406 " fill-opacity="1" fill-rule="evenodd"/></g></svg>