<svg xmlns="http://www.w3.org/2000/svg" xmlns:xlink="http://www.w3.org/1999/xlink" width="456" zoomAndPan="magnify" viewBox="0 0 342 152.249993" height="203" preserveAspectRatio="xMidYMid meet" version="1.0"><defs><filter x="0%" y="0%" width="100%" height="100%" id="9ea2b9bb3a"><feColorMatrix values="0 0 0 0 1 0 0 0 0 1 0 0 0 0 1 0 0 0 1 0" color-interpolation-filters="sRGB"/></filter><g/><clipPath id="abe744a21d"><path d="M 0.839844 0 L 333 0 L 333 151 L 0.839844 151 Z M 0.839844 0 " clip-rule="nonzero"/></clipPath><clipPath id="a61eed8cc4"><path d="M 0.839844 0 L 152 0 L 152 150.9375 L 0.839844 150.9375 Z M 0.839844 0 " clip-rule="nonzero"/></clipPath><mask id="7b957477c1"><g filter="url(#9ea2b9bb3a)"><rect x="-75.24" width="492.48" fill="#000000" y="-33.494999" height="219.23999" fill-opacity="0.1"/></g></mask><clipPath id="6fc61e03b4"><path d="M 54 81 L 90 81 L 90 150.621094 L 54 150.621094 Z M 54 81 " clip-rule="nonzero"/></clipPath><clipPath id="28048a7902"><path d="M 82 61 L 151.457031 61 L 151.457031 97 L 82 97 Z M 82 61 " clip-rule="nonzero"/></clipPath><clipPath id="b0751edbe6"><path d="M 0.839844 51 L 67 51 L 67 90 L 0.839844 90 Z M 0.839844 51 " clip-rule="nonzero"/></clipPath><clipPath id="666939fc3a"><rect x="0" width="152" y="0" height="151"/></clipPath><clipPath id="df8706aa9b"><path d="M 34.394531 11.75 L 118.015625 11.75 L 118.015625 115 L 34.394531 115 Z M 34.394531 11.75 " clip-rule="nonzero"/></clipPath><clipPath id="d73e2114fa"><path d="M 161 58 L 332.5625 58 L 332.5625 85 L 161 85 Z M 161 58 " clip-rule="nonzero"/></clipPath><clipPath id="a5f0a3b71d"><path d="M 162 8 L 171.5625 8 L 171.5625 20 L 162 20 Z M 162 8 " clip-rule="nonzero"/></clipPath><clipPath id="0b4b80b680"><rect x="0" width="172" y="0" height="27"/></clipPath><clipPath id="a738bb1807"><rect x="0" width="333" y="0" height="151"/></clipPath></defs><g clip-path="url(#abe744a21d)"><g transform="matrix(1, 0, 0, 1, 0.000000000000000222, -0.000000000000002535)"><g clip-path="url(#a738bb1807)"><g clip-path="url(#a61eed8cc4)"><g mask="url(#7b957477c1)"><g transform="matrix(1, 0, 0, 1, 0.000000000000000222, -0.000000000000002535)"><g clip-path="url(#666939fc3a)"><path fill="#242424" d="M 98.582031 122.628906 C 96.671875 122.628906 95.125 121.082031 95.125 119.171875 C 95.125 117.261719 96.671875 115.714844 98.582031 115.714844 C 100.492188 115.714844 102.039062 117.261719 102.039062 119.171875 C 102.039062 121.082031 100.492188 122.628906 98.582031 122.628906 Z M 101.429688 112.335938 L 101.429688 73.835938 L 95.734375 73.835938 L 95.734375 112.339844 C 93.058594 113.453125 91.179688 116.09375 91.179688 119.171875 C 91.179688 123.261719 94.492188 126.574219 98.582031 126.574219 C 102.671875 126.574219 105.984375 123.261719 105.984375 119.171875 C 105.984375 116.09375 104.101562 113.453125 101.429688 112.335938 " fill-opacity="1" fill-rule="nonzero"/><path fill="#242424" d="M 70.039062 10.859375 C 68.128906 10.859375 66.578125 9.3125 66.578125 7.402344 C 66.578125 5.496094 68.128906 3.945312 70.039062 3.945312 C 71.945312 3.945312 73.496094 5.496094 73.496094 7.402344 C 73.496094 9.3125 71.945312 10.859375 70.039062 10.859375 Z M 92.40625 64.488281 C 92.566406 64.585938 92.71875 64.691406 92.871094 64.800781 C 93.722656 64.644531 94.59375 64.5625 95.480469 64.5625 L 100.003906 64.5625 C 98.964844 62.566406 97.382812 60.855469 95.375 59.628906 C 91.585938 57.3125 86.960938 57.140625 83.007812 59.167969 C 80.835938 60.28125 78.296875 60.1875 76.214844 58.914062 C 74.128906 57.640625 72.886719 55.425781 72.886719 52.984375 L 72.886719 14.238281 C 75.5625 13.121094 77.441406 10.480469 77.441406 7.402344 C 77.441406 3.3125 74.125 0 70.039062 0 C 65.949219 0 62.632812 3.3125 62.632812 7.402344 C 62.632812 10.480469 64.515625 13.121094 67.191406 14.238281 L 67.191406 52.984375 C 67.191406 57.425781 69.453125 61.460938 73.246094 63.773438 C 77.035156 66.089844 81.65625 66.261719 85.609375 64.234375 C 87.78125 63.121094 90.320312 63.214844 92.40625 64.488281 " fill-opacity="1" fill-rule="nonzero"/><path fill="#242424" d="M 53.894531 28.171875 C 55.804688 28.171875 57.351562 29.71875 57.351562 31.628906 C 57.351562 33.539062 55.804688 35.085938 53.894531 35.085938 C 51.984375 35.085938 50.4375 33.539062 50.4375 31.628906 C 50.4375 29.71875 51.984375 28.171875 53.894531 28.171875 Z M 51.050781 38.464844 L 51.050781 76.964844 L 53.820312 76.964844 C 54.890625 76.964844 55.898438 76.640625 56.742188 76.058594 L 56.742188 38.460938 C 59.417969 37.347656 61.296875 34.707031 61.296875 31.628906 C 61.296875 27.539062 57.984375 24.226562 53.894531 24.226562 C 49.808594 24.226562 46.492188 27.539062 46.492188 31.628906 C 46.492188 34.707031 48.375 37.347656 51.050781 38.464844 " fill-opacity="1" fill-rule="nonzero"/><g clip-path="url(#6fc61e03b4)"><path fill="#242424" d="M 82.4375 146.855469 C 80.53125 146.855469 78.980469 145.308594 78.980469 143.398438 C 78.980469 141.488281 80.53125 139.941406 82.4375 139.941406 C 84.347656 139.941406 85.898438 141.488281 85.898438 143.398438 C 85.898438 145.308594 84.347656 146.855469 82.4375 146.855469 Z M 85.285156 136.5625 L 85.285156 94.644531 C 85.285156 90.203125 83.023438 86.167969 79.234375 83.851562 C 75.441406 81.539062 70.820312 81.367188 66.867188 83.394531 C 65.25 84.222656 63.429688 84.378906 61.746094 83.882812 C 59.699219 85.230469 57.320312 86.039062 54.800781 86.203125 C 55.484375 86.878906 56.253906 87.484375 57.101562 88 C 60.894531 90.316406 65.515625 90.488281 69.46875 88.460938 C 71.640625 87.34375 74.179688 87.4375 76.261719 88.714844 C 78.347656 89.984375 79.589844 92.203125 79.589844 94.644531 L 79.589844 136.5625 C 76.917969 137.679688 75.035156 140.316406 75.035156 143.398438 C 75.035156 147.488281 78.351562 150.800781 82.4375 150.800781 C 86.527344 150.800781 89.84375 147.488281 89.84375 143.398438 C 89.84375 140.316406 87.960938 137.675781 85.285156 136.5625 " fill-opacity="1" fill-rule="nonzero"/></g><g clip-path="url(#28048a7902)"><path fill="#242424" d="M 144.234375 72.65625 C 142.324219 72.65625 140.777344 71.109375 140.777344 69.199219 C 140.777344 67.289062 142.324219 65.742188 144.234375 65.742188 C 146.144531 65.742188 147.691406 67.289062 147.691406 69.199219 C 147.691406 71.109375 146.144531 72.65625 144.234375 72.65625 Z M 144.234375 61.796875 C 141.15625 61.796875 138.515625 63.675781 137.398438 66.351562 L 95.480469 66.351562 C 91.039062 66.351562 87.007812 68.617188 84.691406 72.40625 C 82.375 76.195312 82.203125 80.820312 84.230469 84.769531 C 84.609375 85.503906 84.84375 86.285156 84.945312 87.070312 C 86.320312 89.300781 87.074219 91.90625 87.074219 94.644531 L 87.074219 96.804688 C 87.738281 96.128906 88.328125 95.371094 88.835938 94.535156 C 91.152344 90.746094 91.324219 86.125 89.296875 82.171875 C 88.183594 80 88.277344 77.457031 89.550781 75.375 C 90.824219 73.292969 93.042969 72.046875 95.480469 72.046875 L 137.402344 72.046875 C 138.515625 74.722656 141.15625 76.601562 144.234375 76.601562 C 148.324219 76.601562 151.636719 73.289062 151.636719 69.199219 C 151.636719 65.109375 148.324219 61.796875 144.234375 61.796875 " fill-opacity="1" fill-rule="nonzero"/></g><path fill="#242424" d="M 32.464844 101.199219 C 30.558594 101.199219 29.007812 99.652344 29.007812 97.742188 C 29.007812 95.832031 30.558594 94.285156 32.464844 94.285156 C 34.375 94.285156 35.925781 95.832031 35.925781 97.742188 C 35.925781 99.652344 34.375 101.199219 32.464844 101.199219 Z M 77.800781 94.894531 L 39.300781 94.894531 C 38.183594 92.21875 35.546875 90.339844 32.464844 90.339844 C 28.378906 90.339844 25.0625 93.652344 25.0625 97.742188 C 25.0625 101.832031 28.378906 105.144531 32.464844 105.144531 C 35.546875 105.144531 38.1875 103.265625 39.300781 100.589844 L 77.800781 100.589844 L 77.800781 94.894531 " fill-opacity="1" fill-rule="nonzero"/><g clip-path="url(#b0751edbe6)"><path fill="#242424" d="M 8.242188 85.058594 C 6.332031 85.058594 4.785156 83.511719 4.785156 81.601562 C 4.785156 79.691406 6.332031 78.144531 8.242188 78.144531 C 10.152344 78.144531 11.699219 79.691406 11.699219 81.601562 C 11.699219 83.511719 10.152344 85.058594 8.242188 85.058594 Z M 65.324219 59.234375 C 65.601562 58.777344 65.925781 58.367188 66.289062 57.996094 C 65.707031 56.421875 65.402344 54.730469 65.402344 52.984375 L 65.402344 51.632812 C 63.402344 52.675781 61.691406 54.253906 60.464844 56.265625 C 58.148438 60.054688 57.980469 64.675781 60.007812 68.628906 C 61.121094 70.800781 61.027344 73.339844 59.753906 75.425781 C 58.480469 77.507812 56.261719 78.753906 53.820312 78.753906 L 15.074219 78.753906 C 13.960938 76.078125 11.320312 74.199219 8.242188 74.199219 C 4.152344 74.199219 0.839844 77.511719 0.839844 81.601562 C 0.839844 85.691406 4.152344 89.003906 8.242188 89.003906 C 11.320312 89.003906 13.960938 87.121094 15.078125 84.449219 L 53.820312 84.449219 C 58.261719 84.449219 62.296875 82.183594 64.613281 78.394531 C 66.929688 74.601562 67.101562 69.980469 65.074219 66.03125 C 63.957031 63.855469 64.050781 61.316406 65.324219 59.234375 " fill-opacity="1" fill-rule="nonzero"/></g><path fill="#242424" d="M 120.011719 56.515625 C 118.101562 56.515625 116.550781 54.96875 116.550781 53.058594 C 116.550781 51.148438 118.101562 49.597656 120.011719 49.597656 C 121.921875 49.597656 123.46875 51.148438 123.46875 53.058594 C 123.46875 54.96875 121.921875 56.515625 120.011719 56.515625 Z M 120.011719 45.65625 C 116.929688 45.65625 114.289062 47.535156 113.175781 50.210938 L 74.675781 50.210938 L 74.675781 52.984375 C 74.675781 54.050781 75 55.0625 75.578125 55.90625 L 113.175781 55.90625 C 114.292969 58.582031 116.929688 60.460938 120.011719 60.460938 C 124.097656 60.460938 127.414062 57.144531 127.414062 53.058594 C 127.414062 48.96875 124.097656 45.65625 120.011719 45.65625 " fill-opacity="1" fill-rule="nonzero"/></g></g></g></g><g fill="#242424" fill-opacity="1"><g transform="translate(44.036895, 133.537204)"><g><path d="M 10.578125 -14.296875 L 10.578125 -11.515625 L 4.75 -11.515625 L 4.75 -8.5 L 9.109375 -8.5 L 9.109375 -5.78125 L 4.75 -5.78125 L 4.75 0 L 1.265625 0 L 1.265625 -14.296875 Z M 10.578125 -14.296875 "/></g></g></g><g fill="#242424" fill-opacity="1"><g transform="translate(55.183685, 133.537204)"><g><path d="M 0.578125 -5.703125 C 0.578125 -6.867188 0.796875 -7.894531 1.234375 -8.78125 C 1.671875 -9.664062 2.269531 -10.34375 3.03125 -10.8125 C 3.789062 -11.289062 4.640625 -11.53125 5.578125 -11.53125 C 6.378906 -11.53125 7.082031 -11.363281 7.6875 -11.03125 C 8.289062 -10.707031 8.757812 -10.285156 9.09375 -9.765625 L 9.09375 -11.375 L 12.578125 -11.375 L 12.578125 0 L 9.09375 0 L 9.09375 -1.609375 C 8.75 -1.078125 8.273438 -0.648438 7.671875 -0.328125 C 7.066406 -0.00390625 6.363281 0.15625 5.5625 0.15625 C 4.632812 0.15625 3.789062 -0.0820312 3.03125 -0.5625 C 2.269531 -1.039062 1.671875 -1.722656 1.234375 -2.609375 C 0.796875 -3.503906 0.578125 -4.535156 0.578125 -5.703125 Z M 9.09375 -5.6875 C 9.09375 -6.550781 8.847656 -7.234375 8.359375 -7.734375 C 7.878906 -8.242188 7.289062 -8.5 6.59375 -8.5 C 5.90625 -8.5 5.316406 -8.25 4.828125 -7.75 C 4.347656 -7.257812 4.109375 -6.578125 4.109375 -5.703125 C 4.109375 -4.835938 4.347656 -4.148438 4.828125 -3.640625 C 5.316406 -3.128906 5.90625 -2.875 6.59375 -2.875 C 7.289062 -2.875 7.878906 -3.125 8.359375 -3.625 C 8.847656 -4.125 9.09375 -4.8125 9.09375 -5.6875 Z M 9.09375 -5.6875 "/></g></g></g><g fill="#242424" fill-opacity="1"><g transform="translate(69.020373, 133.537204)"><g><path d="M 0.578125 -5.703125 C 0.578125 -6.867188 0.796875 -7.894531 1.234375 -8.78125 C 1.671875 -9.664062 2.269531 -10.34375 3.03125 -10.8125 C 3.789062 -11.289062 4.640625 -11.53125 5.578125 -11.53125 C 6.378906 -11.53125 7.082031 -11.363281 7.6875 -11.03125 C 8.289062 -10.707031 8.757812 -10.285156 9.09375 -9.765625 L 9.09375 -11.375 L 12.578125 -11.375 L 12.578125 0 L 9.09375 0 L 9.09375 -1.609375 C 8.75 -1.078125 8.273438 -0.648438 7.671875 -0.328125 C 7.066406 -0.00390625 6.363281 0.15625 5.5625 0.15625 C 4.632812 0.15625 3.789062 -0.0820312 3.03125 -0.5625 C 2.269531 -1.039062 1.671875 -1.722656 1.234375 -2.609375 C 0.796875 -3.503906 0.578125 -4.535156 0.578125 -5.703125 Z M 9.09375 -5.6875 C 9.09375 -6.550781 8.847656 -7.234375 8.359375 -7.734375 C 7.878906 -8.242188 7.289062 -8.5 6.59375 -8.5 C 5.90625 -8.5 5.316406 -8.25 4.828125 -7.75 C 4.347656 -7.257812 4.109375 -6.578125 4.109375 -5.703125 C 4.109375 -4.835938 4.347656 -4.148438 4.828125 -3.640625 C 5.316406 -3.128906 5.90625 -2.875 6.59375 -2.875 C 7.289062 -2.875 7.878906 -3.125 8.359375 -3.625 C 8.847656 -4.125 9.09375 -4.8125 9.09375 -5.6875 Z M 9.09375 -5.6875 "/></g></g></g><g fill="#242424" fill-opacity="1"><g transform="translate(82.857061, 133.537204)"><g><path d="M 8.21875 0 L 4.75 -4.765625 L 4.75 0 L 1.265625 0 L 1.265625 -15.078125 L 4.75 -15.078125 L 4.75 -6.75 L 8.1875 -11.375 L 12.484375 -11.375 L 7.765625 -5.671875 L 12.53125 0 Z M 8.21875 0 "/></g></g></g><g fill="#242424" fill-opacity="1"><g transform="translate(95.450693, 133.537204)"><g><path d="M 6.4375 0.15625 C 5.320312 0.15625 4.316406 -0.078125 3.421875 -0.546875 C 2.535156 -1.023438 1.835938 -1.703125 1.328125 -2.578125 C 0.828125 -3.460938 0.578125 -4.5 0.578125 -5.6875 C 0.578125 -6.851562 0.832031 -7.878906 1.34375 -8.765625 C 1.863281 -9.660156 2.570312 -10.34375 3.46875 -10.8125 C 4.363281 -11.289062 5.367188 -11.53125 6.484375 -11.53125 C 7.597656 -11.53125 8.601562 -11.289062 9.5 -10.8125 C 10.394531 -10.34375 11.097656 -9.660156 11.609375 -8.765625 C 12.128906 -7.878906 12.390625 -6.851562 12.390625 -5.6875 C 12.390625 -4.519531 12.125 -3.488281 11.59375 -2.59375 C 11.070312 -1.707031 10.359375 -1.023438 9.453125 -0.546875 C 8.554688 -0.078125 7.550781 0.15625 6.4375 0.15625 Z M 6.4375 -2.859375 C 7.101562 -2.859375 7.671875 -3.097656 8.140625 -3.578125 C 8.609375 -4.066406 8.84375 -4.769531 8.84375 -5.6875 C 8.84375 -6.59375 8.613281 -7.289062 8.15625 -7.78125 C 7.707031 -8.269531 7.148438 -8.515625 6.484375 -8.515625 C 5.796875 -8.515625 5.226562 -8.269531 4.78125 -7.78125 C 4.332031 -7.300781 4.109375 -6.601562 4.109375 -5.6875 C 4.109375 -4.769531 4.328125 -4.066406 4.765625 -3.578125 C 5.210938 -3.097656 5.769531 -2.859375 6.4375 -2.859375 Z M 6.4375 -2.859375 "/></g></g></g><g clip-path="url(#df8706aa9b)"><path fill="#4a3931" d="M 44.792969 51.464844 C 50.558594 51.464844 55.320312 46.84375 55.320312 41.097656 C 55.320312 35.355469 50.558594 30.605469 44.792969 30.605469 C 39.035156 30.605469 34.398438 35.355469 34.398438 41.097656 C 34.398438 46.84375 39.035156 51.464844 44.792969 51.464844 Z M 107.683594 51.464844 C 113.445312 51.464844 118.082031 46.84375 118.082031 41.097656 C 118.082031 35.355469 113.445312 30.605469 107.683594 30.605469 C 101.921875 30.605469 97.289062 35.355469 97.289062 41.097656 C 97.289062 46.84375 101.921875 51.464844 107.683594 51.464844 Z M 107.683594 46.34375 C 110.691406 46.34375 112.945312 43.972656 112.945312 41.097656 C 112.945312 38.226562 110.691406 35.851562 107.683594 35.851562 C 104.804688 35.851562 102.425781 38.226562 102.425781 41.097656 C 102.425781 43.972656 104.804688 46.34375 107.683594 46.34375 Z M 76.242188 32.605469 C 82.128906 32.605469 86.761719 27.855469 86.761719 22.113281 C 86.761719 16.492188 82.128906 11.75 76.242188 11.75 C 70.476562 11.75 65.84375 16.492188 65.84375 22.113281 C 65.84375 27.855469 70.476562 32.605469 76.242188 32.605469 Z M 76.242188 27.359375 C 79.25 27.359375 81.628906 25.109375 81.628906 22.113281 C 81.628906 19.238281 79.25 16.867188 76.242188 16.867188 C 73.359375 16.867188 70.980469 19.238281 70.980469 22.113281 C 70.980469 25.109375 73.359375 27.359375 76.242188 27.359375 Z M 39.660156 73.816406 L 39.660156 66.824219 C 39.660156 63.953125 42.039062 61.578125 44.921875 61.578125 C 47.804688 61.578125 50.058594 63.953125 50.058594 66.824219 L 50.058594 75.566406 L 55.320312 75.566406 L 55.320312 66.824219 C 55.320312 61.078125 50.558594 56.457031 44.921875 56.457031 C 39.160156 56.457031 34.398438 61.078125 34.398438 66.824219 L 34.398438 76.316406 C 34.398438 80.6875 37.90625 84.183594 42.292969 84.183594 L 50.058594 84.183594 L 50.058594 104.539062 C 50.058594 110.164062 54.816406 114.910156 60.585938 114.910156 C 66.34375 114.910156 70.980469 110.164062 70.980469 104.539062 L 70.980469 87.558594 L 65.84375 87.558594 L 65.84375 104.539062 C 65.84375 107.289062 63.464844 109.664062 60.585938 109.664062 C 57.699219 109.664062 55.320312 107.289062 55.320312 104.539062 L 55.320312 84.183594 L 81.503906 84.183594 L 81.503906 104.539062 C 81.503906 110.164062 86.261719 114.910156 92.027344 114.910156 C 97.660156 114.910156 102.425781 110.164062 102.425781 104.539062 L 102.425781 87.558594 L 97.160156 87.558594 L 97.160156 104.539062 C 97.160156 107.289062 94.90625 109.664062 92.027344 109.664062 C 89.144531 109.664062 86.761719 107.289062 86.761719 104.539062 L 86.761719 84.183594 L 110.3125 84.183594 C 114.578125 84.183594 118.082031 80.6875 118.082031 76.316406 L 118.082031 66.824219 C 118.082031 61.078125 113.445312 56.457031 107.683594 56.457031 C 101.921875 56.457031 97.160156 61.078125 97.160156 66.824219 L 97.160156 78.9375 L 70.980469 78.9375 L 70.980469 73.570312 L 70.980469 73.816406 L 70.980469 47.96875 C 70.980469 45.09375 73.359375 42.722656 76.242188 42.722656 C 79.25 42.722656 81.503906 45.09375 81.503906 47.96875 L 81.503906 73.816406 L 81.503906 73.570312 L 81.503906 75.566406 L 86.761719 75.566406 L 86.761719 73.570312 L 86.761719 73.816406 L 86.761719 47.96875 C 86.761719 42.222656 82.003906 37.476562 76.242188 37.476562 C 70.476562 37.476562 65.84375 42.222656 65.84375 47.96875 L 65.84375 73.816406 L 65.84375 73.570312 L 65.84375 78.9375 L 42.292969 78.9375 C 40.789062 78.9375 39.660156 77.691406 39.660156 76.316406 Z M 102.425781 78.9375 L 102.425781 66.824219 C 102.425781 63.953125 104.804688 61.578125 107.683594 61.578125 C 110.566406 61.578125 112.945312 63.953125 112.945312 66.824219 L 112.945312 76.316406 C 112.945312 77.691406 111.691406 78.941406 110.3125 78.941406 L 102.425781 78.941406 Z M 44.792969 46.34375 C 47.804688 46.34375 50.058594 43.972656 50.058594 41.097656 C 50.058594 38.226562 47.804688 35.851562 44.792969 35.851562 C 41.914062 35.851562 39.535156 38.226562 39.535156 41.097656 C 39.535156 43.972656 41.914062 46.34375 44.792969 46.34375 Z M 44.792969 46.34375 " fill-opacity="1" fill-rule="evenodd"/></g><g clip-path="url(#d73e2114fa)"><g transform="matrix(1, 0, 0, 1, 161, 58)"><g clip-path="url(#0b4b80b680)"><g fill="#242424" fill-opacity="1"><g transform="translate(0.946617, 19.668619)"><g><path d="M 5.671875 -7.203125 C 5.671875 -7.203125 5.632812 -7.253906 5.5625 -7.359375 C 5.5 -7.460938 5.378906 -7.582031 5.203125 -7.71875 C 5.023438 -7.851562 4.773438 -7.972656 4.453125 -8.078125 C 4.128906 -8.179688 3.710938 -8.234375 3.203125 -8.234375 L 1.9375 -8.234375 L 1.9375 -1.4375 C 1.9375 -1.195312 1.953125 -0.992188 1.984375 -0.828125 C 2.015625 -0.660156 2.050781 -0.519531 2.09375 -0.40625 L 4.578125 -0.40625 C 5.546875 -0.40625 6.351562 -0.457031 7 -0.5625 C 7.644531 -0.675781 8.164062 -0.804688 8.5625 -0.953125 C 8.957031 -1.109375 9.253906 -1.257812 9.453125 -1.40625 C 9.648438 -1.5625 9.785156 -1.691406 9.859375 -1.796875 C 9.929688 -1.910156 9.96875 -1.96875 9.96875 -1.96875 L 9.546875 -0.015625 L 0.25 -0.015625 C 0.25 -0.015625 0.285156 -0.046875 0.359375 -0.109375 C 0.429688 -0.179688 0.503906 -0.316406 0.578125 -0.515625 C 0.648438 -0.722656 0.6875 -1.03125 0.6875 -1.4375 L 0.6875 -13.375 C 0.6875 -13.789062 0.648438 -14.09375 0.578125 -14.28125 C 0.503906 -14.46875 0.429688 -14.59375 0.359375 -14.65625 C 0.285156 -14.71875 0.25 -14.75 0.25 -14.75 L 9.546875 -14.75 L 9.96875 -12.78125 C 9.96875 -12.78125 9.929688 -12.832031 9.859375 -12.9375 C 9.785156 -13.039062 9.648438 -13.171875 9.453125 -13.328125 C 9.253906 -13.484375 8.957031 -13.632812 8.5625 -13.78125 C 8.164062 -13.9375 7.644531 -14.066406 7 -14.171875 C 6.351562 -14.273438 5.546875 -14.328125 4.578125 -14.328125 L 2.0625 -14.328125 C 2.03125 -14.234375 2 -14.109375 1.96875 -13.953125 C 1.945312 -13.796875 1.9375 -13.609375 1.9375 -13.390625 L 1.9375 -8.578125 L 3.203125 -8.578125 C 3.710938 -8.578125 4.128906 -8.628906 4.453125 -8.734375 C 4.773438 -8.847656 5.023438 -8.96875 5.203125 -9.09375 C 5.378906 -9.226562 5.5 -9.347656 5.5625 -9.453125 C 5.632812 -9.566406 5.671875 -9.625 5.671875 -9.625 Z M 5.671875 -7.203125 "/></g></g></g><g fill="#242424" fill-opacity="1"><g transform="translate(10.340639, 19.668619)"><g><path d="M 5 0 L 1.25 -9.5625 C 1.09375 -9.96875 0.9375 -10.273438 0.78125 -10.484375 C 0.632812 -10.691406 0.507812 -10.828125 0.40625 -10.890625 C 0.300781 -10.960938 0.25 -11 0.25 -11 L 2.359375 -11 C 2.359375 -11 2.34375 -10.976562 2.3125 -10.9375 C 2.289062 -10.90625 2.269531 -10.835938 2.25 -10.734375 C 2.238281 -10.640625 2.25 -10.5 2.28125 -10.3125 C 2.3125 -10.125 2.382812 -9.875 2.5 -9.5625 L 5.5 -1.890625 L 8.515625 -9.5625 C 8.628906 -9.875 8.703125 -10.125 8.734375 -10.3125 C 8.765625 -10.5 8.769531 -10.640625 8.75 -10.734375 C 8.738281 -10.835938 8.71875 -10.90625 8.6875 -10.9375 C 8.65625 -10.976562 8.640625 -11 8.640625 -11 L 9.734375 -11 C 9.734375 -11 9.679688 -10.960938 9.578125 -10.890625 C 9.484375 -10.828125 9.359375 -10.691406 9.203125 -10.484375 C 9.054688 -10.273438 8.898438 -9.96875 8.734375 -9.5625 Z M 5 0 "/></g></g></g><g fill="#242424" fill-opacity="1"><g transform="translate(19.508532, 19.668619)"><g><path d="M 1.546875 -5.75 C 1.554688 -4.914062 1.675781 -4.195312 1.90625 -3.59375 C 2.144531 -2.988281 2.457031 -2.484375 2.84375 -2.078125 C 3.238281 -1.679688 3.679688 -1.367188 4.171875 -1.140625 C 4.671875 -0.921875 5.1875 -0.78125 5.71875 -0.71875 C 6.25 -0.664062 6.769531 -0.6875 7.28125 -0.78125 C 7.789062 -0.875 8.257812 -1.023438 8.6875 -1.234375 C 9.113281 -1.453125 9.472656 -1.722656 9.765625 -2.046875 C 10.054688 -2.378906 10.25 -2.753906 10.34375 -3.171875 C 10.300781 -2.753906 10.160156 -2.359375 9.921875 -1.984375 C 9.691406 -1.609375 9.378906 -1.269531 8.984375 -0.96875 C 8.597656 -0.664062 8.15625 -0.425781 7.65625 -0.25 C 7.15625 -0.0703125 6.613281 0.015625 6.03125 0.015625 C 5.144531 0.015625 4.347656 -0.132812 3.640625 -0.4375 C 2.929688 -0.75 2.320312 -1.171875 1.8125 -1.703125 C 1.3125 -2.234375 0.925781 -2.835938 0.65625 -3.515625 C 0.382812 -4.203125 0.25 -4.929688 0.25 -5.703125 C 0.25 -6.460938 0.390625 -7.160156 0.671875 -7.796875 C 0.960938 -8.441406 1.351562 -9.003906 1.84375 -9.484375 C 2.34375 -9.960938 2.914062 -10.332031 3.5625 -10.59375 C 4.21875 -10.863281 4.910156 -11 5.640625 -11 C 6.367188 -11 7.039062 -10.90625 7.65625 -10.71875 C 8.269531 -10.53125 8.800781 -10.234375 9.25 -9.828125 C 9.695312 -9.421875 10.046875 -8.890625 10.296875 -8.234375 C 10.546875 -7.585938 10.671875 -6.800781 10.671875 -5.875 L 1.546875 -5.875 Z M 5.640625 -10.53125 C 5.117188 -10.53125 4.617188 -10.421875 4.140625 -10.203125 C 3.671875 -9.992188 3.25 -9.695312 2.875 -9.3125 C 2.507812 -8.925781 2.207031 -8.46875 1.96875 -7.9375 C 1.738281 -7.40625 1.601562 -6.828125 1.5625 -6.203125 L 9.5 -6.203125 C 9.5 -6.816406 9.421875 -7.382812 9.265625 -7.90625 C 9.117188 -8.4375 8.890625 -8.894531 8.578125 -9.28125 C 8.265625 -9.675781 7.863281 -9.984375 7.375 -10.203125 C 6.894531 -10.421875 6.316406 -10.53125 5.640625 -10.53125 Z M 5.640625 -10.53125 "/></g></g></g><g fill="#242424" fill-opacity="1"><g transform="translate(30.640365, 19.668619)"><g><path d="M 2 -7.921875 C 2.019531 -8.492188 2.140625 -8.984375 2.359375 -9.390625 C 2.578125 -9.796875 2.863281 -10.125 3.21875 -10.375 C 3.570312 -10.625 3.957031 -10.796875 4.375 -10.890625 C 4.789062 -10.992188 5.21875 -11.019531 5.65625 -10.96875 C 6.09375 -10.925781 6.503906 -10.8125 6.890625 -10.625 C 7.285156 -10.445312 7.625 -10.203125 7.90625 -9.890625 C 8.195312 -9.578125 8.394531 -9.203125 8.5 -8.765625 L 7.390625 -8.5 C 7.253906 -8.976562 7.039062 -9.363281 6.75 -9.65625 C 6.46875 -9.957031 6.140625 -10.171875 5.765625 -10.296875 C 5.398438 -10.421875 5.015625 -10.457031 4.609375 -10.40625 C 4.210938 -10.363281 3.832031 -10.238281 3.46875 -10.03125 C 3.113281 -9.820312 2.804688 -9.539062 2.546875 -9.1875 C 2.285156 -8.84375 2.101562 -8.421875 2 -7.921875 Z M 0.25 0 C 0.25 0 0.285156 -0.0234375 0.359375 -0.078125 C 0.429688 -0.140625 0.503906 -0.269531 0.578125 -0.46875 C 0.648438 -0.664062 0.6875 -0.96875 0.6875 -1.375 L 0.6875 -8.9375 C 0.6875 -9.34375 0.648438 -9.644531 0.578125 -9.84375 C 0.503906 -10.050781 0.429688 -10.1875 0.359375 -10.25 C 0.285156 -10.320312 0.25 -10.359375 0.25 -10.359375 L 1.9375 -11.015625 L 1.9375 -1.359375 C 1.9375 -0.953125 1.972656 -0.648438 2.046875 -0.453125 C 2.117188 -0.265625 2.1875 -0.140625 2.25 -0.078125 C 2.320312 -0.0234375 2.359375 0 2.359375 0 Z M 0.25 0 "/></g></g></g><g fill="#242424" fill-opacity="1"><g transform="translate(39.603397, 19.668619)"><g><path d="M 1.9375 -3.109375 C 1.9375 -2.597656 2.023438 -2.160156 2.203125 -1.796875 C 2.390625 -1.429688 2.628906 -1.140625 2.921875 -0.921875 C 3.222656 -0.703125 3.5625 -0.550781 3.9375 -0.46875 C 4.320312 -0.394531 4.710938 -0.394531 5.109375 -0.46875 C 5.503906 -0.539062 5.882812 -0.6875 6.25 -0.90625 C 6.613281 -1.125 6.9375 -1.414062 7.21875 -1.78125 C 7.507812 -2.144531 7.722656 -2.582031 7.859375 -3.09375 C 7.765625 -2.4375 7.566406 -1.890625 7.265625 -1.453125 C 6.960938 -1.015625 6.59375 -0.679688 6.15625 -0.453125 C 5.71875 -0.222656 5.25 -0.0820312 4.75 -0.03125 C 4.257812 0.0195312 3.773438 -0.00390625 3.296875 -0.109375 C 2.816406 -0.222656 2.378906 -0.40625 1.984375 -0.65625 C 1.585938 -0.90625 1.269531 -1.21875 1.03125 -1.59375 C 0.800781 -1.96875 0.6875 -2.394531 0.6875 -2.875 L 0.6875 -9 C 0.6875 -9.414062 0.648438 -9.71875 0.578125 -9.90625 C 0.503906 -10.101562 0.429688 -10.226562 0.359375 -10.28125 C 0.285156 -10.332031 0.25 -10.359375 0.25 -10.359375 L 1.9375 -11.015625 C 1.9375 -11.015625 1.9375 -10.945312 1.9375 -10.8125 C 1.9375 -10.6875 1.9375 -10.457031 1.9375 -10.125 C 1.9375 -9.789062 1.9375 -9.320312 1.9375 -8.71875 C 1.9375 -8.125 1.9375 -7.367188 1.9375 -6.453125 C 1.9375 -5.535156 1.9375 -4.421875 1.9375 -3.109375 Z M 9.1875 -11.015625 L 9.1875 -1.0625 C 9.1875 -0.695312 9.175781 -0.316406 9.15625 0.078125 C 9.132812 0.472656 9.082031 0.863281 9 1.25 C 8.925781 1.632812 8.796875 2 8.609375 2.34375 C 8.421875 2.6875 8.164062 2.988281 7.84375 3.25 C 7.53125 3.519531 7.125 3.726562 6.625 3.875 C 6.132812 4.03125 5.535156 4.109375 4.828125 4.109375 C 4.222656 4.109375 3.6875 4.007812 3.21875 3.8125 C 2.757812 3.613281 2.367188 3.351562 2.046875 3.03125 C 1.734375 2.707031 1.492188 2.359375 1.328125 1.984375 C 1.171875 1.609375 1.09375 1.253906 1.09375 0.921875 C 1.09375 0.921875 1.113281 0.984375 1.15625 1.109375 C 1.195312 1.234375 1.265625 1.394531 1.359375 1.59375 C 1.460938 1.789062 1.601562 2 1.78125 2.21875 C 1.96875 2.4375 2.195312 2.644531 2.46875 2.84375 C 2.75 3.039062 3.082031 3.203125 3.46875 3.328125 C 3.863281 3.460938 4.320312 3.53125 4.84375 3.53125 C 5.363281 3.53125 5.800781 3.453125 6.15625 3.296875 C 6.507812 3.140625 6.800781 2.929688 7.03125 2.671875 C 7.257812 2.421875 7.4375 2.132812 7.5625 1.8125 C 7.6875 1.488281 7.773438 1.148438 7.828125 0.796875 C 7.878906 0.453125 7.910156 0.117188 7.921875 -0.203125 C 7.929688 -0.523438 7.9375 -0.8125 7.9375 -1.0625 L 7.9375 -8.953125 C 7.9375 -9.359375 7.898438 -9.660156 7.828125 -9.859375 C 7.753906 -10.054688 7.679688 -10.1875 7.609375 -10.25 C 7.535156 -10.320312 7.5 -10.359375 7.5 -10.359375 Z M 9.1875 -11.015625 "/></g></g></g><g fill="#242424" fill-opacity="1"><g transform="translate(49.255098, 19.668619)"><g><path d="M 2.984375 -11 L 4.796875 -11 L 4.796875 -10.65625 L 2.984375 -10.65625 L 3 -1.609375 C 2.988281 -1.316406 3.039062 -1.101562 3.15625 -0.96875 C 3.28125 -0.84375 3.421875 -0.769531 3.578125 -0.75 C 3.742188 -0.738281 3.898438 -0.769531 4.046875 -0.84375 C 4.191406 -0.914062 4.285156 -1.003906 4.328125 -1.109375 C 4.328125 -0.773438 4.203125 -0.503906 3.953125 -0.296875 C 3.710938 -0.0976562 3.425781 0 3.09375 0 C 3.007812 0 2.894531 -0.015625 2.75 -0.046875 C 2.601562 -0.0859375 2.453125 -0.164062 2.296875 -0.28125 C 2.140625 -0.394531 2.007812 -0.554688 1.90625 -0.765625 C 1.800781 -0.984375 1.75 -1.265625 1.75 -1.609375 C 1.75 -3.972656 1.75 -5.890625 1.75 -7.359375 C 1.75 -8.828125 1.75 -9.925781 1.75 -10.65625 L 0.25 -10.65625 L 0.25 -11 L 1.75 -11 C 1.75 -11.28125 1.75 -11.484375 1.75 -11.609375 C 1.75 -11.742188 1.75 -11.8125 1.75 -11.8125 C 1.75 -12.226562 1.710938 -12.535156 1.640625 -12.734375 C 1.566406 -12.929688 1.492188 -13.066406 1.421875 -13.140625 C 1.347656 -13.210938 1.3125 -13.25 1.3125 -13.25 L 2.984375 -13.890625 Z M 2.984375 -11 "/></g></g></g><g fill="#242424" fill-opacity="1"><g transform="translate(54.507512, 19.668619)"><g><path d="M 1.9375 -15.734375 L 1.9375 -1.21875 C 1.9375 -0.882812 1.875 -0.628906 1.75 -0.453125 C 1.625 -0.285156 1.4375 -0.164062 1.1875 -0.09375 C 0.9375 -0.03125 0.625 0 0.25 0 C 0.25 0 0.285156 -0.0234375 0.359375 -0.078125 C 0.429688 -0.140625 0.503906 -0.269531 0.578125 -0.46875 C 0.648438 -0.664062 0.6875 -0.96875 0.6875 -1.375 L 0.6875 -13.640625 C 0.6875 -14.054688 0.648438 -14.363281 0.578125 -14.5625 C 0.503906 -14.769531 0.429688 -14.90625 0.359375 -14.96875 C 0.285156 -15.039062 0.25 -15.078125 0.25 -15.078125 Z M 7.5 0 C 7.5 0 7.535156 -0.0234375 7.609375 -0.078125 C 7.679688 -0.140625 7.75 -0.269531 7.8125 -0.46875 C 7.882812 -0.664062 7.921875 -0.96875 7.921875 -1.375 C 7.921875 -1.375 7.921875 -1.382812 7.921875 -1.40625 C 7.921875 -1.425781 7.921875 -1.492188 7.921875 -1.609375 C 7.921875 -1.722656 7.921875 -1.910156 7.921875 -2.171875 C 7.921875 -2.441406 7.921875 -2.816406 7.921875 -3.296875 C 7.921875 -3.773438 7.921875 -4.390625 7.921875 -5.140625 C 7.921875 -5.890625 7.921875 -6.8125 7.921875 -7.90625 C 7.921875 -8.414062 7.832031 -8.851562 7.65625 -9.21875 C 7.476562 -9.582031 7.238281 -9.875 6.9375 -10.09375 C 6.632812 -10.320312 6.296875 -10.472656 5.921875 -10.546875 C 5.546875 -10.617188 5.160156 -10.617188 4.765625 -10.546875 C 4.367188 -10.484375 3.988281 -10.335938 3.625 -10.109375 C 3.257812 -9.890625 2.9375 -9.597656 2.65625 -9.234375 C 2.375 -8.878906 2.160156 -8.441406 2.015625 -7.921875 C 2.109375 -8.578125 2.304688 -9.125 2.609375 -9.5625 C 2.921875 -10 3.289062 -10.332031 3.71875 -10.5625 C 4.15625 -10.800781 4.617188 -10.945312 5.109375 -11 C 5.597656 -11.050781 6.082031 -11.019531 6.5625 -10.90625 C 7.050781 -10.800781 7.488281 -10.625 7.875 -10.375 C 8.269531 -10.125 8.585938 -9.804688 8.828125 -9.421875 C 9.066406 -9.046875 9.1875 -8.617188 9.1875 -8.140625 L 9.1875 -1.359375 C 9.1875 -0.953125 9.21875 -0.648438 9.28125 -0.453125 C 9.351562 -0.265625 9.425781 -0.140625 9.5 -0.078125 C 9.570312 -0.0234375 9.609375 0 9.609375 0 Z M 7.5 0 "/></g></g></g><g fill="#242424" fill-opacity="1"><g transform="translate(64.580639, 19.668619)"><g><path d="M 1.296875 -13.796875 C 1.585938 -13.796875 1.832031 -13.691406 2.03125 -13.484375 C 2.226562 -13.285156 2.328125 -13.039062 2.328125 -12.75 C 2.328125 -12.46875 2.226562 -12.222656 2.03125 -12.015625 C 1.832031 -11.816406 1.585938 -11.71875 1.296875 -11.71875 C 1.015625 -11.71875 0.769531 -11.816406 0.5625 -12.015625 C 0.351562 -12.222656 0.25 -12.46875 0.25 -12.75 C 0.25 -13.039062 0.351562 -13.285156 0.5625 -13.484375 C 0.769531 -13.691406 1.015625 -13.796875 1.296875 -13.796875 Z M 0.359375 0 C 0.359375 0 0.394531 -0.0234375 0.46875 -0.078125 C 0.539062 -0.140625 0.613281 -0.269531 0.6875 -0.46875 C 0.757812 -0.664062 0.796875 -0.96875 0.796875 -1.375 L 0.796875 -8.9375 C 0.796875 -9.34375 0.757812 -9.644531 0.6875 -9.84375 C 0.613281 -10.050781 0.539062 -10.1875 0.46875 -10.25 C 0.394531 -10.320312 0.359375 -10.359375 0.359375 -10.359375 L 2.03125 -11.015625 L 2.046875 -1.359375 C 2.046875 -0.953125 2.082031 -0.648438 2.15625 -0.453125 C 2.226562 -0.265625 2.296875 -0.140625 2.359375 -0.078125 C 2.429688 -0.0234375 2.46875 0 2.46875 0 Z M 0.359375 0 "/></g></g></g><g fill="#242424" fill-opacity="1"><g transform="translate(67.51007, 19.668619)"><g><path d="M 0.25 -10.359375 L 1.9375 -11 L 1.9375 -1.21875 C 1.9375 -0.882812 1.875 -0.628906 1.75 -0.453125 C 1.625 -0.285156 1.4375 -0.164062 1.1875 -0.09375 C 0.9375 -0.03125 0.625 0 0.25 0 C 0.25 0 0.285156 -0.0234375 0.359375 -0.078125 C 0.429688 -0.140625 0.503906 -0.269531 0.578125 -0.46875 C 0.648438 -0.664062 0.6875 -0.96875 0.6875 -1.375 L 0.6875 -8.90625 C 0.6875 -9.320312 0.648438 -9.628906 0.578125 -9.828125 C 0.503906 -10.035156 0.429688 -10.175781 0.359375 -10.25 C 0.285156 -10.320312 0.25 -10.359375 0.25 -10.359375 Z M 7.5 0 C 7.5 0 7.535156 -0.0234375 7.609375 -0.078125 C 7.679688 -0.140625 7.75 -0.269531 7.8125 -0.46875 C 7.882812 -0.664062 7.921875 -0.96875 7.921875 -1.375 C 7.921875 -1.375 7.921875 -1.382812 7.921875 -1.40625 C 7.921875 -1.425781 7.921875 -1.492188 7.921875 -1.609375 C 7.921875 -1.722656 7.921875 -1.910156 7.921875 -2.171875 C 7.921875 -2.441406 7.921875 -2.816406 7.921875 -3.296875 C 7.921875 -3.773438 7.921875 -4.390625 7.921875 -5.140625 C 7.921875 -5.890625 7.921875 -6.8125 7.921875 -7.90625 C 7.921875 -8.414062 7.832031 -8.851562 7.65625 -9.21875 C 7.476562 -9.582031 7.238281 -9.875 6.9375 -10.09375 C 6.632812 -10.320312 6.296875 -10.472656 5.921875 -10.546875 C 5.546875 -10.617188 5.160156 -10.617188 4.765625 -10.546875 C 4.367188 -10.484375 3.988281 -10.335938 3.625 -10.109375 C 3.257812 -9.890625 2.9375 -9.597656 2.65625 -9.234375 C 2.375 -8.878906 2.160156 -8.441406 2.015625 -7.921875 C 2.109375 -8.578125 2.304688 -9.125 2.609375 -9.5625 C 2.921875 -10 3.289062 -10.332031 3.71875 -10.5625 C 4.15625 -10.800781 4.617188 -10.945312 5.109375 -11 C 5.597656 -11.050781 6.082031 -11.019531 6.5625 -10.90625 C 7.050781 -10.800781 7.488281 -10.625 7.875 -10.375 C 8.269531 -10.125 8.585938 -9.804688 8.828125 -9.421875 C 9.066406 -9.046875 9.1875 -8.617188 9.1875 -8.140625 L 9.1875 -1.359375 C 9.1875 -0.953125 9.21875 -0.648438 9.28125 -0.453125 C 9.351562 -0.265625 9.425781 -0.140625 9.5 -0.078125 C 9.570312 -0.0234375 9.609375 0 9.609375 0 Z M 7.5 0 "/></g></g></g><g fill="#242424" fill-opacity="1"><g transform="translate(77.583197, 19.668619)"><g><path d="M 6.09375 -1.046875 C 6.269531 -1.046875 6.5 -1.03125 6.78125 -1 C 7.0625 -0.976562 7.363281 -0.925781 7.6875 -0.84375 C 8.007812 -0.769531 8.328125 -0.65625 8.640625 -0.5 C 8.960938 -0.351562 9.253906 -0.164062 9.515625 0.0625 C 9.773438 0.289062 9.984375 0.570312 10.140625 0.90625 C 10.304688 1.25 10.390625 1.65625 10.390625 2.125 C 10.390625 2.84375 10.175781 3.472656 9.75 4.015625 C 9.332031 4.554688 8.734375 4.972656 7.953125 5.265625 C 7.171875 5.566406 6.238281 5.71875 5.15625 5.71875 C 4.34375 5.71875 3.640625 5.632812 3.046875 5.46875 C 2.453125 5.300781 1.957031 5.078125 1.5625 4.796875 C 1.175781 4.523438 0.867188 4.21875 0.640625 3.875 C 0.421875 3.539062 0.28125 3.203125 0.21875 2.859375 C 0.15625 2.515625 0.15625 2.1875 0.21875 1.875 C 0.289062 1.570312 0.414062 1.3125 0.59375 1.09375 C 0.769531 0.875 0.992188 0.722656 1.265625 0.640625 C 1.535156 0.566406 1.835938 0.585938 2.171875 0.703125 C 2.015625 0.742188 1.867188 0.859375 1.734375 1.046875 C 1.609375 1.234375 1.507812 1.460938 1.4375 1.734375 C 1.375 2.015625 1.351562 2.316406 1.375 2.640625 C 1.40625 2.960938 1.492188 3.28125 1.640625 3.59375 C 1.785156 3.90625 2.003906 4.191406 2.296875 4.453125 C 2.597656 4.710938 2.988281 4.921875 3.46875 5.078125 C 3.945312 5.234375 4.53125 5.3125 5.21875 5.3125 C 5.976562 5.3125 6.640625 5.179688 7.203125 4.921875 C 7.773438 4.671875 8.21875 4.3125 8.53125 3.84375 C 8.84375 3.375 9 2.828125 9 2.203125 C 9 1.566406 8.847656 1.035156 8.546875 0.609375 C 8.242188 0.179688 7.835938 -0.132812 7.328125 -0.34375 C 6.816406 -0.5625 6.242188 -0.660156 5.609375 -0.640625 C 5.171875 -0.628906 4.765625 -0.570312 4.390625 -0.46875 C 4.015625 -0.375 3.660156 -0.265625 3.328125 -0.140625 C 3.003906 -0.015625 2.6875 0.09375 2.375 0.1875 C 2.0625 0.289062 1.734375 0.34375 1.390625 0.34375 C 0.992188 0.34375 0.679688 0.234375 0.453125 0.015625 C 0.222656 -0.203125 0.109375 -0.460938 0.109375 -0.765625 C 0.109375 -1.015625 0.171875 -1.226562 0.296875 -1.40625 C 0.429688 -1.59375 0.609375 -1.742188 0.828125 -1.859375 C 1.046875 -1.972656 1.28125 -2.054688 1.53125 -2.109375 C 1.78125 -2.171875 2.03125 -2.203125 2.28125 -2.203125 C 1.6875 -2.648438 1.210938 -3.210938 0.859375 -3.890625 C 0.503906 -4.578125 0.328125 -5.328125 0.328125 -6.140625 C 0.328125 -6.804688 0.445312 -7.429688 0.6875 -8.015625 C 0.9375 -8.609375 1.273438 -9.125 1.703125 -9.5625 C 2.140625 -10.007812 2.640625 -10.359375 3.203125 -10.609375 C 3.773438 -10.867188 4.382812 -11 5.03125 -11 C 5.488281 -11 5.925781 -10.929688 6.34375 -10.796875 C 6.769531 -10.660156 7.164062 -10.472656 7.53125 -10.234375 C 7.613281 -10.421875 7.710938 -10.601562 7.828125 -10.78125 C 7.953125 -10.96875 8.097656 -11.128906 8.265625 -11.265625 C 8.441406 -11.398438 8.644531 -11.488281 8.875 -11.53125 C 9.101562 -11.582031 9.363281 -11.5625 9.65625 -11.46875 C 9.84375 -11.414062 9.96875 -11.332031 10.03125 -11.21875 C 10.101562 -11.101562 10.128906 -10.984375 10.109375 -10.859375 C 10.085938 -10.742188 10.035156 -10.632812 9.953125 -10.53125 C 9.867188 -10.4375 9.765625 -10.367188 9.640625 -10.328125 C 9.515625 -10.296875 9.382812 -10.316406 9.25 -10.390625 C 9.09375 -10.484375 8.914062 -10.550781 8.71875 -10.59375 C 8.519531 -10.632812 8.328125 -10.625 8.140625 -10.5625 C 7.953125 -10.507812 7.785156 -10.367188 7.640625 -10.140625 C 8.046875 -9.859375 8.40625 -9.507812 8.71875 -9.09375 C 9.03125 -8.6875 9.269531 -8.226562 9.4375 -7.71875 C 9.601562 -7.21875 9.6875 -6.691406 9.6875 -6.140625 C 9.6875 -5.460938 9.566406 -4.832031 9.328125 -4.25 C 9.085938 -3.664062 8.753906 -3.148438 8.328125 -2.703125 C 7.898438 -2.253906 7.40625 -1.90625 6.84375 -1.65625 C 6.28125 -1.40625 5.675781 -1.28125 5.03125 -1.28125 C 4.550781 -1.28125 4.085938 -1.351562 3.640625 -1.5 C 3.191406 -1.65625 2.78125 -1.859375 2.40625 -2.109375 C 2.1875 -2.085938 1.960938 -2.035156 1.734375 -1.953125 C 1.515625 -1.878906 1.328125 -1.769531 1.171875 -1.625 C 1.023438 -1.488281 0.953125 -1.3125 0.953125 -1.09375 C 0.953125 -0.914062 1.007812 -0.75 1.125 -0.59375 C 1.25 -0.4375 1.457031 -0.359375 1.75 -0.359375 C 2.09375 -0.359375 2.425781 -0.390625 2.75 -0.453125 C 3.070312 -0.523438 3.398438 -0.609375 3.734375 -0.703125 C 4.078125 -0.796875 4.441406 -0.875 4.828125 -0.9375 C 5.210938 -1.007812 5.632812 -1.046875 6.09375 -1.046875 Z M 1.578125 -6.1875 C 1.578125 -5.582031 1.664062 -5.007812 1.84375 -4.46875 C 2.019531 -3.925781 2.265625 -3.445312 2.578125 -3.03125 C 2.890625 -2.625 3.253906 -2.300781 3.671875 -2.0625 C 4.085938 -1.820312 4.539062 -1.703125 5.03125 -1.703125 C 5.507812 -1.703125 5.953125 -1.816406 6.359375 -2.046875 C 6.773438 -2.273438 7.140625 -2.585938 7.453125 -2.984375 C 7.765625 -3.390625 8.003906 -3.859375 8.171875 -4.390625 C 8.347656 -4.929688 8.4375 -5.503906 8.4375 -6.109375 C 8.4375 -6.710938 8.347656 -7.285156 8.171875 -7.828125 C 8.003906 -8.367188 7.765625 -8.84375 7.453125 -9.25 C 7.140625 -9.664062 6.773438 -9.992188 6.359375 -10.234375 C 5.953125 -10.472656 5.507812 -10.59375 5.03125 -10.59375 C 4.539062 -10.59375 4.085938 -10.476562 3.671875 -10.25 C 3.253906 -10.019531 2.890625 -9.703125 2.578125 -9.296875 C 2.265625 -8.898438 2.019531 -8.4375 1.84375 -7.90625 C 1.664062 -7.375 1.578125 -6.800781 1.578125 -6.1875 Z M 1.578125 -6.1875 "/></g></g></g><g fill="#242424" fill-opacity="1"><g transform="translate(87.831064, 19.668619)"><g><path d="M 1.234375 -1.984375 C 1.503906 -1.984375 1.734375 -1.890625 1.921875 -1.703125 C 2.109375 -1.515625 2.203125 -1.285156 2.203125 -1.015625 C 2.203125 -0.742188 2.15625 -0.476562 2.0625 -0.21875 C 1.976562 0.0390625 1.851562 0.269531 1.6875 0.46875 C 1.519531 0.664062 1.304688 0.796875 1.046875 0.859375 C 1.046875 0.859375 1.070312 0.820312 1.125 0.75 C 1.175781 0.675781 1.21875 0.570312 1.25 0.4375 C 1.289062 0.300781 1.285156 0.140625 1.234375 -0.046875 C 0.960938 -0.046875 0.726562 -0.140625 0.53125 -0.328125 C 0.34375 -0.515625 0.25 -0.742188 0.25 -1.015625 C 0.25 -1.285156 0.34375 -1.515625 0.53125 -1.703125 C 0.726562 -1.890625 0.960938 -1.984375 1.234375 -1.984375 Z M 1.234375 -1.984375 "/></g></g></g><g fill="#242424" fill-opacity="1"><g transform="translate(90.493252, 19.668619)"><g/></g></g><g fill="#242424" fill-opacity="1"><g transform="translate(95.838177, 19.668619)"><g><path d="M 10.84375 -14.75 L 11.265625 -12.78125 C 11.265625 -12.78125 11.234375 -12.828125 11.171875 -12.921875 C 11.109375 -13.015625 10.984375 -13.132812 10.796875 -13.28125 C 10.617188 -13.4375 10.359375 -13.585938 10.015625 -13.734375 C 9.671875 -13.890625 9.210938 -14.019531 8.640625 -14.125 C 8.078125 -14.238281 7.378906 -14.304688 6.546875 -14.328125 C 6.503906 -14.222656 6.46875 -14.082031 6.4375 -13.90625 C 6.414062 -13.738281 6.40625 -13.535156 6.40625 -13.296875 L 6.40625 -1.359375 C 6.40625 -0.953125 6.441406 -0.648438 6.515625 -0.453125 C 6.585938 -0.265625 6.65625 -0.144531 6.71875 -0.09375 C 6.789062 -0.0390625 6.828125 -0.015625 6.828125 -0.015625 L 4.71875 -0.015625 C 4.71875 -0.015625 4.753906 -0.0390625 4.828125 -0.09375 C 4.898438 -0.144531 4.972656 -0.269531 5.046875 -0.46875 C 5.117188 -0.664062 5.15625 -0.96875 5.15625 -1.375 L 5.15625 -13.296875 C 5.15625 -13.535156 5.140625 -13.738281 5.109375 -13.90625 C 5.078125 -14.082031 5.039062 -14.222656 5 -14.328125 C 4.15625 -14.304688 3.445312 -14.238281 2.875 -14.125 C 2.3125 -14.019531 1.851562 -13.890625 1.5 -13.734375 C 1.15625 -13.585938 0.890625 -13.4375 0.703125 -13.28125 C 0.523438 -13.132812 0.40625 -13.015625 0.34375 -12.921875 C 0.28125 -12.828125 0.25 -12.78125 0.25 -12.78125 L 0.671875 -14.75 Z M 10.84375 -14.75 "/></g></g></g><g fill="#242424" fill-opacity="1"><g transform="translate(104.470139, 19.668619)"><g><path d="M 5.546875 -11 C 6.273438 -11 6.957031 -10.851562 7.59375 -10.5625 C 8.226562 -10.28125 8.785156 -9.882812 9.265625 -9.375 C 9.753906 -8.875 10.132812 -8.289062 10.40625 -7.625 C 10.6875 -6.957031 10.828125 -6.242188 10.828125 -5.484375 C 10.828125 -4.722656 10.6875 -4.007812 10.40625 -3.34375 C 10.132812 -2.6875 9.753906 -2.101562 9.265625 -1.59375 C 8.785156 -1.09375 8.226562 -0.695312 7.59375 -0.40625 C 6.957031 -0.125 6.273438 0.015625 5.546875 0.015625 C 4.816406 0.015625 4.128906 -0.125 3.484375 -0.40625 C 2.847656 -0.695312 2.285156 -1.09375 1.796875 -1.59375 C 1.316406 -2.101562 0.9375 -2.6875 0.65625 -3.34375 C 0.382812 -4.007812 0.25 -4.722656 0.25 -5.484375 C 0.25 -6.242188 0.382812 -6.957031 0.65625 -7.625 C 0.9375 -8.289062 1.316406 -8.875 1.796875 -9.375 C 2.285156 -9.882812 2.847656 -10.28125 3.484375 -10.5625 C 4.128906 -10.851562 4.816406 -11 5.546875 -11 Z M 5.546875 -0.46875 C 6.085938 -0.46875 6.597656 -0.597656 7.078125 -0.859375 C 7.566406 -1.128906 7.992188 -1.5 8.359375 -1.96875 C 8.722656 -2.4375 9.007812 -2.976562 9.21875 -3.59375 C 9.425781 -4.207031 9.53125 -4.859375 9.53125 -5.546875 C 9.53125 -6.234375 9.425781 -6.875 9.21875 -7.46875 C 9.007812 -8.070312 8.722656 -8.601562 8.359375 -9.0625 C 7.992188 -9.519531 7.566406 -9.878906 7.078125 -10.140625 C 6.597656 -10.398438 6.085938 -10.53125 5.546875 -10.53125 C 4.992188 -10.53125 4.472656 -10.398438 3.984375 -10.140625 C 3.503906 -9.878906 3.082031 -9.519531 2.71875 -9.0625 C 2.351562 -8.601562 2.066406 -8.070312 1.859375 -7.46875 C 1.648438 -6.875 1.546875 -6.234375 1.546875 -5.546875 C 1.546875 -4.859375 1.648438 -4.207031 1.859375 -3.59375 C 2.066406 -2.976562 2.351562 -2.4375 2.71875 -1.96875 C 3.082031 -1.5 3.503906 -1.128906 3.984375 -0.859375 C 4.472656 -0.597656 4.992188 -0.46875 5.546875 -0.46875 Z M 5.546875 -0.46875 "/></g></g></g><g fill="#242424" fill-opacity="1"><g transform="translate(115.756154, 19.668619)"><g><path d="M 6.09375 -1.046875 C 6.269531 -1.046875 6.5 -1.03125 6.78125 -1 C 7.0625 -0.976562 7.363281 -0.925781 7.6875 -0.84375 C 8.007812 -0.769531 8.328125 -0.65625 8.640625 -0.5 C 8.960938 -0.351562 9.253906 -0.164062 9.515625 0.0625 C 9.773438 0.289062 9.984375 0.570312 10.140625 0.90625 C 10.304688 1.25 10.390625 1.65625 10.390625 2.125 C 10.390625 2.84375 10.175781 3.472656 9.75 4.015625 C 9.332031 4.554688 8.734375 4.972656 7.953125 5.265625 C 7.171875 5.566406 6.238281 5.71875 5.15625 5.71875 C 4.34375 5.71875 3.640625 5.632812 3.046875 5.46875 C 2.453125 5.300781 1.957031 5.078125 1.5625 4.796875 C 1.175781 4.523438 0.867188 4.21875 0.640625 3.875 C 0.421875 3.539062 0.28125 3.203125 0.21875 2.859375 C 0.15625 2.515625 0.15625 2.1875 0.21875 1.875 C 0.289062 1.570312 0.414062 1.3125 0.59375 1.09375 C 0.769531 0.875 0.992188 0.722656 1.265625 0.640625 C 1.535156 0.566406 1.835938 0.585938 2.171875 0.703125 C 2.015625 0.742188 1.867188 0.859375 1.734375 1.046875 C 1.609375 1.234375 1.507812 1.460938 1.4375 1.734375 C 1.375 2.015625 1.351562 2.316406 1.375 2.640625 C 1.40625 2.960938 1.492188 3.28125 1.640625 3.59375 C 1.785156 3.90625 2.003906 4.191406 2.296875 4.453125 C 2.597656 4.710938 2.988281 4.921875 3.46875 5.078125 C 3.945312 5.234375 4.53125 5.3125 5.21875 5.3125 C 5.976562 5.3125 6.640625 5.179688 7.203125 4.921875 C 7.773438 4.671875 8.21875 4.3125 8.53125 3.84375 C 8.84375 3.375 9 2.828125 9 2.203125 C 9 1.566406 8.847656 1.035156 8.546875 0.609375 C 8.242188 0.179688 7.835938 -0.132812 7.328125 -0.34375 C 6.816406 -0.5625 6.242188 -0.660156 5.609375 -0.640625 C 5.171875 -0.628906 4.765625 -0.570312 4.390625 -0.46875 C 4.015625 -0.375 3.660156 -0.265625 3.328125 -0.140625 C 3.003906 -0.015625 2.6875 0.09375 2.375 0.1875 C 2.0625 0.289062 1.734375 0.34375 1.390625 0.34375 C 0.992188 0.34375 0.679688 0.234375 0.453125 0.015625 C 0.222656 -0.203125 0.109375 -0.460938 0.109375 -0.765625 C 0.109375 -1.015625 0.171875 -1.226562 0.296875 -1.40625 C 0.429688 -1.59375 0.609375 -1.742188 0.828125 -1.859375 C 1.046875 -1.972656 1.28125 -2.054688 1.53125 -2.109375 C 1.78125 -2.171875 2.03125 -2.203125 2.28125 -2.203125 C 1.6875 -2.648438 1.210938 -3.210938 0.859375 -3.890625 C 0.503906 -4.578125 0.328125 -5.328125 0.328125 -6.140625 C 0.328125 -6.804688 0.445312 -7.429688 0.6875 -8.015625 C 0.9375 -8.609375 1.273438 -9.125 1.703125 -9.5625 C 2.140625 -10.007812 2.640625 -10.359375 3.203125 -10.609375 C 3.773438 -10.867188 4.382812 -11 5.03125 -11 C 5.488281 -11 5.925781 -10.929688 6.34375 -10.796875 C 6.769531 -10.660156 7.164062 -10.472656 7.53125 -10.234375 C 7.613281 -10.421875 7.710938 -10.601562 7.828125 -10.78125 C 7.953125 -10.96875 8.097656 -11.128906 8.265625 -11.265625 C 8.441406 -11.398438 8.644531 -11.488281 8.875 -11.53125 C 9.101562 -11.582031 9.363281 -11.5625 9.65625 -11.46875 C 9.84375 -11.414062 9.96875 -11.332031 10.03125 -11.21875 C 10.101562 -11.101562 10.128906 -10.984375 10.109375 -10.859375 C 10.085938 -10.742188 10.035156 -10.632812 9.953125 -10.53125 C 9.867188 -10.4375 9.765625 -10.367188 9.640625 -10.328125 C 9.515625 -10.296875 9.382812 -10.316406 9.25 -10.390625 C 9.09375 -10.484375 8.914062 -10.550781 8.71875 -10.59375 C 8.519531 -10.632812 8.328125 -10.625 8.140625 -10.5625 C 7.953125 -10.507812 7.785156 -10.367188 7.640625 -10.140625 C 8.046875 -9.859375 8.40625 -9.507812 8.71875 -9.09375 C 9.03125 -8.6875 9.269531 -8.226562 9.4375 -7.71875 C 9.601562 -7.21875 9.6875 -6.691406 9.6875 -6.140625 C 9.6875 -5.460938 9.566406 -4.832031 9.328125 -4.25 C 9.085938 -3.664062 8.753906 -3.148438 8.328125 -2.703125 C 7.898438 -2.253906 7.40625 -1.90625 6.84375 -1.65625 C 6.28125 -1.40625 5.675781 -1.28125 5.03125 -1.28125 C 4.550781 -1.28125 4.085938 -1.351562 3.640625 -1.5 C 3.191406 -1.65625 2.78125 -1.859375 2.40625 -2.109375 C 2.1875 -2.085938 1.960938 -2.035156 1.734375 -1.953125 C 1.515625 -1.878906 1.328125 -1.769531 1.171875 -1.625 C 1.023438 -1.488281 0.953125 -1.3125 0.953125 -1.09375 C 0.953125 -0.914062 1.007812 -0.75 1.125 -0.59375 C 1.25 -0.4375 1.457031 -0.359375 1.75 -0.359375 C 2.09375 -0.359375 2.425781 -0.390625 2.75 -0.453125 C 3.070312 -0.523438 3.398438 -0.609375 3.734375 -0.703125 C 4.078125 -0.796875 4.441406 -0.875 4.828125 -0.9375 C 5.210938 -1.007812 5.632812 -1.046875 6.09375 -1.046875 Z M 1.578125 -6.1875 C 1.578125 -5.582031 1.664062 -5.007812 1.84375 -4.46875 C 2.019531 -3.925781 2.265625 -3.445312 2.578125 -3.03125 C 2.890625 -2.625 3.253906 -2.300781 3.671875 -2.0625 C 4.085938 -1.820312 4.539062 -1.703125 5.03125 -1.703125 C 5.507812 -1.703125 5.953125 -1.816406 6.359375 -2.046875 C 6.773438 -2.273438 7.140625 -2.585938 7.453125 -2.984375 C 7.765625 -3.390625 8.003906 -3.859375 8.171875 -4.390625 C 8.347656 -4.929688 8.4375 -5.503906 8.4375 -6.109375 C 8.4375 -6.710938 8.347656 -7.285156 8.171875 -7.828125 C 8.003906 -8.367188 7.765625 -8.84375 7.453125 -9.25 C 7.140625 -9.664062 6.773438 -9.992188 6.359375 -10.234375 C 5.953125 -10.472656 5.507812 -10.59375 5.03125 -10.59375 C 4.539062 -10.59375 4.085938 -10.476562 3.671875 -10.25 C 3.253906 -10.019531 2.890625 -9.703125 2.578125 -9.296875 C 2.265625 -8.898438 2.019531 -8.4375 1.84375 -7.90625 C 1.664062 -7.375 1.578125 -6.800781 1.578125 -6.1875 Z M 1.578125 -6.1875 "/></g></g></g><g fill="#242424" fill-opacity="1"><g transform="translate(126.004021, 19.668619)"><g><path d="M 1.546875 -5.75 C 1.554688 -4.914062 1.675781 -4.195312 1.90625 -3.59375 C 2.144531 -2.988281 2.457031 -2.484375 2.84375 -2.078125 C 3.238281 -1.679688 3.679688 -1.367188 4.171875 -1.140625 C 4.671875 -0.921875 5.1875 -0.78125 5.71875 -0.71875 C 6.25 -0.664062 6.769531 -0.6875 7.28125 -0.78125 C 7.789062 -0.875 8.257812 -1.023438 8.6875 -1.234375 C 9.113281 -1.453125 9.472656 -1.722656 9.765625 -2.046875 C 10.054688 -2.378906 10.25 -2.753906 10.34375 -3.171875 C 10.300781 -2.753906 10.160156 -2.359375 9.921875 -1.984375 C 9.691406 -1.609375 9.378906 -1.269531 8.984375 -0.96875 C 8.597656 -0.664062 8.15625 -0.425781 7.65625 -0.25 C 7.15625 -0.0703125 6.613281 0.015625 6.03125 0.015625 C 5.144531 0.015625 4.347656 -0.132812 3.640625 -0.4375 C 2.929688 -0.75 2.320312 -1.171875 1.8125 -1.703125 C 1.3125 -2.234375 0.925781 -2.835938 0.65625 -3.515625 C 0.382812 -4.203125 0.25 -4.929688 0.25 -5.703125 C 0.25 -6.460938 0.390625 -7.160156 0.671875 -7.796875 C 0.960938 -8.441406 1.351562 -9.003906 1.84375 -9.484375 C 2.34375 -9.960938 2.914062 -10.332031 3.5625 -10.59375 C 4.21875 -10.863281 4.910156 -11 5.640625 -11 C 6.367188 -11 7.039062 -10.90625 7.65625 -10.71875 C 8.269531 -10.53125 8.800781 -10.234375 9.25 -9.828125 C 9.695312 -9.421875 10.046875 -8.890625 10.296875 -8.234375 C 10.546875 -7.585938 10.671875 -6.800781 10.671875 -5.875 L 1.546875 -5.875 Z M 5.640625 -10.53125 C 5.117188 -10.53125 4.617188 -10.421875 4.140625 -10.203125 C 3.671875 -9.992188 3.25 -9.695312 2.875 -9.3125 C 2.507812 -8.925781 2.207031 -8.46875 1.96875 -7.9375 C 1.738281 -7.40625 1.601562 -6.828125 1.5625 -6.203125 L 9.5 -6.203125 C 9.5 -6.816406 9.421875 -7.382812 9.265625 -7.90625 C 9.117188 -8.4375 8.890625 -8.894531 8.578125 -9.28125 C 8.265625 -9.675781 7.863281 -9.984375 7.375 -10.203125 C 6.894531 -10.421875 6.316406 -10.53125 5.640625 -10.53125 Z M 5.640625 -10.53125 "/></g></g></g><g fill="#242424" fill-opacity="1"><g transform="translate(136.107269, 19.668619)"><g><path d="M 2.984375 -11 L 4.796875 -11 L 4.796875 -10.65625 L 2.984375 -10.65625 L 3 -1.609375 C 2.988281 -1.316406 3.039062 -1.101562 3.15625 -0.96875 C 3.28125 -0.84375 3.421875 -0.769531 3.578125 -0.75 C 3.742188 -0.738281 3.898438 -0.769531 4.046875 -0.84375 C 4.191406 -0.914062 4.285156 -1.003906 4.328125 -1.109375 C 4.328125 -0.773438 4.203125 -0.503906 3.953125 -0.296875 C 3.710938 -0.0976562 3.425781 0 3.09375 0 C 3.007812 0 2.894531 -0.015625 2.75 -0.046875 C 2.601562 -0.0859375 2.453125 -0.164062 2.296875 -0.28125 C 2.140625 -0.394531 2.007812 -0.554688 1.90625 -0.765625 C 1.800781 -0.984375 1.75 -1.265625 1.75 -1.609375 C 1.75 -3.972656 1.75 -5.890625 1.75 -7.359375 C 1.75 -8.828125 1.75 -9.925781 1.75 -10.65625 L 0.25 -10.65625 L 0.25 -11 L 1.75 -11 C 1.75 -11.28125 1.75 -11.484375 1.75 -11.609375 C 1.75 -11.742188 1.75 -11.8125 1.75 -11.8125 C 1.75 -12.226562 1.710938 -12.535156 1.640625 -12.734375 C 1.566406 -12.929688 1.492188 -13.066406 1.421875 -13.140625 C 1.347656 -13.210938 1.3125 -13.25 1.3125 -13.25 L 2.984375 -13.890625 Z M 2.984375 -11 "/></g></g></g><g fill="#242424" fill-opacity="1"><g transform="translate(141.359676, 19.668619)"><g><path d="M 1.9375 -15.734375 L 1.9375 -1.21875 C 1.9375 -0.882812 1.875 -0.628906 1.75 -0.453125 C 1.625 -0.285156 1.4375 -0.164062 1.1875 -0.09375 C 0.9375 -0.03125 0.625 0 0.25 0 C 0.25 0 0.285156 -0.0234375 0.359375 -0.078125 C 0.429688 -0.140625 0.503906 -0.269531 0.578125 -0.46875 C 0.648438 -0.664062 0.6875 -0.96875 0.6875 -1.375 L 0.6875 -13.640625 C 0.6875 -14.054688 0.648438 -14.363281 0.578125 -14.5625 C 0.503906 -14.769531 0.429688 -14.90625 0.359375 -14.96875 C 0.285156 -15.039062 0.25 -15.078125 0.25 -15.078125 Z M 7.5 0 C 7.5 0 7.535156 -0.0234375 7.609375 -0.078125 C 7.679688 -0.140625 7.75 -0.269531 7.8125 -0.46875 C 7.882812 -0.664062 7.921875 -0.96875 7.921875 -1.375 C 7.921875 -1.375 7.921875 -1.382812 7.921875 -1.40625 C 7.921875 -1.425781 7.921875 -1.492188 7.921875 -1.609375 C 7.921875 -1.722656 7.921875 -1.910156 7.921875 -2.171875 C 7.921875 -2.441406 7.921875 -2.816406 7.921875 -3.296875 C 7.921875 -3.773438 7.921875 -4.390625 7.921875 -5.140625 C 7.921875 -5.890625 7.921875 -6.8125 7.921875 -7.90625 C 7.921875 -8.414062 7.832031 -8.851562 7.65625 -9.21875 C 7.476562 -9.582031 7.238281 -9.875 6.9375 -10.09375 C 6.632812 -10.320312 6.296875 -10.472656 5.921875 -10.546875 C 5.546875 -10.617188 5.160156 -10.617188 4.765625 -10.546875 C 4.367188 -10.484375 3.988281 -10.335938 3.625 -10.109375 C 3.257812 -9.890625 2.9375 -9.597656 2.65625 -9.234375 C 2.375 -8.878906 2.160156 -8.441406 2.015625 -7.921875 C 2.109375 -8.578125 2.304688 -9.125 2.609375 -9.5625 C 2.921875 -10 3.289062 -10.332031 3.71875 -10.5625 C 4.15625 -10.800781 4.617188 -10.945312 5.109375 -11 C 5.597656 -11.050781 6.082031 -11.019531 6.5625 -10.90625 C 7.050781 -10.800781 7.488281 -10.625 7.875 -10.375 C 8.269531 -10.125 8.585938 -9.804688 8.828125 -9.421875 C 9.066406 -9.046875 9.1875 -8.617188 9.1875 -8.140625 L 9.1875 -1.359375 C 9.1875 -0.953125 9.21875 -0.648438 9.28125 -0.453125 C 9.351562 -0.265625 9.425781 -0.140625 9.5 -0.078125 C 9.570312 -0.0234375 9.609375 0 9.609375 0 Z M 7.5 0 "/></g></g></g><g fill="#242424" fill-opacity="1"><g transform="translate(151.43281, 19.668619)"><g><path d="M 1.546875 -5.75 C 1.554688 -4.914062 1.675781 -4.195312 1.90625 -3.59375 C 2.144531 -2.988281 2.457031 -2.484375 2.84375 -2.078125 C 3.238281 -1.679688 3.679688 -1.367188 4.171875 -1.140625 C 4.671875 -0.921875 5.1875 -0.78125 5.71875 -0.71875 C 6.25 -0.664062 6.769531 -0.6875 7.28125 -0.78125 C 7.789062 -0.875 8.257812 -1.023438 8.6875 -1.234375 C 9.113281 -1.453125 9.472656 -1.722656 9.765625 -2.046875 C 10.054688 -2.378906 10.25 -2.753906 10.34375 -3.171875 C 10.300781 -2.753906 10.160156 -2.359375 9.921875 -1.984375 C 9.691406 -1.609375 9.378906 -1.269531 8.984375 -0.96875 C 8.597656 -0.664062 8.15625 -0.425781 7.65625 -0.25 C 7.15625 -0.0703125 6.613281 0.015625 6.03125 0.015625 C 5.144531 0.015625 4.347656 -0.132812 3.640625 -0.4375 C 2.929688 -0.75 2.320312 -1.171875 1.8125 -1.703125 C 1.3125 -2.234375 0.925781 -2.835938 0.65625 -3.515625 C 0.382812 -4.203125 0.25 -4.929688 0.25 -5.703125 C 0.25 -6.460938 0.390625 -7.160156 0.671875 -7.796875 C 0.960938 -8.441406 1.351562 -9.003906 1.84375 -9.484375 C 2.34375 -9.960938 2.914062 -10.332031 3.5625 -10.59375 C 4.21875 -10.863281 4.910156 -11 5.640625 -11 C 6.367188 -11 7.039062 -10.90625 7.65625 -10.71875 C 8.269531 -10.53125 8.800781 -10.234375 9.25 -9.828125 C 9.695312 -9.421875 10.046875 -8.890625 10.296875 -8.234375 C 10.546875 -7.585938 10.671875 -6.800781 10.671875 -5.875 L 1.546875 -5.875 Z M 5.640625 -10.53125 C 5.117188 -10.53125 4.617188 -10.421875 4.140625 -10.203125 C 3.671875 -9.992188 3.25 -9.695312 2.875 -9.3125 C 2.507812 -8.925781 2.207031 -8.46875 1.96875 -7.9375 C 1.738281 -7.40625 1.601562 -6.828125 1.5625 -6.203125 L 9.5 -6.203125 C 9.5 -6.816406 9.421875 -7.382812 9.265625 -7.90625 C 9.117188 -8.4375 8.890625 -8.894531 8.578125 -9.28125 C 8.265625 -9.675781 7.863281 -9.984375 7.375 -10.203125 C 6.894531 -10.421875 6.316406 -10.53125 5.640625 -10.53125 Z M 5.640625 -10.53125 "/></g></g></g><g clip-path="url(#a5f0a3b71d)"><g fill="#242424" fill-opacity="1"><g transform="translate(162.564643, 19.668619)"><g><path d="M 2 -7.921875 C 2.019531 -8.492188 2.140625 -8.984375 2.359375 -9.390625 C 2.578125 -9.796875 2.863281 -10.125 3.21875 -10.375 C 3.570312 -10.625 3.957031 -10.796875 4.375 -10.890625 C 4.789062 -10.992188 5.21875 -11.019531 5.65625 -10.96875 C 6.09375 -10.925781 6.503906 -10.8125 6.890625 -10.625 C 7.285156 -10.445312 7.625 -10.203125 7.90625 -9.890625 C 8.195312 -9.578125 8.394531 -9.203125 8.5 -8.765625 L 7.390625 -8.5 C 7.253906 -8.976562 7.039062 -9.363281 6.75 -9.65625 C 6.46875 -9.957031 6.140625 -10.171875 5.765625 -10.296875 C 5.398438 -10.421875 5.015625 -10.457031 4.609375 -10.40625 C 4.210938 -10.363281 3.832031 -10.238281 3.46875 -10.03125 C 3.113281 -9.820312 2.804688 -9.539062 2.546875 -9.1875 C 2.285156 -8.84375 2.101562 -8.421875 2 -7.921875 Z M 0.25 0 C 0.25 0 0.285156 -0.0234375 0.359375 -0.078125 C 0.429688 -0.140625 0.503906 -0.269531 0.578125 -0.46875 C 0.648438 -0.664062 0.6875 -0.96875 0.6875 -1.375 L 0.6875 -8.9375 C 0.6875 -9.34375 0.648438 -9.644531 0.578125 -9.84375 C 0.503906 -10.050781 0.429688 -10.1875 0.359375 -10.25 C 0.285156 -10.320312 0.25 -10.359375 0.25 -10.359375 L 1.9375 -11.015625 L 1.9375 -1.359375 C 1.9375 -0.953125 1.972656 -0.648438 2.046875 -0.453125 C 2.117188 -0.265625 2.1875 -0.140625 2.25 -0.078125 C 2.320312 -0.0234375 2.359375 0 2.359375 0 Z M 0.25 0 "/></g></g></g></g></g></g></g></g></g></g></svg>