<svg xmlns="http://www.w3.org/2000/svg" xmlns:xlink="http://www.w3.org/1999/xlink" width="500" zoomAndPan="magnify" viewBox="0 0 375 374.999991" height="500" preserveAspectRatio="xMidYMid meet" version="1.0"><path fill="#ccf3e5" d="M 58.957031 305.109375 C 43.5625 290.507812 37.46875 269.078125 40.113281 246.394531 C 41.558594 234.015625 41.410156 221.507812 40.128906 209.109375 C 37.367188 182.429688 48.21875 151.472656 71.609375 126.808594 C 99.972656 96.894531 138.558594 84.90625 168.636719 93.753906 C 182.523438 97.835938 197.382812 97.40625 210.878906 92.171875 C 240.949219 80.511719 273.085938 83.976562 294.441406 104.226562 C 326.371094 134.507812 322.105469 190.847656 284.910156 230.070312 C 264.289062 251.816406 237.875 263.730469 212.992188 264.875 C 203.199219 265.324219 194.125 270.085938 188.027344 277.757812 C 185.75 280.628906 183.316406 283.433594 180.726562 286.164062 C 143.660156 325.25 89.140625 333.734375 58.957031 305.109375 Z M 58.957031 305.109375 " fill-opacity="1" fill-rule="nonzero"/><path stroke-linecap="round" transform="matrix(0.347222, 0, 0, 0.347222, 30.494448, 29.153123)" fill="none" stroke-linejoin="round" d="M 440.431032 748.021576 C 440.431032 748.021576 440.431032 549.009058 440.431032 549.009058 " stroke="#231f1f" stroke-width="2" stroke-opacity="1" stroke-miterlimit="4"/><path stroke-linecap="round" transform="matrix(0.347222, 0, 0, 0.347222, 117.418048, 240.035742)" fill-opacity="1" fill="#ffffff" fill-rule="nonzero" stroke-linejoin="round" d="M -68.805235 68.80332 C -68.805235 68.80332 68.804778 -68.806693 68.804778 -68.806693 " stroke="#231f1f" stroke-width="2" stroke-opacity="1" stroke-miterlimit="4"/><path stroke-linecap="round" transform="matrix(0.347222, 0, 0, 0.347222, 30.494448, 29.153123)" fill="none" stroke-linejoin="round" d="M 81.960998 413.525295 C 81.960998 413.525295 281.108517 413.525295 281.108517 413.525295 " stroke="#231f1f" stroke-width="2" stroke-opacity="1" stroke-miterlimit="4"/><path stroke-linecap="round" transform="matrix(0.347222, 0, 0, 0.347222, 119.146871, 119.335408)" fill-opacity="1" fill="#02c37e" fill-rule="nonzero" stroke-linejoin="round" d="M -55.401744 -55.404731 C -55.401744 -55.404731 55.399516 55.40778 55.399516 55.40778 " stroke="#231f1f" stroke-width="2" stroke-opacity="1" stroke-miterlimit="4"/><path stroke-linecap="round" transform="matrix(0.347222, 0, 0, 0.347222, 30.494448, 29.153123)" fill="none" stroke-linejoin="round" d="M 440.431032 140.48777 C 440.431032 140.48777 440.431032 268.152782 440.431032 268.152782 " stroke="#231f1f" stroke-width="2" stroke-opacity="1" stroke-miterlimit="4"/><path stroke-linecap="round" transform="matrix(0.347222, 0, 0, 0.347222, 183.420124, 56.598603)" fill-opacity="1" fill="#ffffff" fill-rule="nonzero" stroke-linejoin="round" d="M 74.041298 -0.00272803 C 74.041298 40.891026 40.887545 74.044779 -0.00620843 74.044779 C -40.888712 74.044779 -74.042465 40.891026 -74.042465 -0.00272803 C -74.042465 -40.896482 -40.888712 -74.038985 -0.00620843 -74.038985 C 40.887545 -74.038985 74.041298 -40.896482 74.041298 -0.00272803 Z M 74.041298 -0.00272803 " stroke="#231f1f" stroke-width="2" stroke-opacity="1" stroke-miterlimit="4"/><path stroke-linecap="round" transform="matrix(0.347222, 0, 0, 0.347222, 183.420124, 178.321527)" fill-opacity="1" fill="#ffffff" fill-rule="nonzero" stroke-linejoin="round" d="M 181.782558 -0.00349687 C 181.782558 100.402762 100.400051 181.78527 0.00504157 181.78527 C -100.401218 181.78527 -181.783725 100.402762 -181.783725 -0.00349687 C -181.783725 -100.398506 -100.401218 -181.792264 0.00504157 -181.792264 C 100.400051 -181.792264 181.782558 -100.398506 181.782558 -0.00349687 Z M 181.782558 -0.00349687 " stroke="#231f1f" stroke-width="2" stroke-opacity="1" stroke-miterlimit="4"/><path stroke-linecap="round" transform="matrix(0.347222, 0, 0, 0.347222, 57.939932, 172.736444)" fill-opacity="1" fill="#ffffff" fill-rule="nonzero" stroke-linejoin="round" d="M 74.040503 0.00529169 C 74.040503 40.887795 40.88675 74.041549 0.00424614 74.041549 C -40.889508 74.041549 -74.043261 40.887795 -74.043261 0.00529169 C -74.043261 -40.888462 -40.889508 -74.042215 0.00424614 -74.042215 C 40.88675 -74.042215 74.040503 -40.888462 74.040503 0.00529169 Z M 74.040503 0.00529169 " stroke="#231f1f" stroke-width="2" stroke-opacity="1" stroke-miterlimit="4"/><path stroke-linecap="round" transform="matrix(0.347222, 0, 0, 0.347222, 92.47951, 90.535746)" fill-opacity="1" fill="#ffffff" fill-rule="nonzero" stroke-linejoin="round" d="M 57.242765 -0.00169864 C 57.242765 31.610804 31.615263 57.238307 0.00275997 57.238307 C -31.609743 57.238307 -57.237245 31.610804 -57.237245 -0.00169864 C -57.237245 -31.614202 -31.609743 -57.241704 0.00275997 -57.241704 C 31.615263 -57.241704 57.242765 -31.614202 57.242765 -0.00169864 Z M 57.242765 -0.00169864 " stroke="#231f1f" stroke-width="2" stroke-opacity="1" stroke-miterlimit="4"/><path stroke-linecap="round" transform="matrix(0.347222, 0, 0, 0.347222, 93.52639, 263.927414)" fill-opacity="1" fill="#ffffff" fill-rule="nonzero" stroke-linejoin="round" d="M 57.242751 -0.00470194 C 57.242751 31.607801 31.615249 57.235303 0.00274577 57.235303 C -31.609757 57.235303 -57.23726 31.607801 -57.23726 -0.00470194 C -57.23726 -31.617205 -31.609757 -57.244707 0.00274577 -57.244707 C 31.615249 -57.244707 57.242751 -31.617205 57.242751 -0.00470194 Z M 57.242751 -0.00470194 " stroke="#231f1f" stroke-width="2" stroke-opacity="1" stroke-miterlimit="4"/><path stroke-linecap="round" transform="matrix(0.347222, 0, 0, 0.347222, 183.420124, 288.882286)" fill-opacity="1" fill="#ffffff" fill-rule="nonzero" stroke-linejoin="round" d="M 74.041298 0.00151681 C 74.041298 40.895271 40.887545 74.037774 -0.00620843 74.037774 C -40.888712 74.037774 -74.042465 40.895271 -74.042465 0.00151681 C -74.042465 -40.892237 -40.888712 -74.04599 -0.00620843 -74.04599 C 40.887545 -74.04599 74.041298 -40.892237 74.041298 0.00151681 Z M 74.041298 0.00151681 " stroke="#231f1f" stroke-width="2" stroke-opacity="1" stroke-miterlimit="4"/><path stroke-linecap="round" transform="matrix(0.347222, 0, 0, 0.347222, 182.614562, 57.294788)" fill-opacity="1" fill="#231f1f" fill-rule="nonzero" stroke-linejoin="round" d="M 51.555066 38.267263 C 51.555066 38.267263 -51.562444 38.267263 -51.562444 38.267263 C -51.562444 38.267263 -51.562444 -38.266494 -51.562444 -38.266494 C -51.562444 -38.266494 51.555066 -38.266494 51.555066 -38.266494 C 51.555066 -38.266494 51.555066 38.267263 51.555066 38.267263 Z M 51.555066 38.267263 " stroke="#231f1f" stroke-width="2" stroke-opacity="1" stroke-miterlimit="4"/><path stroke-linecap="round" transform="matrix(0.347222, 0, 0, 0.347222, 184.224984, 55.966484)" fill-opacity="1" fill="#ffffff" fill-rule="nonzero" stroke-linejoin="round" d="M 51.563302 38.267779 C 51.563302 38.267779 -51.554208 38.267779 -51.554208 38.267779 C -51.554208 38.267779 -51.554208 -38.265978 -51.554208 -38.265978 C -51.554208 -38.265978 51.563302 -38.265978 51.563302 -38.265978 C 51.563302 -38.265978 51.563302 38.267779 51.563302 38.267779 Z M 51.563302 38.267779 " stroke="#231f1f" stroke-width="2" stroke-opacity="1" stroke-miterlimit="4"/><path stroke-linecap="round" transform="matrix(0.347222, 0, 0, 0.347222, 184.22532, 49.322385)" fill-opacity="1" fill="#02c37e" fill-rule="nonzero" stroke-linejoin="round" d="M -51.555175 -19.13097 C -51.555175 -19.13097 0.00357955 19.130284 0.00357955 19.130284 C 0.00357955 19.130284 51.562334 -19.13097 51.562334 -19.13097 C 51.562334 -19.13097 -51.555175 -19.13097 -51.555175 -19.13097 Z M -51.555175 -19.13097 " stroke="#231f1f" stroke-width="2" stroke-opacity="1" stroke-miterlimit="4"/><path stroke-linecap="round" transform="matrix(0.347222, 0, 0, 0.347222, 46.152083, 172.736091)" fill-opacity="1" fill="#02c37e" fill-rule="nonzero" stroke-linejoin="round" d="M 12.882002 41.282562 C 12.882002 41.282562 -12.8805 41.282562 -12.8805 41.282562 C -12.8805 41.282562 -12.8805 -41.292446 -12.8805 -41.292446 C -12.8805 -41.292446 12.882002 -41.292446 12.882002 -41.292446 C 12.882002 -41.292446 12.882002 41.282562 12.882002 41.282562 Z M 12.882002 41.282562 " stroke="#231f1f" stroke-width="2" stroke-opacity="1" stroke-miterlimit="4"/><path stroke-linecap="round" transform="matrix(0.347222, 0, 0, 0.347222, 57.939581, 175.832626)" fill-opacity="1" fill="#777777" fill-rule="nonzero" stroke-linejoin="round" d="M 12.886506 32.36454 C 12.886506 32.36454 -12.887246 32.36454 -12.887246 32.36454 C -12.887246 32.36454 -12.887246 -32.367966 -12.887246 -32.367966 C -12.887246 -32.367966 12.886506 -32.367966 12.886506 -32.367966 C 12.886506 -32.367966 12.886506 32.36454 12.886506 32.36454 Z M 12.886506 32.36454 " stroke="#231f1f" stroke-width="2" stroke-opacity="1" stroke-miterlimit="4"/><path stroke-linecap="round" transform="matrix(0.347222, 0, 0, 0.347222, 69.727082, 179.904159)" fill-opacity="1" fill="#02c37e" fill-rule="nonzero" stroke-linejoin="round" d="M 12.879754 20.638525 C 12.879754 20.638525 -12.882748 20.638525 -12.882748 20.638525 C -12.882748 20.638525 -12.882748 -20.648979 -12.882748 -20.648979 C -12.882748 -20.648979 12.879754 -20.648979 12.879754 -20.648979 C 12.879754 -20.648979 12.879754 20.638525 12.879754 20.638525 Z M 12.879754 20.638525 " stroke="#231f1f" stroke-width="2" stroke-opacity="1" stroke-miterlimit="4"/><path stroke-linecap="round" transform="matrix(0.347222, 0, 0, 0.347222, 92.47951, 90.090616)" fill-opacity="1" fill="#777777" fill-rule="nonzero" stroke-linejoin="round" d="M 46.116514 10.966528 C 46.116514 10.966528 46.116514 -10.970974 46.116514 -10.970974 C 46.116514 -10.970974 34.472763 -10.970974 34.472763 -10.970974 C 33.854013 -12.928474 33.066513 -14.818475 32.132763 -16.618475 C 32.132763 -16.618475 40.367764 -24.853475 40.367764 -24.853475 C 40.367764 -24.853475 24.854012 -40.367227 24.854012 -40.367227 C 24.854012 -40.367227 16.619012 -32.120976 16.619012 -32.120976 C 14.819011 -33.065976 12.929011 -33.853476 10.960261 -34.472226 C 10.960261 -34.472226 10.960261 -46.115977 10.960261 -46.115977 C 10.960261 -46.115977 -10.965991 -46.115977 -10.965991 -46.115977 C -10.965991 -46.115977 -10.965991 -34.472226 -10.965991 -34.472226 C -12.934741 -33.853476 -14.824741 -33.065976 -16.624742 -32.120976 C -16.624742 -32.120976 -24.859742 -40.367227 -24.859742 -40.367227 C -24.859742 -40.367227 -40.362244 -24.853475 -40.362244 -24.853475 C -40.362244 -24.853475 -32.127243 -16.618475 -32.127243 -16.618475 C -33.060993 -14.818475 -33.848493 -12.928474 -34.478493 -10.970974 C -34.478493 -10.970974 -46.110994 -10.970974 -46.110994 -10.970974 C -46.110994 -10.970974 -46.110994 10.966528 -46.110994 10.966528 C -46.110994 10.966528 -34.478493 10.966528 -34.478493 10.966528 C -33.848493 12.924028 -33.072243 14.814028 -32.127243 16.625278 C -32.127243 16.625278 -40.362244 24.860279 -40.362244 24.860279 C -40.362244 24.860279 -24.859742 40.362781 -24.859742 40.362781 C -24.859742 40.362781 -16.624742 32.12778 -16.624742 32.12778 C -14.824741 33.06153 -12.934741 33.84903 -10.965991 34.47903 C -10.965991 34.47903 -10.965991 46.122781 -10.965991 46.122781 C -10.965991 46.122781 10.960261 46.122781 10.960261 46.122781 C 10.960261 46.122781 10.960261 34.47903 10.960261 34.47903 C 12.929011 33.84903 14.819011 33.06153 16.619012 32.12778 C 16.619012 32.12778 24.854012 40.362781 24.854012 40.362781 C 24.854012 40.362781 40.367764 24.860279 40.367764 24.860279 C 40.367764 24.860279 32.132763 16.625278 32.132763 16.625278 C 33.066513 14.814028 33.854013 12.924028 34.472763 10.966528 C 34.472763 10.966528 46.116514 10.966528 46.116514 10.966528 Z M 16.371511 0.864027 C 16.169011 4.745277 14.616511 8.255278 12.186511 10.966528 C 11.804011 11.394028 11.387761 11.799028 10.960261 12.192778 C 8.260261 14.622778 4.73901 16.175278 0.85776 16.366528 C 0.57651 16.389028 0.29526 16.389028 0.00275997 16.389028 C -0.28974 16.389028 -0.58224 16.389028 -0.86349 16.366528 C -4.73349 16.175278 -8.254741 14.622778 -10.965991 12.192778 C -11.393491 11.799028 -11.798491 11.394028 -12.192241 10.966528 C -14.622241 8.255278 -16.174742 4.745277 -16.377242 0.864027 C -16.388492 0.582777 -16.399742 0.290277 -16.399742 -0.00222317 C -16.399742 -0.283473 -16.388492 -0.575973 -16.377242 -0.868473 C -16.174742 -4.738474 -14.622241 -8.259724 -12.192241 -10.970974 C -11.798491 -11.398474 -11.393491 -11.803474 -10.965991 -12.185974 C -8.254741 -14.627225 -4.73349 -16.168475 -0.86349 -16.370975 C -0.58224 -16.382225 -0.28974 -16.393475 0.00275997 -16.393475 C 0.29526 -16.393475 0.57651 -16.382225 0.85776 -16.370975 C 4.73901 -16.168475 8.260261 -14.627225 10.960261 -12.185974 C 11.387761 -11.803474 11.804011 -11.398474 12.186511 -10.970974 C 14.616511 -8.259724 16.169011 -4.738474 16.371511 -0.868473 C 16.382761 -0.575973 16.394011 -0.283473 16.394011 -0.00222317 C 16.394011 0.290277 16.382761 0.582777 16.371511 0.864027 Z M 16.371511 0.864027 " stroke="#231f1f" stroke-width="2" stroke-opacity="1" stroke-miterlimit="4"/><path stroke-linecap="round" transform="matrix(0.347222, 0, 0, 0.347222, 181.120817, 181.44617)" fill-opacity="1" fill="#02c37e" fill-rule="nonzero" stroke-linejoin="round" d="M -25.941704 56.742534 C -25.941704 56.742534 -25.941704 49.655034 -25.941704 49.655034 C -25.941704 27.008782 -24.175454 12.72128 -20.620454 6.81503 C -17.076703 0.908779 -7.716703 -7.652472 7.470799 -18.857473 C 15.42455 -24.696223 20.9708 -30.141224 24.0758 -35.181224 C 27.192051 -40.221225 28.744551 -46.476225 28.744551 -53.946226 C 28.744551 -63.148727 25.819551 -70.393728 19.96955 -75.692478 C 14.119549 -80.979979 7.032049 -83.623729 -1.304202 -83.623729 C -23.331704 -83.623729 -35.717955 -68.064977 -38.451705 -36.958724 C -38.451705 -36.958724 -89.59421 -44.237475 -89.59421 -44.237475 C -85.73546 -72.362478 -75.441709 -93.63623 -58.701707 -108.069981 C -41.972956 -122.503732 -21.531704 -129.726233 2.610798 -129.726233 C 27.248301 -129.726233 47.903303 -122.638732 64.587054 -108.452481 C 81.259556 -94.26623 89.595806 -76.277478 89.595806 -54.508726 C 89.595806 -27.497474 75.713305 -4.918721 47.970803 13.25003 C 35.899552 21.215031 28.587051 27.436282 26.044551 31.913782 C 23.4908 36.402532 22.2083 44.682533 22.2083 56.742534 C 22.2083 56.742534 -25.941704 56.742534 -25.941704 56.742534 Z M 31.545801 129.732541 C 31.545801 129.732541 -27.066704 129.732541 -27.066704 129.732541 C -27.066704 129.732541 -27.066704 73.358786 -27.066704 73.358786 C -27.066704 73.358786 31.545801 73.358786 31.545801 73.358786 C 31.545801 73.358786 31.545801 129.732541 31.545801 129.732541 Z M 31.545801 129.732541 " stroke="#231f1f" stroke-width="2" stroke-opacity="1" stroke-miterlimit="4"/><path stroke-linecap="round" transform="matrix(0.347222, 0, 0, 0.347222, 93.526383, 264.550324)" fill-opacity="1" fill="#02c37e" fill-rule="nonzero" stroke-linejoin="round" d="M 36.73402 -0.00993378 C 36.73402 20.285068 20.275268 36.72132 0.0027665 36.72132 C -20.280985 36.72132 -36.728487 20.285068 -36.728487 -0.00993378 C -36.728487 -20.001186 -20.753485 -36.246187 -0.874734 -36.718687 C -0.874734 -36.718687 -0.874734 -0.00993378 -0.874734 -0.00993378 C -0.874734 -0.00993378 36.73402 -0.00993378 36.73402 -0.00993378 Z M 36.73402 -0.00993378 " stroke="#231f1f" stroke-width="2" stroke-opacity="1" stroke-miterlimit="4"/><path stroke-linecap="round" transform="matrix(0.347222, 0, 0, 0.347222, 102.044801, 255.822552)" fill-opacity="1" fill="#231f1f" fill-rule="nonzero" stroke-linejoin="round" d="M -18.804029 -18.366451 C -18.804029 -18.366451 -18.804029 18.364802 -18.804029 18.364802 C -18.804029 18.364802 18.804725 18.364802 18.804725 18.364802 C 18.410975 -2.5377 3.279723 -17.871451 -18.804029 -18.366451 Z M -18.804029 -18.366451 " stroke="#231f1f" stroke-width="2" stroke-opacity="1" stroke-miterlimit="4"/><path stroke-linecap="round" transform="matrix(0.347222, 0, 0, 0.347222, 183.420124, 330.241649)" fill-opacity="1" fill="#231f1f" fill-rule="nonzero" stroke-linejoin="round" d="M 431.161332 13.782803 C 431.161332 13.782803 -431.162498 13.782803 -431.162498 13.782803 C -431.162498 13.782803 -431.162498 -13.79095 -431.162498 -13.79095 C -431.162498 -13.79095 431.161332 -13.79095 431.161332 -13.79095 C 431.161332 -13.79095 431.161332 13.782803 431.161332 13.782803 Z M 431.161332 13.782803 " stroke="#231f1f" stroke-width="2" stroke-opacity="1" stroke-miterlimit="4"/><path stroke-linecap="round" transform="matrix(0.347222, 0, 0, 0.347222, 234.70622, 259.310373)" fill-opacity="1" fill="#ffffff" fill-rule="nonzero" stroke-linejoin="round" d="M 54.801091 -39.267629 C 54.801091 -39.267629 41.728589 131.349887 41.728589 131.349887 C 36.902339 181.243642 -44.153919 173.402391 -39.316418 123.497386 C -54.79642 81.557382 -38.855168 -66.650131 -23.273917 -181.242642 C 20.038587 -158.29264 46.62234 -111.762636 54.801091 -39.267629 Z M 54.801091 -39.267629 " stroke="#231f1f" stroke-width="2" stroke-opacity="1" stroke-miterlimit="4"/><path stroke-linecap="round" transform="matrix(0.347222, 0, 0, 0.347222, 282.131206, 249.698244)" fill-opacity="1" fill="#02c37e" fill-rule="nonzero" stroke-linejoin="round" d="M -159.689138 -153.604708 C -129.809135 -171.97596 -100.559133 -187.962211 -72.55788 -199.245962 C -72.55788 -199.245962 58.864632 -209.955963 58.864632 -209.955963 C 93.728385 -196.703462 127.602139 -180.604711 159.698392 -159.398459 C 159.698392 -159.398459 92.479635 197.451574 92.479635 197.451574 C 4.302127 209.196576 -66.314129 209.961576 -110.920383 194.481574 C -110.920383 194.481574 -159.689138 -153.604708 -159.689138 -153.604708 Z M -159.689138 -153.604708 " stroke="#231f1f" stroke-width="2" stroke-opacity="1" stroke-miterlimit="4"/><path stroke-linecap="butt" transform="matrix(0.347222, 0, 0, 0.347222, 281.394068, 172.912489)" fill-opacity="1" fill="#777777" fill-rule="nonzero" stroke-linejoin="miter" d="M 44.270089 -67.540474 C 44.270089 -67.540474 40.040089 -6.509218 40.040089 -6.509218 C 40.040089 -6.509218 -20.631167 67.538289 -20.631167 67.538289 C -20.631167 67.538289 -44.267419 23.382035 -44.267419 23.382035 C -44.267419 23.382035 -44.267419 -35.500471 -44.267419 -35.500471 C -44.267419 -35.500471 44.270089 -67.540474 44.270089 -67.540474 Z M 44.270089 -67.540474 " stroke="#231f1f" stroke-width="2" stroke-opacity="1" stroke-miterlimit="10"/><path stroke-linecap="round" transform="matrix(0.347222, 0, 0, 0.347222, 281.393717, 161.792349)" fill-opacity="1" fill="#231f1f" fill-rule="nonzero" stroke-linejoin="round" d="M -42.43266 3.523036 C -42.43266 3.523036 -42.43266 24.391788 -42.43266 24.391788 C 2.882345 25.258038 25.472347 5.930537 42.437348 -25.254466 C 13.727346 -4.914464 -12.518907 3.995536 -42.43266 3.523036 Z M -42.43266 3.523036 " stroke="#231f1f" stroke-width="2" stroke-opacity="1" stroke-miterlimit="4"/><path stroke-linecap="round" transform="matrix(0.347222, 0, 0, 0.347222, 291.398246, 182.785404)" fill-opacity="1" fill="#ffffff" fill-rule="nonzero" stroke-linejoin="round" d="M -49.443204 39.10429 C -49.443204 39.10429 -18.066951 21.711789 -18.066951 21.711789 C -18.066951 21.711789 -0.516949 46.686791 -0.516949 46.686791 C -0.516949 46.686791 49.444306 -20.216965 49.444306 -20.216965 C 49.444306 -20.216965 24.761803 -46.688218 24.761803 -46.688218 C 24.761803 -46.688218 12.038052 -46.688218 12.038052 -46.688218 C 12.038052 -46.688218 11.228052 -34.943217 11.228052 -34.943217 C 11.228052 -34.943217 -49.443204 39.10429 -49.443204 39.10429 Z M -49.443204 39.10429 " stroke="#231f1f" stroke-width="2" stroke-opacity="1" stroke-miterlimit="4"/><path stroke-linecap="round" transform="matrix(0.347222, 0, 0, 0.347222, 265.584333, 186.812493)" fill-opacity="1" fill="#ffffff" fill-rule="nonzero" stroke-linejoin="round" d="M 24.900874 27.506272 C 24.900874 27.506272 3.098372 13.68002 3.098372 13.68002 C 3.098372 13.68002 -21.04413 38.058773 -21.04413 38.058773 C -21.04413 38.058773 -24.90288 -18.134982 -24.90288 -18.134982 C -24.90288 -18.134982 1.264622 -38.058734 1.264622 -38.058734 C 1.264622 -38.058734 1.264622 -16.649982 1.264622 -16.649982 C 1.264622 -16.649982 24.900874 27.506272 24.900874 27.506272 Z M 24.900874 27.506272 " stroke="#231f1f" stroke-width="2" stroke-opacity="1" stroke-miterlimit="4"/><path stroke-linecap="round" transform="matrix(0.347222, 0, 0, 0.347222, 279.291637, 326.696491)" fill-opacity="1" fill="#231f1f" fill-rule="nonzero" stroke-linejoin="round" d="M -102.742423 -27.273398 C -102.742423 -27.273398 -102.742423 8.265356 -102.742423 8.265356 C -40.293667 27.277857 28.950089 24.926607 102.738846 8.265356 C 102.738846 8.265356 100.657596 -24.303397 100.657596 -24.303397 C 21.693839 -12.254646 -47.302418 -11.860896 -102.742423 -27.273398 Z M -102.742423 -27.273398 " stroke="#231f1f" stroke-width="2" stroke-opacity="1" stroke-miterlimit="4"/><path stroke-linecap="round" transform="matrix(0.347222, 0, 0, 0.347222, 275.893023, 207.154146)" fill-opacity="1" fill="#ffffff" fill-rule="nonzero" stroke-linejoin="round" d="M -26.590659 -44.903943 C -26.590659 -44.903943 -2.088157 48.471065 -2.088157 48.471065 C -2.088157 48.471065 26.588096 -48.470194 26.588096 -48.470194 C 26.588096 -48.470194 -4.788157 -31.077692 -4.788157 -31.077692 C -4.788157 -31.077692 -26.590659 -44.903943 -26.590659 -44.903943 Z M -26.590659 -44.903943 " stroke="#231f1f" stroke-width="2" stroke-opacity="1" stroke-miterlimit="4"/><path stroke-linecap="round" transform="matrix(0.347222, 0, 0, 0.347222, 268.312808, 215.584013)" fill-opacity="1" fill="#ffffff" fill-rule="nonzero" stroke-linejoin="round" d="M -15.08714 -50.821962 C -15.08714 -50.821962 15.085363 50.821797 15.085363 50.821797 " stroke="#231f1f" stroke-width="2" stroke-opacity="1" stroke-miterlimit="4"/><path stroke-linecap="round" transform="matrix(0.347222, 0, 0, 0.347222, 283.91316, 213.412836)" fill-opacity="1" fill="#ffffff" fill-rule="nonzero" stroke-linejoin="round" d="M 11.78135 -38.538972 C 11.78135 -38.538972 -11.776153 38.546035 -11.776153 38.546035 " stroke="#231f1f" stroke-width="2" stroke-opacity="1" stroke-miterlimit="4"/><path stroke-linecap="round" transform="matrix(0.347222, 0, 0, 0.347222, 268.766646, 312.003085)" fill="none" stroke-linejoin="round" d="M -65.196697 -5.600136 C -24.584193 5.514865 19.212061 5.593615 65.190815 -1.887635 " stroke="#231f1f" stroke-width="2" stroke-opacity="1" stroke-miterlimit="4"/><path stroke-linecap="round" transform="matrix(0.347222, 0, 0, 0.347222, 326.293373, 257.141995)" fill-opacity="1" fill="#ffffff" fill-rule="nonzero" stroke-linejoin="round" d="M -48.623668 -40.48145 C -48.623668 -40.48145 -39.904917 130.417316 -39.904917 130.417316 C -36.338667 180.423571 35.97634 156.967319 44.942591 120.134815 C 48.621341 7.814805 41.556341 -88.248954 33.04009 -180.420213 C -10.834914 -158.583961 -38.599917 -112.740206 -48.623668 -40.48145 Z M -48.623668 -40.48145 " stroke="#231f1f" stroke-width="2" stroke-opacity="1" stroke-miterlimit="4"/><path stroke-linecap="round" transform="matrix(0.347222, 0, 0, 0.347222, 265.308297, 291.407969)" fill-opacity="1" fill="#ffffff" fill-rule="nonzero" stroke-linejoin="round" d="M -133.772907 -20.513702 C -66.452901 -49.043705 1.733356 -70.677457 54.675861 -78.023708 C 74.644612 -80.791208 94.973364 -78.732458 114.042116 -72.207457 C 114.042116 -72.207457 130.725868 -66.492456 130.725868 -66.492456 C 130.725868 -66.492456 136.879618 -25.396203 136.879618 -25.396203 C 136.879618 -25.396203 88.763364 -27.826203 88.763364 -27.826203 C 88.763364 -27.826203 -72.876651 70.847556 -72.876651 70.847556 C -112.037905 80.792557 -136.877907 63.152556 -133.772907 -20.513702 Z M -133.772907 -20.513702 " stroke="#231f1f" stroke-width="2" stroke-opacity="1" stroke-miterlimit="4"/><path stroke-linecap="round" transform="matrix(0.347222, 0, 0, 0.347222, 290.246822, 288.212823)" fill-opacity="1" fill="#ffffff" fill-rule="nonzero" stroke-linejoin="round" d="M 149.757916 -18.444181 C 100.111661 -39.492933 68.082908 -61.317935 25.692904 -71.656686 C -16.6521 -81.984187 -73.565855 -87.102937 -114.920859 -73.321686 C -114.920859 -73.321686 -154.689612 -61.970435 -154.689612 -61.970435 C -154.689612 -61.970435 -150.459612 -31.831682 -150.459612 -31.831682 C -150.459612 -31.831682 -99.170857 -25.306682 -99.170857 -25.306682 C -79.539605 -22.809181 -60.650854 -16.182931 -43.764602 -5.86668 C -43.764602 -5.86668 92.259161 77.158328 92.259161 77.158328 C 131.420414 87.103329 154.685416 70.869577 149.757916 -18.444181 Z M 149.757916 -18.444181 " stroke="#231f1f" stroke-width="2" stroke-opacity="1" stroke-miterlimit="4"/><path fill="#ffffff" d="M 321.296875 265.195312 C 321.296875 265.195312 322.425781 286.257812 322.425781 286.257812 C 322.425781 286.257812 342.078125 291.117188 342.078125 291.117188 C 342.070312 283.566406 341.8125 275.734375 341.324219 267.640625 C 341.324219 267.640625 321.296875 265.195312 321.296875 265.195312 Z M 321.296875 265.195312 " fill-opacity="1" fill-rule="nonzero"/><path fill="#ffffff" d="M 219.332031 278.21875 C 219.332031 278.21875 219.207031 285.441406 219.207031 285.441406 C 219.207031 285.441406 229.671875 282.089844 229.671875 282.089844 C 229.671875 282.089844 228.90625 274.285156 228.90625 274.285156 C 228.90625 274.285156 219.332031 278.21875 219.332031 278.21875 Z M 219.332031 278.21875 " fill-opacity="1" fill-rule="nonzero"/><path fill="#231f1f" d="M 243.304688 324.820312 C 243.304688 324.820312 243.140625 334.855469 243.140625 334.855469 C 243.140625 334.855469 266.734375 333.664062 266.265625 333.269531 C 265.796875 332.875 266.109375 325.527344 266.109375 325.527344 C 266.109375 325.527344 243.304688 324.820312 243.304688 324.820312 Z M 243.304688 324.820312 " fill-opacity="1" fill-rule="nonzero"/><path fill="#231f1f" d="M 296.9375 148.03125 C 296.9375 148.03125 265.605469 155.390625 265.605469 155.390625 C 265.605469 155.390625 265.339844 159.335938 265.339844 159.335938 C 265.339844 159.335938 265.773438 165.3125 265.773438 165.3125 C 265.773438 165.3125 288.292969 162.730469 293.359375 155.925781 C 298.429688 149.121094 296.382812 152.613281 296.382812 152.613281 C 296.382812 152.613281 296.9375 148.03125 296.9375 148.03125 Z M 296.9375 148.03125 " fill-opacity="1" fill-rule="nonzero"/><path stroke-linecap="round" transform="matrix(0.347222, 0, 0, 0.347222, 246.274265, 111.693391)" fill-opacity="1" fill="#231f1f" fill-rule="nonzero" stroke-linejoin="round" d="M -5.998634 -35.38697 C -10.206135 -7.295717 -4.682384 14.529285 2.348867 35.386787 C 2.348867 35.386787 10.201367 -34.498219 10.201367 -34.498219 C 10.201367 -34.498219 -5.998634 -35.38697 -5.998634 -35.38697 Z M -5.998634 -35.38697 " stroke="#231f1f" stroke-width="2" stroke-opacity="1" stroke-miterlimit="4"/><path stroke-linecap="butt" transform="matrix(0.347222, 0, 0, 0.347222, 272.572544, 124.232615)" fill-opacity="1" fill="#777777" fill-rule="nonzero" stroke-linejoin="miter" d="M 73.47858 -15.744933 C 73.47858 -15.744933 72.803579 28.647571 72.803579 28.647571 C 72.803579 28.647571 69.012329 81.950076 69.012329 81.950076 C 33.777326 106.711329 -3.505178 119.23258 -44.477681 109.580079 C -53.241432 107.521329 -60.295183 100.985078 -63.051433 92.401327 C -75.212684 54.601324 -76.596434 2.198819 -67.483934 -64.367437 C -36.040181 -119.233692 33.552326 -115.881192 76.59483 -70.611188 C 76.59483 -70.611188 73.47858 -15.744933 73.47858 -15.744933 Z M 73.47858 -15.744933 " stroke="#231f1f" stroke-width="2" stroke-opacity="1" stroke-miterlimit="10"/><path stroke-linecap="butt" transform="matrix(0.347222, 0, 0, 0.347222, 303.599956, 124.291998)" fill-opacity="1" fill="#777777" fill-rule="nonzero" stroke-linejoin="miter" d="M -15.891624 -15.915956 C -7.262873 -30.192208 16.677129 -20.820957 9.387128 3.119045 C 1.624628 23.121547 -7.386623 28.262798 -16.679124 30.186548 C -16.679124 30.186548 -15.891624 -15.915956 -15.891624 -15.915956 Z M -15.891624 -15.915956 " stroke="#231f1f" stroke-width="2" stroke-opacity="1" stroke-miterlimit="10"/><path stroke-linecap="round" transform="matrix(0.347222, 0, 0, 0.347222, 258.665935, 128.897908)" fill="none" stroke-linejoin="round" d="M 3.347108 -33.635977 C 2.154608 -8.829725 -3.211642 12.207777 -12.706643 29.476529 C -3.549142 32.761529 4.865858 33.639029 12.707109 32.604029 " stroke="#231f1f" stroke-width="2" stroke-opacity="1" stroke-miterlimit="4"/><path stroke-linecap="round" transform="matrix(0.347222, 0, 0, 0.347222, 274.895084, 92.660056)" fill-opacity="1" fill="#231f1f" fill-rule="nonzero" stroke-linejoin="round" d="M 66.137164 75.184047 C 53.334663 67.275296 44.784662 49.657795 41.218412 20.666542 C 19.20216 29.677793 2.327158 25.211542 -10.036593 8.944041 C -25.730344 23.602792 -46.497846 29.261543 -70.820349 28.631543 C -91.070351 30.544043 -99.305351 20.677792 -96.526601 0.0340401 C -87.6616 -40.994714 -62.720348 -44.752214 -32.221595 -35.583463 C -19.677844 -75.183467 29.585911 -68.388466 32.555911 -35.583463 C 63.774664 -42.187214 80.953415 -35.470963 72.234665 -4.18471 C 92.473417 -2.19346 99.313417 8.719041 93.373417 28.159043 C 93.373417 28.159043 85.723416 70.504047 85.723416 70.504047 C 79.074665 68.951547 72.560915 70.852797 66.137164 75.184047 Z M 66.137164 75.184047 " stroke="#231f1f" stroke-width="2" stroke-opacity="1" stroke-miterlimit="4"/><path stroke-linecap="round" transform="matrix(0.347222, 0, 0, 0.347222, 278.413844, 117.002424)" fill="none" stroke-linejoin="round" d="M -12.261871 -4.31573 C -1.41687 -5.94698 6.76188 -2.52698 12.263131 5.944271 " stroke="#231f20" stroke-width="2" stroke-opacity="1" stroke-miterlimit="4"/><path stroke-linecap="round" transform="matrix(0.347222, 0, 0, 0.347222, 253.696833, 114.639916)" fill="none" stroke-linejoin="round" d="M -9.701881 3.298291 C -4.774381 -0.96546 1.21062 -3.29421 9.704371 -1.01046 " stroke="#231f1f" stroke-width="2" stroke-opacity="1" stroke-miterlimit="4"/><path stroke-linecap="round" transform="matrix(0.347222, 0, 0, 0.347222, 276.684332, 124.832629)" fill-opacity="1" fill="#231f1f" fill-rule="nonzero" stroke-linejoin="round" d="M 4.981625 -0.00172268 C 4.981625 5.465778 2.754124 9.887028 -0.00212596 9.887028 C -2.747126 9.887028 -4.985876 5.465778 -4.985876 -0.00172268 C -4.985876 -5.457973 -2.747126 -9.890474 -0.00212596 -9.890474 C 2.754124 -9.890474 4.981625 -5.457973 4.981625 -0.00172268 Z M 4.981625 -0.00172268 " stroke="#231f1f" stroke-width="2" stroke-opacity="1" stroke-miterlimit="4"/><path stroke-linecap="round" transform="matrix(0.347222, 0, 0, 0.347222, 252.94824, 122.795822)" fill-opacity="1" fill="#231f1f" fill-rule="nonzero" stroke-linejoin="round" d="M 3.940319 0.00303398 C 3.940319 4.435534 2.174069 8.035535 0.00281912 8.035535 C -2.179681 8.035535 -3.945931 4.435534 -3.945931 0.00303398 C -3.945931 -4.440716 -2.179681 -8.040717 0.00281912 -8.040717 C 2.174069 -8.040717 3.940319 -4.440716 3.940319 0.00303398 Z M 3.940319 0.00303398 " stroke="#231f1f" stroke-width="2" stroke-opacity="1" stroke-miterlimit="4"/><path stroke-linecap="butt" transform="matrix(0.347222, 0, 0, 0.347222, 271.688511, 149.597203)" fill-opacity="1" fill="#231f1f" fill-rule="nonzero" stroke-linejoin="miter" d="M -20.342915 -1.528695 C -8.429164 19.407557 20.337089 3.230056 17.108339 -19.404946 C 5.464588 -9.684945 -6.966664 -3.519945 -20.342915 -1.528695 Z M -20.342915 -1.528695 " stroke="#231f1f" stroke-width="2" stroke-opacity="1" stroke-miterlimit="10"/><path stroke-linecap="round" transform="matrix(0.347222, 0, 0, 0.347222, 171.052757, 284.422892)" fill-opacity="1" fill="#02c37e" fill-rule="nonzero" stroke-linejoin="round" d="M 13.46056 -0.00292816 C 13.46056 7.433323 7.43056 13.452073 0.00555907 13.452073 C -7.430692 13.452073 -13.449442 7.433323 -13.449442 -0.00292816 C -13.449442 -7.427929 -7.430692 -13.457929 0.00555907 -13.457929 C 7.43056 -13.457929 13.46056 -7.427929 13.46056 -0.00292816 Z M 13.46056 -0.00292816 " stroke="#231f1f" stroke-width="2" stroke-opacity="1" stroke-miterlimit="4"/><path stroke-linecap="round" transform="matrix(0.347222, 0, 0, 0.347222, 171.052757, 294.662822)" fill-opacity="1" fill="#02c37e" fill-rule="nonzero" stroke-linejoin="round" d="M 19.096811 13.874823 C 19.096811 13.874823 -19.096943 13.874823 -19.096943 13.874823 C -19.096943 13.874823 -19.096943 5.223572 -19.096943 5.223572 C -19.096943 -5.317679 -10.546942 -13.878929 0.00555907 -13.878929 C 10.54681 -13.878929 19.096811 -5.317679 19.096811 5.223572 C 19.096811 5.223572 19.096811 13.874823 19.096811 13.874823 Z M 19.096811 13.874823 " stroke="#231f1f" stroke-width="2" stroke-opacity="1" stroke-miterlimit="4"/><path stroke-linecap="round" transform="matrix(0.347222, 0, 0, 0.347222, 195.786085, 284.422892)" fill-opacity="1" fill="#02c37e" fill-rule="nonzero" stroke-linejoin="round" d="M 13.452326 -0.00292816 C 13.452326 7.433323 7.433575 13.452073 -0.0026755 13.452073 C -7.427676 13.452073 -13.457677 7.433323 -13.457677 -0.00292816 C -13.457677 -7.427929 -7.427676 -13.457929 -0.0026755 -13.457929 C 7.433575 -13.457929 13.452326 -7.427929 13.452326 -0.00292816 Z M 13.452326 -0.00292816 " stroke="#231f1f" stroke-width="2" stroke-opacity="1" stroke-miterlimit="4"/><path stroke-linecap="round" transform="matrix(0.347222, 0, 0, 0.347222, 195.786085, 294.662822)" fill-opacity="1" fill="#02c37e" fill-rule="nonzero" stroke-linejoin="round" d="M 19.099826 13.874823 C 19.099826 13.874823 -19.105177 13.874823 -19.105177 13.874823 C -19.105177 13.874823 -19.105177 5.223572 -19.105177 5.223572 C -19.105177 -5.317679 -10.543926 -13.878929 -0.0026755 -13.878929 C 10.549825 -13.878929 19.099826 -5.317679 19.099826 5.223572 C 19.099826 5.223572 19.099826 13.874823 19.099826 13.874823 Z M 19.099826 13.874823 " stroke="#231f1f" stroke-width="2" stroke-opacity="1" stroke-miterlimit="4"/><path stroke-linecap="round" transform="matrix(0.28125, 0, 0, 0.28125, 183.419788, 283.831709)" fill-opacity="1" fill="#777777" fill-rule="nonzero" stroke-linejoin="round" d="M 17.549087 0.00114449 C 17.549087 9.69559 9.687975 17.542812 -0.00647006 17.542812 C -9.687026 17.542812 -17.548138 9.69559 -17.548138 0.00114449 C -17.548138 -9.693301 -9.687026 -17.540523 -0.00647006 -17.540523 C 9.687975 -17.540523 17.549087 -9.693301 17.549087 0.00114449 Z M 17.549087 0.00114449 " stroke="#231f1f" stroke-width="2" stroke-opacity="1" stroke-miterlimit="4"/><path stroke-linecap="round" transform="matrix(0.28125, 0, 0, 0.28125, 183.419788, 294.647179)" fill-opacity="1" fill="#777777" fill-rule="nonzero" stroke-linejoin="round" d="M 24.910198 18.087809 C 24.910198 18.087809 -24.909249 18.087809 -24.909249 18.087809 C -24.909249 18.087809 -24.909249 6.81003 -24.909249 6.81003 C -24.909249 -6.93997 -13.756471 -18.092749 -0.00647006 -18.092749 C 13.75742 -18.092749 24.910198 -6.93997 24.910198 6.81003 C 24.910198 6.81003 24.910198 18.087809 24.910198 18.087809 Z M 24.910198 18.087809 " stroke="#231f1f" stroke-width="2" stroke-opacity="1" stroke-miterlimit="4"/></svg>