<svg xmlns="http://www.w3.org/2000/svg" xmlns:xlink="http://www.w3.org/1999/xlink" width="500" zoomAndPan="magnify" viewBox="0 0 375 374.999991" height="500" preserveAspectRatio="xMidYMid meet" version="1.0"><defs><clipPath id="831412e793"><path d="M 74 334 L 83 334 L 83 343.335938 L 74 343.335938 Z M 74 334 " clip-rule="nonzero"/></clipPath><clipPath id="daaf3871f2"><path d="M 7.121094 56 L 267 56 L 267 166 L 7.121094 166 Z M 7.121094 56 " clip-rule="nonzero"/></clipPath><clipPath id="480bf612f2"><path d="M 7.121094 69 L 171 69 L 171 238 L 7.121094 238 Z M 7.121094 69 " clip-rule="nonzero"/></clipPath><clipPath id="5564247ee8"><path d="M 7.121094 42 L 240 42 L 240 135 L 7.121094 135 Z M 7.121094 42 " clip-rule="nonzero"/></clipPath><clipPath id="61c53d77c5"><path d="M 101 31.335938 L 364 31.335938 L 364 94 L 101 94 Z M 101 31.335938 " clip-rule="nonzero"/></clipPath><clipPath id="caecc513ee"><path d="M 123 31.335938 L 328 31.335938 L 328 71 L 123 71 Z M 123 31.335938 " clip-rule="nonzero"/></clipPath><clipPath id="47de6b1f68"><path d="M 7.121094 82 L 70 82 L 70 274 L 7.121094 274 Z M 7.121094 82 " clip-rule="nonzero"/></clipPath><clipPath id="8d25824090"><path d="M 359 73 L 367.871094 73 L 367.871094 83 L 359 83 Z M 359 73 " clip-rule="nonzero"/></clipPath></defs><g clip-path="url(#831412e793)"><path fill="#1074ba" d="M 82.886719 338.921875 C 82.886719 339.207031 82.859375 339.492188 82.800781 339.777344 C 82.746094 340.058594 82.660156 340.332031 82.550781 340.597656 C 82.441406 340.867188 82.304688 341.117188 82.144531 341.359375 C 81.984375 341.597656 81.804688 341.820312 81.601562 342.023438 C 81.394531 342.226562 81.175781 342.40625 80.933594 342.566406 C 80.695312 342.726562 80.441406 342.863281 80.175781 342.972656 C 79.910156 343.082031 79.632812 343.167969 79.351562 343.222656 C 79.070312 343.277344 78.78125 343.308594 78.496094 343.308594 C 78.207031 343.308594 77.921875 343.277344 77.636719 343.222656 C 77.355469 343.167969 77.082031 343.082031 76.8125 342.972656 C 76.546875 342.863281 76.296875 342.726562 76.054688 342.566406 C 75.816406 342.40625 75.59375 342.226562 75.390625 342.023438 C 75.1875 341.820312 75.003906 341.597656 74.84375 341.359375 C 74.683594 341.117188 74.546875 340.867188 74.4375 340.597656 C 74.328125 340.332031 74.246094 340.058594 74.1875 339.777344 C 74.132812 339.492188 74.105469 339.207031 74.105469 338.921875 C 74.105469 338.632812 74.132812 338.347656 74.1875 338.066406 C 74.246094 337.78125 74.328125 337.507812 74.4375 337.242188 C 74.546875 336.976562 74.683594 336.722656 74.84375 336.484375 C 75.003906 336.242188 75.1875 336.023438 75.390625 335.820312 C 75.59375 335.617188 75.816406 335.433594 76.054688 335.273438 C 76.292969 335.113281 76.546875 334.976562 76.8125 334.867188 C 77.082031 334.757812 77.355469 334.675781 77.636719 334.617188 C 77.921875 334.5625 78.207031 334.535156 78.496094 334.535156 C 78.78125 334.535156 79.070312 334.5625 79.351562 334.617188 C 79.632812 334.675781 79.910156 334.757812 80.175781 334.867188 C 80.441406 334.976562 80.695312 335.113281 80.933594 335.273438 C 81.175781 335.433594 81.394531 335.617188 81.601562 335.820312 C 81.804688 336.023438 81.984375 336.242188 82.144531 336.484375 C 82.304688 336.722656 82.441406 336.976562 82.550781 337.242188 C 82.660156 337.507812 82.746094 337.78125 82.800781 338.066406 C 82.859375 338.347656 82.886719 338.632812 82.886719 338.921875 Z M 82.886719 338.921875 " fill-opacity="1" fill-rule="nonzero"/></g><g clip-path="url(#daaf3871f2)"><path fill="#f59122" d="M 266.289062 165.851562 L 219.632812 165.851562 L 207.011719 152.695312 L 143.320312 152.695312 L 94.292969 102.601562 L 94.292969 73.035156 L 79.121094 59.445312 L 7.121094 59.445312 L 7.121094 56.996094 L 80.0625 56.996094 L 96.746094 71.9375 L 96.746094 101.605469 L 144.359375 150.246094 L 208.070312 150.246094 L 220.691406 163.40625 L 266.289062 163.40625 Z M 266.289062 165.851562 " fill-opacity="1" fill-rule="nonzero"/></g><g clip-path="url(#480bf612f2)"><path fill="#066cb1" d="M 169.824219 237.953125 L 138.382812 207.464844 L 138.382812 167.597656 L 77.984375 107.8125 L 77.984375 79.847656 L 67.320312 70.273438 L 7.121094 70.273438 L 7.121094 69.214844 L 67.714844 69.214844 L 79.023438 79.378906 L 79.023438 107.359375 L 139.421875 167.164062 L 139.421875 207.035156 L 170.570312 237.210938 Z M 169.824219 237.953125 " fill-opacity="1" fill-rule="nonzero"/></g><g clip-path="url(#5564247ee8)"><path fill="#066cb1" d="M 239.921875 134.445312 L 149.125 134.445312 L 112.5625 97.941406 L 112.5625 64.476562 L 93.097656 43.933594 L 7.121094 43.933594 L 7.121094 42.898438 L 93.550781 42.898438 L 113.621094 64.046875 L 113.621094 97.492188 L 149.554688 133.386719 L 239.921875 133.386719 Z M 239.921875 134.445312 " fill-opacity="1" fill-rule="nonzero"/></g><g clip-path="url(#61c53d77c5)"><path fill="#066cb1" d="M 211.046875 93.300781 L 151.320312 93.300781 L 126.835938 69.960938 L 126.835938 58.445312 L 101.195312 32.105469 L 101.941406 31.363281 L 127.894531 58.015625 L 127.894531 69.507812 L 151.75 92.261719 L 210.617188 92.261719 L 225.4375 77.988281 L 363.480469 77.441406 L 363.480469 78.496094 L 225.867188 79.046875 Z M 211.046875 93.300781 " fill-opacity="1" fill-rule="nonzero"/></g><g clip-path="url(#caecc513ee)"><path fill="#066cb1" d="M 195.679688 70.273438 L 159.53125 70.273438 L 123.148438 32.085938 L 123.914062 31.363281 L 159.984375 69.214844 L 195.25 69.214844 L 214.460938 50.21875 L 327.234375 50.21875 L 327.234375 51.257812 L 214.890625 51.257812 Z M 195.679688 70.273438 " fill-opacity="1" fill-rule="nonzero"/></g><g clip-path="url(#47de6b1f68)"><path fill="#066cb1" d="M 69.691406 273.242188 L 68.632812 273.242188 L 68.632812 237.796875 L 38.445312 204.878906 L 38.445312 133.699219 L 62.046875 111.199219 L 62.046875 88.894531 L 56.324219 83.433594 L 7.121094 83.433594 L 7.121094 82.375 L 56.753906 82.375 L 63.105469 88.445312 L 63.105469 111.648438 L 39.484375 134.148438 L 39.484375 204.46875 L 69.691406 237.386719 Z M 69.691406 273.242188 " fill-opacity="1" fill-rule="nonzero"/></g><path fill="#066cb1" d="M 81.21875 290.238281 L 80.179688 290.238281 L 80.179688 230.121094 L 50.523438 198.847656 L 50.523438 140.808594 L 68.8125 124.203125 L 69.515625 124.984375 L 51.582031 141.277344 L 51.582031 198.4375 L 81.21875 229.691406 Z M 81.21875 290.238281 " fill-opacity="1" fill-rule="nonzero"/><path fill="#066cb1" d="M 130.304688 329.011719 L 90.609375 290.453125 L 90.609375 224.640625 L 61.5 196.128906 L 61.5 149.816406 L 62.558594 149.816406 L 62.558594 195.675781 L 91.648438 224.207031 L 91.648438 290.023438 L 131.03125 328.269531 Z M 130.304688 329.011719 " fill-opacity="1" fill-rule="nonzero"/><path fill="#066cb1" d="M 53.421875 331.066406 L 19.078125 297.601562 L 19.078125 223.933594 L 27.742188 215.296875 L 27.742188 138.574219 L 28.78125 138.574219 L 28.78125 215.730469 L 20.136719 224.363281 L 20.136719 297.152344 L 54.167969 330.324219 Z M 53.421875 331.066406 " fill-opacity="1" fill-rule="nonzero"/><path fill="#066cb1" d="M 78.121094 339.292969 L 28.136719 288.535156 L 30.214844 234.625 L 31.253906 234.664062 L 29.214844 288.125 L 78.886719 338.546875 Z M 78.121094 339.292969 " fill-opacity="1" fill-rule="nonzero"/><path fill="#1074ba" d="M 58.1875 330.695312 C 58.1875 330.984375 58.15625 331.269531 58.101562 331.550781 C 58.046875 331.835938 57.960938 332.109375 57.851562 332.375 C 57.742188 332.640625 57.605469 332.894531 57.445312 333.132812 C 57.285156 333.371094 57.105469 333.59375 56.898438 333.796875 C 56.695312 334 56.472656 334.183594 56.234375 334.34375 C 55.996094 334.503906 55.742188 334.636719 55.476562 334.75 C 55.210938 334.859375 54.933594 334.941406 54.652344 335 C 54.367188 335.054688 54.082031 335.082031 53.796875 335.082031 C 53.507812 335.082031 53.222656 335.054688 52.9375 335 C 52.65625 334.941406 52.382812 334.859375 52.113281 334.75 C 51.847656 334.636719 51.59375 334.503906 51.355469 334.34375 C 51.117188 334.183594 50.894531 334 50.691406 333.796875 C 50.488281 333.59375 50.304688 333.371094 50.144531 333.132812 C 49.984375 332.894531 49.847656 332.640625 49.738281 332.375 C 49.628906 332.109375 49.542969 331.835938 49.488281 331.550781 C 49.433594 331.269531 49.402344 330.984375 49.402344 330.695312 C 49.402344 330.40625 49.433594 330.121094 49.488281 329.839844 C 49.542969 329.558594 49.628906 329.285156 49.738281 329.015625 C 49.847656 328.75 49.984375 328.5 50.144531 328.257812 C 50.304688 328.019531 50.488281 327.796875 50.691406 327.59375 C 50.894531 327.390625 51.117188 327.207031 51.355469 327.050781 C 51.59375 326.890625 51.847656 326.753906 52.113281 326.644531 C 52.382812 326.535156 52.65625 326.449219 52.9375 326.394531 C 53.222656 326.335938 53.507812 326.308594 53.796875 326.308594 C 54.082031 326.308594 54.367188 326.335938 54.652344 326.394531 C 54.933594 326.449219 55.210938 326.535156 55.476562 326.644531 C 55.742188 326.753906 55.996094 326.890625 56.234375 327.050781 C 56.472656 327.207031 56.695312 327.390625 56.898438 327.59375 C 57.105469 327.796875 57.285156 328.019531 57.445312 328.257812 C 57.605469 328.5 57.742188 328.75 57.851562 329.015625 C 57.960938 329.285156 58.046875 329.558594 58.101562 329.839844 C 58.15625 330.121094 58.1875 330.40625 58.1875 330.695312 Z M 58.1875 330.695312 " fill-opacity="1" fill-rule="nonzero"/><path fill="#1074ba" d="M 136.148438 328.640625 C 136.148438 328.929688 136.117188 329.214844 136.0625 329.496094 C 136.007812 329.777344 135.921875 330.050781 135.8125 330.320312 C 135.703125 330.585938 135.566406 330.835938 135.40625 331.078125 C 135.246094 331.316406 135.0625 331.539062 134.859375 331.742188 C 134.65625 331.945312 134.433594 332.128906 134.195312 332.289062 C 133.957031 332.445312 133.703125 332.582031 133.4375 332.691406 C 133.167969 332.800781 132.894531 332.886719 132.613281 332.941406 C 132.328125 333 132.042969 333.027344 131.753906 333.027344 C 131.46875 333.027344 131.179688 333 130.898438 332.941406 C 130.617188 332.886719 130.339844 332.800781 130.074219 332.691406 C 129.808594 332.582031 129.554688 332.445312 129.316406 332.285156 C 129.078125 332.128906 128.855469 331.945312 128.652344 331.742188 C 128.445312 331.539062 128.265625 331.316406 128.105469 331.078125 C 127.945312 330.835938 127.808594 330.585938 127.699219 330.320312 C 127.589844 330.050781 127.503906 329.777344 127.449219 329.496094 C 127.390625 329.214844 127.363281 328.929688 127.363281 328.640625 C 127.363281 328.351562 127.390625 328.066406 127.449219 327.785156 C 127.503906 327.5 127.589844 327.226562 127.699219 326.960938 C 127.808594 326.695312 127.945312 326.441406 128.105469 326.203125 C 128.265625 325.964844 128.445312 325.742188 128.652344 325.539062 C 128.855469 325.335938 129.078125 325.152344 129.316406 324.992188 C 129.554688 324.832031 129.808594 324.699219 130.074219 324.585938 C 130.339844 324.476562 130.617188 324.394531 130.898438 324.335938 C 131.179688 324.28125 131.46875 324.253906 131.753906 324.253906 C 132.042969 324.253906 132.328125 324.28125 132.613281 324.335938 C 132.894531 324.394531 133.167969 324.476562 133.4375 324.585938 C 133.703125 324.699219 133.957031 324.832031 134.195312 324.992188 C 134.433594 325.152344 134.65625 325.335938 134.859375 325.539062 C 135.0625 325.742188 135.246094 325.964844 135.40625 326.203125 C 135.566406 326.441406 135.703125 326.695312 135.8125 326.960938 C 135.921875 327.226562 136.007812 327.5 136.0625 327.785156 C 136.117188 328.066406 136.148438 328.351562 136.148438 328.640625 Z M 136.148438 328.640625 " fill-opacity="1" fill-rule="nonzero"/><path fill="#1074ba" d="M 155.101562 308.882812 C 155.101562 309.167969 155.074219 309.453125 155.019531 309.738281 C 154.960938 310.019531 154.878906 310.292969 154.769531 310.558594 C 154.65625 310.828125 154.523438 311.078125 154.363281 311.320312 C 154.203125 311.558594 154.019531 311.78125 153.816406 311.984375 C 153.613281 312.1875 153.390625 312.367188 153.152344 312.527344 C 152.910156 312.6875 152.65625 312.824219 152.390625 312.933594 C 152.125 313.042969 151.851562 313.128906 151.566406 313.183594 C 151.285156 313.238281 151 313.269531 150.710938 313.269531 C 150.421875 313.269531 150.136719 313.238281 149.855469 313.183594 C 149.570312 313.128906 149.296875 313.042969 149.03125 312.933594 C 148.765625 312.824219 148.511719 312.6875 148.273438 312.527344 C 148.03125 312.367188 147.808594 312.1875 147.605469 311.984375 C 147.402344 311.78125 147.21875 311.558594 147.058594 311.320312 C 146.898438 311.078125 146.765625 310.828125 146.65625 310.558594 C 146.542969 310.292969 146.460938 310.019531 146.40625 309.738281 C 146.347656 309.453125 146.320312 309.167969 146.320312 308.882812 C 146.320312 308.59375 146.347656 308.308594 146.40625 308.027344 C 146.460938 307.742188 146.542969 307.46875 146.65625 307.203125 C 146.765625 306.9375 146.898438 306.683594 147.058594 306.445312 C 147.21875 306.207031 147.402344 305.984375 147.605469 305.78125 C 147.808594 305.578125 148.03125 305.394531 148.273438 305.234375 C 148.511719 305.074219 148.765625 304.9375 149.03125 304.828125 C 149.296875 304.71875 149.570312 304.636719 149.855469 304.578125 C 150.136719 304.523438 150.421875 304.496094 150.710938 304.496094 C 151 304.496094 151.285156 304.523438 151.566406 304.578125 C 151.851562 304.636719 152.125 304.71875 152.390625 304.828125 C 152.65625 304.9375 152.910156 305.074219 153.152344 305.234375 C 153.390625 305.394531 153.613281 305.578125 153.816406 305.78125 C 154.019531 305.984375 154.203125 306.207031 154.363281 306.445312 C 154.523438 306.683594 154.65625 306.9375 154.769531 307.203125 C 154.878906 307.46875 154.960938 307.742188 155.019531 308.027344 C 155.074219 308.308594 155.101562 308.59375 155.101562 308.882812 Z M 155.101562 308.882812 " fill-opacity="1" fill-rule="nonzero"/><path fill="#1074ba" d="M 85.082031 290.238281 C 85.082031 290.527344 85.054688 290.8125 84.996094 291.09375 C 84.941406 291.378906 84.855469 291.652344 84.746094 291.917969 C 84.636719 292.183594 84.5 292.4375 84.339844 292.675781 C 84.179688 292.914062 84 293.136719 83.796875 293.339844 C 83.589844 293.542969 83.371094 293.726562 83.128906 293.886719 C 82.890625 294.046875 82.636719 294.179688 82.371094 294.292969 C 82.105469 294.402344 81.828125 294.484375 81.546875 294.542969 C 81.265625 294.597656 80.980469 294.625 80.691406 294.625 C 80.402344 294.625 80.117188 294.597656 79.832031 294.542969 C 79.550781 294.484375 79.277344 294.402344 79.011719 294.292969 C 78.742188 294.179688 78.492188 294.046875 78.25 293.886719 C 78.011719 293.726562 77.789062 293.542969 77.585938 293.339844 C 77.382812 293.136719 77.199219 292.914062 77.039062 292.675781 C 76.878906 292.4375 76.742188 292.183594 76.632812 291.917969 C 76.523438 291.652344 76.441406 291.378906 76.382812 291.09375 C 76.328125 290.8125 76.300781 290.527344 76.300781 290.238281 C 76.300781 289.953125 76.328125 289.667969 76.382812 289.382812 C 76.441406 289.101562 76.523438 288.828125 76.632812 288.5625 C 76.742188 288.292969 76.878906 288.042969 77.039062 287.800781 C 77.199219 287.5625 77.382812 287.339844 77.585938 287.136719 C 77.789062 286.933594 78.011719 286.753906 78.25 286.59375 C 78.492188 286.433594 78.742188 286.296875 79.011719 286.1875 C 79.277344 286.078125 79.550781 285.992188 79.832031 285.9375 C 80.117188 285.882812 80.402344 285.851562 80.691406 285.851562 C 80.980469 285.851562 81.265625 285.882812 81.546875 285.9375 C 81.828125 285.992188 82.105469 286.078125 82.371094 286.1875 C 82.636719 286.296875 82.890625 286.433594 83.128906 286.59375 C 83.371094 286.753906 83.589844 286.933594 83.796875 287.136719 C 84 287.339844 84.179688 287.5625 84.339844 287.800781 C 84.5 288.042969 84.636719 288.292969 84.746094 288.5625 C 84.855469 288.828125 84.941406 289.101562 84.996094 289.382812 C 85.054688 289.667969 85.082031 289.953125 85.082031 290.238281 Z M 85.082031 290.238281 " fill-opacity="1" fill-rule="nonzero"/><path fill="#1074ba" d="M 73.554688 273.242188 C 73.554688 273.53125 73.527344 273.816406 73.46875 274.097656 C 73.414062 274.378906 73.332031 274.65625 73.21875 274.921875 C 73.109375 275.1875 72.976562 275.4375 72.816406 275.679688 C 72.65625 275.917969 72.472656 276.140625 72.269531 276.34375 C 72.066406 276.546875 71.84375 276.730469 71.601562 276.890625 C 71.363281 277.050781 71.109375 277.183594 70.84375 277.292969 C 70.578125 277.40625 70.304688 277.488281 70.019531 277.542969 C 69.738281 277.601562 69.453125 277.628906 69.164062 277.628906 C 68.875 277.628906 68.589844 277.601562 68.308594 277.542969 C 68.023438 277.488281 67.75 277.40625 67.484375 277.292969 C 67.21875 277.183594 66.964844 277.050781 66.722656 276.890625 C 66.484375 276.730469 66.261719 276.546875 66.058594 276.34375 C 65.855469 276.140625 65.671875 275.917969 65.511719 275.679688 C 65.351562 275.4375 65.21875 275.1875 65.105469 274.921875 C 64.996094 274.65625 64.914062 274.378906 64.855469 274.097656 C 64.800781 273.816406 64.773438 273.53125 64.773438 273.242188 C 64.773438 272.953125 64.800781 272.667969 64.855469 272.386719 C 64.914062 272.105469 64.996094 271.828125 65.105469 271.5625 C 65.21875 271.296875 65.351562 271.042969 65.511719 270.804688 C 65.671875 270.566406 65.855469 270.34375 66.058594 270.140625 C 66.261719 269.9375 66.484375 269.753906 66.722656 269.59375 C 66.964844 269.433594 67.21875 269.300781 67.484375 269.1875 C 67.75 269.078125 68.023438 268.996094 68.308594 268.941406 C 68.589844 268.882812 68.875 268.855469 69.164062 268.855469 C 69.453125 268.855469 69.738281 268.882812 70.019531 268.941406 C 70.304688 268.996094 70.578125 269.078125 70.84375 269.1875 C 71.109375 269.300781 71.363281 269.433594 71.601562 269.59375 C 71.84375 269.753906 72.066406 269.9375 72.269531 270.140625 C 72.472656 270.34375 72.65625 270.566406 72.816406 270.804688 C 72.976562 271.042969 73.109375 271.296875 73.21875 271.5625 C 73.332031 271.828125 73.414062 272.105469 73.46875 272.386719 C 73.527344 272.667969 73.554688 272.953125 73.554688 273.242188 Z M 73.554688 273.242188 " fill-opacity="1" fill-rule="nonzero"/><path fill="#066cb1" d="M 66.417969 149.816406 C 66.417969 150.101562 66.390625 150.390625 66.335938 150.671875 C 66.277344 150.953125 66.195312 151.226562 66.085938 151.492188 C 65.976562 151.761719 65.839844 152.011719 65.679688 152.253906 C 65.519531 152.492188 65.335938 152.714844 65.132812 152.917969 C 64.929688 153.121094 64.707031 153.300781 64.46875 153.460938 C 64.226562 153.621094 63.976562 153.757812 63.707031 153.867188 C 63.441406 153.976562 63.167969 154.0625 62.886719 154.117188 C 62.601562 154.171875 62.316406 154.203125 62.027344 154.203125 C 61.738281 154.203125 61.453125 154.171875 61.171875 154.117188 C 60.890625 154.0625 60.613281 153.976562 60.347656 153.867188 C 60.082031 153.757812 59.828125 153.621094 59.589844 153.460938 C 59.347656 153.300781 59.128906 153.121094 58.921875 152.917969 C 58.71875 152.714844 58.539062 152.492188 58.378906 152.253906 C 58.21875 152.011719 58.082031 151.761719 57.972656 151.492188 C 57.859375 151.226562 57.777344 150.953125 57.722656 150.671875 C 57.664062 150.390625 57.636719 150.101562 57.636719 149.816406 C 57.636719 149.527344 57.664062 149.242188 57.722656 148.960938 C 57.777344 148.675781 57.859375 148.402344 57.972656 148.136719 C 58.082031 147.871094 58.21875 147.617188 58.378906 147.378906 C 58.539062 147.140625 58.71875 146.917969 58.921875 146.714844 C 59.128906 146.511719 59.347656 146.328125 59.589844 146.167969 C 59.828125 146.007812 60.082031 145.875 60.347656 145.761719 C 60.613281 145.652344 60.890625 145.570312 61.171875 145.511719 C 61.453125 145.457031 61.738281 145.429688 62.027344 145.429688 C 62.316406 145.429688 62.601562 145.457031 62.886719 145.511719 C 63.167969 145.570312 63.441406 145.652344 63.707031 145.761719 C 63.976562 145.875 64.226562 146.007812 64.46875 146.167969 C 64.707031 146.328125 64.929688 146.511719 65.132812 146.714844 C 65.335938 146.917969 65.519531 147.140625 65.679688 147.378906 C 65.839844 147.617188 65.976562 147.871094 66.085938 148.136719 C 66.195312 148.402344 66.277344 148.675781 66.335938 148.960938 C 66.390625 149.242188 66.417969 149.527344 66.417969 149.816406 Z M 66.417969 149.816406 " fill-opacity="1" fill-rule="nonzero"/><path fill="#066cb1" d="M 100.742188 157.511719 C 100.742188 157.800781 100.714844 158.085938 100.660156 158.367188 C 100.601562 158.648438 100.519531 158.921875 100.410156 159.191406 C 100.300781 159.457031 100.164062 159.707031 100.003906 159.949219 C 99.84375 160.1875 99.660156 160.410156 99.457031 160.613281 C 99.253906 160.816406 99.03125 161 98.792969 161.160156 C 98.550781 161.320312 98.300781 161.453125 98.035156 161.5625 C 97.765625 161.675781 97.492188 161.757812 97.210938 161.8125 C 96.925781 161.871094 96.640625 161.898438 96.351562 161.898438 C 96.066406 161.898438 95.777344 161.871094 95.496094 161.8125 C 95.214844 161.757812 94.9375 161.675781 94.671875 161.5625 C 94.40625 161.453125 94.152344 161.320312 93.914062 161.160156 C 93.671875 161 93.453125 160.816406 93.246094 160.613281 C 93.042969 160.410156 92.863281 160.1875 92.703125 159.949219 C 92.542969 159.707031 92.40625 159.457031 92.296875 159.191406 C 92.1875 158.921875 92.101562 158.648438 92.046875 158.367188 C 91.988281 158.085938 91.960938 157.800781 91.960938 157.511719 C 91.960938 157.222656 91.988281 156.9375 92.046875 156.65625 C 92.101562 156.371094 92.1875 156.097656 92.296875 155.832031 C 92.40625 155.566406 92.542969 155.3125 92.703125 155.074219 C 92.863281 154.835938 93.042969 154.613281 93.246094 154.410156 C 93.453125 154.207031 93.671875 154.023438 93.914062 153.863281 C 94.152344 153.703125 94.40625 153.570312 94.671875 153.457031 C 94.9375 153.347656 95.214844 153.265625 95.496094 153.210938 C 95.777344 153.152344 96.066406 153.125 96.351562 153.125 C 96.640625 153.125 96.925781 153.152344 97.210938 153.210938 C 97.492188 153.265625 97.765625 153.347656 98.035156 153.457031 C 98.300781 153.570312 98.550781 153.703125 98.792969 153.863281 C 99.03125 154.023438 99.253906 154.207031 99.457031 154.410156 C 99.660156 154.613281 99.84375 154.835938 100.003906 155.074219 C 100.164062 155.3125 100.300781 155.566406 100.410156 155.832031 C 100.519531 156.097656 100.601562 156.371094 100.660156 156.65625 C 100.714844 156.9375 100.742188 157.222656 100.742188 157.511719 Z M 100.742188 157.511719 " fill-opacity="1" fill-rule="nonzero"/><path fill="#066cb1" d="M 73.554688 124.59375 C 73.554688 124.882812 73.527344 125.167969 73.46875 125.449219 C 73.414062 125.730469 73.332031 126.007812 73.21875 126.273438 C 73.109375 126.539062 72.976562 126.792969 72.816406 127.03125 C 72.65625 127.269531 72.472656 127.492188 72.269531 127.695312 C 72.066406 127.898438 71.84375 128.082031 71.601562 128.242188 C 71.363281 128.402344 71.109375 128.535156 70.84375 128.644531 C 70.578125 128.757812 70.304688 128.839844 70.019531 128.894531 C 69.738281 128.953125 69.453125 128.980469 69.164062 128.980469 C 68.875 128.980469 68.589844 128.953125 68.308594 128.894531 C 68.023438 128.839844 67.75 128.757812 67.484375 128.644531 C 67.21875 128.535156 66.964844 128.402344 66.722656 128.242188 C 66.484375 128.082031 66.261719 127.898438 66.058594 127.695312 C 65.855469 127.492188 65.671875 127.269531 65.511719 127.03125 C 65.351562 126.792969 65.21875 126.539062 65.105469 126.273438 C 64.996094 126.007812 64.914062 125.730469 64.855469 125.449219 C 64.800781 125.167969 64.773438 124.882812 64.773438 124.59375 C 64.773438 124.304688 64.800781 124.019531 64.855469 123.738281 C 64.914062 123.457031 64.996094 123.179688 65.105469 122.914062 C 65.21875 122.648438 65.351562 122.394531 65.511719 122.15625 C 65.671875 121.917969 65.855469 121.695312 66.058594 121.492188 C 66.261719 121.289062 66.484375 121.105469 66.722656 120.945312 C 66.964844 120.785156 67.21875 120.652344 67.484375 120.542969 C 67.75 120.429688 68.023438 120.347656 68.308594 120.292969 C 68.589844 120.234375 68.875 120.207031 69.164062 120.207031 C 69.453125 120.207031 69.738281 120.234375 70.019531 120.292969 C 70.304688 120.347656 70.578125 120.429688 70.84375 120.542969 C 71.109375 120.652344 71.363281 120.785156 71.601562 120.945312 C 71.84375 121.105469 72.066406 121.289062 72.269531 121.492188 C 72.472656 121.695312 72.65625 121.917969 72.816406 122.15625 C 72.976562 122.394531 73.109375 122.648438 73.21875 122.914062 C 73.332031 123.179688 73.414062 123.457031 73.46875 123.738281 C 73.527344 124.019531 73.554688 124.304688 73.554688 124.59375 Z M 73.554688 124.59375 " fill-opacity="1" fill-rule="nonzero"/><path fill="#066cb1" d="M 174.585938 237.582031 C 174.585938 237.871094 174.558594 238.15625 174.503906 238.4375 C 174.445312 238.722656 174.363281 238.996094 174.253906 239.261719 C 174.144531 239.527344 174.007812 239.78125 173.847656 240.019531 C 173.6875 240.257812 173.503906 240.480469 173.300781 240.683594 C 173.097656 240.886719 172.875 241.070312 172.636719 241.230469 C 172.394531 241.390625 172.144531 241.523438 171.875 241.636719 C 171.609375 241.746094 171.335938 241.828125 171.054688 241.886719 C 170.769531 241.941406 170.484375 241.96875 170.195312 241.96875 C 169.910156 241.96875 169.621094 241.941406 169.339844 241.886719 C 169.058594 241.828125 168.78125 241.746094 168.515625 241.636719 C 168.25 241.523438 167.996094 241.390625 167.757812 241.230469 C 167.515625 241.070312 167.296875 240.886719 167.089844 240.683594 C 166.886719 240.480469 166.707031 240.257812 166.546875 240.019531 C 166.386719 239.78125 166.25 239.527344 166.140625 239.261719 C 166.03125 238.996094 165.945312 238.722656 165.890625 238.4375 C 165.832031 238.15625 165.804688 237.871094 165.804688 237.582031 C 165.804688 237.292969 165.832031 237.007812 165.890625 236.726562 C 165.945312 236.445312 166.03125 236.171875 166.140625 235.902344 C 166.25 235.636719 166.386719 235.386719 166.546875 235.144531 C 166.707031 234.90625 166.886719 234.683594 167.089844 234.480469 C 167.296875 234.277344 167.515625 234.09375 167.757812 233.9375 C 167.996094 233.777344 168.25 233.640625 168.515625 233.53125 C 168.78125 233.421875 169.058594 233.335938 169.339844 233.28125 C 169.621094 233.222656 169.910156 233.195312 170.195312 233.195312 C 170.484375 233.195312 170.769531 233.222656 171.054688 233.28125 C 171.335938 233.335938 171.609375 233.421875 171.875 233.53125 C 172.144531 233.640625 172.394531 233.777344 172.636719 233.9375 C 172.875 234.09375 173.097656 234.277344 173.300781 234.480469 C 173.503906 234.683594 173.6875 234.90625 173.847656 235.144531 C 174.007812 235.386719 174.144531 235.636719 174.253906 235.902344 C 174.363281 236.171875 174.445312 236.445312 174.503906 236.726562 C 174.558594 237.007812 174.585938 237.292969 174.585938 237.582031 Z M 174.585938 237.582031 " fill-opacity="1" fill-rule="nonzero"/><path fill="#066cb1" d="M 270.679688 164.640625 C 270.679688 164.925781 270.652344 165.210938 270.597656 165.496094 C 270.539062 165.777344 270.457031 166.050781 270.347656 166.316406 C 270.234375 166.582031 270.101562 166.835938 269.941406 167.074219 C 269.78125 167.316406 269.597656 167.539062 269.394531 167.742188 C 269.191406 167.945312 268.96875 168.125 268.730469 168.285156 C 268.488281 168.445312 268.234375 168.582031 267.96875 168.691406 C 267.703125 168.800781 267.429688 168.886719 267.144531 168.941406 C 266.863281 168.996094 266.578125 169.027344 266.289062 169.027344 C 266 169.027344 265.714844 168.996094 265.433594 168.941406 C 265.148438 168.886719 264.875 168.800781 264.609375 168.691406 C 264.34375 168.582031 264.089844 168.445312 263.851562 168.285156 C 263.609375 168.125 263.386719 167.945312 263.183594 167.742188 C 262.980469 167.539062 262.796875 167.316406 262.636719 167.074219 C 262.476562 166.835938 262.34375 166.582031 262.234375 166.316406 C 262.121094 166.050781 262.039062 165.777344 261.984375 165.496094 C 261.925781 165.210938 261.898438 164.925781 261.898438 164.640625 C 261.898438 164.351562 261.925781 164.066406 261.984375 163.785156 C 262.039062 163.5 262.121094 163.226562 262.234375 162.960938 C 262.34375 162.695312 262.476562 162.441406 262.636719 162.203125 C 262.796875 161.960938 262.980469 161.742188 263.183594 161.539062 C 263.386719 161.332031 263.609375 161.152344 263.851562 160.992188 C 264.089844 160.832031 264.34375 160.695312 264.609375 160.585938 C 264.875 160.476562 265.148438 160.394531 265.433594 160.335938 C 265.714844 160.28125 266 160.253906 266.289062 160.253906 C 266.578125 160.253906 266.863281 160.28125 267.144531 160.335938 C 267.429688 160.394531 267.703125 160.476562 267.96875 160.585938 C 268.234375 160.695312 268.488281 160.832031 268.730469 160.992188 C 268.96875 161.152344 269.191406 161.332031 269.394531 161.539062 C 269.597656 161.742188 269.78125 161.960938 269.941406 162.203125 C 270.101562 162.441406 270.234375 162.695312 270.347656 162.960938 C 270.457031 163.226562 270.539062 163.5 270.597656 163.785156 C 270.652344 164.066406 270.679688 164.351562 270.679688 164.640625 Z M 270.679688 164.640625 " fill-opacity="1" fill-rule="nonzero"/><path fill="#066cb1" d="M 244.316406 133.914062 C 244.316406 134.203125 244.285156 134.488281 244.230469 134.769531 C 244.175781 135.054688 244.089844 135.328125 243.980469 135.59375 C 243.871094 135.859375 243.734375 136.113281 243.574219 136.351562 C 243.414062 136.589844 243.230469 136.8125 243.027344 137.015625 C 242.824219 137.21875 242.601562 137.402344 242.363281 137.5625 C 242.125 137.722656 241.871094 137.855469 241.605469 137.96875 C 241.335938 138.078125 241.0625 138.160156 240.78125 138.21875 C 240.496094 138.273438 240.210938 138.300781 239.921875 138.300781 C 239.636719 138.300781 239.351562 138.273438 239.066406 138.21875 C 238.785156 138.160156 238.507812 138.078125 238.242188 137.96875 C 237.976562 137.855469 237.722656 137.722656 237.484375 137.5625 C 237.246094 137.402344 237.023438 137.21875 236.820312 137.015625 C 236.613281 136.8125 236.433594 136.589844 236.273438 136.351562 C 236.113281 136.113281 235.976562 135.859375 235.867188 135.59375 C 235.757812 135.328125 235.671875 135.054688 235.617188 134.769531 C 235.5625 134.488281 235.53125 134.203125 235.53125 133.914062 C 235.53125 133.625 235.5625 133.339844 235.617188 133.058594 C 235.671875 132.777344 235.757812 132.503906 235.867188 132.234375 C 235.976562 131.96875 236.113281 131.71875 236.273438 131.476562 C 236.433594 131.238281 236.613281 131.015625 236.820312 130.8125 C 237.023438 130.609375 237.246094 130.425781 237.484375 130.265625 C 237.722656 130.109375 237.976562 129.972656 238.242188 129.863281 C 238.507812 129.753906 238.785156 129.667969 239.066406 129.613281 C 239.351562 129.554688 239.636719 129.527344 239.921875 129.527344 C 240.210938 129.527344 240.496094 129.554688 240.78125 129.613281 C 241.0625 129.667969 241.335938 129.753906 241.605469 129.863281 C 241.871094 129.972656 242.125 130.109375 242.363281 130.265625 C 242.601562 130.425781 242.824219 130.609375 243.027344 130.8125 C 243.230469 131.015625 243.414062 131.238281 243.574219 131.476562 C 243.734375 131.71875 243.871094 131.96875 243.980469 132.234375 C 244.089844 132.503906 244.175781 132.777344 244.230469 133.058594 C 244.285156 133.339844 244.316406 133.625 244.316406 133.914062 Z M 244.316406 133.914062 " fill-opacity="1" fill-rule="nonzero"/><path fill="#066cb1" d="M 127.914062 88.660156 C 127.914062 88.949219 127.886719 89.234375 127.828125 89.515625 C 127.773438 89.796875 127.6875 90.074219 127.578125 90.339844 C 127.46875 90.605469 127.332031 90.859375 127.171875 91.097656 C 127.011719 91.335938 126.832031 91.558594 126.628906 91.761719 C 126.421875 91.964844 126.203125 92.148438 125.960938 92.308594 C 125.722656 92.46875 125.46875 92.601562 125.203125 92.710938 C 124.9375 92.824219 124.660156 92.90625 124.378906 92.960938 C 124.097656 93.019531 123.8125 93.046875 123.523438 93.046875 C 123.234375 93.046875 122.949219 93.019531 122.664062 92.960938 C 122.382812 92.90625 122.109375 92.824219 121.84375 92.710938 C 121.574219 92.601562 121.324219 92.46875 121.082031 92.308594 C 120.84375 92.148438 120.621094 91.964844 120.417969 91.761719 C 120.214844 91.558594 120.03125 91.335938 119.871094 91.097656 C 119.710938 90.859375 119.574219 90.605469 119.464844 90.339844 C 119.355469 90.074219 119.273438 89.796875 119.214844 89.515625 C 119.160156 89.234375 119.132812 88.949219 119.132812 88.660156 C 119.132812 88.371094 119.160156 88.085938 119.214844 87.804688 C 119.273438 87.523438 119.355469 87.246094 119.464844 86.980469 C 119.574219 86.714844 119.710938 86.460938 119.871094 86.222656 C 120.03125 85.984375 120.214844 85.761719 120.417969 85.558594 C 120.621094 85.355469 120.84375 85.171875 121.082031 85.011719 C 121.324219 84.851562 121.574219 84.71875 121.84375 84.609375 C 122.109375 84.496094 122.382812 84.414062 122.664062 84.359375 C 122.949219 84.300781 123.234375 84.273438 123.523438 84.273438 C 123.8125 84.273438 124.097656 84.300781 124.378906 84.359375 C 124.660156 84.414062 124.9375 84.496094 125.203125 84.609375 C 125.46875 84.71875 125.722656 84.851562 125.960938 85.011719 C 126.203125 85.171875 126.421875 85.355469 126.628906 85.558594 C 126.832031 85.761719 127.011719 85.984375 127.171875 86.222656 C 127.332031 86.460938 127.46875 86.714844 127.578125 86.980469 C 127.6875 87.246094 127.773438 87.523438 127.828125 87.804688 C 127.886719 88.085938 127.914062 88.371094 127.914062 88.660156 Z M 127.914062 88.660156 " fill-opacity="1" fill-rule="nonzero"/><g clip-path="url(#8d25824090)"><path fill="#066cb1" d="M 367.871094 77.96875 C 367.871094 78.257812 367.84375 78.542969 367.785156 78.824219 C 367.730469 79.105469 367.648438 79.382812 367.535156 79.648438 C 367.425781 79.914062 367.292969 80.164062 367.132812 80.40625 C 366.972656 80.644531 366.789062 80.867188 366.585938 81.070312 C 366.382812 81.273438 366.160156 81.457031 365.917969 81.617188 C 365.679688 81.777344 365.425781 81.910156 365.160156 82.019531 C 364.894531 82.132812 364.621094 82.214844 364.335938 82.269531 C 364.054688 82.328125 363.769531 82.355469 363.480469 82.355469 C 363.191406 82.355469 362.90625 82.328125 362.625 82.269531 C 362.339844 82.214844 362.066406 82.132812 361.800781 82.019531 C 361.53125 81.910156 361.28125 81.777344 361.039062 81.617188 C 360.800781 81.457031 360.578125 81.273438 360.375 81.070312 C 360.171875 80.867188 359.988281 80.644531 359.828125 80.40625 C 359.667969 80.164062 359.535156 79.914062 359.421875 79.648438 C 359.3125 79.382812 359.230469 79.105469 359.171875 78.824219 C 359.117188 78.542969 359.089844 78.257812 359.089844 77.96875 C 359.089844 77.679688 359.117188 77.394531 359.171875 77.113281 C 359.230469 76.832031 359.3125 76.554688 359.421875 76.289062 C 359.535156 76.023438 359.667969 75.769531 359.828125 75.53125 C 359.988281 75.292969 360.171875 75.070312 360.375 74.867188 C 360.578125 74.664062 360.800781 74.480469 361.039062 74.320312 C 361.28125 74.160156 361.535156 74.027344 361.800781 73.914062 C 362.066406 73.804688 362.339844 73.722656 362.625 73.667969 C 362.90625 73.609375 363.191406 73.582031 363.480469 73.582031 C 363.769531 73.582031 364.054688 73.609375 364.335938 73.667969 C 364.621094 73.722656 364.894531 73.804688 365.160156 73.914062 C 365.425781 74.027344 365.679688 74.160156 365.917969 74.320312 C 366.160156 74.480469 366.382812 74.664062 366.585938 74.867188 C 366.789062 75.070312 366.972656 75.292969 367.132812 75.53125 C 367.292969 75.769531 367.425781 76.023438 367.535156 76.289062 C 367.648438 76.554688 367.730469 76.832031 367.785156 77.113281 C 367.84375 77.394531 367.871094 77.679688 367.871094 77.96875 Z M 367.871094 77.96875 " fill-opacity="1" fill-rule="nonzero"/></g><path fill="#066cb1" d="M 353.875 124.59375 C 353.875 124.882812 353.847656 125.167969 353.789062 125.449219 C 353.734375 125.730469 353.652344 126.007812 353.539062 126.273438 C 353.429688 126.539062 353.292969 126.792969 353.132812 127.03125 C 352.972656 127.269531 352.792969 127.492188 352.589844 127.695312 C 352.382812 127.898438 352.164062 128.082031 351.921875 128.242188 C 351.683594 128.402344 351.429688 128.535156 351.164062 128.644531 C 350.898438 128.757812 350.621094 128.839844 350.339844 128.894531 C 350.058594 128.953125 349.773438 128.980469 349.484375 128.980469 C 349.195312 128.980469 348.910156 128.953125 348.625 128.894531 C 348.34375 128.839844 348.070312 128.757812 347.804688 128.644531 C 347.535156 128.535156 347.285156 128.402344 347.042969 128.242188 C 346.804688 128.082031 346.582031 127.898438 346.378906 127.695312 C 346.175781 127.492188 345.992188 127.269531 345.832031 127.03125 C 345.671875 126.792969 345.535156 126.539062 345.425781 126.273438 C 345.316406 126.007812 345.234375 125.730469 345.175781 125.449219 C 345.121094 125.167969 345.09375 124.882812 345.09375 124.59375 C 345.09375 124.304688 345.121094 124.019531 345.175781 123.738281 C 345.234375 123.457031 345.316406 123.179688 345.425781 122.914062 C 345.535156 122.648438 345.671875 122.394531 345.832031 122.15625 C 345.992188 121.917969 346.175781 121.695312 346.378906 121.492188 C 346.582031 121.289062 346.804688 121.105469 347.042969 120.945312 C 347.285156 120.785156 347.535156 120.652344 347.804688 120.542969 C 348.070312 120.429688 348.34375 120.347656 348.625 120.292969 C 348.910156 120.234375 349.195312 120.207031 349.484375 120.207031 C 349.773438 120.207031 350.058594 120.234375 350.339844 120.292969 C 350.621094 120.347656 350.898438 120.429688 351.164062 120.542969 C 351.429688 120.652344 351.683594 120.785156 351.921875 120.945312 C 352.164062 121.105469 352.382812 121.289062 352.589844 121.492188 C 352.792969 121.695312 352.972656 121.917969 353.132812 122.15625 C 353.292969 122.394531 353.429688 122.648438 353.539062 122.914062 C 353.652344 123.179688 353.734375 123.457031 353.789062 123.738281 C 353.847656 124.019531 353.875 124.304688 353.875 124.59375 Z M 353.875 124.59375 " fill-opacity="1" fill-rule="nonzero"/><path fill="#066cb1" d="M 331.625 50.730469 C 331.625 51.019531 331.597656 51.304688 331.542969 51.585938 C 331.484375 51.867188 331.402344 52.140625 331.292969 52.40625 C 331.179688 52.675781 331.046875 52.925781 330.886719 53.167969 C 330.726562 53.40625 330.542969 53.628906 330.339844 53.832031 C 330.136719 54.035156 329.914062 54.214844 329.675781 54.375 C 329.433594 54.535156 329.179688 54.671875 328.914062 54.78125 C 328.648438 54.890625 328.375 54.976562 328.089844 55.03125 C 327.808594 55.089844 327.523438 55.117188 327.234375 55.117188 C 326.945312 55.117188 326.660156 55.089844 326.378906 55.03125 C 326.09375 54.976562 325.820312 54.890625 325.554688 54.78125 C 325.289062 54.671875 325.035156 54.535156 324.792969 54.375 C 324.554688 54.214844 324.332031 54.035156 324.128906 53.832031 C 323.925781 53.628906 323.742188 53.40625 323.582031 53.167969 C 323.421875 52.925781 323.289062 52.675781 323.175781 52.40625 C 323.066406 52.140625 322.984375 51.867188 322.929688 51.585938 C 322.871094 51.304688 322.84375 51.019531 322.84375 50.730469 C 322.84375 50.441406 322.871094 50.15625 322.925781 49.875 C 322.984375 49.589844 323.066406 49.316406 323.175781 49.050781 C 323.289062 48.785156 323.421875 48.53125 323.582031 48.292969 C 323.742188 48.054688 323.925781 47.832031 324.128906 47.628906 C 324.332031 47.425781 324.554688 47.242188 324.792969 47.082031 C 325.035156 46.921875 325.289062 46.789062 325.554688 46.675781 C 325.820312 46.566406 326.09375 46.484375 326.378906 46.425781 C 326.660156 46.371094 326.945312 46.34375 327.234375 46.34375 C 327.523438 46.34375 327.808594 46.371094 328.089844 46.425781 C 328.375 46.484375 328.648438 46.566406 328.914062 46.675781 C 329.179688 46.789062 329.433594 46.921875 329.675781 47.082031 C 329.914062 47.242188 330.136719 47.425781 330.339844 47.628906 C 330.542969 47.832031 330.726562 48.054688 330.886719 48.292969 C 331.046875 48.53125 331.179688 48.785156 331.292969 49.050781 C 331.402344 49.316406 331.484375 49.589844 331.542969 49.875 C 331.597656 50.15625 331.625 50.441406 331.625 50.730469 Z M 331.625 50.730469 " fill-opacity="1" fill-rule="nonzero"/><path fill="#066cb1" d="M 34.976562 237.582031 C 34.976562 237.871094 34.949219 238.15625 34.890625 238.4375 C 34.835938 238.722656 34.753906 238.996094 34.640625 239.261719 C 34.53125 239.527344 34.398438 239.78125 34.238281 240.019531 C 34.078125 240.257812 33.894531 240.480469 33.691406 240.683594 C 33.488281 240.886719 33.265625 241.070312 33.023438 241.230469 C 32.785156 241.390625 32.53125 241.523438 32.265625 241.636719 C 32 241.746094 31.726562 241.828125 31.441406 241.886719 C 31.160156 241.941406 30.875 241.96875 30.585938 241.96875 C 30.296875 241.96875 30.011719 241.941406 29.730469 241.886719 C 29.445312 241.828125 29.171875 241.746094 28.90625 241.636719 C 28.640625 241.523438 28.386719 241.390625 28.144531 241.230469 C 27.90625 241.070312 27.683594 240.886719 27.480469 240.683594 C 27.277344 240.480469 27.09375 240.257812 26.933594 240.019531 C 26.773438 239.78125 26.640625 239.527344 26.527344 239.261719 C 26.417969 238.996094 26.335938 238.722656 26.277344 238.4375 C 26.222656 238.15625 26.195312 237.871094 26.195312 237.582031 C 26.195312 237.292969 26.222656 237.007812 26.277344 236.726562 C 26.335938 236.445312 26.417969 236.171875 26.527344 235.902344 C 26.640625 235.636719 26.773438 235.386719 26.933594 235.144531 C 27.09375 234.90625 27.277344 234.683594 27.480469 234.480469 C 27.683594 234.277344 27.90625 234.09375 28.144531 233.9375 C 28.386719 233.777344 28.640625 233.640625 28.90625 233.53125 C 29.171875 233.421875 29.445312 233.335938 29.730469 233.28125 C 30.011719 233.222656 30.296875 233.195312 30.585938 233.195312 C 30.875 233.195312 31.160156 233.222656 31.441406 233.28125 C 31.726562 233.335938 32 233.421875 32.265625 233.53125 C 32.53125 233.640625 32.785156 233.777344 33.023438 233.9375 C 33.265625 234.09375 33.488281 234.277344 33.691406 234.480469 C 33.894531 234.683594 34.078125 234.90625 34.238281 235.144531 C 34.398438 235.386719 34.53125 235.636719 34.640625 235.902344 C 34.753906 236.171875 34.835938 236.445312 34.890625 236.726562 C 34.949219 237.007812 34.976562 237.292969 34.976562 237.582031 Z M 34.976562 237.582031 " fill-opacity="1" fill-rule="nonzero"/><path fill="#066cb1" d="M 33.054688 138.574219 C 33.054688 138.863281 33.027344 139.148438 32.972656 139.429688 C 32.914062 139.714844 32.832031 139.988281 32.722656 140.253906 C 32.609375 140.519531 32.476562 140.773438 32.316406 141.011719 C 32.15625 141.25 31.972656 141.472656 31.769531 141.675781 C 31.566406 141.878906 31.34375 142.0625 31.105469 142.222656 C 30.863281 142.382812 30.609375 142.515625 30.34375 142.628906 C 30.078125 142.738281 29.804688 142.820312 29.519531 142.878906 C 29.238281 142.933594 28.953125 142.960938 28.664062 142.960938 C 28.375 142.960938 28.089844 142.933594 27.808594 142.878906 C 27.523438 142.820312 27.25 142.738281 26.984375 142.628906 C 26.71875 142.515625 26.464844 142.382812 26.226562 142.222656 C 25.984375 142.0625 25.761719 141.878906 25.558594 141.675781 C 25.355469 141.472656 25.171875 141.25 25.011719 141.011719 C 24.851562 140.773438 24.71875 140.519531 24.609375 140.253906 C 24.496094 139.988281 24.414062 139.714844 24.359375 139.429688 C 24.300781 139.148438 24.273438 138.863281 24.273438 138.574219 C 24.273438 138.289062 24.300781 138.003906 24.359375 137.71875 C 24.414062 137.4375 24.496094 137.164062 24.609375 136.898438 C 24.71875 136.628906 24.851562 136.378906 25.011719 136.136719 C 25.171875 135.898438 25.355469 135.675781 25.558594 135.472656 C 25.761719 135.269531 25.984375 135.089844 26.226562 134.929688 C 26.464844 134.769531 26.71875 134.632812 26.984375 134.523438 C 27.25 134.414062 27.523438 134.328125 27.808594 134.273438 C 28.089844 134.21875 28.375 134.1875 28.664062 134.1875 C 28.953125 134.1875 29.238281 134.21875 29.519531 134.273438 C 29.804688 134.328125 30.078125 134.414062 30.34375 134.523438 C 30.609375 134.632812 30.863281 134.769531 31.105469 134.929688 C 31.34375 135.089844 31.566406 135.269531 31.769531 135.472656 C 31.972656 135.675781 32.15625 135.898438 32.316406 136.136719 C 32.476562 136.378906 32.609375 136.628906 32.722656 136.898438 C 32.832031 137.164062 32.914062 137.4375 32.972656 137.71875 C 33.027344 138.003906 33.054688 138.289062 33.054688 138.574219 Z M 33.054688 138.574219 " fill-opacity="1" fill-rule="nonzero"/><path fill="#066cb1" d="M 150.339844 309.253906 L 109.820312 268.796875 L 109.820312 239.542969 L 123.816406 227.203125 L 123.816406 185.691406 L 95.980469 157.882812 L 96.726562 157.140625 L 124.875 185.257812 L 124.875 227.675781 L 110.878906 240.011719 L 110.878906 268.367188 L 151.082031 308.527344 Z M 150.339844 309.253906 " fill-opacity="1" fill-rule="nonzero"/><path fill="#066cb1" d="M 349.484375 125.121094 L 322.53125 125.121094 L 305.789062 93.300781 L 232.75 93.300781 L 215.734375 111.964844 L 146.105469 111.964844 L 123.148438 89.03125 L 123.894531 88.289062 L 146.535156 110.90625 L 215.261719 110.90625 L 232.277344 92.261719 L 306.417969 92.261719 L 323.15625 124.066406 L 349.484375 124.066406 Z M 349.484375 125.121094 " fill-opacity="1" fill-rule="nonzero"/></svg>