<svg xmlns="http://www.w3.org/2000/svg" xmlns:xlink="http://www.w3.org/1999/xlink" width="500" zoomAndPan="magnify" viewBox="0 0 375 374.999991" height="500" preserveAspectRatio="xMidYMid meet" version="1.0"><defs><clipPath id="50a7e60c55"><path d="M 40.460938 6.015625 L 334.460938 6.015625 L 334.460938 375 L 40.460938 375 Z M 40.460938 6.015625 " clip-rule="nonzero"/></clipPath></defs><g clip-path="url(#50a7e60c55)"><path fill="#000000" d="M 116.378906 74.21875 C 118.617188 73.964844 120.355469 72.066406 120.355469 69.761719 C 120.355469 67.285156 118.351562 65.277344 115.875 65.277344 C 113.398438 65.277344 111.390625 67.285156 111.390625 69.761719 C 111.390625 72.066406 113.128906 73.964844 115.367188 74.21875 L 115.367188 141.1875 C 115.363281 141.367188 115.363281 141.550781 115.367188 141.730469 C 115.371094 142.15625 115.375 142.554688 115.308594 142.941406 C 115.222656 143.449219 115.003906 143.945312 114.671875 144.390625 C 114.050781 145.242188 113 145.773438 111.929688 145.78125 L 86.535156 145.78125 C 86.332031 144.609375 85.414062 143.6875 84.246094 143.476562 L 84.246094 113.890625 C 86.484375 113.640625 88.222656 111.742188 88.222656 109.433594 C 88.222656 106.960938 86.214844 104.949219 83.738281 104.949219 C 81.261719 104.949219 79.257812 106.957031 79.257812 109.433594 C 79.257812 111.742188 80.996094 113.640625 83.234375 113.890625 L 83.234375 143.476562 C 82.066406 143.6875 81.148438 144.609375 80.941406 145.78125 L 61.714844 145.78125 C 61.511719 144.609375 60.59375 143.6875 59.421875 143.476562 L 59.421875 14.992188 C 61.660156 14.742188 63.398438 12.84375 63.398438 10.535156 C 63.398438 8.0625 61.390625 6.054688 58.914062 6.054688 C 56.4375 6.054688 54.433594 8.058594 54.433594 10.535156 C 54.433594 12.84375 56.171875 14.742188 58.410156 14.992188 L 58.410156 143.476562 C 57.242188 143.6875 56.324219 144.613281 56.117188 145.785156 L 46.019531 145.785156 C 46.019531 145.785156 45.976562 145.785156 45.976562 145.785156 C 45.347656 145.78125 44.695312 145.773438 44.050781 145.980469 C 43.40625 146.175781 42.796875 146.535156 42.292969 147.007812 C 41.796875 147.46875 41.40625 148.058594 41.167969 148.707031 C 41.054688 148.996094 40.976562 149.3125 40.917969 149.722656 C 40.878906 150.066406 40.882812 150.417969 40.882812 150.695312 L 40.882812 280.792969 C 40.882812 281.078125 40.882812 281.375 40.90625 281.6875 C 40.914062 281.8125 40.9375 281.9375 40.957031 282.0625 L 40.984375 282.230469 C 41 282.273438 41.011719 282.320312 41.019531 282.367188 C 41.046875 282.484375 41.078125 282.597656 41.113281 282.695312 C 41.332031 283.34375 41.703125 283.945312 42.1875 284.4375 C 42.667969 284.921875 43.269531 285.292969 43.894531 285.507812 C 44.019531 285.558594 44.140625 285.585938 44.25 285.613281 C 44.292969 285.625 44.339844 285.636719 44.382812 285.648438 L 44.425781 285.660156 C 44.585938 285.691406 44.746094 285.714844 44.941406 285.738281 C 45.261719 285.761719 45.574219 285.761719 45.890625 285.757812 L 81.09375 285.757812 C 81.449219 286.660156 82.25 287.335938 83.226562 287.511719 L 83.226562 323.847656 C 81.964844 324.074219 80.996094 325.136719 80.902344 326.441406 L 72.574219 326.441406 C 71.953125 326.433594 71.296875 326.441406 70.675781 326.652344 C 69.402344 327.058594 68.355469 328.035156 67.878906 329.253906 C 67.648438 329.8125 67.539062 330.457031 67.554688 331.160156 L 67.554688 374.984375 L 68.5625 374.984375 L 68.5625 331.152344 C 68.554688 330.578125 68.636719 330.066406 68.816406 329.628906 C 69.1875 328.683594 70 327.933594 70.992188 327.617188 C 71.46875 327.453125 72.007812 327.449219 72.5625 327.457031 L 81.007812 327.457031 C 81.3125 328.472656 82.164062 329.25 83.226562 329.441406 L 83.226562 374.984375 L 84.238281 374.984375 L 84.238281 329.441406 C 85.296875 329.25 86.148438 328.472656 86.453125 327.457031 L 91.832031 327.457031 C 92.539062 327.46875 93.179688 327.355469 93.742188 327.121094 C 94.335938 326.882812 94.890625 326.492188 95.347656 325.996094 C 95.792969 325.503906 96.132812 324.917969 96.320312 324.300781 C 96.519531 323.683594 96.53125 323.050781 96.519531 322.410156 L 96.519531 287.820312 C 97.605469 287.625 98.472656 286.816406 98.753906 285.761719 L 105.394531 285.761719 C 105.675781 285.757812 105.972656 285.761719 106.25 285.78125 C 107.316406 285.894531 108.308594 286.53125 108.847656 287.445312 C 109.128906 287.910156 109.296875 288.429688 109.332031 288.9375 C 109.351562 289.3125 109.351562 289.6875 109.347656 290.085938 C 109.347656 290.304688 109.34375 290.527344 109.347656 290.738281 L 109.347656 374.984375 L 110.359375 374.984375 L 110.359375 290.734375 C 110.355469 290.519531 110.359375 290.304688 110.359375 290.089844 C 110.359375 289.695312 110.363281 289.289062 110.339844 288.871094 C 110.296875 288.199219 110.078125 287.523438 109.714844 286.925781 C 109.023438 285.746094 107.734375 284.921875 106.34375 284.773438 C 106.011719 284.746094 105.6875 284.746094 105.390625 284.75 L 98.839844 284.75 C 98.71875 283.480469 97.757812 282.457031 96.523438 282.234375 L 96.523438 227.765625 C 96.539062 227.015625 96.449219 226.386719 96.246094 225.851562 C 96.015625 225.226562 95.648438 224.65625 95.183594 224.203125 C 94.714844 223.742188 94.140625 223.386719 93.53125 223.171875 C 93.25 223.066406 92.9375 222.996094 92.558594 222.945312 C 92.257812 222.914062 91.96875 222.910156 91.628906 222.914062 L 86.566406 222.914062 C 86.535156 221.542969 85.542969 220.414062 84.234375 220.179688 L 84.234375 149.066406 C 85.390625 148.859375 86.304688 147.949219 86.519531 146.796875 L 111.921875 146.796875 C 113.3125 146.785156 114.675781 146.09375 115.476562 144.996094 C 115.898438 144.429688 116.179688 143.78125 116.292969 143.117188 C 116.378906 142.644531 116.375 142.175781 116.367188 141.726562 C 116.367188 141.554688 116.363281 141.386719 116.367188 141.203125 L 116.367188 74.222656 Z M 80.90625 222.910156 L 63.40625 222.910156 C 62.90625 222.910156 62.4375 222.914062 61.996094 222.789062 C 61.488281 222.652344 61.027344 222.410156 60.652344 222.085938 C 59.863281 221.414062 59.40625 220.40625 59.429688 219.382812 L 59.429688 149.066406 C 60.585938 148.859375 61.496094 147.949219 61.714844 146.796875 L 80.953125 146.796875 C 81.167969 147.949219 82.078125 148.859375 83.238281 149.066406 L 83.238281 220.179688 C 81.929688 220.414062 80.933594 221.542969 80.90625 222.914062 Z M 45.898438 284.746094 C 45.597656 284.75 45.304688 284.746094 45.054688 284.730469 C 44.917969 284.714844 44.785156 284.695312 44.652344 284.667969 C 44.601562 284.652344 44.546875 284.640625 44.496094 284.628906 C 44.425781 284.613281 44.351562 284.597656 44.257812 284.558594 C 43.753906 284.386719 43.289062 284.09375 42.914062 283.722656 C 42.539062 283.339844 42.253906 282.875 42.078125 282.359375 C 42.050781 282.28125 42.03125 282.203125 42.011719 282.125 C 42.003906 282.078125 41.988281 282.03125 41.976562 281.984375 L 41.964844 281.898438 C 41.945312 281.796875 41.929688 281.695312 41.921875 281.601562 C 41.902344 281.335938 41.902344 281.074219 41.90625 280.792969 L 41.90625 150.691406 C 41.90625 150.367188 41.90625 150.101562 41.933594 149.847656 C 41.976562 149.53125 42.035156 149.285156 42.121094 149.066406 C 42.304688 148.554688 42.605469 148.101562 42.988281 147.742188 C 43.386719 147.375 43.855469 147.097656 44.363281 146.941406 C 44.859375 146.78125 45.402344 146.785156 45.976562 146.792969 L 46.023438 146.792969 C 46.023438 146.792969 56.132812 146.792969 56.132812 146.792969 C 56.347656 147.945312 57.261719 148.855469 58.417969 149.0625 L 58.417969 219.367188 C 58.386719 220.683594 58.980469 221.988281 59.996094 222.851562 C 60.480469 223.269531 61.082031 223.585938 61.726562 223.757812 C 62.296875 223.921875 62.859375 223.921875 63.410156 223.917969 L 81.070312 223.917969 C 81.40625 224.867188 82.230469 225.578125 83.238281 225.761719 L 83.238281 281.925781 C 81.910156 282.164062 80.90625 283.320312 80.90625 284.71875 C 80.90625 284.726562 80.90625 284.734375 80.90625 284.746094 Z M 95.371094 323.992188 C 95.222656 324.472656 94.960938 324.929688 94.613281 325.304688 C 94.261719 325.695312 93.832031 325.996094 93.371094 326.179688 C 92.933594 326.359375 92.425781 326.449219 91.851562 326.441406 L 86.574219 326.441406 C 86.484375 325.132812 85.511719 324.074219 84.25 323.847656 L 84.25 287.511719 C 85.230469 287.335938 86.03125 286.660156 86.386719 285.757812 L 93.292969 285.757812 C 93.574219 286.8125 94.441406 287.621094 95.527344 287.816406 L 95.527344 322.410156 C 95.535156 322.992188 95.527344 323.511719 95.375 323.992188 Z M 91.648438 223.921875 C 91.957031 223.917969 92.214844 223.921875 92.453125 223.945312 C 92.742188 223.984375 92.988281 224.039062 93.203125 224.117188 C 93.679688 224.285156 94.125 224.566406 94.492188 224.921875 C 94.847656 225.273438 95.132812 225.710938 95.308594 226.203125 C 95.472656 226.625 95.539062 227.109375 95.523438 227.746094 L 95.523438 282.230469 C 94.285156 282.453125 93.324219 283.476562 93.203125 284.746094 L 86.582031 284.746094 C 86.582031 284.738281 86.582031 284.726562 86.582031 284.71875 C 86.582031 283.324219 85.574219 282.164062 84.246094 281.925781 L 84.246094 225.765625 C 85.253906 225.582031 86.078125 224.867188 86.414062 223.921875 Z M 52.085938 322.832031 C 52.085938 325.136719 50.347656 327.035156 48.113281 327.285156 L 48.113281 374.980469 L 47.101562 374.980469 L 47.101562 327.285156 C 44.863281 327.035156 43.125 325.136719 43.125 322.832031 C 43.125 320.355469 45.132812 318.347656 47.609375 318.347656 C 50.085938 318.347656 52.089844 320.351562 52.089844 322.832031 Z M 147.382812 247.496094 L 147.382812 374.980469 L 146.371094 374.980469 L 146.371094 247.496094 C 144.132812 247.246094 142.394531 245.347656 142.394531 243.042969 C 142.394531 240.566406 144.402344 238.558594 146.878906 238.558594 C 149.355469 238.558594 151.359375 240.566406 151.359375 243.042969 C 151.359375 245.347656 149.621094 247.246094 147.386719 247.496094 Z M 259.589844 292.585938 L 230.230469 292.585938 C 230.023438 291.421875 229.105469 290.503906 227.941406 290.296875 L 227.941406 233.535156 C 230.179688 233.285156 231.921875 231.386719 231.921875 229.082031 C 231.921875 226.605469 229.914062 224.597656 227.4375 224.597656 C 224.960938 224.597656 222.953125 226.605469 222.953125 229.082031 C 222.953125 231.386719 224.695312 233.28125 226.929688 233.535156 L 226.929688 290.296875 C 225.769531 290.507812 224.851562 291.421875 224.644531 292.585938 L 222.6875 292.585938 C 220.21875 292.585938 218.210938 294.59375 218.210938 297.0625 L 218.210938 312.945312 C 216.882812 313.179688 215.878906 314.339844 215.875 315.734375 L 208.046875 315.734375 C 207.808594 315.726562 207.5625 315.730469 207.324219 315.734375 C 206.613281 315.742188 205.941406 315.753906 205.328125 315.496094 C 204.539062 315.191406 203.867188 314.578125 203.488281 313.820312 C 203.296875 313.441406 203.175781 313.03125 203.132812 312.617188 C 203.109375 312.316406 203.113281 312.015625 203.113281 311.695312 C 203.113281 311.527344 203.117188 311.355469 203.113281 311.195312 L 203.113281 243.164062 C 203.136719 242.542969 203.113281 241.617188 202.710938 240.78125 C 202.375 240.03125 201.820312 239.382812 201.113281 238.902344 C 200.769531 238.679688 200.398438 238.5 199.980469 238.363281 C 199.652344 238.269531 199.21875 238.164062 198.753906 238.160156 L 196.707031 238.160156 C 196.535156 236.945312 195.601562 235.980469 194.402344 235.765625 L 194.402344 232.351562 C 196.640625 232.101562 198.378906 230.203125 198.378906 227.898438 C 198.378906 225.421875 196.371094 223.414062 193.894531 223.414062 C 191.417969 223.414062 189.414062 225.421875 189.414062 227.898438 C 189.414062 230.203125 191.152344 232.101562 193.390625 232.351562 L 193.390625 235.765625 C 192.195312 235.980469 191.257812 236.945312 191.085938 238.15625 L 176.089844 238.152344 L 173.734375 238.152344 C 173.277344 238.164062 172.84375 238.226562 172.429688 238.347656 C 172.015625 238.480469 171.617188 238.667969 171.238281 238.917969 C 170.878906 239.164062 170.554688 239.460938 170.273438 239.800781 C 170.007812 240.125 169.78125 240.503906 169.601562 240.929688 C 169.445312 241.300781 169.339844 241.71875 169.285156 242.222656 C 169.261719 242.511719 169.261719 242.792969 169.261719 243.066406 C 169.261719 243.1875 169.261719 243.308594 169.257812 243.4375 L 169.050781 281.019531 L 169.003906 290.417969 L 169.003906 374.980469 L 170.015625 374.980469 L 170.015625 290.421875 L 170.058594 281.027344 L 170.269531 243.449219 C 170.273438 243.324219 170.273438 243.195312 170.273438 243.070312 C 170.273438 242.804688 170.273438 242.554688 170.289062 242.324219 C 170.332031 241.933594 170.410156 241.605469 170.53125 241.328125 C 170.671875 240.992188 170.847656 240.691406 171.050781 240.449219 C 171.273438 240.183594 171.53125 239.949219 171.800781 239.757812 C 172.089844 239.570312 172.402344 239.421875 172.722656 239.320312 C 173.039062 239.226562 173.382812 239.175781 173.738281 239.167969 L 191.117188 239.171875 C 191.359375 240.289062 192.257812 241.152344 193.386719 241.355469 L 193.386719 374.984375 L 194.394531 374.984375 L 194.394531 241.355469 C 195.523438 241.152344 196.417969 240.289062 196.664062 239.175781 L 198.746094 239.175781 C 199.085938 239.175781 199.433594 239.261719 199.675781 239.328125 C 199.988281 239.433594 200.285156 239.574219 200.546875 239.746094 C 201.09375 240.117188 201.519531 240.621094 201.785156 241.210938 C 202.023438 241.703125 202.121094 242.316406 202.097656 243.148438 L 202.097656 311.207031 C 202.097656 311.367188 202.097656 311.53125 202.097656 311.691406 C 202.09375 312.019531 202.089844 312.355469 202.117188 312.710938 C 202.175781 313.261719 202.328125 313.789062 202.578125 314.277344 C 203.070312 315.261719 203.933594 316.046875 204.945312 316.4375 C 205.734375 316.769531 206.546875 316.757812 207.328125 316.75 C 207.558594 316.746094 207.785156 316.742188 208.027344 316.75 L 216.054688 316.75 C 216.402344 317.667969 217.210938 318.355469 218.203125 318.535156 L 218.203125 374.984375 L 219.214844 374.984375 L 219.214844 318.535156 C 220.203125 318.355469 221.011719 317.667969 221.363281 316.75 L 222.628906 316.75 C 222.75 316.746094 222.867188 316.75 222.988281 316.75 C 223.367188 316.753906 223.757812 316.753906 224.15625 316.691406 C 224.703125 316.605469 225.21875 316.421875 225.695312 316.144531 C 226.65625 315.589844 227.394531 314.675781 227.71875 313.640625 C 227.871094 313.179688 227.941406 312.65625 227.933594 312.042969 L 227.933594 295.886719 C 229.097656 295.679688 230.011719 294.761719 230.21875 293.601562 L 259.582031 293.601562 C 261.496094 293.601562 263.046875 295.15625 263.046875 297.070312 L 263.046875 374.492188 L 264.058594 374.492188 L 264.058594 297.070312 C 264.058594 294.597656 262.050781 292.589844 259.582031 292.589844 Z M 226.765625 313.328125 C 226.511719 314.132812 225.945312 314.835938 225.199219 315.265625 C 224.832031 315.476562 224.429688 315.621094 224.007812 315.6875 C 223.6875 315.738281 223.355469 315.734375 223.003906 315.734375 C 222.875 315.734375 222.75 315.734375 222.628906 315.734375 L 221.554688 315.734375 C 221.550781 314.339844 220.542969 313.183594 219.21875 312.945312 L 219.21875 297.066406 C 219.21875 295.152344 220.773438 293.597656 222.6875 293.597656 L 224.640625 293.597656 C 224.851562 294.757812 225.765625 295.675781 226.929688 295.882812 L 226.929688 312.046875 C 226.933594 312.550781 226.882812 312.96875 226.761719 313.328125 Z M 286.707031 289.382812 L 286.707031 374.980469 L 285.695312 374.980469 L 285.695312 289.382812 C 283.457031 289.132812 281.71875 287.234375 281.71875 284.929688 C 281.71875 282.453125 283.722656 280.445312 286.199219 280.445312 C 288.675781 280.445312 290.683594 282.453125 290.683594 284.929688 C 290.683594 287.234375 288.945312 289.132812 286.707031 289.382812 Z M 330.472656 313.386719 L 330.472656 318.28125 C 330.472656 318.601562 330.476562 318.933594 330.445312 319.273438 C 330.332031 320.203125 329.941406 321.078125 329.332031 321.746094 C 329.035156 322.089844 328.679688 322.382812 328.28125 322.617188 C 327.855469 322.867188 327.425781 323.039062 327.007812 323.128906 C 326.617188 323.222656 326.179688 323.261719 325.683594 323.246094 L 313.523438 323.246094 C 313.101562 323.238281 312.746094 323.273438 312.4375 323.347656 C 312.101562 323.421875 311.777344 323.558594 311.460938 323.75 C 311.144531 323.9375 310.871094 324.167969 310.652344 324.421875 C 310.183594 324.949219 309.882812 325.628906 309.804688 326.34375 C 309.78125 326.609375 309.78125 326.894531 309.78125 327.199219 L 309.78125 374.976562 L 308.773438 374.976562 L 308.773438 327.203125 C 308.773438 326.890625 308.773438 326.570312 308.796875 326.246094 C 308.902344 325.308594 309.292969 324.433594 309.890625 323.757812 C 310.175781 323.425781 310.53125 323.128906 310.9375 322.882812 C 311.347656 322.636719 311.777344 322.457031 312.207031 322.363281 C 312.59375 322.269531 313.03125 322.226562 313.535156 322.234375 L 325.695312 322.234375 C 326.117188 322.242188 326.472656 322.214844 326.789062 322.140625 C 327.109375 322.074219 327.4375 321.941406 327.769531 321.742188 C 328.078125 321.5625 328.347656 321.339844 328.578125 321.074219 C 329.050781 320.550781 329.355469 319.875 329.4375 319.160156 C 329.464844 318.886719 329.464844 318.589844 329.464844 318.28125 L 329.464844 313.382812 C 327.226562 313.132812 325.484375 311.234375 325.484375 308.929688 C 325.484375 306.453125 327.492188 304.445312 329.96875 304.445312 C 332.445312 304.445312 334.453125 306.453125 334.453125 308.929688 C 334.453125 311.234375 332.710938 313.132812 330.476562 313.382812 Z M 127.789062 209.53125 L 127.789062 374.980469 L 126.777344 374.980469 L 126.777344 209.53125 C 125.660156 209.328125 124.769531 208.472656 124.515625 207.371094 C 124.488281 207.371094 124.464844 207.371094 124.4375 207.371094 C 123.878906 207.367188 123.355469 207.363281 122.875 207.515625 C 122.253906 207.703125 121.710938 208.042969 121.308594 208.492188 C 120.886719 208.941406 120.597656 209.507812 120.457031 210.140625 C 120.402344 210.4375 120.378906 210.761719 120.386719 211.089844 L 120.386719 374.980469 L 119.375 374.980469 L 119.375 211.101562 C 119.367188 210.714844 119.398438 210.324219 119.464844 209.941406 C 119.648438 209.109375 120.027344 208.378906 120.566406 207.808594 C 121.082031 207.226562 121.78125 206.789062 122.578125 206.546875 C 123.207031 206.351562 123.835938 206.355469 124.441406 206.359375 C 124.453125 206.359375 124.460938 206.359375 124.46875 206.359375 C 124.632812 205.136719 125.570312 204.160156 126.777344 203.941406 L 126.777344 183.164062 C 126.78125 182.992188 126.777344 182.824219 126.777344 182.660156 C 126.773438 182.246094 126.769531 181.816406 126.832031 181.382812 C 126.929688 180.746094 127.167969 180.128906 127.519531 179.589844 C 128.226562 178.511719 129.414062 177.773438 130.699219 177.617188 C 131.117188 177.570312 131.523438 177.574219 131.910156 177.578125 C 132.09375 177.578125 132.277344 177.582031 132.460938 177.578125 L 154.917969 177.578125 C 155.078125 177.574219 155.25 177.578125 155.425781 177.578125 C 155.847656 177.582031 156.246094 177.585938 156.625 177.515625 C 157.125 177.425781 157.617188 177.203125 158.054688 176.875 C 158.890625 176.261719 159.417969 175.222656 159.433594 174.164062 L 159.433594 145.628906 C 157.199219 145.378906 155.457031 143.480469 155.457031 141.171875 C 155.457031 138.699219 157.464844 136.6875 159.941406 136.6875 C 162.417969 136.6875 164.425781 138.695312 164.425781 141.171875 C 164.425781 143.480469 162.683594 145.378906 160.445312 145.628906 L 160.445312 174.171875 C 160.425781 175.542969 159.742188 176.890625 158.65625 177.6875 C 158.097656 178.105469 157.460938 178.390625 156.8125 178.507812 C 156.339844 178.597656 155.871094 178.59375 155.417969 178.589844 C 155.253906 178.589844 155.09375 178.585938 154.929688 178.589844 L 132.472656 178.589844 C 132.289062 178.59375 132.097656 178.589844 131.90625 178.589844 C 131.527344 178.585938 131.167969 178.582031 130.816406 178.621094 C 129.832031 178.738281 128.914062 179.3125 128.367188 180.144531 C 128.09375 180.5625 127.910156 181.039062 127.835938 181.53125 C 127.785156 181.886719 127.789062 182.257812 127.792969 182.652344 C 127.792969 182.824219 127.792969 183 127.792969 183.175781 L 127.792969 203.941406 C 128.996094 204.160156 129.9375 205.136719 130.097656 206.359375 L 176.253906 206.359375 C 176.898438 206.382812 177.523438 206.238281 178.078125 205.945312 C 178.636719 205.632812 179.097656 205.191406 179.402344 204.667969 C 179.71875 204.160156 179.886719 203.542969 179.898438 202.878906 L 179.898438 176.164062 C 177.660156 175.910156 175.921875 174.011719 175.921875 171.707031 C 175.921875 169.230469 177.929688 167.222656 180.40625 167.222656 C 182.882812 167.222656 184.886719 169.230469 184.886719 171.707031 C 184.886719 174.011719 183.148438 175.910156 180.910156 176.164062 L 180.910156 202.886719 C 180.898438 203.742188 180.675781 204.535156 180.269531 205.191406 C 179.882812 205.859375 179.289062 206.429688 178.5625 206.832031 C 177.84375 207.214844 177.042969 207.398438 176.234375 207.371094 L 130.050781 207.371094 C 129.800781 208.472656 128.910156 209.328125 127.792969 209.53125 Z M 51.855469 124.554688 L 40.453125 124.554688 L 40.453125 122.390625 L 51.855469 122.390625 Z M 51.855469 120.546875 L 40.453125 120.546875 L 40.453125 118.386719 L 51.855469 118.386719 Z M 51.855469 116.542969 L 40.453125 116.542969 L 40.453125 114.378906 L 51.855469 114.378906 Z M 51.855469 112.539062 L 40.453125 112.539062 L 40.453125 110.375 L 51.855469 110.375 Z M 51.855469 108.53125 L 40.453125 108.53125 L 40.453125 106.371094 L 51.855469 106.371094 Z M 51.855469 104.527344 L 40.453125 104.527344 L 40.453125 102.367188 L 51.855469 102.367188 Z M 51.855469 100.523438 L 40.453125 100.523438 L 40.453125 98.363281 L 51.855469 98.363281 Z M 51.855469 96.519531 L 40.453125 96.519531 L 40.453125 94.355469 L 51.855469 94.355469 Z M 248.679688 367.777344 L 259.863281 367.777344 L 259.863281 369.898438 L 248.679688 369.898438 Z M 248.679688 363.847656 L 259.863281 363.847656 L 259.863281 365.972656 L 248.679688 365.972656 Z M 248.679688 359.921875 L 259.863281 359.921875 L 259.863281 362.042969 L 248.679688 362.042969 Z M 248.679688 355.996094 L 259.863281 355.996094 L 259.863281 358.117188 L 248.679688 358.117188 Z M 248.679688 352.066406 L 259.863281 352.066406 L 259.863281 354.1875 L 248.679688 354.1875 Z M 248.679688 348.140625 L 259.863281 348.140625 L 259.863281 350.261719 L 248.679688 350.261719 Z M 248.679688 344.210938 L 259.863281 344.210938 L 259.863281 346.332031 L 248.679688 346.332031 Z M 248.679688 340.28125 L 259.863281 340.28125 L 259.863281 342.402344 L 248.679688 342.402344 Z M 149.507812 303.554688 L 154.691406 303.554688 L 154.691406 304.539062 L 149.507812 304.539062 Z M 149.507812 305.375 L 154.691406 305.375 L 154.691406 306.355469 L 149.507812 306.355469 Z M 149.507812 307.195312 L 154.691406 307.195312 L 154.691406 308.175781 L 149.507812 308.175781 Z M 149.507812 309.011719 L 154.691406 309.011719 L 154.691406 309.996094 L 149.507812 309.996094 Z M 149.507812 310.832031 L 154.691406 310.832031 L 154.691406 311.816406 L 149.507812 311.816406 Z M 149.507812 312.652344 L 154.691406 312.652344 L 154.691406 313.636719 L 149.507812 313.636719 Z M 149.507812 314.472656 L 154.691406 314.472656 L 154.691406 315.453125 L 149.507812 315.453125 Z M 149.507812 316.292969 L 154.691406 316.292969 L 154.691406 317.273438 L 149.507812 317.273438 Z M 145.570312 203.53125 L 145.570312 196.703125 L 146.863281 196.703125 L 146.863281 203.53125 Z M 147.964844 203.53125 L 147.964844 196.703125 L 149.261719 196.703125 L 149.261719 203.53125 Z M 150.363281 203.53125 L 150.363281 196.703125 L 151.65625 196.703125 L 151.65625 203.53125 Z M 152.757812 203.53125 L 152.757812 196.703125 L 154.054688 196.703125 L 154.054688 203.53125 Z M 155.152344 196.703125 L 156.449219 196.703125 L 156.449219 203.53125 L 155.152344 203.53125 Z M 157.550781 196.703125 L 158.847656 196.703125 L 158.847656 203.53125 L 157.550781 203.53125 Z M 159.949219 196.703125 L 161.242188 196.703125 L 161.242188 203.53125 L 159.949219 203.53125 Z M 162.34375 196.703125 L 163.640625 196.703125 L 163.640625 203.53125 L 162.34375 203.53125 Z M 48.949219 266.765625 L 52.003906 270.785156 L 45.820312 270.890625 L 48.953125 266.765625 Z M 48.949219 262.589844 L 52.003906 266.609375 L 45.820312 266.714844 L 48.953125 262.589844 Z M 48.949219 258.414062 L 52.003906 262.433594 L 45.820312 262.539062 L 48.953125 258.414062 Z M 48.949219 254.234375 L 52.003906 258.257812 L 45.820312 258.363281 L 48.953125 254.238281 Z M 48.949219 250.058594 L 52.003906 254.082031 L 45.820312 254.1875 L 48.953125 250.0625 Z M 48.949219 245.886719 L 52.003906 249.90625 L 45.820312 250.011719 L 48.953125 245.886719 Z M 48.949219 241.710938 L 52.003906 245.730469 L 45.820312 245.835938 L 48.953125 241.710938 Z M 110.257812 132.605469 L 105.703125 132.683594 L 108.011719 129.644531 Z M 110.257812 129.53125 L 105.703125 129.609375 L 108.011719 126.570312 Z M 110.257812 126.457031 L 105.703125 126.535156 L 108.011719 123.496094 Z M 110.257812 123.382812 L 105.703125 123.460938 L 108.011719 120.421875 Z M 110.257812 120.308594 L 105.703125 120.382812 L 108.011719 117.347656 Z M 110.257812 117.230469 L 105.703125 117.308594 L 108.011719 114.273438 Z M 110.257812 114.15625 L 105.703125 114.234375 L 108.011719 111.195312 Z M 200.597656 367.683594 L 202.449219 370.125 L 198.695312 370.1875 Z M 200.597656 365.148438 L 202.449219 367.589844 L 198.695312 367.652344 Z M 200.597656 362.617188 L 202.449219 365.054688 L 198.695312 365.117188 Z M 200.597656 360.082031 L 202.449219 362.519531 L 198.695312 362.585938 Z M 200.597656 357.546875 L 202.449219 359.988281 L 198.695312 360.050781 Z M 200.597656 355.011719 L 202.449219 357.453125 L 198.695312 357.515625 Z M 200.597656 352.476562 L 202.449219 354.917969 L 198.695312 354.980469 Z M 132.804688 361.433594 L 135.417969 364.875 L 130.125 364.960938 L 132.808594 361.429688 Z M 132.804688 357.859375 L 135.417969 361.300781 L 130.125 361.390625 L 132.808594 357.859375 Z M 132.804688 354.285156 L 135.417969 357.726562 L 130.125 357.816406 L 132.808594 354.285156 Z M 132.804688 350.710938 L 135.417969 354.152344 L 130.125 354.242188 L 132.808594 350.710938 Z M 132.804688 347.140625 L 135.417969 350.578125 L 130.125 350.667969 L 132.808594 347.136719 Z M 132.804688 343.566406 L 135.417969 347.007812 L 130.125 347.09375 L 132.808594 343.5625 Z M 132.804688 339.992188 L 135.417969 343.433594 L 130.125 343.523438 L 132.808594 339.992188 Z M 173.695312 236.273438 L 173.652344 233.644531 L 175.40625 234.976562 Z M 175.429688 233.644531 L 177.179688 234.976562 L 175.472656 236.273438 Z M 177.203125 233.644531 L 178.957031 234.976562 L 177.246094 236.273438 Z M 178.980469 233.644531 L 180.734375 234.976562 L 179.023438 236.273438 Z M 180.753906 233.644531 L 182.507812 234.976562 L 180.800781 236.273438 Z M 182.53125 233.644531 L 184.285156 234.976562 L 182.574219 236.273438 Z M 184.308594 233.644531 L 186.0625 234.976562 L 184.351562 236.273438 Z M 292.765625 326.613281 L 295.363281 330.03125 L 290.101562 330.121094 L 292.765625 326.609375 Z M 292.765625 323.058594 L 295.363281 326.480469 L 290.101562 326.566406 Z M 292.765625 319.507812 L 295.363281 322.925781 L 290.101562 323.015625 L 292.765625 319.503906 Z M 292.765625 315.953125 L 295.363281 319.375 L 290.101562 319.460938 Z M 292.765625 312.402344 L 295.363281 315.820312 L 290.101562 315.910156 L 292.765625 312.398438 Z M 292.765625 308.847656 L 295.363281 312.269531 L 290.101562 312.355469 Z M 292.765625 305.296875 L 295.363281 308.714844 L 290.101562 308.804688 Z M 292.765625 305.296875 " fill-opacity="1" fill-rule="nonzero"/></g></svg>