<svg xmlns="http://www.w3.org/2000/svg" xmlns:xlink="http://www.w3.org/1999/xlink" width="500" zoomAndPan="magnify" viewBox="0 0 375 374.999991" height="500" preserveAspectRatio="xMidYMid meet" version="1.0"><defs><clipPath id="124e524bed"><path d="M 92 27.1875 L 113 27.1875 L 113 48 L 92 48 Z M 92 27.1875 " clip-rule="nonzero"/></clipPath></defs><path fill="#000000" d="M 191.96875 374.921875 L 191.1875 374.921875 C 191.1875 314.070312 132.109375 274.4375 79.984375 239.460938 C 39.171875 212.078125 3.921875 188.429688 3.921875 159.84375 L 3.921875 65.515625 L 4.703125 65.515625 L 4.703125 159.84375 C 4.703125 188.015625 39.789062 211.554688 80.421875 238.8125 C 132.703125 273.898438 191.96875 313.65625 191.96875 374.921875 Z M 191.96875 374.921875 " fill-opacity="1" fill-rule="nonzero"/><path fill="#000000" d="M 191.96875 374.921875 L 191.1875 374.921875 C 191.1875 316.210938 144.476562 280.101562 99.296875 245.179688 C 61.476562 215.945312 25.75 188.335938 21.09375 149.742188 L 21.09375 103.984375 L 21.875 103.984375 L 21.875 149.695312 C 26.484375 187.921875 62.085938 215.4375 99.773438 244.570312 C 145.101562 279.601562 191.96875 315.820312 191.96875 374.921875 Z M 191.96875 374.921875 " fill-opacity="1" fill-rule="nonzero"/><path fill="#000000" d="M 191.96875 374.921875 L 191.1875 374.921875 C 191.1875 319.804688 154.382812 285.65625 121.90625 255.523438 C 91.015625 226.859375 61.828125 199.78125 69.398438 159.773438 L 69.390625 92.617188 L 70.171875 92.617188 L 70.171875 159.84375 C 62.679688 199.5 91.703125 226.429688 122.4375 254.945312 C 155.03125 285.1875 191.96875 319.460938 191.96875 374.921875 Z M 191.96875 374.921875 " fill-opacity="1" fill-rule="nonzero"/><path fill="#000000" d="M 191.96875 374.921875 L 191.1875 374.921875 C 191.1875 320.195312 167.304688 290.859375 144.203125 262.492188 C 121.429688 234.523438 99.921875 208.109375 102.140625 159.828125 L 102.140625 46.796875 L 102.921875 46.796875 L 102.921875 159.851562 C 100.71875 207.851562 122.132812 234.15625 144.8125 262 C 167.992188 290.476562 191.96875 319.914062 191.96875 374.921875 Z M 191.96875 374.921875 " fill-opacity="1" fill-rule="nonzero"/><path fill="#000000" d="M 191.96875 374.921875 L 191.1875 374.921875 C 191.1875 316.546875 177.710938 280.453125 165.8125 248.601562 C 155.703125 221.523438 146.148438 195.945312 146.875 161.398438 L 146.875 67.078125 L 147.65625 67.078125 L 147.65625 161.40625 C 146.9375 195.8125 156.460938 221.320312 166.546875 248.328125 C 178.460938 280.242188 191.96875 316.40625 191.96875 374.921875 Z M 191.96875 374.921875 " fill-opacity="1" fill-rule="nonzero"/><path fill="#000000" d="M 191.96875 374.921875 L 191.1875 374.921875 C 191.1875 315.375 184.164062 276.320312 177.96875 241.859375 C 172.976562 214.09375 168.664062 190.117188 169.53125 162.179688 L 169.53125 83.507812 L 170.3125 83.507812 L 170.3125 162.1875 C 169.453125 190.054688 173.757812 213.992188 178.742188 241.710938 C 184.9375 276.210938 191.96875 315.304688 191.96875 374.921875 Z M 191.96875 374.921875 " fill-opacity="1" fill-rule="nonzero"/><path fill="#000000" d="M 191.96875 374.921875 L 191.1875 374.921875 C 191.1875 319.421875 192.484375 279.226562 193.625 243.757812 C 194.359375 220.90625 195.054688 199.3125 195.304688 176.6875 L 195.304688 96.34375 L 196.085938 96.34375 L 196.085938 176.695312 C 195.84375 199.335938 195.148438 220.929688 194.40625 243.789062 C 193.265625 279.242188 191.96875 319.429688 191.96875 374.921875 Z M 191.96875 374.921875 " fill-opacity="1" fill-rule="nonzero"/><path fill="#000000" d="M 191.96875 374.921875 L 191.1875 374.921875 C 191.1875 316.320312 203.257812 277.484375 213.898438 243.21875 C 222.757812 214.710938 230.40625 190.09375 228.125 161.445312 L 228.125 109.28125 L 228.90625 109.28125 L 228.90625 161.414062 C 231.195312 190.179688 223.523438 214.867188 214.648438 243.453125 C 204.015625 277.664062 191.96875 316.4375 191.96875 374.921875 Z M 191.96875 374.921875 " fill-opacity="1" fill-rule="nonzero"/><path fill="#000000" d="M 191.96875 374.921875 L 191.1875 374.921875 C 191.1875 318.992188 212.085938 287.453125 232.289062 256.953125 C 250.84375 228.9375 268.375 202.476562 265.835938 159.875 L 265.835938 55.742188 L 266.617188 55.742188 L 266.617188 159.851562 C 269.171875 202.695312 251.578125 229.257812 232.945312 257.382812 C 212.796875 287.789062 191.96875 319.226562 191.96875 374.921875 Z M 191.96875 374.921875 " fill-opacity="1" fill-rule="nonzero"/><path fill="#000000" d="M 191.96875 374.921875 L 191.1875 374.921875 C 191.1875 317.195312 219.96875 285.578125 247.796875 255 C 272.5625 227.789062 295.953125 202.085938 298.570312 159.828125 L 298.570312 88.710938 L 299.351562 88.710938 L 299.351562 159.851562 C 296.71875 202.414062 273.234375 228.210938 248.375 255.523438 C 220.640625 285.992188 191.96875 317.5 191.96875 374.921875 Z M 191.96875 374.921875 " fill-opacity="1" fill-rule="nonzero"/><path fill="#000000" d="M 191.96875 374.921875 L 191.1875 374.921875 C 191.1875 349.054688 199.195312 325.539062 215.664062 303.03125 C 230.171875 283.203125 249.164062 266.71875 267.523438 250.773438 C 299.21875 223.242188 329.15625 197.242188 327.34375 159.867188 L 327.34375 65.515625 L 328.125 65.515625 L 328.125 159.84375 C 329.960938 197.578125 299.882812 223.703125 268.039062 251.359375 C 232.382812 282.328125 191.96875 317.429688 191.96875 374.921875 Z M 191.96875 374.921875 " fill-opacity="1" fill-rule="nonzero"/><path fill="#000000" d="M 191.96875 374.921875 L 191.1875 374.921875 C 191.1875 313.34375 246.289062 273.125 294.90625 237.640625 C 332.007812 210.5625 364.046875 187.171875 364.046875 159.851562 L 364.046875 46.796875 L 364.828125 46.796875 L 364.828125 159.851562 C 364.828125 187.570312 332.640625 211.0625 295.367188 238.273438 C 246.90625 273.648438 191.96875 313.742188 191.96875 374.921875 Z M 191.96875 374.921875 " fill-opacity="1" fill-rule="nonzero"/><path fill="#000000" d="M 191.289062 370.726562 C 191.132812 318.898438 232.796875 284.59375 273.085938 251.421875 C 306.414062 223.976562 337.898438 198.054688 344.53125 163.890625 L 344.289062 82.03125 L 345.070312 82.03125 L 345.3125 163.960938 C 338.617188 198.476562 307.03125 224.484375 273.585938 252.023438 C 233.4375 285.085938 191.914062 319.273438 192.070312 370.726562 Z M 191.289062 370.726562 " fill-opacity="1" fill-rule="nonzero"/><path fill="#000000" d="M 191.289062 370.726562 C 191.148438 324.40625 220.367188 293.40625 251.296875 260.578125 C 282.539062 227.429688 314.84375 193.148438 314.84375 141.382812 L 314.726562 101.679688 L 315.507812 101.679688 L 315.625 141.382812 C 315.625 193.460938 283.210938 227.859375 251.867188 261.117188 C 221.046875 293.828125 191.9375 324.71875 192.070312 370.726562 Z M 191.289062 370.726562 " fill-opacity="1" fill-rule="nonzero"/><path fill="#000000" d="M 191.289062 370.726562 C 191.140625 322.304688 214.960938 288.921875 237.992188 256.648438 C 260.226562 225.492188 281.226562 196.0625 281.242188 154.734375 L 281.070312 96.34375 L 281.851562 96.34375 L 282.023438 154.734375 C 282.007812 196.3125 260.9375 225.835938 238.625 257.101562 C 215.664062 289.28125 191.921875 322.554688 192.0625 370.726562 Z M 191.289062 370.726562 " fill-opacity="1" fill-rule="nonzero"/><path fill="#000000" d="M 191.289062 370.726562 C 191.132812 319.539062 210.40625 285.492188 227.40625 255.445312 C 241.679688 230.21875 254.007812 208.429688 251.5625 182.179688 L 251.265625 83.945312 L 252.046875 83.945312 L 252.34375 182.148438 C 254.8125 208.609375 242.429688 230.492188 228.085938 255.835938 C 211.132812 285.796875 191.921875 319.75 192.070312 370.726562 Z M 191.289062 370.726562 " fill-opacity="1" fill-rule="nonzero"/><path fill="#000000" d="M 191.289062 370.726562 C 191.132812 317.976562 207.351562 284.296875 221.664062 254.578125 C 233.09375 230.84375 242.96875 210.34375 242.96875 184.570312 L 242.726562 102.632812 L 243.507812 102.632812 L 243.75 184.570312 C 243.75 210.523438 233.84375 231.101562 222.367188 254.921875 C 208.09375 284.5625 191.914062 318.164062 192.070312 370.726562 Z M 191.289062 370.726562 " fill-opacity="1" fill-rule="nonzero"/><path fill="#000000" d="M 191.289062 370.726562 C 191.132812 317.53125 196.570312 282.835938 201.367188 252.226562 C 205.078125 228.570312 208.28125 208.140625 208.203125 183.859375 L 208 115.515625 L 208.78125 115.515625 L 208.984375 183.859375 C 209.054688 208.203125 205.851562 228.664062 202.132812 252.351562 C 197.335938 282.9375 191.90625 317.59375 192.0625 370.726562 Z M 191.289062 370.726562 " fill-opacity="1" fill-rule="nonzero"/><path fill="#000000" d="M 191.289062 370.726562 C 191.132812 317.546875 188.867188 282.859375 186.875 252.257812 C 185.335938 228.609375 184 208.1875 183.929688 183.929688 L 183.851562 157.335938 L 184.632812 157.335938 L 184.710938 183.929688 C 184.78125 208.15625 186.117188 228.570312 187.65625 252.210938 C 189.648438 282.828125 191.914062 317.523438 192.070312 370.726562 Z M 191.289062 370.726562 " fill-opacity="1" fill-rule="nonzero"/><path fill="#000000" d="M 191.289062 370.726562 C 191.132812 317.570312 181.171875 282.890625 172.382812 252.289062 C 165.59375 228.648438 159.726562 208.226562 159.65625 184 L 159.523438 138.710938 L 160.304688 138.710938 L 160.4375 184 C 160.507812 208.117188 166.359375 228.492188 173.132812 252.078125 C 181.9375 282.726562 191.914062 317.460938 192.070312 370.726562 Z M 191.289062 370.726562 " fill-opacity="1" fill-rule="nonzero"/><path fill="#000000" d="M 191.289062 370.726562 C 191.132812 317.578125 173.46875 282.90625 157.882812 252.3125 C 145.84375 228.6875 135.453125 208.28125 135.375 184.078125 L 135.101562 93.648438 L 135.882812 93.648438 L 136.15625 184.078125 C 136.226562 208.09375 146.585938 228.421875 158.578125 251.960938 C 174.203125 282.632812 191.914062 317.398438 192.070312 370.726562 Z M 191.289062 370.726562 " fill-opacity="1" fill-rule="nonzero"/><path fill="#000000" d="M 191.289062 370.726562 C 191.140625 321.484375 169.078125 287.71875 149.609375 257.929688 C 131.570312 230.320312 115.992188 206.476562 120.3125 176.28125 L 120.125 114.546875 L 120.90625 114.546875 L 121.09375 176.335938 C 116.8125 206.296875 132.3125 230.023438 150.273438 257.5 C 169.796875 287.382812 191.929688 321.25 192.078125 370.726562 Z M 191.289062 370.726562 " fill-opacity="1" fill-rule="nonzero"/><path fill="#000000" d="M 191.289062 370.726562 C 191.132812 317.59375 158.03125 282.90625 128.835938 252.304688 C 106.335938 228.71875 86.898438 208.351562 86.828125 184.226562 L 86.585938 102.289062 L 87.367188 102.289062 L 87.609375 184.226562 C 87.679688 208.039062 107.015625 228.304688 129.40625 251.773438 C 158.710938 282.484375 191.921875 317.289062 192.078125 370.734375 Z M 191.289062 370.726562 " fill-opacity="1" fill-rule="nonzero"/><path fill="#000000" d="M 191.289062 370.726562 C 191.125 316.390625 147.640625 280.671875 109.265625 249.164062 C 81.320312 226.21875 54.929688 204.539062 49.21875 178.914062 L 49.21875 178.828125 L 48.921875 80.632812 L 49.703125 80.632812 L 50 178.78125 C 55.664062 204.125 81.945312 225.710938 109.765625 248.554688 C 148.265625 280.171875 191.90625 316.015625 192.070312 370.71875 Z M 191.289062 370.726562 " fill-opacity="1" fill-rule="nonzero"/><g clip-path="url(#124e524bed)"><path fill="#000000" d="M 112.5 37.421875 C 112.5 38.089844 112.433594 38.75 112.304688 39.402344 C 112.175781 40.058594 111.980469 40.691406 111.726562 41.308594 C 111.472656 41.925781 111.160156 42.511719 110.789062 43.0625 C 110.417969 43.617188 109.996094 44.132812 109.523438 44.601562 C 109.054688 45.074219 108.539062 45.496094 107.984375 45.867188 C 107.433594 46.238281 106.847656 46.550781 106.230469 46.804688 C 105.613281 47.058594 104.980469 47.253906 104.324219 47.382812 C 103.671875 47.511719 103.011719 47.578125 102.34375 47.578125 C 101.675781 47.578125 101.015625 47.511719 100.363281 47.382812 C 99.707031 47.253906 99.074219 47.058594 98.457031 46.804688 C 97.839844 46.550781 97.253906 46.238281 96.703125 45.867188 C 96.148438 45.496094 95.632812 45.074219 95.164062 44.601562 C 94.691406 44.132812 94.269531 43.617188 93.898438 43.0625 C 93.527344 42.511719 93.214844 41.925781 92.960938 41.308594 C 92.707031 40.691406 92.511719 40.058594 92.382812 39.402344 C 92.253906 38.75 92.1875 38.089844 92.1875 37.421875 C 92.1875 36.753906 92.253906 36.09375 92.382812 35.441406 C 92.511719 34.785156 92.707031 34.152344 92.960938 33.535156 C 93.214844 32.917969 93.527344 32.332031 93.898438 31.78125 C 94.269531 31.226562 94.691406 30.710938 95.164062 30.242188 C 95.632812 29.769531 96.148438 29.347656 96.703125 28.976562 C 97.253906 28.605469 97.839844 28.292969 98.457031 28.039062 C 99.074219 27.785156 99.707031 27.589844 100.363281 27.460938 C 101.015625 27.332031 101.675781 27.265625 102.34375 27.265625 C 103.011719 27.265625 103.671875 27.332031 104.324219 27.460938 C 104.980469 27.589844 105.613281 27.785156 106.230469 28.039062 C 106.847656 28.292969 107.433594 28.605469 107.984375 28.976562 C 108.539062 29.347656 109.054688 29.769531 109.523438 30.242188 C 109.996094 30.710938 110.417969 31.226562 110.789062 31.78125 C 111.160156 32.332031 111.472656 32.917969 111.726562 33.535156 C 111.980469 34.152344 112.175781 34.785156 112.304688 35.441406 C 112.433594 36.09375 112.5 36.753906 112.5 37.421875 Z M 112.5 37.421875 " fill-opacity="1" fill-rule="nonzero"/></g><path fill="#000000" d="M 276.5625 49.53125 C 276.5625 50.199219 276.496094 50.859375 276.367188 51.511719 C 276.238281 52.167969 276.042969 52.800781 275.789062 53.417969 C 275.535156 54.035156 275.222656 54.621094 274.851562 55.171875 C 274.480469 55.726562 274.058594 56.242188 273.585938 56.710938 C 273.117188 57.183594 272.601562 57.605469 272.046875 57.976562 C 271.496094 58.347656 270.910156 58.660156 270.292969 58.914062 C 269.675781 59.167969 269.042969 59.363281 268.386719 59.492188 C 267.734375 59.621094 267.074219 59.6875 266.40625 59.6875 C 265.738281 59.6875 265.078125 59.621094 264.425781 59.492188 C 263.769531 59.363281 263.136719 59.167969 262.519531 58.914062 C 261.902344 58.660156 261.316406 58.347656 260.765625 57.976562 C 260.210938 57.605469 259.695312 57.183594 259.226562 56.710938 C 258.753906 56.242188 258.332031 55.726562 257.960938 55.171875 C 257.589844 54.621094 257.277344 54.035156 257.023438 53.417969 C 256.769531 52.800781 256.574219 52.167969 256.445312 51.511719 C 256.316406 50.859375 256.25 50.199219 256.25 49.53125 C 256.25 48.863281 256.316406 48.203125 256.445312 47.550781 C 256.574219 46.894531 256.769531 46.261719 257.023438 45.644531 C 257.277344 45.027344 257.589844 44.441406 257.960938 43.890625 C 258.332031 43.335938 258.753906 42.820312 259.226562 42.351562 C 259.695312 41.878906 260.210938 41.457031 260.765625 41.085938 C 261.316406 40.714844 261.902344 40.402344 262.519531 40.148438 C 263.136719 39.894531 263.769531 39.699219 264.425781 39.570312 C 265.078125 39.441406 265.738281 39.375 266.40625 39.375 C 267.074219 39.375 267.734375 39.441406 268.386719 39.570312 C 269.042969 39.699219 269.675781 39.894531 270.292969 40.148438 C 270.910156 40.402344 271.496094 40.714844 272.046875 41.085938 C 272.601562 41.457031 273.117188 41.878906 273.585938 42.351562 C 274.058594 42.820312 274.480469 43.335938 274.851562 43.890625 C 275.222656 44.441406 275.535156 45.027344 275.789062 45.644531 C 276.042969 46.261719 276.238281 46.894531 276.367188 47.550781 C 276.496094 48.203125 276.5625 48.863281 276.5625 49.53125 Z M 276.5625 49.53125 " fill-opacity="1" fill-rule="nonzero"/><path fill="#000000" d="M 375 41.71875 C 375 42.386719 374.933594 43.046875 374.804688 43.699219 C 374.675781 44.355469 374.480469 44.988281 374.226562 45.605469 C 373.972656 46.222656 373.660156 46.808594 373.289062 47.359375 C 372.917969 47.914062 372.496094 48.429688 372.023438 48.898438 C 371.554688 49.371094 371.039062 49.792969 370.484375 50.164062 C 369.933594 50.535156 369.347656 50.847656 368.730469 51.101562 C 368.113281 51.355469 367.480469 51.550781 366.824219 51.679688 C 366.171875 51.808594 365.511719 51.875 364.84375 51.875 C 364.175781 51.875 363.515625 51.808594 362.863281 51.679688 C 362.207031 51.550781 361.574219 51.355469 360.957031 51.101562 C 360.339844 50.847656 359.753906 50.535156 359.199219 50.164062 C 358.648438 49.792969 358.132812 49.371094 357.664062 48.898438 C 357.191406 48.429688 356.769531 47.914062 356.398438 47.359375 C 356.027344 46.808594 355.714844 46.222656 355.460938 45.605469 C 355.207031 44.988281 355.011719 44.355469 354.882812 43.699219 C 354.753906 43.046875 354.6875 42.386719 354.6875 41.71875 C 354.6875 41.050781 354.753906 40.390625 354.882812 39.738281 C 355.011719 39.082031 355.207031 38.449219 355.460938 37.832031 C 355.714844 37.214844 356.027344 36.628906 356.398438 36.078125 C 356.769531 35.523438 357.191406 35.007812 357.664062 34.539062 C 358.132812 34.066406 358.648438 33.644531 359.199219 33.273438 C 359.753906 32.902344 360.339844 32.589844 360.957031 32.335938 C 361.574219 32.082031 362.207031 31.886719 362.863281 31.757812 C 363.515625 31.628906 364.175781 31.5625 364.84375 31.5625 C 365.511719 31.5625 366.171875 31.628906 366.824219 31.757812 C 367.480469 31.886719 368.113281 32.082031 368.730469 32.335938 C 369.347656 32.589844 369.933594 32.902344 370.484375 33.273438 C 371.039062 33.644531 371.554688 34.066406 372.023438 34.539062 C 372.496094 35.007812 372.917969 35.523438 373.289062 36.078125 C 373.660156 36.628906 373.972656 37.214844 374.226562 37.832031 C 374.480469 38.449219 374.675781 39.082031 374.804688 39.738281 C 374.933594 40.390625 375 41.050781 375 41.71875 Z M 375 41.71875 " fill-opacity="1" fill-rule="nonzero"/><path fill="#000000" d="M 28.125 102.65625 C 28.125 103.117188 28.078125 103.574219 27.988281 104.027344 C 27.898438 104.480469 27.765625 104.921875 27.589844 105.347656 C 27.414062 105.773438 27.195312 106.179688 26.941406 106.5625 C 26.683594 106.945312 26.390625 107.300781 26.066406 107.628906 C 25.738281 107.953125 25.382812 108.246094 25 108.503906 C 24.617188 108.757812 24.210938 108.976562 23.785156 109.152344 C 23.359375 109.328125 22.917969 109.460938 22.464844 109.550781 C 22.011719 109.640625 21.554688 109.6875 21.09375 109.6875 C 20.632812 109.6875 20.175781 109.640625 19.722656 109.550781 C 19.269531 109.460938 18.828125 109.328125 18.402344 109.152344 C 17.976562 108.976562 17.570312 108.757812 17.1875 108.503906 C 16.804688 108.246094 16.449219 107.953125 16.121094 107.628906 C 15.796875 107.300781 15.503906 106.945312 15.246094 106.5625 C 14.992188 106.179688 14.773438 105.773438 14.597656 105.347656 C 14.421875 104.921875 14.289062 104.480469 14.199219 104.027344 C 14.109375 103.574219 14.0625 103.117188 14.0625 102.65625 C 14.0625 102.195312 14.109375 101.738281 14.199219 101.285156 C 14.289062 100.832031 14.421875 100.390625 14.597656 99.964844 C 14.773438 99.539062 14.992188 99.132812 15.246094 98.75 C 15.503906 98.367188 15.796875 98.011719 16.121094 97.683594 C 16.449219 97.359375 16.804688 97.066406 17.1875 96.808594 C 17.570312 96.554688 17.976562 96.335938 18.402344 96.160156 C 18.828125 95.984375 19.269531 95.851562 19.722656 95.761719 C 20.175781 95.671875 20.632812 95.625 21.09375 95.625 C 21.554688 95.625 22.011719 95.671875 22.464844 95.761719 C 22.917969 95.851562 23.359375 95.984375 23.785156 96.160156 C 24.210938 96.335938 24.617188 96.554688 25 96.808594 C 25.382812 97.066406 25.738281 97.359375 26.066406 97.683594 C 26.390625 98.011719 26.683594 98.367188 26.941406 98.75 C 27.195312 99.132812 27.414062 99.539062 27.589844 99.964844 C 27.765625 100.390625 27.898438 100.832031 27.988281 101.285156 C 28.078125 101.738281 28.125 102.195312 28.125 102.65625 Z M 28.125 102.65625 " fill-opacity="1" fill-rule="nonzero"/><path fill="#000000" d="M 153.90625 66.71875 C 153.90625 67.179688 153.859375 67.636719 153.769531 68.089844 C 153.679688 68.542969 153.546875 68.984375 153.371094 69.410156 C 153.195312 69.835938 152.976562 70.242188 152.722656 70.625 C 152.464844 71.007812 152.171875 71.363281 151.847656 71.691406 C 151.519531 72.015625 151.164062 72.308594 150.78125 72.566406 C 150.398438 72.820312 149.992188 73.039062 149.566406 73.214844 C 149.140625 73.390625 148.699219 73.523438 148.246094 73.613281 C 147.792969 73.703125 147.335938 73.75 146.875 73.75 C 146.414062 73.75 145.957031 73.703125 145.503906 73.613281 C 145.050781 73.523438 144.609375 73.390625 144.183594 73.214844 C 143.757812 73.039062 143.351562 72.820312 142.96875 72.566406 C 142.585938 72.308594 142.230469 72.015625 141.902344 71.691406 C 141.578125 71.363281 141.285156 71.007812 141.027344 70.625 C 140.773438 70.242188 140.554688 69.835938 140.378906 69.410156 C 140.203125 68.984375 140.070312 68.542969 139.980469 68.089844 C 139.890625 67.636719 139.84375 67.179688 139.84375 66.71875 C 139.84375 66.257812 139.890625 65.800781 139.980469 65.347656 C 140.070312 64.894531 140.203125 64.453125 140.378906 64.027344 C 140.554688 63.601562 140.773438 63.195312 141.027344 62.8125 C 141.285156 62.429688 141.578125 62.074219 141.902344 61.746094 C 142.230469 61.421875 142.585938 61.128906 142.96875 60.871094 C 143.351562 60.617188 143.757812 60.398438 144.183594 60.222656 C 144.609375 60.046875 145.050781 59.914062 145.503906 59.824219 C 145.957031 59.734375 146.414062 59.6875 146.875 59.6875 C 147.335938 59.6875 147.792969 59.734375 148.246094 59.824219 C 148.699219 59.914062 149.140625 60.046875 149.566406 60.222656 C 149.992188 60.398438 150.398438 60.617188 150.78125 60.871094 C 151.164062 61.128906 151.519531 61.421875 151.847656 61.746094 C 152.171875 62.074219 152.464844 62.429688 152.722656 62.8125 C 152.976562 63.195312 153.195312 63.601562 153.371094 64.027344 C 153.546875 64.453125 153.679688 64.894531 153.769531 65.347656 C 153.859375 65.800781 153.90625 66.257812 153.90625 66.71875 Z M 153.90625 66.71875 " fill-opacity="1" fill-rule="nonzero"/><path fill="#000000" d="M 335.15625 64.375 C 335.15625 64.835938 335.109375 65.292969 335.019531 65.746094 C 334.929688 66.199219 334.796875 66.640625 334.621094 67.066406 C 334.445312 67.492188 334.226562 67.898438 333.972656 68.28125 C 333.714844 68.664062 333.421875 69.019531 333.097656 69.347656 C 332.769531 69.671875 332.414062 69.964844 332.03125 70.222656 C 331.648438 70.476562 331.242188 70.695312 330.816406 70.871094 C 330.390625 71.046875 329.949219 71.179688 329.496094 71.269531 C 329.042969 71.359375 328.585938 71.40625 328.125 71.40625 C 327.664062 71.40625 327.207031 71.359375 326.753906 71.269531 C 326.300781 71.179688 325.859375 71.046875 325.433594 70.871094 C 325.007812 70.695312 324.601562 70.476562 324.21875 70.222656 C 323.835938 69.964844 323.480469 69.671875 323.152344 69.347656 C 322.828125 69.019531 322.535156 68.664062 322.277344 68.28125 C 322.023438 67.898438 321.804688 67.492188 321.628906 67.066406 C 321.453125 66.640625 321.320312 66.199219 321.230469 65.746094 C 321.140625 65.292969 321.09375 64.835938 321.09375 64.375 C 321.09375 63.914062 321.140625 63.457031 321.230469 63.003906 C 321.320312 62.550781 321.453125 62.109375 321.628906 61.683594 C 321.804688 61.257812 322.023438 60.851562 322.277344 60.46875 C 322.535156 60.085938 322.828125 59.730469 323.152344 59.402344 C 323.480469 59.078125 323.835938 58.785156 324.21875 58.527344 C 324.601562 58.273438 325.007812 58.054688 325.433594 57.878906 C 325.859375 57.703125 326.300781 57.570312 326.753906 57.480469 C 327.207031 57.390625 327.664062 57.34375 328.125 57.34375 C 328.585938 57.34375 329.042969 57.390625 329.496094 57.480469 C 329.949219 57.570312 330.390625 57.703125 330.816406 57.878906 C 331.242188 58.054688 331.648438 58.273438 332.03125 58.527344 C 332.414062 58.785156 332.769531 59.078125 333.097656 59.402344 C 333.421875 59.730469 333.714844 60.085938 333.972656 60.46875 C 334.226562 60.851562 334.445312 61.257812 334.621094 61.683594 C 334.796875 62.109375 334.929688 62.550781 335.019531 63.003906 C 335.109375 63.457031 335.15625 63.914062 335.15625 64.375 Z M 335.15625 64.375 " fill-opacity="1" fill-rule="nonzero"/><path fill="#000000" d="M 203.125 92.5 C 203.125 92.960938 203.078125 93.417969 202.988281 93.871094 C 202.898438 94.324219 202.765625 94.765625 202.589844 95.191406 C 202.414062 95.617188 202.195312 96.023438 201.941406 96.40625 C 201.683594 96.789062 201.390625 97.144531 201.066406 97.472656 C 200.738281 97.796875 200.382812 98.089844 200 98.347656 C 199.617188 98.601562 199.210938 98.820312 198.785156 98.996094 C 198.359375 99.171875 197.917969 99.304688 197.464844 99.394531 C 197.011719 99.484375 196.554688 99.53125 196.09375 99.53125 C 195.632812 99.53125 195.175781 99.484375 194.722656 99.394531 C 194.269531 99.304688 193.828125 99.171875 193.402344 98.996094 C 192.976562 98.820312 192.570312 98.601562 192.1875 98.347656 C 191.804688 98.089844 191.449219 97.796875 191.121094 97.472656 C 190.796875 97.144531 190.503906 96.789062 190.246094 96.40625 C 189.992188 96.023438 189.773438 95.617188 189.597656 95.191406 C 189.421875 94.765625 189.289062 94.324219 189.199219 93.871094 C 189.109375 93.417969 189.0625 92.960938 189.0625 92.5 C 189.0625 92.039062 189.109375 91.582031 189.199219 91.128906 C 189.289062 90.675781 189.421875 90.234375 189.597656 89.808594 C 189.773438 89.382812 189.992188 88.976562 190.246094 88.59375 C 190.503906 88.210938 190.796875 87.855469 191.121094 87.527344 C 191.449219 87.203125 191.804688 86.910156 192.1875 86.652344 C 192.570312 86.398438 192.976562 86.179688 193.402344 86.003906 C 193.828125 85.828125 194.269531 85.695312 194.722656 85.605469 C 195.175781 85.515625 195.632812 85.46875 196.09375 85.46875 C 196.554688 85.46875 197.011719 85.515625 197.464844 85.605469 C 197.917969 85.695312 198.359375 85.828125 198.785156 86.003906 C 199.210938 86.179688 199.617188 86.398438 200 86.652344 C 200.382812 86.910156 200.738281 87.203125 201.066406 87.527344 C 201.390625 87.855469 201.683594 88.210938 201.941406 88.59375 C 202.195312 88.976562 202.414062 89.382812 202.589844 89.808594 C 202.765625 90.234375 202.898438 90.675781 202.988281 91.128906 C 203.078125 91.582031 203.125 92.039062 203.125 92.5 Z M 203.125 92.5 " fill-opacity="1" fill-rule="nonzero"/><path fill="#000000" d="M 9.375 65.9375 C 9.375 66.246094 9.34375 66.550781 9.285156 66.851562 C 9.226562 67.152344 9.136719 67.445312 9.019531 67.730469 C 8.902344 68.015625 8.757812 68.285156 8.585938 68.542969 C 8.414062 68.796875 8.21875 69.035156 8.003906 69.253906 C 7.785156 69.46875 7.546875 69.664062 7.292969 69.835938 C 7.035156 70.007812 6.765625 70.152344 6.480469 70.269531 C 6.195312 70.386719 5.902344 70.476562 5.601562 70.535156 C 5.300781 70.59375 4.996094 70.625 4.6875 70.625 C 4.378906 70.625 4.074219 70.59375 3.773438 70.535156 C 3.472656 70.476562 3.179688 70.386719 2.894531 70.269531 C 2.609375 70.152344 2.339844 70.007812 2.082031 69.835938 C 1.828125 69.664062 1.589844 69.46875 1.371094 69.253906 C 1.15625 69.035156 0.960938 68.796875 0.789062 68.542969 C 0.617188 68.285156 0.472656 68.015625 0.355469 67.730469 C 0.238281 67.445312 0.148438 67.152344 0.0898438 66.851562 C 0.03125 66.550781 0 66.246094 0 65.9375 C 0 65.628906 0.03125 65.324219 0.0898438 65.023438 C 0.148438 64.722656 0.238281 64.429688 0.355469 64.144531 C 0.472656 63.859375 0.617188 63.589844 0.789062 63.332031 C 0.960938 63.078125 1.15625 62.839844 1.371094 62.621094 C 1.589844 62.40625 1.828125 62.210938 2.082031 62.039062 C 2.339844 61.867188 2.609375 61.722656 2.894531 61.605469 C 3.179688 61.488281 3.472656 61.398438 3.773438 61.339844 C 4.074219 61.28125 4.378906 61.25 4.6875 61.25 C 4.996094 61.25 5.300781 61.28125 5.601562 61.339844 C 5.902344 61.398438 6.195312 61.488281 6.480469 61.605469 C 6.765625 61.722656 7.035156 61.867188 7.292969 62.039062 C 7.546875 62.210938 7.785156 62.40625 8.003906 62.621094 C 8.21875 62.839844 8.414062 63.078125 8.585938 63.332031 C 8.757812 63.589844 8.902344 63.859375 9.019531 64.144531 C 9.136719 64.429688 9.226562 64.722656 9.285156 65.023438 C 9.34375 65.324219 9.375 65.628906 9.375 65.9375 Z M 9.375 65.9375 " fill-opacity="1" fill-rule="nonzero"/><path fill="#000000" d="M 189.0625 155 C 189.0625 155.308594 189.03125 155.613281 188.972656 155.914062 C 188.914062 156.214844 188.824219 156.507812 188.707031 156.792969 C 188.585938 157.078125 188.445312 157.347656 188.273438 157.605469 C 188.101562 157.859375 187.90625 158.097656 187.691406 158.316406 C 187.472656 158.53125 187.234375 158.726562 186.980469 158.898438 C 186.722656 159.070312 186.453125 159.210938 186.167969 159.332031 C 185.882812 159.449219 185.589844 159.539062 185.289062 159.597656 C 184.988281 159.65625 184.683594 159.6875 184.375 159.6875 C 184.066406 159.6875 183.761719 159.65625 183.460938 159.597656 C 183.160156 159.539062 182.867188 159.449219 182.582031 159.332031 C 182.296875 159.210938 182.027344 159.070312 181.769531 158.898438 C 181.515625 158.726562 181.277344 158.53125 181.058594 158.316406 C 180.84375 158.097656 180.648438 157.859375 180.476562 157.605469 C 180.304688 157.347656 180.160156 157.078125 180.042969 156.792969 C 179.925781 156.507812 179.835938 156.214844 179.777344 155.914062 C 179.71875 155.613281 179.6875 155.308594 179.6875 155 C 179.6875 154.691406 179.71875 154.386719 179.777344 154.085938 C 179.835938 153.785156 179.925781 153.492188 180.042969 153.207031 C 180.160156 152.921875 180.304688 152.652344 180.476562 152.394531 C 180.648438 152.140625 180.84375 151.902344 181.058594 151.683594 C 181.277344 151.46875 181.515625 151.273438 181.769531 151.101562 C 182.027344 150.929688 182.296875 150.785156 182.582031 150.667969 C 182.867188 150.550781 183.160156 150.460938 183.460938 150.402344 C 183.761719 150.34375 184.066406 150.3125 184.375 150.3125 C 184.683594 150.3125 184.988281 150.34375 185.289062 150.402344 C 185.589844 150.460938 185.882812 150.550781 186.167969 150.667969 C 186.453125 150.785156 186.722656 150.929688 186.980469 151.101562 C 187.234375 151.273438 187.472656 151.46875 187.691406 151.683594 C 187.90625 151.902344 188.101562 152.140625 188.273438 152.394531 C 188.445312 152.652344 188.585938 152.921875 188.707031 153.207031 C 188.824219 153.492188 188.914062 153.785156 188.972656 154.085938 C 189.03125 154.386719 189.0625 154.691406 189.0625 155 Z M 189.0625 155 " fill-opacity="1" fill-rule="nonzero"/><path fill="#000000" d="M 256.25 83.90625 C 256.25 84.214844 256.21875 84.519531 256.160156 84.820312 C 256.101562 85.121094 256.011719 85.414062 255.894531 85.699219 C 255.773438 85.984375 255.632812 86.253906 255.460938 86.511719 C 255.289062 86.765625 255.09375 87.003906 254.878906 87.222656 C 254.660156 87.4375 254.421875 87.632812 254.167969 87.804688 C 253.910156 87.976562 253.640625 88.117188 253.355469 88.238281 C 253.070312 88.355469 252.777344 88.445312 252.476562 88.503906 C 252.175781 88.5625 251.871094 88.59375 251.5625 88.59375 C 251.253906 88.59375 250.949219 88.5625 250.648438 88.503906 C 250.347656 88.445312 250.054688 88.355469 249.769531 88.238281 C 249.484375 88.117188 249.214844 87.976562 248.957031 87.804688 C 248.703125 87.632812 248.464844 87.4375 248.246094 87.222656 C 248.03125 87.003906 247.835938 86.765625 247.664062 86.511719 C 247.492188 86.253906 247.347656 85.984375 247.230469 85.699219 C 247.113281 85.414062 247.023438 85.121094 246.964844 84.820312 C 246.90625 84.519531 246.875 84.214844 246.875 83.90625 C 246.875 83.597656 246.90625 83.292969 246.964844 82.992188 C 247.023438 82.691406 247.113281 82.398438 247.230469 82.113281 C 247.347656 81.828125 247.492188 81.558594 247.664062 81.300781 C 247.835938 81.046875 248.03125 80.808594 248.246094 80.589844 C 248.464844 80.375 248.703125 80.179688 248.957031 80.007812 C 249.214844 79.835938 249.484375 79.691406 249.769531 79.574219 C 250.054688 79.457031 250.347656 79.367188 250.648438 79.308594 C 250.949219 79.25 251.253906 79.21875 251.5625 79.21875 C 251.871094 79.21875 252.175781 79.25 252.476562 79.308594 C 252.777344 79.367188 253.070312 79.457031 253.355469 79.574219 C 253.640625 79.691406 253.910156 79.835938 254.167969 80.007812 C 254.421875 80.179688 254.660156 80.375 254.878906 80.589844 C 255.09375 80.808594 255.289062 81.046875 255.460938 81.300781 C 255.632812 81.558594 255.773438 81.828125 255.894531 82.113281 C 256.011719 82.398438 256.101562 82.691406 256.160156 82.992188 C 256.21875 83.292969 256.25 83.597656 256.25 83.90625 Z M 256.25 83.90625 " fill-opacity="1" fill-rule="nonzero"/><path fill="#000000" d="M 349.21875 82.34375 C 349.21875 82.652344 349.1875 82.957031 349.128906 83.257812 C 349.070312 83.558594 348.980469 83.851562 348.863281 84.136719 C 348.742188 84.421875 348.601562 84.691406 348.429688 84.949219 C 348.257812 85.203125 348.0625 85.441406 347.847656 85.660156 C 347.628906 85.875 347.390625 86.070312 347.136719 86.242188 C 346.878906 86.414062 346.609375 86.554688 346.324219 86.675781 C 346.039062 86.792969 345.746094 86.882812 345.445312 86.941406 C 345.144531 87 344.839844 87.03125 344.53125 87.03125 C 344.222656 87.03125 343.917969 87 343.617188 86.941406 C 343.316406 86.882812 343.023438 86.792969 342.738281 86.675781 C 342.453125 86.554688 342.183594 86.414062 341.925781 86.242188 C 341.671875 86.070312 341.433594 85.875 341.214844 85.660156 C 341 85.441406 340.804688 85.203125 340.632812 84.949219 C 340.460938 84.691406 340.316406 84.421875 340.199219 84.136719 C 340.082031 83.851562 339.992188 83.558594 339.933594 83.257812 C 339.875 82.957031 339.84375 82.652344 339.84375 82.34375 C 339.84375 82.035156 339.875 81.730469 339.933594 81.429688 C 339.992188 81.128906 340.082031 80.835938 340.199219 80.550781 C 340.316406 80.265625 340.460938 79.996094 340.632812 79.738281 C 340.804688 79.484375 341 79.246094 341.214844 79.027344 C 341.433594 78.8125 341.671875 78.617188 341.925781 78.445312 C 342.183594 78.273438 342.453125 78.128906 342.738281 78.011719 C 343.023438 77.894531 343.316406 77.804688 343.617188 77.746094 C 343.917969 77.6875 344.222656 77.65625 344.53125 77.65625 C 344.839844 77.65625 345.144531 77.6875 345.445312 77.746094 C 345.746094 77.804688 346.039062 77.894531 346.324219 78.011719 C 346.609375 78.128906 346.878906 78.273438 347.136719 78.445312 C 347.390625 78.617188 347.628906 78.8125 347.847656 79.027344 C 348.0625 79.246094 348.257812 79.484375 348.429688 79.738281 C 348.601562 79.996094 348.742188 80.265625 348.863281 80.550781 C 348.980469 80.835938 349.070312 81.128906 349.128906 81.429688 C 349.1875 81.730469 349.21875 82.035156 349.21875 82.34375 Z M 349.21875 82.34375 " fill-opacity="1" fill-rule="nonzero"/><path fill="#000000" d="M 125 115.15625 C 125 115.464844 124.96875 115.769531 124.910156 116.070312 C 124.851562 116.371094 124.761719 116.664062 124.644531 116.949219 C 124.523438 117.234375 124.382812 117.503906 124.210938 117.761719 C 124.039062 118.015625 123.84375 118.253906 123.628906 118.472656 C 123.410156 118.6875 123.171875 118.882812 122.917969 119.054688 C 122.660156 119.226562 122.390625 119.367188 122.105469 119.488281 C 121.820312 119.605469 121.527344 119.695312 121.226562 119.753906 C 120.925781 119.8125 120.621094 119.84375 120.3125 119.84375 C 120.003906 119.84375 119.699219 119.8125 119.398438 119.753906 C 119.097656 119.695312 118.804688 119.605469 118.519531 119.488281 C 118.234375 119.367188 117.964844 119.226562 117.707031 119.054688 C 117.453125 118.882812 117.214844 118.6875 116.996094 118.472656 C 116.78125 118.253906 116.585938 118.015625 116.414062 117.761719 C 116.242188 117.503906 116.097656 117.234375 115.980469 116.949219 C 115.863281 116.664062 115.773438 116.371094 115.714844 116.070312 C 115.65625 115.769531 115.625 115.464844 115.625 115.15625 C 115.625 114.847656 115.65625 114.542969 115.714844 114.242188 C 115.773438 113.941406 115.863281 113.648438 115.980469 113.363281 C 116.097656 113.078125 116.242188 112.808594 116.414062 112.550781 C 116.585938 112.296875 116.78125 112.058594 116.996094 111.839844 C 117.214844 111.625 117.453125 111.429688 117.707031 111.257812 C 117.964844 111.085938 118.234375 110.941406 118.519531 110.824219 C 118.804688 110.707031 119.097656 110.617188 119.398438 110.558594 C 119.699219 110.5 120.003906 110.46875 120.3125 110.46875 C 120.621094 110.46875 120.925781 110.5 121.226562 110.558594 C 121.527344 110.617188 121.820312 110.707031 122.105469 110.824219 C 122.390625 110.941406 122.660156 111.085938 122.917969 111.257812 C 123.171875 111.429688 123.410156 111.625 123.628906 111.839844 C 123.84375 112.058594 124.039062 112.296875 124.210938 112.550781 C 124.382812 112.808594 124.523438 113.078125 124.644531 113.363281 C 124.761719 113.648438 124.851562 113.941406 124.910156 114.242188 C 124.96875 114.542969 125 114.847656 125 115.15625 Z M 125 115.15625 " fill-opacity="1" fill-rule="nonzero"/><path fill="#000000" d="M 232.03125 109.6875 C 232.03125 110.101562 231.953125 110.5 231.792969 110.882812 C 231.632812 111.265625 231.410156 111.605469 231.117188 111.898438 C 230.824219 112.191406 230.484375 112.414062 230.101562 112.574219 C 229.71875 112.734375 229.320312 112.8125 228.90625 112.8125 C 228.492188 112.8125 228.09375 112.734375 227.710938 112.574219 C 227.328125 112.414062 226.988281 112.191406 226.695312 111.898438 C 226.402344 111.605469 226.175781 111.265625 226.019531 110.882812 C 225.859375 110.5 225.78125 110.101562 225.78125 109.6875 C 225.78125 109.273438 225.859375 108.875 226.019531 108.492188 C 226.175781 108.109375 226.402344 107.769531 226.695312 107.476562 C 226.988281 107.183594 227.328125 106.957031 227.710938 106.800781 C 228.09375 106.640625 228.492188 106.5625 228.90625 106.5625 C 229.320312 106.5625 229.71875 106.640625 230.101562 106.800781 C 230.484375 106.957031 230.824219 107.183594 231.117188 107.476562 C 231.410156 107.769531 231.632812 108.109375 231.792969 108.492188 C 231.953125 108.875 232.03125 109.273438 232.03125 109.6875 Z M 232.03125 109.6875 " fill-opacity="1" fill-rule="nonzero"/><path fill="#000000" d="M 163.28125 134.6875 C 163.28125 135.101562 163.203125 135.5 163.042969 135.882812 C 162.882812 136.265625 162.660156 136.605469 162.367188 136.898438 C 162.074219 137.191406 161.734375 137.414062 161.351562 137.574219 C 160.96875 137.734375 160.570312 137.8125 160.15625 137.8125 C 159.742188 137.8125 159.34375 137.734375 158.960938 137.574219 C 158.578125 137.414062 158.238281 137.191406 157.945312 136.898438 C 157.652344 136.605469 157.425781 136.265625 157.269531 135.882812 C 157.109375 135.5 157.03125 135.101562 157.03125 134.6875 C 157.03125 134.273438 157.109375 133.875 157.269531 133.492188 C 157.425781 133.109375 157.652344 132.769531 157.945312 132.476562 C 158.238281 132.183594 158.578125 131.957031 158.960938 131.800781 C 159.34375 131.640625 159.742188 131.5625 160.15625 131.5625 C 160.570312 131.5625 160.96875 131.640625 161.351562 131.800781 C 161.734375 131.957031 162.074219 132.183594 162.367188 132.476562 C 162.660156 132.769531 162.882812 133.109375 163.042969 133.492188 C 163.203125 133.875 163.28125 134.273438 163.28125 134.6875 Z M 163.28125 134.6875 " fill-opacity="1" fill-rule="nonzero"/><path fill="#000000" d="M 302.34375 89.375 C 302.34375 89.789062 302.265625 90.1875 302.105469 90.570312 C 301.945312 90.953125 301.722656 91.292969 301.429688 91.585938 C 301.136719 91.878906 300.796875 92.105469 300.414062 92.261719 C 300.03125 92.421875 299.632812 92.5 299.21875 92.5 C 298.804688 92.5 298.40625 92.421875 298.023438 92.261719 C 297.640625 92.105469 297.300781 91.878906 297.007812 91.585938 C 296.714844 91.292969 296.488281 90.953125 296.332031 90.570312 C 296.171875 90.1875 296.09375 89.789062 296.09375 89.375 C 296.09375 88.960938 296.171875 88.5625 296.332031 88.179688 C 296.488281 87.796875 296.714844 87.457031 297.007812 87.164062 C 297.300781 86.871094 297.640625 86.644531 298.023438 86.488281 C 298.40625 86.328125 298.804688 86.25 299.21875 86.25 C 299.632812 86.25 300.03125 86.328125 300.414062 86.488281 C 300.796875 86.644531 301.136719 86.871094 301.429688 87.164062 C 301.722656 87.457031 301.945312 87.796875 302.105469 88.179688 C 302.265625 88.5625 302.34375 88.960938 302.34375 89.375 Z M 302.34375 89.375 " fill-opacity="1" fill-rule="nonzero"/><path fill="#000000" d="M 52.34375 80.78125 C 52.34375 81.195312 52.265625 81.59375 52.105469 81.976562 C 51.949219 82.359375 51.722656 82.699219 51.429688 82.992188 C 51.136719 83.285156 50.796875 83.511719 50.414062 83.667969 C 50.03125 83.828125 49.632812 83.90625 49.21875 83.90625 C 48.804688 83.90625 48.40625 83.828125 48.023438 83.667969 C 47.640625 83.511719 47.300781 83.285156 47.007812 82.992188 C 46.714844 82.699219 46.488281 82.359375 46.332031 81.976562 C 46.171875 81.59375 46.09375 81.195312 46.09375 80.78125 C 46.09375 80.367188 46.171875 79.96875 46.332031 79.585938 C 46.488281 79.203125 46.714844 78.863281 47.007812 78.570312 C 47.300781 78.277344 47.640625 78.050781 48.023438 77.894531 C 48.40625 77.734375 48.804688 77.65625 49.21875 77.65625 C 49.632812 77.65625 50.03125 77.734375 50.414062 77.894531 C 50.796875 78.050781 51.136719 78.277344 51.429688 78.570312 C 51.722656 78.863281 51.949219 79.203125 52.105469 79.585938 C 52.265625 79.96875 52.34375 80.367188 52.34375 80.78125 Z M 52.34375 80.78125 " fill-opacity="1" fill-rule="nonzero"/><path fill="#000000" d="M 139.0625 93.28125 C 139.0625 93.695312 138.984375 94.09375 138.824219 94.476562 C 138.667969 94.859375 138.441406 95.199219 138.148438 95.492188 C 137.855469 95.785156 137.515625 96.011719 137.132812 96.167969 C 136.75 96.328125 136.351562 96.40625 135.9375 96.40625 C 135.523438 96.40625 135.125 96.328125 134.742188 96.167969 C 134.359375 96.011719 134.019531 95.785156 133.726562 95.492188 C 133.433594 95.199219 133.207031 94.859375 133.050781 94.476562 C 132.890625 94.09375 132.8125 93.695312 132.8125 93.28125 C 132.8125 92.867188 132.890625 92.46875 133.050781 92.085938 C 133.207031 91.703125 133.433594 91.363281 133.726562 91.070312 C 134.019531 90.777344 134.359375 90.550781 134.742188 90.394531 C 135.125 90.234375 135.523438 90.15625 135.9375 90.15625 C 136.351562 90.15625 136.75 90.234375 137.132812 90.394531 C 137.515625 90.550781 137.855469 90.777344 138.148438 91.070312 C 138.441406 91.363281 138.667969 91.703125 138.824219 92.085938 C 138.984375 92.46875 139.0625 92.867188 139.0625 93.28125 Z M 139.0625 93.28125 " fill-opacity="1" fill-rule="nonzero"/><path fill="#000000" d="M 213.28125 114.375 C 213.28125 114.683594 213.25 114.988281 213.191406 115.289062 C 213.132812 115.589844 213.042969 115.882812 212.925781 116.167969 C 212.804688 116.453125 212.664062 116.722656 212.492188 116.980469 C 212.320312 117.234375 212.125 117.472656 211.910156 117.691406 C 211.691406 117.90625 211.453125 118.101562 211.199219 118.273438 C 210.941406 118.445312 210.671875 118.585938 210.386719 118.707031 C 210.101562 118.824219 209.808594 118.914062 209.507812 118.972656 C 209.207031 119.03125 208.902344 119.0625 208.59375 119.0625 C 208.285156 119.0625 207.980469 119.03125 207.679688 118.972656 C 207.378906 118.914062 207.085938 118.824219 206.800781 118.707031 C 206.515625 118.585938 206.246094 118.445312 205.988281 118.273438 C 205.734375 118.101562 205.496094 117.90625 205.277344 117.691406 C 205.0625 117.472656 204.867188 117.234375 204.695312 116.980469 C 204.523438 116.722656 204.378906 116.453125 204.261719 116.167969 C 204.144531 115.882812 204.054688 115.589844 203.996094 115.289062 C 203.9375 114.988281 203.90625 114.683594 203.90625 114.375 C 203.90625 114.066406 203.9375 113.761719 203.996094 113.460938 C 204.054688 113.160156 204.144531 112.867188 204.261719 112.582031 C 204.378906 112.296875 204.523438 112.027344 204.695312 111.769531 C 204.867188 111.515625 205.0625 111.277344 205.277344 111.058594 C 205.496094 110.84375 205.734375 110.648438 205.988281 110.476562 C 206.246094 110.304688 206.515625 110.160156 206.800781 110.042969 C 207.085938 109.925781 207.378906 109.835938 207.679688 109.777344 C 207.980469 109.71875 208.285156 109.6875 208.59375 109.6875 C 208.902344 109.6875 209.207031 109.71875 209.507812 109.777344 C 209.808594 109.835938 210.101562 109.925781 210.386719 110.042969 C 210.671875 110.160156 210.941406 110.304688 211.199219 110.476562 C 211.453125 110.648438 211.691406 110.84375 211.910156 111.058594 C 212.125 111.277344 212.320312 111.515625 212.492188 111.769531 C 212.664062 112.027344 212.804688 112.296875 212.925781 112.582031 C 213.042969 112.867188 213.132812 113.160156 213.191406 113.460938 C 213.25 113.761719 213.28125 114.066406 213.28125 114.375 Z M 213.28125 114.375 " fill-opacity="1" fill-rule="nonzero"/><path fill="#000000" d="M 74.21875 89.375 C 74.21875 89.683594 74.1875 89.988281 74.128906 90.289062 C 74.070312 90.589844 73.980469 90.882812 73.863281 91.167969 C 73.746094 91.453125 73.601562 91.722656 73.429688 91.980469 C 73.257812 92.234375 73.0625 92.472656 72.847656 92.691406 C 72.628906 92.90625 72.390625 93.101562 72.136719 93.273438 C 71.878906 93.445312 71.609375 93.589844 71.324219 93.707031 C 71.039062 93.824219 70.746094 93.914062 70.445312 93.972656 C 70.144531 94.03125 69.839844 94.0625 69.53125 94.0625 C 69.222656 94.0625 68.917969 94.03125 68.617188 93.972656 C 68.316406 93.914062 68.023438 93.824219 67.738281 93.707031 C 67.453125 93.589844 67.183594 93.445312 66.925781 93.273438 C 66.671875 93.101562 66.433594 92.90625 66.214844 92.691406 C 66 92.472656 65.804688 92.234375 65.632812 91.980469 C 65.460938 91.722656 65.316406 91.453125 65.199219 91.167969 C 65.082031 90.882812 64.992188 90.589844 64.933594 90.289062 C 64.875 89.988281 64.84375 89.683594 64.84375 89.375 C 64.84375 89.066406 64.875 88.761719 64.933594 88.460938 C 64.992188 88.160156 65.082031 87.867188 65.199219 87.582031 C 65.316406 87.296875 65.460938 87.027344 65.632812 86.769531 C 65.804688 86.515625 66 86.277344 66.214844 86.058594 C 66.433594 85.84375 66.671875 85.648438 66.925781 85.476562 C 67.183594 85.304688 67.453125 85.160156 67.738281 85.042969 C 68.023438 84.925781 68.316406 84.835938 68.617188 84.777344 C 68.917969 84.71875 69.222656 84.6875 69.53125 84.6875 C 69.839844 84.6875 70.144531 84.71875 70.445312 84.777344 C 70.746094 84.835938 71.039062 84.925781 71.324219 85.042969 C 71.609375 85.160156 71.878906 85.304688 72.136719 85.476562 C 72.390625 85.648438 72.628906 85.84375 72.847656 86.058594 C 73.0625 86.277344 73.257812 86.515625 73.429688 86.769531 C 73.601562 87.027344 73.742188 87.296875 73.863281 87.582031 C 73.980469 87.867188 74.070312 88.160156 74.128906 88.460938 C 74.1875 88.761719 74.21875 89.066406 74.21875 89.375 Z M 74.21875 89.375 " fill-opacity="1" fill-rule="nonzero"/><path fill="#000000" d="M 175 81.5625 C 175 81.871094 174.96875 82.175781 174.910156 82.476562 C 174.851562 82.777344 174.761719 83.070312 174.644531 83.355469 C 174.523438 83.640625 174.382812 83.910156 174.210938 84.167969 C 174.039062 84.421875 173.84375 84.660156 173.628906 84.878906 C 173.410156 85.09375 173.171875 85.289062 172.917969 85.460938 C 172.660156 85.632812 172.390625 85.773438 172.105469 85.894531 C 171.820312 86.011719 171.527344 86.101562 171.226562 86.160156 C 170.925781 86.21875 170.621094 86.25 170.3125 86.25 C 170.003906 86.25 169.699219 86.21875 169.398438 86.160156 C 169.097656 86.101562 168.804688 86.011719 168.519531 85.894531 C 168.234375 85.773438 167.964844 85.632812 167.707031 85.460938 C 167.453125 85.289062 167.214844 85.09375 166.996094 84.878906 C 166.78125 84.660156 166.585938 84.421875 166.414062 84.167969 C 166.242188 83.910156 166.097656 83.640625 165.980469 83.355469 C 165.863281 83.070312 165.773438 82.777344 165.714844 82.476562 C 165.65625 82.175781 165.625 81.871094 165.625 81.5625 C 165.625 81.253906 165.65625 80.949219 165.714844 80.648438 C 165.773438 80.347656 165.863281 80.054688 165.980469 79.769531 C 166.097656 79.484375 166.242188 79.214844 166.414062 78.957031 C 166.585938 78.703125 166.78125 78.464844 166.996094 78.246094 C 167.214844 78.03125 167.453125 77.835938 167.707031 77.664062 C 167.964844 77.492188 168.234375 77.347656 168.519531 77.230469 C 168.804688 77.113281 169.097656 77.023438 169.398438 76.964844 C 169.699219 76.90625 170.003906 76.875 170.3125 76.875 C 170.621094 76.875 170.925781 76.90625 171.226562 76.964844 C 171.527344 77.023438 171.820312 77.113281 172.105469 77.230469 C 172.390625 77.347656 172.660156 77.492188 172.917969 77.664062 C 173.171875 77.835938 173.410156 78.03125 173.628906 78.246094 C 173.84375 78.464844 174.039062 78.703125 174.210938 78.957031 C 174.382812 79.214844 174.523438 79.484375 174.644531 79.769531 C 174.761719 80.054688 174.851562 80.347656 174.910156 80.648438 C 174.96875 80.949219 175 81.253906 175 81.5625 Z M 175 81.5625 " fill-opacity="1" fill-rule="nonzero"/><path fill="#000000" d="M 285.9375 94.84375 C 285.9375 95.152344 285.90625 95.457031 285.847656 95.757812 C 285.789062 96.058594 285.699219 96.351562 285.582031 96.636719 C 285.460938 96.921875 285.320312 97.191406 285.148438 97.449219 C 284.976562 97.703125 284.78125 97.941406 284.566406 98.160156 C 284.347656 98.375 284.109375 98.570312 283.855469 98.742188 C 283.597656 98.914062 283.328125 99.054688 283.042969 99.175781 C 282.757812 99.292969 282.464844 99.382812 282.164062 99.441406 C 281.863281 99.5 281.558594 99.53125 281.25 99.53125 C 280.941406 99.53125 280.636719 99.5 280.335938 99.441406 C 280.035156 99.382812 279.742188 99.292969 279.457031 99.175781 C 279.171875 99.054688 278.902344 98.914062 278.644531 98.742188 C 278.390625 98.570312 278.152344 98.375 277.933594 98.160156 C 277.71875 97.941406 277.523438 97.703125 277.351562 97.449219 C 277.179688 97.191406 277.035156 96.921875 276.917969 96.636719 C 276.800781 96.351562 276.710938 96.058594 276.652344 95.757812 C 276.59375 95.457031 276.5625 95.152344 276.5625 94.84375 C 276.5625 94.535156 276.59375 94.230469 276.652344 93.929688 C 276.710938 93.628906 276.800781 93.335938 276.917969 93.050781 C 277.035156 92.765625 277.179688 92.496094 277.351562 92.238281 C 277.523438 91.984375 277.71875 91.746094 277.933594 91.527344 C 278.152344 91.3125 278.390625 91.117188 278.644531 90.945312 C 278.902344 90.773438 279.171875 90.628906 279.457031 90.511719 C 279.742188 90.394531 280.035156 90.304688 280.335938 90.246094 C 280.636719 90.1875 280.941406 90.15625 281.25 90.15625 C 281.558594 90.15625 281.863281 90.1875 282.164062 90.246094 C 282.464844 90.304688 282.757812 90.394531 283.042969 90.511719 C 283.328125 90.628906 283.597656 90.773438 283.855469 90.945312 C 284.109375 91.117188 284.347656 91.3125 284.566406 91.527344 C 284.78125 91.746094 284.976562 91.984375 285.148438 92.238281 C 285.320312 92.496094 285.460938 92.765625 285.582031 93.050781 C 285.699219 93.335938 285.789062 93.628906 285.847656 93.929688 C 285.90625 94.230469 285.9375 94.535156 285.9375 94.84375 Z M 285.9375 94.84375 " fill-opacity="1" fill-rule="nonzero"/><path fill="#000000" d="M 319.53125 99.53125 C 319.53125 99.839844 319.5 100.144531 319.441406 100.445312 C 319.382812 100.746094 319.292969 101.039062 319.175781 101.324219 C 319.054688 101.609375 318.914062 101.878906 318.742188 102.136719 C 318.570312 102.390625 318.375 102.628906 318.160156 102.847656 C 317.941406 103.0625 317.703125 103.257812 317.449219 103.429688 C 317.191406 103.601562 316.921875 103.742188 316.636719 103.863281 C 316.351562 103.980469 316.058594 104.070312 315.757812 104.128906 C 315.457031 104.1875 315.152344 104.21875 314.84375 104.21875 C 314.535156 104.21875 314.230469 104.1875 313.929688 104.128906 C 313.628906 104.070312 313.335938 103.980469 313.050781 103.863281 C 312.765625 103.742188 312.496094 103.601562 312.238281 103.429688 C 311.984375 103.257812 311.746094 103.0625 311.527344 102.847656 C 311.3125 102.628906 311.117188 102.390625 310.945312 102.136719 C 310.773438 101.878906 310.628906 101.609375 310.511719 101.324219 C 310.394531 101.039062 310.304688 100.746094 310.246094 100.445312 C 310.1875 100.144531 310.15625 99.839844 310.15625 99.53125 C 310.15625 99.222656 310.1875 98.917969 310.246094 98.617188 C 310.304688 98.316406 310.394531 98.023438 310.511719 97.738281 C 310.628906 97.453125 310.773438 97.183594 310.945312 96.925781 C 311.117188 96.671875 311.3125 96.433594 311.527344 96.214844 C 311.746094 96 311.984375 95.804688 312.238281 95.632812 C 312.496094 95.460938 312.765625 95.316406 313.050781 95.199219 C 313.335938 95.082031 313.628906 94.992188 313.929688 94.933594 C 314.230469 94.875 314.535156 94.84375 314.84375 94.84375 C 315.152344 94.84375 315.457031 94.875 315.757812 94.933594 C 316.058594 94.992188 316.351562 95.082031 316.636719 95.199219 C 316.921875 95.316406 317.191406 95.460938 317.449219 95.632812 C 317.703125 95.804688 317.941406 96 318.160156 96.214844 C 318.375 96.433594 318.570312 96.671875 318.742188 96.925781 C 318.914062 97.183594 319.054688 97.453125 319.175781 97.738281 C 319.292969 98.023438 319.382812 98.316406 319.441406 98.617188 C 319.5 98.917969 319.53125 99.222656 319.53125 99.53125 Z M 319.53125 99.53125 " fill-opacity="1" fill-rule="nonzero"/><path fill="#000000" d="M 92.1875 101.09375 C 92.1875 101.402344 92.15625 101.707031 92.097656 102.007812 C 92.039062 102.308594 91.949219 102.601562 91.832031 102.886719 C 91.710938 103.171875 91.570312 103.441406 91.398438 103.699219 C 91.226562 103.953125 91.03125 104.191406 90.816406 104.410156 C 90.597656 104.625 90.359375 104.820312 90.105469 104.992188 C 89.847656 105.164062 89.578125 105.304688 89.292969 105.425781 C 89.007812 105.542969 88.714844 105.632812 88.414062 105.691406 C 88.113281 105.75 87.808594 105.78125 87.5 105.78125 C 87.191406 105.78125 86.886719 105.75 86.585938 105.691406 C 86.285156 105.632812 85.992188 105.542969 85.707031 105.425781 C 85.421875 105.304688 85.152344 105.164062 84.894531 104.992188 C 84.640625 104.820312 84.402344 104.625 84.183594 104.410156 C 83.96875 104.191406 83.773438 103.953125 83.601562 103.699219 C 83.429688 103.441406 83.285156 103.171875 83.167969 102.886719 C 83.050781 102.601562 82.960938 102.308594 82.902344 102.007812 C 82.84375 101.707031 82.8125 101.402344 82.8125 101.09375 C 82.8125 100.785156 82.84375 100.480469 82.902344 100.179688 C 82.960938 99.878906 83.050781 99.585938 83.167969 99.300781 C 83.285156 99.015625 83.429688 98.746094 83.601562 98.488281 C 83.773438 98.234375 83.96875 97.996094 84.183594 97.777344 C 84.402344 97.5625 84.640625 97.367188 84.894531 97.195312 C 85.152344 97.023438 85.421875 96.878906 85.707031 96.761719 C 85.992188 96.644531 86.285156 96.554688 86.585938 96.496094 C 86.886719 96.4375 87.191406 96.40625 87.5 96.40625 C 87.808594 96.40625 88.113281 96.4375 88.414062 96.496094 C 88.714844 96.554688 89.007812 96.644531 89.292969 96.761719 C 89.578125 96.878906 89.847656 97.023438 90.105469 97.195312 C 90.359375 97.367188 90.597656 97.5625 90.816406 97.777344 C 91.03125 97.996094 91.226562 98.234375 91.398438 98.488281 C 91.570312 98.746094 91.710938 99.015625 91.832031 99.300781 C 91.949219 99.585938 92.039062 99.878906 92.097656 100.179688 C 92.15625 100.480469 92.1875 100.785156 92.1875 101.09375 Z M 92.1875 101.09375 " fill-opacity="1" fill-rule="nonzero"/><path fill="#000000" d="M 247.65625 101.09375 C 247.65625 101.402344 247.625 101.707031 247.566406 102.007812 C 247.507812 102.308594 247.417969 102.601562 247.300781 102.886719 C 247.179688 103.171875 247.039062 103.441406 246.867188 103.699219 C 246.695312 103.953125 246.5 104.191406 246.285156 104.410156 C 246.066406 104.625 245.828125 104.820312 245.574219 104.992188 C 245.316406 105.164062 245.046875 105.304688 244.761719 105.425781 C 244.476562 105.542969 244.183594 105.632812 243.882812 105.691406 C 243.582031 105.75 243.277344 105.78125 242.96875 105.78125 C 242.660156 105.78125 242.355469 105.75 242.054688 105.691406 C 241.753906 105.632812 241.460938 105.542969 241.175781 105.425781 C 240.890625 105.304688 240.621094 105.164062 240.363281 104.992188 C 240.109375 104.820312 239.871094 104.625 239.652344 104.410156 C 239.4375 104.191406 239.242188 103.953125 239.070312 103.699219 C 238.898438 103.441406 238.753906 103.171875 238.636719 102.886719 C 238.519531 102.601562 238.429688 102.308594 238.371094 102.007812 C 238.3125 101.707031 238.28125 101.402344 238.28125 101.09375 C 238.28125 100.785156 238.3125 100.480469 238.371094 100.179688 C 238.429688 99.878906 238.519531 99.585938 238.636719 99.300781 C 238.753906 99.015625 238.898438 98.746094 239.070312 98.488281 C 239.242188 98.234375 239.4375 97.996094 239.652344 97.777344 C 239.871094 97.5625 240.109375 97.367188 240.363281 97.195312 C 240.621094 97.023438 240.890625 96.878906 241.175781 96.761719 C 241.460938 96.644531 241.753906 96.554688 242.054688 96.496094 C 242.355469 96.4375 242.660156 96.40625 242.96875 96.40625 C 243.277344 96.40625 243.582031 96.4375 243.882812 96.496094 C 244.183594 96.554688 244.476562 96.644531 244.761719 96.761719 C 245.046875 96.878906 245.316406 97.023438 245.574219 97.195312 C 245.828125 97.367188 246.066406 97.5625 246.285156 97.777344 C 246.5 97.996094 246.695312 98.234375 246.867188 98.488281 C 247.039062 98.746094 247.179688 99.015625 247.300781 99.300781 C 247.417969 99.585938 247.507812 99.878906 247.566406 100.179688 C 247.625 100.480469 247.65625 100.785156 247.65625 101.09375 Z M 247.65625 101.09375 " fill-opacity="1" fill-rule="nonzero"/></svg>