<svg xmlns="http://www.w3.org/2000/svg" xmlns:xlink="http://www.w3.org/1999/xlink" width="500" zoomAndPan="magnify" viewBox="0 0 375 374.999991" height="500" preserveAspectRatio="xMidYMid meet" version="1.0"><defs><clipPath id="af8380e8fc"><path d="M 59 1.152344 L 244 1.152344 L 244 315 L 59 315 Z M 59 1.152344 " clip-rule="nonzero"/></clipPath></defs><g clip-path="url(#af8380e8fc)"><path fill="#ed1c24" d="M 90.980469 12.640625 C 88.839844 16.691406 86.515625 24.351562 86.816406 29.800781 C 87.117188 35.253906 90.039062 38.5 90.746094 40.632812 C 91.453125 42.761719 89.941406 43.773438 89.914062 45.152344 C 89.886719 46.53125 91.347656 48.265625 92.175781 53.09375 C 93.003906 57.921875 93.199219 65.835938 92.59375 70.707031 C 91.984375 75.574219 90.570312 77.394531 91.019531 81.128906 C 91.464844 84.863281 93.769531 90.507812 94.789062 94.421875 C 95.804688 98.332031 95.53125 100.507812 94.457031 102.792969 C 93.382812 105.074219 91.5 107.460938 91.71875 111.25 C 91.929688 115.035156 94.246094 120.226562 96.617188 125.242188 C 98.988281 130.257812 101.425781 135.105469 101.683594 142.734375 C 101.941406 150.367188 100.027344 160.785156 97.71875 167.472656 C 95.414062 174.15625 92.71875 177.109375 89.28125 182.921875 C 85.847656 188.734375 81.667969 197.402344 79.527344 204.320312 C 77.390625 211.238281 77.296875 216.398438 74.453125 221.128906 C 71.609375 225.859375 66.019531 230.15625 62.75 236.3125 C 59.476562 242.472656 58.527344 250.492188 59.472656 258.074219 C 60.421875 265.65625 63.269531 272.800781 65.152344 279.648438 C 67.03125 286.492188 67.941406 293.042969 68.984375 298.503906 C 70.03125 303.960938 71.210938 308.335938 73.695312 310.542969 C 76.066406 312.652344 79.628906 312.785156 82.003906 314.664062 C 81.816406 313.8125 81.640625 312.925781 81.464844 312.011719 C 80.417969 306.546875 79.507812 300 77.628906 293.152344 C 75.746094 286.308594 72.898438 279.160156 71.949219 271.578125 C 71 264 71.957031 255.980469 75.226562 249.820312 C 78.496094 243.664062 84.085938 239.363281 86.929688 234.632812 C 89.773438 229.90625 89.867188 224.746094 92.007812 217.828125 C 94.144531 210.914062 98.324219 202.242188 101.761719 196.429688 C 105.195312 190.617188 107.890625 187.664062 110.199219 180.976562 C 112.5 174.292969 114.417969 163.875 114.160156 156.246094 C 113.902344 148.609375 111.46875 143.765625 109.097656 138.75 C 106.71875 133.734375 104.410156 128.546875 104.191406 124.757812 C 103.976562 120.96875 105.859375 118.582031 106.933594 116.296875 C 108.011719 114.015625 108.28125 111.839844 107.261719 107.925781 C 106.246094 104.015625 103.941406 98.367188 103.496094 94.636719 C 103.050781 90.902344 104.460938 89.082031 105.066406 84.214844 C 105.675781 79.34375 105.480469 71.429688 104.652344 66.601562 C 103.824219 61.773438 102.367188 60.035156 102.390625 58.660156 C 102.417969 57.28125 103.929688 56.269531 103.222656 54.136719 C 102.515625 52.007812 99.59375 48.761719 99.292969 43.3125 C 98.996094 37.855469 101.320312 30.195312 103.460938 26.148438 C 105.601562 22.101562 107.5625 21.664062 115.824219 21.582031 C 124.085938 21.503906 138.65625 21.78125 148.914062 22.46875 C 159.171875 23.15625 165.117188 24.253906 169.082031 24.011719 C 173.042969 23.769531 175.023438 22.1875 177.269531 21.808594 C 179.511719 21.433594 182.023438 22.265625 186.097656 22.308594 C 190.167969 22.355469 195.804688 21.617188 200.097656 22.066406 C 204.394531 22.515625 207.347656 24.152344 210.5625 24.074219 C 213.777344 23.992188 217.253906 22.199219 219.890625 22.285156 C 222.527344 22.371094 224.328125 24.34375 227.269531 23.515625 C 230.210938 22.6875 234.296875 19.058594 238.925781 17.046875 C 240.113281 16.53125 241.339844 16.117188 242.558594 15.808594 C 242.855469 13.238281 243.269531 10.792969 243.386719 8.835938 C 243.636719 4.652344 242.527344 2.6875 239.386719 1.90625 C 236.246094 1.125 231.074219 1.527344 226.445312 3.542969 C 221.816406 5.554688 217.734375 9.179688 214.792969 10.007812 C 211.851562 10.835938 210.050781 8.863281 207.414062 8.777344 C 204.773438 8.691406 201.300781 10.488281 198.085938 10.566406 C 194.871094 10.644531 191.917969 9.007812 187.625 8.554688 C 183.328125 8.105469 177.691406 8.847656 173.621094 8.804688 C 169.546875 8.757812 167.035156 7.925781 164.792969 8.304688 C 162.546875 8.679688 160.566406 10.261719 156.605469 10.503906 C 152.640625 10.75 146.695312 9.648438 136.4375 8.960938 C 126.179688 8.273438 111.609375 7.996094 103.347656 8.078125 C 95.082031 8.15625 93.125 8.59375 90.980469 12.640625 " fill-opacity="1" fill-rule="evenodd"/></g><path fill="#231f20" d="M 242.636719 24.488281 C 243.746094 29.542969 247.574219 33.257812 250.042969 36.441406 C 252.507812 39.621094 253.605469 42.273438 255.648438 43.328125 C 256.296875 43.664062 257.042969 43.835938 257.8125 43.964844 C 256.617188 42.1875 255.601562 40.222656 255.109375 37.992188 C 254 32.933594 255.613281 26.527344 255.863281 22.339844 C 256.113281 18.15625 255.003906 16.195312 251.863281 15.417969 C 249.527344 14.832031 246.078125 14.90625 242.558594 15.808594 C 242.222656 18.722656 242.046875 21.792969 242.636719 24.488281 " fill-opacity="1" fill-rule="evenodd"/><path fill="#fbc707" d="M 264.628906 52.9375 C 264.488281 54.925781 264.023438 56.378906 264.09375 58.105469 C 264.171875 60.058594 264.929688 62.363281 264.300781 65.566406 C 263.664062 68.769531 261.636719 72.878906 259.871094 78.421875 C 258.101562 83.96875 256.59375 90.949219 256.976562 94.851562 C 257.367188 98.757812 259.644531 99.585938 261.824219 99.667969 C 264.003906 99.75 266.078125 99.085938 267.3125 100.644531 C 268.546875 102.207031 268.933594 106 268.171875 109.835938 C 267.414062 113.667969 265.503906 117.546875 265.613281 121.046875 C 265.71875 124.546875 267.839844 127.667969 267.675781 130.304688 C 267.511719 132.941406 265.058594 135.09375 265.234375 138.019531 C 265.410156 140.949219 268.210938 144.652344 271.238281 148.355469 C 274.265625 152.0625 277.523438 155.769531 277.472656 158.636719 C 277.417969 161.503906 274.050781 163.53125 272.65625 167.699219 C 271.257812 171.875 271.828125 178.1875 272.410156 183.703125 C 272.996094 189.214844 273.597656 193.925781 273.003906 197.988281 C 272.410156 202.054688 270.625 205.480469 270.855469 208.691406 C 271.082031 211.90625 273.316406 214.914062 274.046875 218.824219 C 274.777344 222.734375 274 227.542969 272.828125 231.945312 C 271.652344 236.351562 270.085938 240.347656 270.484375 243.621094 C 270.882812 246.894531 273.246094 249.445312 275.472656 253.082031 C 277.699219 256.722656 279.789062 261.449219 282.472656 265.261719 C 285.15625 269.078125 288.429688 271.984375 290.867188 273.617188 C 291.386719 273.96875 291.871094 274.257812 292.320312 274.515625 C 290.785156 271.78125 289.394531 268.957031 287.949219 266.589844 C 285.722656 262.953125 283.359375 260.402344 282.960938 257.128906 C 282.566406 253.855469 284.132812 249.855469 285.304688 245.453125 C 286.476562 241.046875 287.253906 236.242188 286.523438 232.332031 C 285.792969 228.425781 283.554688 225.414062 283.332031 222.199219 C 283.105469 218.984375 284.890625 215.5625 285.480469 211.5 C 286.074219 207.433594 285.476562 202.722656 284.890625 197.210938 C 284.304688 191.695312 283.734375 185.378906 285.132812 181.207031 C 286.527344 177.035156 289.894531 175.011719 289.949219 172.140625 C 290.003906 169.273438 286.742188 165.566406 283.714844 161.863281 C 280.6875 158.160156 277.886719 154.453125 277.714844 151.527344 C 277.539062 148.601562 279.988281 146.449219 280.152344 143.8125 C 280.316406 141.175781 278.195312 138.054688 278.085938 134.554688 C 277.980469 131.054688 279.890625 127.175781 280.652344 123.339844 C 281.410156 119.507812 281.023438 115.71875 279.789062 114.15625 C 278.554688 112.59375 276.480469 113.257812 274.300781 113.175781 C 272.121094 113.09375 269.84375 112.265625 269.457031 108.359375 C 269.070312 104.453125 270.578125 97.472656 272.347656 91.929688 C 274.113281 86.386719 276.140625 82.277344 276.777344 79.074219 C 277.410156 75.867188 276.648438 73.566406 276.570312 71.613281 C 276.492188 69.664062 277.097656 68.066406 277.144531 65.65625 C 277.1875 63.246094 276.671875 60.03125 274.917969 58.691406 C 273.164062 57.351562 270.171875 57.894531 268.128906 56.835938 C 266.769531 56.136719 265.828125 54.734375 264.628906 52.9375 " fill-opacity="1" fill-rule="evenodd"/><path fill="#00a650" d="M 250.34375 308.097656 C 241.582031 310.121094 229.226562 314.457031 218.695312 319.042969 C 208.167969 323.628906 199.46875 328.464844 194.183594 331.902344 C 188.898438 335.34375 187.023438 337.390625 184.828125 338.054688 C 182.636719 338.71875 180.128906 338 175.640625 338.640625 C 171.152344 339.277344 164.6875 341.269531 158.796875 343.441406 C 152.902344 345.609375 147.582031 347.964844 141.613281 351.050781 C 135.648438 354.136719 129.035156 357.964844 122.082031 358.402344 C 115.132812 358.839844 107.84375 355.894531 97.804688 352.625 C 96.554688 352.21875 95.257812 351.804688 93.945312 351.394531 C 93.402344 352.828125 92.320312 354.097656 90.242188 354.839844 C 86.835938 356.0625 80.753906 355.882812 84.109375 357.582031 C 87.460938 359.28125 100.246094 362.867188 110.28125 366.132812 C 120.320312 369.398438 127.609375 372.351562 134.558594 371.910156 C 141.511719 371.472656 148.121094 367.644531 154.089844 364.554688 C 160.058594 361.46875 165.378906 359.121094 171.273438 356.949219 C 177.167969 354.777344 183.628906 352.78125 188.117188 352.144531 C 192.605469 351.507812 195.113281 352.226562 197.308594 351.5625 C 199.5 350.898438 201.375 348.851562 206.660156 345.414062 C 211.945312 341.972656 220.644531 337.136719 231.171875 332.550781 C 241.703125 327.964844 254.0625 323.628906 262.820312 321.605469 C 271.578125 319.578125 276.738281 319.867188 279.90625 319.15625 C 283.074219 318.445312 284.253906 316.738281 286.964844 315.96875 C 289.675781 315.195312 293.921875 315.355469 299.015625 312.945312 C 304.105469 310.535156 310.054688 305.554688 312.007812 302.417969 C 313.957031 299.289062 311.917969 298.003906 310.746094 296.15625 C 309.574219 294.304688 309.277344 291.894531 308.328125 290.507812 C 307.378906 289.121094 305.777344 288.757812 303.339844 287.125 C 301.949219 286.191406 300.285156 284.839844 298.609375 283.144531 C 299.78125 284.75 301.300781 286.070312 299.527344 288.914062 C 297.578125 292.046875 291.632812 297.027344 286.535156 299.4375 C 281.441406 301.847656 277.199219 301.683594 274.488281 302.457031 C 271.777344 303.230469 270.597656 304.9375 267.429688 305.648438 C 264.261719 306.359375 259.101562 306.070312 250.34375 308.097656 " fill-opacity="1" fill-rule="evenodd"/><path fill="#231f20" d="M 94.496094 342.210938 C 95.152344 340.667969 97.121094 339.886719 97.628906 337.371094 C 98.132812 334.851562 97.179688 330.597656 94.808594 328.449219 C 92.441406 326.300781 88.65625 326.257812 86.171875 324.050781 C 85.84375 323.757812 85.542969 323.429688 85.253906 323.070312 C 85.234375 323.347656 85.199219 323.613281 85.148438 323.863281 C 84.644531 326.382812 82.679688 327.164062 82.019531 328.707031 C 81.359375 330.246094 82.003906 332.546875 81.957031 335.011719 C 81.910156 337.480469 81.171875 340.109375 77.765625 341.335938 C 74.355469 342.558594 68.277344 342.375 71.628906 344.078125 C 74.566406 345.5625 84.726562 348.496094 93.945312 351.394531 C 94.292969 350.472656 94.414062 349.480469 94.433594 348.519531 C 94.480469 346.054688 93.835938 343.753906 94.496094 342.210938 " fill-opacity="1" fill-rule="evenodd"/></svg>