<svg xmlns="http://www.w3.org/2000/svg" xmlns:xlink="http://www.w3.org/1999/xlink" width="229" zoomAndPan="magnify" viewBox="0 0 171.75 809.999971" height="1080" preserveAspectRatio="xMidYMid meet" version="1.0"><defs><filter x="0%" y="0%" width="100%" height="100%" id="11eeacd74e"><feColorMatrix values="0 0 0 0 1 0 0 0 0 1 0 0 0 0 1 0 0 0 1 0" color-interpolation-filters="sRGB"/></filter><clipPath id="78348fe261"><path d="M 0.00390625 0.0664062 L 155 0.0664062 L 155 807.933594 L 0.00390625 807.933594 Z M 0.00390625 0.0664062 " clip-rule="nonzero"/></clipPath><clipPath id="5432e33762"><path d="M 0.00390625 0.0664062 L 154.335938 0.0664062 L 154.335938 807.933594 L 0.00390625 807.933594 Z M 0.00390625 0.0664062 " clip-rule="nonzero"/></clipPath><clipPath id="82f8b8e7ce"><rect x="0" width="155" y="0" height="808"/></clipPath><clipPath id="0f3fa52c35"><path d="M 1 116 L 169.914062 116 L 169.914062 749 L 1 749 Z M 1 116 " clip-rule="nonzero"/></clipPath><mask id="5c8a692230"><g filter="url(#11eeacd74e)"><rect x="-37.785" width="247.32" fill="#000000" y="-179.199994" height="1166.399958" fill-opacity="0.05"/></g></mask><clipPath id="8e6e72ef5b"><path d="M 1.082031 0.882812 L 168.914062 0.882812 L 168.914062 631.933594 L 1.082031 631.933594 Z M 1.082031 0.882812 " clip-rule="nonzero"/></clipPath><clipPath id="4a95bc22e9"><path d="M 0.0820312 1 L 167.914062 1 L 167.914062 631.933594 L 0.0820312 631.933594 Z M 0.0820312 1 " clip-rule="nonzero"/></clipPath><clipPath id="afec0fe614"><rect x="0" width="168" y="0" height="632"/></clipPath><clipPath id="015424f1f1"><rect x="0" width="169" y="0" height="633"/></clipPath><clipPath id="d899834a55"><rect x="0" width="170" y="0" height="808"/></clipPath></defs><g transform="matrix(1, 0, 0, 1, 0, 1)"><g clip-path="url(#d899834a55)"><g clip-path="url(#78348fe261)"><g transform="matrix(1, 0, 0, 1, 0, 0.00000000000000222)"><g clip-path="url(#82f8b8e7ce)"><g clip-path="url(#5432e33762)"><path fill="#f9f3ec" d="M 1.796875 807.710938 L 10.050781 785.285156 C 18.214844 762.855469 34.722656 717.996094 41.898438 673.140625 C 49.078125 628.285156 46.921875 583.425781 44.144531 538.570312 C 41.273438 493.710938 37.683594 448.855469 40.375 403.996094 C 43.066406 359.140625 52.039062 314.28125 74.285156 269.425781 C 96.625 224.566406 132.152344 179.710938 146.058594 134.851562 C 159.964844 89.996094 152.25 45.140625 148.300781 22.710938 L 144.445312 0.28125 L 0.00390625 0.28125 L 0.00390625 22.710938 C 0.00390625 45.140625 0.00390625 89.996094 0.00390625 134.851562 C 0.00390625 179.710938 0.00390625 224.566406 0.00390625 269.425781 C 0.00390625 314.28125 0.00390625 359.140625 0.00390625 403.996094 C 0.00390625 448.855469 0.00390625 493.710938 0.00390625 538.570312 C 0.00390625 583.425781 0.00390625 628.285156 0.00390625 673.140625 C 0.00390625 717.996094 0.00390625 762.855469 0.00390625 785.285156 L 0.00390625 807.710938 Z M 1.796875 807.710938 " fill-opacity="1" fill-rule="nonzero"/></g></g></g></g><g clip-path="url(#0f3fa52c35)"><g mask="url(#5c8a692230)"><g transform="matrix(1, 0, 0, 1, 1, 116)"><g clip-path="url(#015424f1f1)"><g clip-path="url(#8e6e72ef5b)"><g transform="matrix(1, 0, 0, 1, 1, -0.000000000000014211)"><g clip-path="url(#afec0fe614)"><g clip-path="url(#4a95bc22e9)"><path fill="#5c2b13" d="M 0.0703125 383.261719 C 10.46875 390.5625 20.234375 398.734375 29.109375 407.78125 C 31.371094 410 33.488281 412.363281 35.664062 414.660156 L 38.800781 418.222656 L 40.359375 420.007812 L 41.871094 421.84375 C 45.953125 426.671875 49.710938 431.773438 53.351562 436.945312 C 67.789062 457.710938 78.644531 480.902344 85.335938 505.199219 L 86.554688 509.757812 L 87.644531 514.359375 C 88.023438 515.882812 88.34375 517.429688 88.648438 518.96875 C 88.953125 520.515625 89.300781 522.046875 89.570312 523.601562 C 90.101562 526.699219 90.671875 529.792969 91.066406 532.917969 C 91.539062 536.023438 91.828125 539.164062 92.164062 542.285156 C 92.328125 543.847656 92.410156 545.425781 92.539062 546.984375 C 92.65625 548.554688 92.777344 550.125 92.8125 551.691406 L 93.007812 556.40625 L 93.035156 561.121094 C 93.042969 561.898438 93.058594 562.679688 93.050781 563.46875 L 92.984375 565.828125 C 92.941406 567.386719 92.917969 568.972656 92.84375 570.527344 C 92.6875 573.617188 92.382812 576.707031 91.921875 579.773438 C 91.007812 585.898438 89.488281 591.9375 87.347656 597.707031 C 85.207031 603.460938 82.390625 608.972656 78.6875 613.707031 C 75.007812 618.429688 70.34375 622.324219 64.945312 624.429688 C 62.261719 625.492188 59.410156 626.109375 56.523438 626.277344 C 55.070312 626.375 53.644531 626.355469 52.210938 626.199219 C 50.78125 626.0625 49.371094 625.789062 47.980469 625.410156 C 42.394531 623.914062 37.289062 620.660156 33.125 616.449219 C 28.953125 612.234375 25.667969 607.105469 23.488281 601.582031 C 22.953125 600.199219 22.480469 598.792969 22.082031 597.367188 C 21.898438 596.644531 21.695312 595.945312 21.554688 595.210938 L 21.105469 592.992188 C 20.609375 590.027344 20.238281 587.023438 20.199219 583.988281 C 20.125 580.957031 20.222656 577.90625 20.535156 574.859375 C 20.652344 573.335938 20.890625 571.8125 21.085938 570.285156 C 21.339844 568.769531 21.554688 567.246094 21.875 565.730469 C 23.035156 559.65625 24.699219 553.640625 26.566406 547.648438 C 27.496094 544.652344 28.53125 541.660156 29.535156 538.679688 L 31.058594 534.195312 C 31.554688 532.703125 32.128906 531.230469 32.65625 529.746094 C 33.757812 526.789062 34.792969 523.804688 35.945312 520.871094 L 39.386719 512.050781 C 41.796875 506.207031 44.175781 500.355469 46.742188 494.578125 C 56.839844 471.402344 68.148438 448.71875 79.746094 426.148438 C 91.328125 403.578125 103.230469 381.105469 114.394531 358.199219 C 119.949219 346.730469 125.375 335.1875 130.429688 323.46875 C 135.5 311.75 140.277344 299.898438 144.652344 287.882812 C 148.988281 275.851562 152.863281 263.636719 156.199219 251.269531 C 156.988281 248.164062 157.855469 245.085938 158.59375 241.960938 L 160.734375 232.585938 C 162 226.304688 163.285156 220.015625 164.183594 213.65625 C 168.238281 188.316406 168.855469 162.308594 165.546875 136.796875 C 163.84375 124.046875 161.265625 111.402344 157.496094 99.078125 C 153.769531 86.753906 148.867188 74.773438 142.898438 63.34375 C 139.898438 57.644531 136.570312 52.105469 132.996094 46.742188 C 132.074219 45.414062 131.210938 44.050781 130.253906 42.757812 L 127.40625 38.84375 L 124.429688 35.03125 C 123.457031 33.75 122.375 32.546875 121.351562 31.300781 C 120.824219 30.683594 120.316406 30.066406 119.792969 29.453125 L 118.171875 27.65625 C 117.085938 26.46875 116.03125 25.238281 114.894531 24.101562 C 113.761719 22.949219 112.660156 21.773438 111.511719 20.636719 L 109.769531 18.941406 L 107.980469 17.285156 C 103.152344 12.941406 97.902344 8.917969 91.96875 5.917969 C 89.019531 4.414062 85.902344 3.164062 82.652344 2.292969 C 79.402344 1.410156 76.007812 0.984375 72.625 1.035156 C 69.234375 1.050781 65.851562 1.601562 62.632812 2.628906 C 61.011719 3.109375 59.457031 3.765625 57.917969 4.457031 C 56.414062 5.207031 54.929688 5.988281 53.53125 6.902344 C 50.714844 8.6875 48.132812 10.804688 45.785156 13.117188 C 43.4375 15.429688 41.300781 17.945312 39.382812 20.589844 C 35.542969 25.875 32.46875 31.652344 30.070312 37.683594 C 20.90625 61.925781 20.210938 88.742188 26.558594 113.503906 C 29.734375 125.894531 34.648438 137.828125 41.183594 148.789062 C 47.734375 159.726562 55.90625 169.691406 65.445312 178.085938 C 56.148438 169.421875 48.308594 159.273438 42.125 148.238281 C 35.917969 137.222656 31.339844 125.316406 28.496094 113.035156 C 25.679688 100.75 24.527344 88.089844 25.292969 75.546875 C 25.679688 69.269531 26.535156 63.039062 27.863281 56.910156 C 28.542969 53.855469 29.316406 50.8125 30.230469 47.824219 C 31.128906 44.824219 32.132812 41.882812 33.351562 39.015625 C 35.761719 33.289062 38.773438 27.808594 42.484375 22.882812 C 44.328125 20.414062 46.355469 18.09375 48.566406 15.988281 C 50.773438 13.882812 53.164062 11.988281 55.734375 10.417969 C 57.007812 9.609375 58.355469 8.929688 59.699219 8.285156 C 61.074219 7.699219 62.457031 7.132812 63.886719 6.730469 C 66.734375 5.875 69.695312 5.4375 72.660156 5.472656 C 78.59375 5.425781 84.460938 7.285156 89.796875 10.109375 C 95.179688 12.929688 100.050781 16.78125 104.609375 20.964844 L 106.296875 22.554688 L 107.949219 24.195312 C 109.042969 25.3125 110.105469 26.464844 111.183594 27.59375 C 112.273438 28.710938 113.289062 29.910156 114.320312 31.074219 L 115.875 32.839844 C 116.378906 33.425781 116.863281 34.042969 117.363281 34.644531 C 118.347656 35.863281 119.378906 37.03125 120.308594 38.289062 L 123.15625 42.015625 L 125.871094 45.835938 C 126.792969 47.109375 127.609375 48.4375 128.488281 49.734375 C 131.902344 54.96875 135.0625 60.371094 137.917969 65.941406 C 143.582031 77.085938 148.214844 88.785156 151.703125 100.8125 C 155.261719 112.820312 157.710938 125.15625 159.285156 137.585938 C 162.339844 162.503906 161.582031 187.796875 157.449219 212.585938 C 156.519531 218.800781 155.226562 224.957031 153.976562 231.121094 L 151.859375 240.3125 C 151.128906 243.375 150.269531 246.402344 149.480469 249.449219 C 146.175781 261.597656 142.339844 273.613281 138.035156 285.46875 C 133.695312 297.308594 128.941406 309.023438 123.894531 320.605469 C 118.871094 332.203125 113.449219 343.640625 107.925781 355.03125 C 85.804688 400.609375 60.640625 444.929688 40.480469 491.875 C 37.9375 497.726562 35.5625 503.660156 33.171875 509.578125 L 29.742188 518.53125 C 28.597656 521.503906 27.570312 524.539062 26.476562 527.542969 C 25.949219 529.046875 25.375 530.539062 24.878906 532.058594 L 23.375 536.613281 C 22.371094 539.648438 21.347656 542.671875 20.414062 545.746094 C 18.550781 551.894531 16.847656 558.148438 15.671875 564.5625 C 15.34375 566.152344 15.125 567.785156 14.867188 569.394531 C 14.671875 571.023438 14.433594 572.636719 14.316406 574.28125 C 13.996094 577.558594 13.914062 580.867188 14.019531 584.1875 C 14.085938 587.503906 14.511719 590.820312 15.085938 594.105469 C 15.421875 595.742188 15.746094 597.382812 16.222656 599.027344 C 16.691406 600.65625 17.253906 602.25 17.878906 603.824219 C 20.425781 610.074219 24.195312 615.816406 29.007812 620.582031 C 33.828125 625.332031 39.8125 629.113281 46.546875 630.84375 C 48.226562 631.28125 49.9375 631.589844 51.679688 631.738281 C 53.402344 631.910156 55.15625 631.921875 56.882812 631.78125 C 60.324219 631.535156 63.746094 630.761719 66.949219 629.453125 C 70.160156 628.152344 73.136719 626.339844 75.78125 624.179688 C 78.425781 622.03125 80.753906 619.546875 82.792969 616.886719 C 86.859375 611.5625 89.804688 605.582031 92.027344 599.421875 C 94.242188 593.257812 95.707031 586.875 96.578125 580.429688 C 97.007812 577.210938 97.285156 573.96875 97.394531 570.71875 C 97.445312 569.097656 97.445312 567.5 97.46875 565.894531 L 97.5 563.484375 C 97.5 562.679688 97.46875 561.878906 97.453125 561.074219 L 97.34375 556.265625 L 97.074219 551.460938 C 97.007812 549.855469 96.863281 548.253906 96.714844 546.664062 C 96.566406 545.066406 96.457031 543.46875 96.269531 541.867188 C 95.875 538.683594 95.535156 535.503906 94.996094 532.335938 C 94.546875 529.160156 93.917969 526.015625 93.328125 522.871094 C 93.023438 521.304688 92.652344 519.742188 92.320312 518.171875 C 91.976562 516.613281 91.636719 515.042969 91.21875 513.496094 L 90.042969 508.84375 L 88.703125 504.230469 L 88.035156 501.929688 L 87.300781 499.644531 C 86.796875 498.121094 86.328125 496.589844 85.808594 495.082031 C 84.722656 492.074219 83.6875 489.042969 82.484375 486.082031 C 81.347656 483.085938 80.070312 480.15625 78.8125 477.21875 C 78.183594 475.746094 77.472656 474.3125 76.816406 472.863281 C 76.140625 471.414062 75.480469 469.953125 74.746094 468.535156 L 72.59375 464.253906 L 70.328125 460.039062 L 69.179688 457.9375 L 67.976562 455.863281 L 65.566406 451.730469 C 62.234375 446.277344 58.730469 440.941406 54.957031 435.796875 C 51.167969 430.664062 47.253906 425.625 43.035156 420.851562 L 41.472656 419.042969 L 39.859375 417.28125 L 36.617188 413.761719 C 34.371094 411.5 32.199219 409.175781 29.859375 407.011719 C 20.691406 398.175781 10.664062 390.265625 0.0703125 383.261719 Z M 0.0703125 383.261719 " fill-opacity="1" fill-rule="nonzero"/></g></g></g></g></g></g></g></g></g></g></svg>