<svg xmlns="http://www.w3.org/2000/svg" xmlns:xlink="http://www.w3.org/1999/xlink" width="1920" zoomAndPan="magnify" viewBox="0 0 1440 343.499995" height="458" preserveAspectRatio="xMidYMid meet" version="1.0"><defs><filter x="0%" y="0%" width="100%" height="100%" id="5a0e56ff49"><feColorMatrix values="0 0 0 0 1 0 0 0 0 1 0 0 0 0 1 0 0 0 1 0" color-interpolation-filters="sRGB"/></filter><clipPath id="4ff7a05383"><path d="M 0.246094 0 L 1435.753906 0 L 1435.753906 274 L 0.246094 274 Z M 0.246094 0 " clip-rule="nonzero"/></clipPath><clipPath id="a899ab64cc"><rect x="0" width="1436" y="0" height="275"/></clipPath><mask id="5395df5329"><g filter="url(#5a0e56ff49)"><rect x="-144" width="1728" fill="#000000" y="-34.35" height="412.199994" fill-opacity="0.05"/></g></mask><clipPath id="41d3c3cee2"><path d="M 0.691406 0.769531 L 1122.558594 0.769531 L 1122.558594 298.785156 L 0.691406 298.785156 Z M 0.691406 0.769531 " clip-rule="nonzero"/></clipPath><clipPath id="b4aa0aa785"><path d="M 0.691406 0.769531 L 1122.558594 0.769531 L 1122.558594 298.785156 L 0.691406 298.785156 Z M 0.691406 0.769531 " clip-rule="nonzero"/></clipPath><clipPath id="5df8be83f7"><rect x="0" width="1123" y="0" height="299"/></clipPath><clipPath id="a5592cbeee"><rect x="0" width="1123" y="0" height="299"/></clipPath></defs><g transform="matrix(1, 0, 0, 1, 2, 0)"><g clip-path="url(#a899ab64cc)"><g clip-path="url(#4ff7a05383)"><path fill="#e7d8cb" d="M 0.285156 3.191406 L 40.15625 17.863281 C 80.03125 32.378906 159.777344 61.722656 239.523438 74.484375 C 319.269531 87.242188 399.015625 83.414062 478.761719 78.46875 C 558.507812 73.367188 638.253906 66.988281 718 71.773438 C 797.746094 76.554688 877.492188 92.503906 957.238281 132.058594 C 1036.984375 171.773438 1116.730469 234.933594 1196.476562 259.652344 C 1276.222656 284.375 1355.96875 270.660156 1395.84375 263.640625 L 1435.714844 256.78125 L 1435.714844 0 L 1395.84375 0 C 1355.96875 0 1276.222656 0 1196.476562 0 C 1116.730469 0 1036.984375 0 957.238281 0 C 877.492188 0 797.746094 0 718 0 C 638.253906 0 558.507812 0 478.761719 0 C 399.015625 0 319.269531 0 239.523438 0 C 159.777344 0 80.03125 0 40.15625 0 L 0.285156 0 Z M 0.285156 3.191406 " fill-opacity="1" fill-rule="nonzero"/></g></g></g><g mask="url(#5395df5329)"><g transform="matrix(1, 0, 0, 1, 170, 42)"><g clip-path="url(#a5592cbeee)"><g clip-path="url(#41d3c3cee2)"><g transform="matrix(1, 0, 0, 1, -0.000000000000028422, -0.000000000000007105)"><g clip-path="url(#5df8be83f7)"><g clip-path="url(#b4aa0aa785)"><path fill="#7f6655" d="M 442.773438 0.742188 C 429.792969 19.234375 415.269531 36.589844 399.183594 52.371094 C 395.242188 56.390625 391.039062 60.15625 386.953125 64.019531 L 380.621094 69.597656 L 377.449219 72.371094 L 374.1875 75.054688 C 365.597656 82.3125 356.53125 88.996094 347.339844 95.464844 C 310.421875 121.136719 269.191406 140.433594 225.996094 152.328125 L 217.894531 154.492188 L 209.714844 156.433594 C 207.007812 157.105469 204.253906 157.675781 201.519531 158.21875 C 198.769531 158.761719 196.046875 159.378906 193.285156 159.859375 C 187.773438 160.796875 182.273438 161.8125 176.722656 162.511719 C 171.195312 163.355469 165.617188 163.871094 160.066406 164.46875 C 157.292969 164.757812 154.484375 164.90625 151.710938 165.128906 C 148.921875 165.339844 146.132812 165.554688 143.34375 165.621094 L 134.964844 165.964844 L 126.582031 166.015625 C 125.195312 166.027344 123.808594 166.054688 122.40625 166.042969 L 118.214844 165.925781 C 115.441406 165.84375 112.625 165.808594 109.863281 165.671875 C 104.363281 165.394531 98.875 164.855469 93.417969 164.035156 C 82.527344 162.410156 71.796875 159.710938 61.539062 155.90625 C 51.308594 152.101562 41.511719 147.089844 33.09375 140.507812 C 24.699219 133.964844 17.773438 125.675781 14.035156 116.078125 C 12.140625 111.304688 11.046875 106.242188 10.746094 101.101562 C 10.574219 98.523438 10.609375 95.984375 10.890625 93.4375 C 11.125 90.898438 11.613281 88.390625 12.292969 85.917969 C 14.949219 75.988281 20.738281 66.910156 28.21875 59.507812 C 35.710938 52.089844 44.832031 46.25 54.652344 42.378906 C 57.109375 41.425781 59.609375 40.582031 62.148438 39.878906 C 63.429688 39.550781 64.671875 39.191406 65.980469 38.9375 L 69.917969 38.144531 C 75.191406 37.257812 80.535156 36.59375 85.925781 36.53125 C 91.316406 36.394531 96.742188 36.570312 102.160156 37.128906 C 104.867188 37.335938 107.578125 37.761719 110.285156 38.105469 C 112.984375 38.558594 115.695312 38.9375 118.386719 39.507812 C 129.183594 41.574219 139.882812 44.527344 150.535156 47.851562 C 155.863281 49.5 161.179688 51.339844 166.476562 53.125 L 174.449219 55.832031 C 177.105469 56.71875 179.722656 57.734375 182.355469 58.675781 C 187.617188 60.632812 192.917969 62.472656 198.136719 64.519531 L 213.816406 70.640625 C 224.207031 74.925781 234.605469 79.15625 244.878906 83.714844 C 286.078125 101.667969 326.410156 121.769531 366.527344 142.386719 C 406.660156 162.980469 446.605469 184.140625 487.328125 203.988281 C 507.722656 213.859375 528.238281 223.507812 549.074219 232.496094 C 569.90625 241.511719 590.976562 250 612.339844 257.78125 C 633.726562 265.488281 655.441406 272.375 677.425781 278.308594 C 682.953125 279.710938 688.421875 281.253906 693.976562 282.566406 L 710.644531 286.371094 C 721.8125 288.617188 732.992188 290.902344 744.296875 292.503906 C 789.347656 299.707031 835.582031 300.804688 880.933594 294.921875 C 903.601562 291.898438 926.082031 287.3125 947.988281 280.609375 C 969.902344 273.988281 991.199219 265.273438 1011.515625 254.664062 C 1021.652344 249.328125 1031.5 243.414062 1041.03125 237.054688 C 1043.394531 235.414062 1045.816406 233.882812 1048.117188 232.179688 L 1055.070312 227.117188 L 1061.855469 221.828125 C 1064.128906 220.097656 1066.265625 218.175781 1068.488281 216.355469 C 1069.582031 215.414062 1070.679688 214.515625 1071.765625 213.582031 L 1074.964844 210.699219 C 1077.078125 208.769531 1079.257812 206.894531 1081.28125 204.875 C 1083.328125 202.863281 1085.417969 200.90625 1087.441406 198.859375 L 1090.453125 195.769531 L 1093.402344 192.582031 C 1101.121094 184.003906 1108.273438 174.671875 1113.609375 164.121094 C 1116.28125 158.875 1118.503906 153.332031 1120.050781 147.558594 C 1121.625 141.78125 1122.378906 135.746094 1122.285156 129.730469 C 1122.257812 123.703125 1121.28125 117.691406 1119.460938 111.964844 C 1118.597656 109.085938 1117.4375 106.320312 1116.207031 103.585938 C 1114.875 100.914062 1113.480469 98.269531 1111.859375 95.785156 C 1108.6875 90.777344 1104.917969 86.191406 1100.808594 82.015625 C 1096.695312 77.839844 1092.230469 74.042969 1087.527344 70.636719 C 1078.128906 63.804688 1067.859375 58.34375 1057.132812 54.074219 C 1014.042969 37.789062 966.363281 36.546875 922.347656 47.835938 C 900.316406 53.480469 879.101562 62.21875 859.613281 73.835938 C 840.171875 85.480469 822.457031 100.003906 807.535156 116.964844 C 822.933594 100.441406 840.980469 86.496094 860.59375 75.511719 C 880.179688 64.476562 901.347656 56.332031 923.179688 51.28125 C 945.019531 46.269531 967.527344 44.222656 989.828125 45.582031 C 1000.984375 46.269531 1012.058594 47.792969 1022.953125 50.15625 C 1028.386719 51.359375 1033.796875 52.738281 1039.105469 54.359375 C 1044.445312 55.960938 1049.667969 57.746094 1054.769531 59.914062 C 1064.949219 64.195312 1074.691406 69.550781 1083.449219 76.144531 C 1087.835938 79.425781 1091.964844 83.03125 1095.707031 86.960938 C 1099.449219 90.882812 1102.816406 95.128906 1105.605469 99.703125 C 1107.046875 101.96875 1108.25 104.359375 1109.402344 106.75 C 1110.445312 109.195312 1111.449219 111.652344 1112.164062 114.195312 C 1113.6875 119.257812 1114.464844 124.519531 1114.402344 129.792969 C 1114.480469 140.339844 1111.175781 150.773438 1106.15625 160.261719 C 1101.144531 169.828125 1094.296875 178.488281 1086.859375 186.59375 L 1084.03125 189.59375 L 1081.113281 192.527344 C 1079.128906 194.472656 1077.082031 196.359375 1075.070312 198.277344 C 1073.085938 200.21875 1070.960938 202.019531 1068.882812 203.859375 L 1065.75 206.621094 C 1064.707031 207.519531 1063.613281 208.378906 1062.535156 209.265625 C 1060.371094 211.011719 1058.296875 212.84375 1056.058594 214.5 L 1049.4375 219.5625 L 1042.644531 224.390625 C 1040.378906 226.03125 1038.015625 227.480469 1035.714844 229.046875 C 1026.410156 235.113281 1016.800781 240.730469 1006.898438 245.804688 C 987.085938 255.878906 966.289062 264.113281 944.90625 270.3125 C 923.558594 276.644531 901.632812 280.992188 879.53125 283.792969 C 835.234375 289.226562 790.265625 287.875 746.199219 280.527344 C 735.148438 278.878906 724.203125 276.578125 713.246094 274.359375 L 696.90625 270.589844 C 691.460938 269.292969 686.078125 267.761719 680.660156 266.359375 C 659.0625 260.492188 637.703125 253.667969 616.632812 246.015625 C 595.578125 238.296875 574.753906 229.847656 554.164062 220.875 C 533.542969 211.941406 513.214844 202.304688 492.960938 192.484375 C 411.9375 153.160156 333.144531 108.429688 249.683594 72.582031 C 239.285156 68.0625 228.730469 63.839844 218.214844 59.589844 L 202.296875 53.496094 C 197.007812 51.457031 191.617188 49.636719 186.273438 47.691406 C 183.601562 46.75 180.949219 45.734375 178.25 44.847656 L 170.148438 42.175781 C 164.757812 40.390625 159.378906 38.566406 153.917969 36.914062 C 142.984375 33.597656 131.867188 30.570312 120.460938 28.480469 C 117.632812 27.898438 114.738281 27.511719 111.871094 27.050781 C 108.976562 26.703125 106.109375 26.28125 103.1875 26.070312 C 97.359375 25.5 91.472656 25.355469 85.578125 25.542969 C 79.679688 25.664062 73.785156 26.414062 67.941406 27.4375 C 65.03125 28.03125 62.113281 28.613281 59.191406 29.457031 C 56.292969 30.289062 53.464844 31.296875 50.664062 32.402344 C 39.550781 36.933594 29.34375 43.636719 20.871094 52.1875 C 12.425781 60.757812 5.707031 71.394531 2.628906 83.371094 C 1.847656 86.359375 1.304688 89.394531 1.042969 92.492188 C 0.734375 95.558594 0.714844 98.679688 0.960938 101.742188 C 1.398438 107.863281 2.773438 113.941406 5.101562 119.640625 C 7.410156 125.347656 10.636719 130.636719 14.476562 135.339844 C 18.296875 140.042969 22.710938 144.183594 27.441406 147.804688 C 36.90625 155.035156 47.542969 160.269531 58.492188 164.222656 C 69.453125 168.160156 80.792969 170.761719 92.253906 172.3125 C 97.976562 173.082031 103.738281 173.570312 109.515625 173.761719 C 112.398438 173.855469 115.242188 173.855469 118.097656 173.898438 L 122.378906 173.949219 C 123.808594 173.949219 125.234375 173.898438 126.664062 173.871094 L 135.214844 173.671875 L 143.757812 173.191406 C 146.609375 173.074219 149.453125 172.820312 152.28125 172.558594 C 155.125 172.296875 157.964844 172.097656 160.808594 171.761719 C 166.46875 171.066406 172.121094 170.457031 177.753906 169.5 C 183.398438 168.703125 188.988281 167.582031 194.578125 166.539062 C 197.367188 165.996094 200.140625 165.335938 202.933594 164.742188 C 205.707031 164.136719 208.496094 163.527344 211.246094 162.785156 L 219.519531 160.695312 L 227.714844 158.316406 L 231.8125 157.125 L 235.871094 155.820312 C 238.578125 154.921875 241.304688 154.089844 243.988281 153.164062 C 249.328125 151.234375 254.722656 149.398438 259.984375 147.257812 C 265.308594 145.238281 270.519531 142.964844 275.738281 140.726562 C 278.355469 139.613281 280.910156 138.347656 283.484375 137.183594 C 286.0625 135.980469 288.652344 134.804688 291.175781 133.496094 L 298.785156 129.675781 L 306.277344 125.644531 L 310.019531 123.609375 L 313.707031 121.46875 L 321.054688 117.183594 C 330.746094 111.261719 340.234375 105.027344 349.382812 98.324219 C 358.503906 91.582031 367.464844 84.628906 375.953125 77.125 L 379.164062 74.351562 L 382.300781 71.480469 L 388.550781 65.71875 C 392.570312 61.722656 396.703125 57.863281 400.554688 53.703125 C 416.257812 37.40625 430.324219 19.578125 442.773438 0.742188 Z M 442.773438 0.742188 " fill-opacity="1" fill-rule="nonzero"/></g></g></g></g></g></g></g></svg>