<svg xmlns="http://www.w3.org/2000/svg" xmlns:xlink="http://www.w3.org/1999/xlink" width="1920" zoomAndPan="magnify" viewBox="0 0 1440 343.499995" height="458" preserveAspectRatio="xMidYMid meet" version="1.0"><defs><filter x="0%" y="0%" width="100%" height="100%" id="1487352f0f"><feColorMatrix values="0 0 0 0 1 0 0 0 0 1 0 0 0 0 1 0 0 0 1 0" color-interpolation-filters="sRGB"/></filter><clipPath id="6da4d5c142"><path d="M 2 10 L 1438 10 L 1438 284.585938 L 2 284.585938 Z M 2 10 " clip-rule="nonzero"/></clipPath><mask id="e0e7b350c3"><g filter="url(#1487352f0f)"><rect x="-144" width="1728" fill="#000000" y="-34.35" height="412.199994" fill-opacity="0.05"/></g></mask><clipPath id="83ff60b19a"><path d="M 0.691406 0.816406 L 1122.558594 0.816406 L 1122.558594 299 L 0.691406 299 Z M 0.691406 0.816406 " clip-rule="nonzero"/></clipPath><clipPath id="93139d3f9f"><rect x="0" width="1123" y="0" height="299"/></clipPath></defs><g clip-path="url(#6da4d5c142)"><path fill="#e7d8cb" d="M 2.285156 281.183594 L 42.15625 266.511719 C 82.03125 252 161.777344 222.652344 241.523438 209.890625 C 321.269531 197.132812 401.015625 200.960938 480.761719 205.90625 C 560.507812 211.007812 640.253906 217.386719 720 212.601562 C 799.746094 207.820312 879.492188 191.871094 959.238281 152.316406 C 1038.984375 112.601562 1118.730469 49.441406 1198.476562 24.722656 C 1278.222656 0 1357.96875 13.714844 1397.84375 20.734375 L 1437.714844 27.59375 L 1437.714844 284.375 L 1397.84375 284.375 C 1357.96875 284.375 1278.222656 284.375 1198.476562 284.375 C 1118.730469 284.375 1038.984375 284.375 959.238281 284.375 C 879.492188 284.375 799.746094 284.375 720 284.375 C 640.253906 284.375 560.507812 284.375 480.761719 284.375 C 401.015625 284.375 321.269531 284.375 241.523438 284.375 C 161.777344 284.375 82.03125 284.375 42.15625 284.375 L 2.285156 284.375 Z M 2.285156 281.183594 " fill-opacity="1" fill-rule="nonzero"/></g><g mask="url(#e0e7b350c3)"><g transform="matrix(1, 0, 0, 1, 170, 44)"><g clip-path="url(#93139d3f9f)"><g clip-path="url(#83ff60b19a)"><path fill="#7f6655" d="M 442.773438 298.835938 C 429.792969 280.34375 415.269531 262.988281 399.183594 247.207031 C 395.242188 243.1875 391.039062 239.425781 386.953125 235.558594 L 380.621094 229.980469 L 377.449219 227.207031 L 374.1875 224.523438 C 365.597656 217.269531 356.53125 210.582031 347.339844 204.117188 C 310.421875 178.445312 269.191406 159.148438 225.996094 147.253906 L 217.894531 145.085938 L 209.714844 143.144531 C 207.007812 142.472656 204.253906 141.902344 201.519531 141.359375 C 198.769531 140.816406 196.046875 140.199219 193.285156 139.722656 C 187.773438 138.78125 182.273438 137.765625 176.722656 137.066406 C 171.195312 136.222656 165.617188 135.707031 160.066406 135.109375 C 157.292969 134.820312 154.484375 134.675781 151.710938 134.449219 C 148.921875 134.238281 146.132812 134.023438 143.34375 133.960938 L 134.964844 133.617188 L 126.582031 133.5625 C 125.195312 133.550781 123.808594 133.523438 122.40625 133.535156 L 118.214844 133.652344 C 115.441406 133.734375 112.625 133.773438 109.863281 133.90625 C 104.363281 134.183594 98.875 134.722656 93.417969 135.546875 C 82.527344 137.167969 71.796875 139.867188 61.539062 143.671875 C 51.308594 147.476562 41.511719 152.488281 33.09375 159.070312 C 24.699219 165.613281 17.773438 173.902344 14.035156 183.503906 C 12.140625 188.273438 11.046875 193.339844 10.746094 198.476562 C 10.574219 201.058594 10.609375 203.59375 10.890625 206.140625 C 11.125 208.679688 11.613281 211.1875 12.292969 213.660156 C 14.949219 223.589844 20.738281 232.667969 28.21875 240.070312 C 35.710938 247.488281 44.832031 253.332031 54.652344 257.199219 C 57.109375 258.152344 59.609375 258.996094 62.148438 259.699219 C 63.429688 260.027344 64.671875 260.386719 65.980469 260.640625 L 69.917969 261.4375 C 75.191406 262.324219 80.535156 262.984375 85.925781 263.046875 C 91.316406 263.183594 96.742188 263.011719 102.160156 262.453125 C 104.867188 262.242188 107.578125 261.816406 110.285156 261.472656 C 112.984375 261.023438 115.695312 260.640625 118.386719 260.070312 C 129.183594 258.007812 139.882812 255.050781 150.535156 251.730469 C 155.863281 250.078125 161.179688 248.238281 166.476562 246.457031 L 174.449219 243.746094 C 177.105469 242.859375 179.722656 241.84375 182.355469 240.902344 C 187.617188 238.945312 192.917969 237.109375 198.136719 235.058594 L 213.816406 228.9375 C 224.207031 224.652344 234.605469 220.425781 244.878906 215.867188 C 286.078125 197.914062 326.410156 177.808594 366.527344 157.191406 C 406.660156 136.597656 446.605469 115.4375 487.328125 95.59375 C 507.722656 85.71875 528.238281 76.070312 549.074219 67.082031 C 569.90625 58.070312 590.976562 49.582031 612.339844 41.796875 C 633.726562 34.089844 655.441406 27.203125 677.425781 21.269531 C 682.953125 19.867188 688.421875 18.324219 693.976562 17.011719 L 710.644531 13.207031 C 721.8125 10.960938 732.992188 8.675781 744.296875 7.074219 C 789.347656 -0.128906 835.582031 -1.222656 880.933594 4.65625 C 903.601562 7.683594 926.082031 12.265625 947.988281 18.96875 C 969.902344 25.59375 991.199219 34.304688 1011.515625 44.914062 C 1021.652344 50.253906 1031.5 56.164062 1041.03125 62.523438 C 1043.394531 64.164062 1045.816406 65.695312 1048.117188 67.398438 L 1055.070312 72.464844 L 1061.855469 77.753906 C 1064.128906 79.484375 1066.265625 81.402344 1068.488281 83.222656 C 1069.582031 84.164062 1070.679688 85.0625 1071.765625 85.996094 L 1074.964844 88.878906 C 1077.078125 90.808594 1079.257812 92.683594 1081.28125 94.707031 C 1083.328125 96.714844 1085.417969 98.671875 1087.441406 100.71875 L 1090.453125 103.8125 L 1093.402344 107 C 1101.121094 115.578125 1108.273438 124.90625 1113.609375 135.460938 C 1116.28125 140.707031 1118.503906 146.246094 1120.050781 152.019531 C 1121.625 157.796875 1122.378906 163.835938 1122.285156 169.847656 C 1122.257812 175.875 1121.28125 181.890625 1119.460938 187.613281 C 1118.597656 190.496094 1117.4375 193.257812 1116.207031 195.992188 C 1114.875 198.664062 1113.480469 201.308594 1111.859375 203.792969 C 1108.6875 208.804688 1104.917969 213.386719 1100.808594 217.5625 C 1096.695312 221.742188 1092.230469 225.535156 1087.527344 228.945312 C 1078.128906 235.773438 1067.859375 241.234375 1057.132812 245.503906 C 1014.042969 261.789062 966.363281 263.03125 922.347656 251.746094 C 900.316406 246.101562 879.101562 237.359375 859.613281 225.746094 C 840.171875 214.097656 822.457031 199.574219 807.535156 182.617188 C 822.933594 199.136719 840.980469 213.082031 860.59375 224.066406 C 880.179688 235.101562 901.347656 243.246094 923.179688 248.300781 C 945.019531 253.308594 967.527344 255.355469 989.828125 253.996094 C 1000.984375 253.308594 1012.058594 251.789062 1022.953125 249.421875 C 1028.386719 248.21875 1033.796875 246.84375 1039.105469 245.21875 C 1044.445312 243.617188 1049.667969 241.832031 1054.769531 239.667969 C 1064.949219 235.382812 1074.691406 230.027344 1083.449219 223.433594 C 1087.835938 220.15625 1091.964844 216.546875 1095.707031 212.621094 C 1099.449219 208.695312 1102.816406 204.449219 1105.605469 199.875 C 1107.046875 197.613281 1108.25 195.21875 1109.402344 192.828125 C 1110.445312 190.382812 1111.449219 187.925781 1112.164062 185.382812 C 1113.6875 180.320312 1114.464844 175.058594 1114.402344 169.785156 C 1114.480469 159.238281 1111.175781 148.804688 1106.15625 139.320312 C 1101.144531 129.75 1094.296875 121.089844 1086.859375 112.984375 L 1084.03125 109.988281 L 1081.113281 107.050781 C 1079.128906 105.105469 1077.082031 103.21875 1075.070312 101.300781 C 1073.085938 99.359375 1070.960938 97.558594 1068.882812 95.722656 L 1065.75 92.957031 C 1064.707031 92.0625 1063.613281 91.199219 1062.535156 90.3125 C 1060.371094 88.566406 1058.296875 86.734375 1056.058594 85.078125 L 1049.4375 80.015625 L 1042.644531 75.1875 C 1040.378906 73.546875 1038.015625 72.097656 1035.714844 70.535156 C 1026.410156 64.464844 1016.800781 58.847656 1006.898438 53.773438 C 987.085938 43.699219 966.289062 35.464844 944.90625 29.269531 C 923.558594 22.9375 901.632812 18.589844 879.53125 15.789062 C 835.234375 10.351562 790.265625 11.703125 746.199219 19.050781 C 735.148438 20.699219 724.203125 23 713.246094 25.222656 L 696.90625 28.988281 C 691.460938 30.285156 686.078125 31.816406 680.660156 33.21875 C 659.0625 39.089844 637.703125 45.910156 616.632812 53.5625 C 595.578125 61.28125 574.753906 69.730469 554.164062 78.703125 C 533.542969 87.636719 513.214844 97.273438 492.960938 107.09375 C 411.9375 146.417969 333.144531 191.152344 249.683594 226.996094 C 239.285156 231.519531 228.730469 235.738281 218.214844 239.988281 L 202.296875 246.085938 C 197.007812 248.121094 191.617188 249.945312 186.273438 251.890625 C 183.601562 252.832031 180.949219 253.847656 178.25 254.734375 L 170.148438 257.40625 C 164.757812 259.1875 159.378906 261.011719 153.917969 262.667969 C 142.984375 265.984375 131.867188 269.007812 120.460938 271.101562 C 117.632812 271.679688 114.738281 272.066406 111.871094 272.53125 C 108.976562 272.875 106.109375 273.300781 103.1875 273.507812 C 97.359375 274.078125 91.472656 274.222656 85.578125 274.035156 C 79.679688 273.917969 73.785156 273.164062 67.941406 272.144531 C 65.03125 271.546875 62.113281 270.964844 59.191406 270.121094 C 56.292969 269.289062 53.464844 268.285156 50.664062 267.175781 C 39.550781 262.644531 29.34375 255.941406 20.871094 247.390625 C 12.425781 238.824219 5.707031 228.183594 2.628906 216.210938 C 1.847656 213.222656 1.304688 210.183594 1.042969 207.089844 C 0.734375 204.019531 0.714844 200.902344 0.960938 197.835938 C 1.398438 191.714844 2.773438 185.636719 5.101562 179.9375 C 7.410156 174.230469 10.636719 168.941406 14.476562 164.238281 C 18.296875 159.535156 22.710938 155.394531 27.441406 151.773438 C 36.90625 144.542969 47.542969 139.308594 58.492188 135.355469 C 69.453125 131.417969 80.792969 128.816406 92.253906 127.269531 C 97.976562 126.5 103.738281 126.011719 109.515625 125.816406 C 112.398438 125.726562 115.242188 125.726562 118.097656 125.683594 L 122.378906 125.628906 C 123.808594 125.628906 125.234375 125.683594 126.664062 125.707031 L 135.214844 125.90625 L 143.757812 126.386719 C 146.609375 126.503906 149.453125 126.757812 152.28125 127.019531 C 155.125 127.285156 157.964844 127.484375 160.808594 127.816406 C 166.46875 128.515625 172.121094 129.121094 177.753906 130.078125 C 183.398438 130.875 188.988281 131.996094 194.578125 133.039062 C 197.367188 133.582031 200.140625 134.246094 202.933594 134.835938 C 205.707031 135.441406 208.496094 136.050781 211.246094 136.792969 L 219.519531 138.882812 L 227.714844 141.265625 L 231.8125 142.453125 L 235.871094 143.757812 C 238.578125 144.65625 241.304688 145.488281 243.988281 146.414062 C 249.328125 148.34375 254.722656 150.183594 259.984375 152.320312 C 265.308594 154.34375 270.519531 156.617188 275.738281 158.851562 C 278.355469 159.964844 280.910156 161.234375 283.484375 162.394531 C 286.0625 163.597656 288.652344 164.773438 291.175781 166.082031 L 298.785156 169.902344 L 306.277344 173.933594 L 310.019531 175.972656 L 313.707031 178.109375 L 321.054688 182.394531 C 330.746094 188.316406 340.234375 194.554688 349.382812 201.257812 C 358.503906 207.996094 367.464844 214.953125 375.953125 222.457031 L 379.164062 225.230469 L 382.300781 228.097656 L 388.550781 233.863281 C 392.570312 237.855469 396.703125 241.714844 400.554688 245.875 C 416.257812 262.171875 430.324219 280 442.773438 298.835938 Z M 442.773438 298.835938 " fill-opacity="1" fill-rule="nonzero"/></g></g></g></g></svg>