<svg xmlns="http://www.w3.org/2000/svg" xmlns:xlink="http://www.w3.org/1999/xlink" width="1920" zoomAndPan="magnify" viewBox="0 0 1440 304.499991" height="406" preserveAspectRatio="xMidYMid meet" version="1.0"><defs><filter x="0%" y="0%" width="100%" height="100%" id="d37da46186"><feColorMatrix values="0 0 0 0 1 0 0 0 0 1 0 0 0 0 1 0 0 0 1 0" color-interpolation-filters="sRGB"/></filter><clipPath id="1cb3fd27ac"><path d="M 2 29 L 1438 29 L 1438 303.683594 L 2 303.683594 Z M 2 29 " clip-rule="nonzero"/></clipPath><clipPath id="01ee9f363e"><path d="M 0.378906 0.230469 L 1435.621094 0.230469 L 1435.621094 274.683594 L 0.378906 274.683594 Z M 0.378906 0.230469 " clip-rule="nonzero"/></clipPath><clipPath id="806dccd8f1"><rect x="0" width="1436" y="0" height="275"/></clipPath><mask id="5d8de3633c"><g filter="url(#d37da46186)"><rect x="-144" width="1728" fill="#000000" y="-30.449999" height="365.399989" fill-opacity="0.05"/></g></mask><clipPath id="9514eeca70"><path d="M 0.660156 0.917969 L 1122.316406 0.917969 L 1122.316406 298.988281 L 0.660156 298.988281 Z M 0.660156 0.917969 " clip-rule="nonzero"/></clipPath><clipPath id="38b0ca5ac2"><path d="M 0.660156 1 L 1122.316406 1 L 1122.316406 298.988281 L 0.660156 298.988281 Z M 0.660156 1 " clip-rule="nonzero"/></clipPath><clipPath id="497c16f3fa"><rect x="0" width="1123" y="0" height="299"/></clipPath><clipPath id="914f911655"><rect x="0" width="1123" y="0" height="300"/></clipPath></defs><g clip-path="url(#1cb3fd27ac)"><g transform="matrix(1, 0, 0, 1, 2, 29)"><g clip-path="url(#806dccd8f1)"><g clip-path="url(#01ee9f363e)"><path fill="#f9f3ec" d="M 1435.570312 271.496094 L 1395.707031 256.824219 C 1355.839844 242.3125 1276.109375 212.972656 1196.378906 200.214844 C 1116.644531 187.457031 1036.914062 191.285156 957.183594 196.230469 C 877.453125 201.332031 797.71875 207.710938 717.988281 202.925781 C 638.257812 198.144531 558.527344 182.195312 478.796875 142.648438 C 399.0625 102.941406 319.332031 39.796875 239.601562 15.078125 C 159.871094 -9.636719 80.136719 4.078125 40.273438 11.09375 L 0.40625 17.949219 L 0.40625 274.683594 L 40.273438 274.683594 C 80.136719 274.683594 159.871094 274.683594 239.601562 274.683594 C 319.332031 274.683594 399.0625 274.683594 478.796875 274.683594 C 558.527344 274.683594 638.257812 274.683594 717.988281 274.683594 C 797.71875 274.683594 877.453125 274.683594 957.183594 274.683594 C 1036.914062 274.683594 1116.644531 274.683594 1196.378906 274.683594 C 1276.109375 274.683594 1355.839844 274.683594 1395.707031 274.683594 L 1435.570312 274.683594 Z M 1435.570312 271.496094 " fill-opacity="1" fill-rule="nonzero"/></g></g></g></g><g mask="url(#5d8de3633c)"><g transform="matrix(1, 0, 0, 1, 209, 1)"><g clip-path="url(#914f911655)"><g clip-path="url(#9514eeca70)"><g transform="matrix(1, 0, 0, 1, -0.000000000000056843, -0.000000000000000222)"><g clip-path="url(#497c16f3fa)"><g clip-path="url(#38b0ca5ac2)"><path fill="#5c2b13" d="M 680.316406 299.011719 C 693.296875 280.523438 707.816406 263.171875 723.902344 247.394531 C 727.839844 243.375 732.042969 239.613281 736.128906 235.746094 L 742.457031 230.167969 L 745.628906 227.394531 L 748.890625 224.714844 C 757.480469 217.460938 766.546875 210.773438 775.734375 204.308594 C 812.644531 178.640625 853.871094 159.347656 897.054688 147.457031 L 905.15625 145.289062 L 913.335938 143.351562 C 916.042969 142.679688 918.792969 142.109375 921.53125 141.566406 C 924.277344 141.023438 927 140.40625 929.761719 139.925781 C 935.269531 138.988281 940.769531 137.972656 946.320312 137.273438 C 951.84375 136.429688 957.421875 135.914062 962.976562 135.316406 C 965.746094 135.027344 968.554688 134.878906 971.324219 134.65625 C 974.117188 134.445312 976.90625 134.230469 979.695312 134.164062 L 988.070312 133.820312 L 996.449219 133.769531 C 997.835938 133.757812 999.222656 133.730469 1000.625 133.742188 L 1004.816406 133.859375 C 1007.589844 133.941406 1010.40625 133.976562 1013.167969 134.113281 C 1018.667969 134.390625 1024.152344 134.929688 1029.609375 135.75 C 1040.496094 137.375 1051.226562 140.070312 1061.480469 143.875 C 1071.710938 147.683594 1081.507812 152.691406 1089.921875 159.273438 C 1098.316406 165.8125 1105.238281 174.101562 1108.980469 183.699219 C 1110.871094 188.472656 1111.964844 193.535156 1112.269531 198.671875 C 1112.441406 201.25 1112.402344 203.789062 1112.121094 206.335938 C 1111.886719 208.871094 1111.398438 211.382812 1110.71875 213.851562 C 1108.066406 223.78125 1102.277344 232.855469 1094.796875 240.257812 C 1087.304688 247.671875 1078.183594 253.515625 1068.367188 257.382812 C 1065.910156 258.335938 1063.410156 259.179688 1060.875 259.882812 C 1059.589844 260.210938 1058.347656 260.570312 1057.042969 260.824219 L 1053.105469 261.617188 C 1047.832031 262.503906 1042.488281 263.167969 1037.101562 263.230469 C 1031.710938 263.363281 1026.289062 263.191406 1020.871094 262.632812 C 1018.160156 262.425781 1015.453125 262 1012.746094 261.65625 C 1010.046875 261.203125 1007.339844 260.824219 1004.644531 260.253906 C 993.847656 258.191406 983.15625 255.234375 972.503906 251.914062 C 967.175781 250.261719 961.863281 248.425781 956.5625 246.640625 L 948.59375 243.933594 C 945.9375 243.046875 943.320312 242.03125 940.6875 241.089844 C 935.425781 239.132812 930.128906 237.296875 924.910156 235.246094 L 909.234375 229.125 C 898.84375 224.84375 888.445312 220.613281 878.175781 216.058594 C 836.984375 198.105469 796.660156 178.007812 756.550781 157.394531 C 716.425781 136.804688 676.484375 115.648438 635.773438 95.804688 C 615.382812 85.933594 594.871094 76.285156 574.039062 67.300781 C 553.210938 58.289062 532.140625 49.804688 510.785156 42.019531 C 489.402344 34.316406 467.691406 27.429688 445.710938 21.496094 C 440.1875 20.09375 434.714844 18.550781 429.164062 17.242188 L 412.5 13.4375 C 401.332031 11.191406 390.152344 8.90625 378.851562 7.304688 C 333.8125 0.101562 287.582031 -0.992188 242.242188 4.886719 C 219.578125 7.910156 197.097656 12.496094 175.199219 19.199219 C 153.289062 25.816406 131.996094 34.53125 111.683594 45.136719 C 101.546875 50.476562 91.703125 56.386719 82.171875 62.742188 C 79.808594 64.382812 77.390625 65.914062 75.089844 67.617188 L 68.136719 72.679688 L 61.355469 77.96875 C 59.082031 79.699219 56.941406 81.617188 54.722656 83.441406 C 53.625 84.378906 52.53125 85.277344 51.445312 86.210938 L 48.246094 89.09375 C 46.132812 91.023438 43.953125 92.898438 41.933594 94.917969 C 39.882812 96.929688 37.792969 98.886719 35.773438 100.933594 L 32.757812 104.023438 L 29.8125 107.210938 C 22.097656 115.785156 14.941406 125.117188 9.605469 135.664062 C 6.933594 140.910156 4.714844 146.449219 3.167969 152.222656 C 1.59375 158 0.839844 164.035156 0.933594 170.050781 C 0.960938 176.074219 1.9375 182.085938 3.757812 187.808594 C 4.621094 190.691406 5.78125 193.453125 7.011719 196.1875 C 8.34375 198.859375 9.734375 201.503906 11.359375 203.988281 C 14.527344 208.996094 18.296875 213.578125 22.40625 217.753906 C 26.519531 221.929688 30.984375 225.726562 35.6875 229.132812 C 45.082031 235.960938 55.351562 241.421875 66.074219 245.691406 C 109.15625 261.972656 156.824219 263.214844 200.832031 251.929688 C 222.863281 246.285156 244.074219 237.546875 263.554688 225.933594 C 282.992188 214.289062 300.707031 199.769531 315.625 182.8125 C 300.226562 199.332031 282.1875 213.273438 262.578125 224.257812 C 242.992188 235.289062 221.832031 243.433594 200 248.484375 C 178.164062 253.492188 155.664062 255.539062 133.367188 254.179688 C 122.210938 253.492188 111.140625 251.972656 100.246094 249.605469 C 94.8125 248.402344 89.40625 247.027344 84.097656 245.40625 C 78.761719 243.804688 73.535156 242.019531 68.4375 239.851562 C 58.257812 235.570312 48.519531 230.21875 39.761719 223.625 C 35.375 220.34375 31.25 216.738281 27.507812 212.8125 C 23.765625 208.886719 20.398438 204.640625 17.609375 200.070312 C 16.167969 197.804688 14.964844 195.414062 13.8125 193.023438 C 12.773438 190.578125 11.765625 188.121094 11.050781 185.582031 C 9.53125 180.519531 8.753906 175.257812 8.816406 169.984375 C 8.734375 159.441406 12.039062 149.007812 17.058594 139.523438 C 22.070312 129.957031 28.914062 121.300781 36.355469 113.195312 L 39.179688 110.199219 L 42.097656 107.261719 C 44.082031 105.316406 46.128906 103.429688 48.140625 101.511719 C 50.121094 99.574219 52.25 97.773438 54.324219 95.933594 L 57.457031 93.171875 C 58.5 92.273438 59.597656 91.414062 60.671875 90.527344 C 62.835938 88.78125 64.910156 86.949219 67.148438 85.292969 L 73.769531 80.230469 L 80.5625 75.40625 C 82.824219 73.765625 85.1875 72.316406 87.488281 70.75 C 96.789062 64.683594 106.398438 59.066406 116.300781 53.996094 C 136.109375 43.921875 156.898438 35.691406 178.277344 29.496094 C 199.625 23.164062 221.546875 18.816406 243.644531 16.015625 C 287.933594 10.582031 332.890625 11.929688 376.949219 19.277344 C 388 20.929688 398.941406 23.226562 409.898438 25.449219 L 426.234375 29.214844 C 431.679688 30.511719 437.058594 32.042969 442.476562 33.445312 C 464.070312 39.3125 485.425781 46.132812 506.492188 53.785156 C 527.542969 61.503906 548.363281 69.949219 568.949219 78.921875 C 589.566406 87.851562 609.890625 97.488281 630.140625 107.304688 C 711.148438 146.625 789.929688 191.347656 873.371094 227.1875 C 883.769531 231.707031 894.320312 235.925781 904.835938 240.175781 L 920.75 246.269531 C 926.039062 248.308594 931.429688 250.128906 936.769531 252.074219 C 939.441406 253.015625 942.097656 254.03125 944.792969 254.917969 L 952.894531 257.589844 C 958.28125 259.371094 963.664062 261.195312 969.121094 262.847656 C 980.054688 266.164062 991.167969 269.191406 1002.570312 271.28125 C 1005.398438 271.863281 1008.292969 272.25 1011.160156 272.710938 C 1014.054688 273.054688 1016.921875 273.480469 1019.84375 273.6875 C 1025.667969 274.257812 1031.554688 274.402344 1037.449219 274.214844 C 1043.34375 274.097656 1049.238281 273.34375 1055.082031 272.324219 C 1057.988281 271.726562 1060.90625 271.148438 1063.832031 270.304688 C 1066.726562 269.46875 1069.554688 268.464844 1072.355469 267.359375 C 1083.46875 262.828125 1093.671875 256.125 1102.144531 247.574219 C 1110.585938 239.007812 1117.304688 228.375 1120.382812 216.402344 C 1121.160156 213.414062 1121.703125 210.375 1121.96875 207.28125 C 1122.273438 204.210938 1122.296875 201.09375 1122.046875 198.03125 C 1121.613281 191.910156 1120.238281 185.832031 1117.910156 180.136719 C 1115.601562 174.429688 1112.375 169.140625 1108.539062 164.4375 C 1104.71875 159.734375 1100.304688 155.597656 1095.574219 151.976562 C 1086.113281 144.746094 1075.476562 139.511719 1064.53125 135.5625 C 1053.570312 131.625 1042.230469 129.023438 1030.773438 127.476562 C 1025.050781 126.707031 1019.289062 126.21875 1013.511719 126.023438 C 1010.632812 125.933594 1007.789062 125.933594 1004.9375 125.890625 L 1000.652344 125.835938 C 999.222656 125.835938 997.800781 125.890625 996.371094 125.917969 L 987.820312 126.117188 L 979.28125 126.59375 C 976.425781 126.710938 973.582031 126.964844 970.757812 127.226562 C 967.914062 127.492188 965.074219 127.691406 962.234375 128.023438 C 956.574219 128.722656 950.921875 129.328125 945.289062 130.285156 C 939.644531 131.082031 934.054688 132.203125 928.46875 133.246094 C 925.679688 133.789062 922.90625 134.449219 920.117188 135.042969 C 917.34375 135.648438 914.554688 136.257812 911.800781 137 L 903.53125 139.089844 L 895.335938 141.46875 L 891.242188 142.65625 L 887.183594 143.964844 C 884.476562 144.859375 881.75 145.695312 879.070312 146.617188 C 873.726562 148.546875 868.335938 150.386719 863.074219 152.523438 C 857.75 154.542969 852.542969 156.816406 847.324219 159.054688 C 844.707031 160.164062 842.152344 161.433594 839.578125 162.59375 C 837 163.796875 834.410156 164.976562 831.890625 166.28125 L 824.28125 170.101562 L 816.789062 174.132812 L 813.046875 176.171875 L 809.359375 178.308594 L 802.015625 182.59375 C 792.324219 188.515625 782.839844 194.75 773.691406 201.449219 C 764.574219 208.1875 755.613281 215.144531 747.128906 222.644531 L 743.914062 225.417969 L 740.78125 228.289062 L 734.53125 234.050781 C 730.511719 238.042969 726.378906 241.902344 722.53125 246.058594 C 706.828125 262.355469 692.765625 280.179688 680.316406 299.011719 Z M 680.316406 299.011719 " fill-opacity="1" fill-rule="nonzero"/></g></g></g></g></g></g></g></svg>