<svg xmlns="http://www.w3.org/2000/svg" xmlns:xlink="http://www.w3.org/1999/xlink" width="229" zoomAndPan="magnify" viewBox="0 0 171.75 809.999971" height="1080" preserveAspectRatio="xMidYMid meet" version="1.0"><defs><filter x="0%" y="0%" width="100%" height="100%" id="27c8573866"><feColorMatrix values="0 0 0 0 1 0 0 0 0 1 0 0 0 0 1 0 0 0 1 0" color-interpolation-filters="sRGB"/></filter><clipPath id="1f72ea6f46"><path d="M 0.00390625 0.0664062 L 155 0.0664062 L 155 807.933594 L 0.00390625 807.933594 Z M 0.00390625 0.0664062 " clip-rule="nonzero"/></clipPath><clipPath id="2e0add9c73"><path d="M 0.00390625 0.0664062 L 154.335938 0.0664062 L 154.335938 807.933594 L 0.00390625 807.933594 Z M 0.00390625 0.0664062 " clip-rule="nonzero"/></clipPath><clipPath id="38ed26c577"><rect x="0" width="155" y="0" height="808"/></clipPath><clipPath id="84b26fdd67"><path d="M 1 116 L 169.914062 116 L 169.914062 749 L 1 749 Z M 1 116 " clip-rule="nonzero"/></clipPath><mask id="b8c0aced33"><g filter="url(#27c8573866)"><rect x="-37.785" width="247.32" fill="#000000" y="-179.199994" height="1166.399958" fill-opacity="0.05"/></g></mask><clipPath id="67f63a39d1"><path d="M 1.082031 0.882812 L 168.914062 0.882812 L 168.914062 631.933594 L 1.082031 631.933594 Z M 1.082031 0.882812 " clip-rule="nonzero"/></clipPath><clipPath id="b70cff8f2f"><path d="M 0.0820312 1 L 167.914062 1 L 167.914062 631.933594 L 0.0820312 631.933594 Z M 0.0820312 1 " clip-rule="nonzero"/></clipPath><clipPath id="576df41c04"><rect x="0" width="168" y="0" height="632"/></clipPath><clipPath id="140bbbef0c"><rect x="0" width="169" y="0" height="633"/></clipPath><clipPath id="c3195bf774"><rect x="0" width="170" y="0" height="808"/></clipPath></defs><g transform="matrix(1, 0, 0, 1, 0, 1)"><g clip-path="url(#c3195bf774)"><g clip-path="url(#1f72ea6f46)"><g transform="matrix(1, 0, 0, 1, 0, 0.00000000000000222)"><g clip-path="url(#38ed26c577)"><g clip-path="url(#2e0add9c73)"><path fill="#f7f0ea" d="M 1.796875 0.28125 L 10.050781 22.710938 C 18.214844 45.140625 34.722656 89.996094 41.898438 134.851562 C 49.078125 179.710938 46.921875 224.566406 44.144531 269.425781 C 41.273438 314.28125 37.683594 359.140625 40.375 403.996094 C 43.066406 448.855469 52.039062 493.710938 74.285156 538.570312 C 96.625 583.425781 132.152344 628.285156 146.058594 673.140625 C 159.964844 717.996094 152.25 762.855469 148.300781 785.285156 L 144.445312 807.710938 L 0.00390625 807.710938 L 0.00390625 785.285156 C 0.00390625 762.855469 0.00390625 717.996094 0.00390625 673.140625 C 0.00390625 628.285156 0.00390625 583.425781 0.00390625 538.570312 C 0.00390625 493.710938 0.00390625 448.855469 0.00390625 403.996094 C 0.00390625 359.140625 0.00390625 314.28125 0.00390625 269.425781 C 0.00390625 224.566406 0.00390625 179.710938 0.00390625 134.851562 C 0.00390625 89.996094 0.00390625 45.140625 0.00390625 22.710938 L 0.00390625 0.28125 Z M 1.796875 0.28125 " fill-opacity="1" fill-rule="nonzero"/></g></g></g></g><g clip-path="url(#84b26fdd67)"><g mask="url(#b8c0aced33)"><g transform="matrix(1, 0, 0, 1, 1, 116)"><g clip-path="url(#140bbbef0c)"><g clip-path="url(#67f63a39d1)"><g transform="matrix(1, 0, 0, 1, 1, -0.000000000000014211)"><g clip-path="url(#576df41c04)"><g clip-path="url(#b70cff8f2f)"><path fill="#5c2b13" d="M 0.0703125 249.660156 C 10.46875 242.359375 20.234375 234.1875 29.109375 225.140625 C 31.371094 222.921875 33.488281 220.558594 35.664062 218.261719 L 38.800781 214.699219 L 40.359375 212.914062 L 41.871094 211.078125 C 45.953125 206.246094 49.710938 201.148438 53.351562 195.976562 C 67.789062 175.210938 78.644531 152.019531 85.335938 127.722656 L 86.554688 123.164062 L 87.644531 118.5625 C 88.023438 117.039062 88.34375 115.492188 88.648438 113.953125 C 88.953125 112.40625 89.300781 110.875 89.570312 109.320312 C 90.101562 106.222656 90.671875 103.128906 91.066406 100.003906 C 91.539062 96.898438 91.828125 93.757812 92.164062 90.636719 C 92.328125 89.074219 92.410156 87.496094 92.539062 85.9375 C 92.65625 84.367188 92.777344 82.796875 92.8125 81.230469 L 93.007812 76.515625 L 93.035156 71.800781 C 93.042969 71.023438 93.058594 70.242188 93.050781 69.453125 L 92.984375 67.09375 C 92.941406 65.535156 92.917969 63.949219 92.84375 62.394531 C 92.6875 59.300781 92.382812 56.214844 91.921875 53.148438 C 91.007812 47.019531 89.488281 40.984375 87.347656 35.214844 C 85.207031 29.460938 82.390625 23.949219 78.6875 19.214844 C 75.007812 14.492188 70.34375 10.597656 64.945312 8.492188 C 62.261719 7.429688 59.410156 6.8125 56.523438 6.640625 C 55.070312 6.546875 53.644531 6.566406 52.210938 6.722656 C 50.78125 6.855469 49.371094 7.132812 47.980469 7.511719 C 42.394531 9.007812 37.289062 12.261719 33.125 16.472656 C 28.953125 20.6875 25.667969 25.816406 23.488281 31.339844 C 22.953125 32.722656 22.480469 34.128906 22.082031 35.554688 C 21.898438 36.277344 21.695312 36.976562 21.554688 37.710938 L 21.105469 39.929688 C 20.609375 42.894531 20.238281 45.898438 20.199219 48.933594 C 20.125 51.964844 20.222656 55.015625 20.535156 58.0625 C 20.652344 59.585938 20.890625 61.109375 21.085938 62.632812 C 21.339844 64.152344 21.554688 65.675781 21.875 67.191406 C 23.035156 73.265625 24.699219 79.28125 26.566406 85.273438 C 27.496094 88.269531 28.53125 91.261719 29.535156 94.242188 L 31.058594 98.726562 C 31.554688 100.21875 32.128906 101.691406 32.65625 103.171875 C 33.757812 106.132812 34.792969 109.113281 35.945312 112.050781 L 39.386719 120.871094 C 41.796875 126.714844 44.175781 132.566406 46.742188 138.34375 C 56.839844 161.519531 68.148438 184.203125 79.746094 206.769531 C 91.328125 229.34375 103.230469 251.816406 114.394531 274.722656 C 119.949219 286.191406 125.375 297.734375 130.429688 309.453125 C 135.5 321.171875 140.277344 333.023438 144.652344 345.039062 C 148.988281 357.070312 152.863281 369.285156 156.199219 381.648438 C 156.988281 384.757812 157.855469 387.835938 158.59375 390.960938 L 160.734375 400.335938 C 162 406.617188 163.285156 412.90625 164.183594 419.265625 C 168.238281 444.605469 168.855469 470.613281 165.546875 496.125 C 163.84375 508.875 161.265625 521.519531 157.496094 533.839844 C 153.769531 546.167969 148.867188 558.148438 142.898438 569.578125 C 139.898438 575.277344 136.570312 580.816406 132.996094 586.179688 C 132.074219 587.507812 131.210938 588.871094 130.253906 590.164062 L 127.40625 594.074219 L 124.429688 597.890625 C 123.457031 599.171875 122.375 600.375 121.351562 601.621094 C 120.824219 602.238281 120.316406 602.855469 119.792969 603.464844 L 118.171875 605.265625 C 117.085938 606.453125 116.03125 607.679688 114.894531 608.816406 C 113.761719 609.96875 112.660156 611.144531 111.511719 612.28125 L 109.769531 613.980469 L 107.980469 615.636719 C 103.152344 619.976562 97.902344 624.003906 91.96875 627.003906 C 89.019531 628.507812 85.902344 629.757812 82.652344 630.625 C 79.402344 631.511719 76.007812 631.9375 72.625 631.882812 C 69.234375 631.871094 65.851562 631.320312 62.632812 630.292969 C 61.011719 629.808594 59.457031 629.15625 57.917969 628.464844 C 56.414062 627.714844 54.929688 626.933594 53.53125 626.019531 C 50.714844 624.234375 48.132812 622.117188 45.785156 619.800781 C 43.4375 617.488281 41.300781 614.976562 39.382812 612.332031 C 35.542969 607.046875 32.46875 601.269531 30.070312 595.238281 C 20.90625 570.996094 20.210938 544.179688 26.558594 519.417969 C 29.734375 507.027344 34.648438 495.09375 41.183594 484.132812 C 47.734375 473.195312 55.90625 463.230469 65.445312 454.835938 C 56.148438 463.5 48.308594 473.648438 42.125 484.683594 C 35.917969 495.699219 31.339844 507.605469 28.496094 519.886719 C 25.679688 532.171875 24.527344 544.832031 25.292969 557.375 C 25.679688 563.652344 26.535156 569.882812 27.863281 576.011719 C 28.542969 579.066406 29.316406 582.109375 30.230469 585.097656 C 31.128906 588.097656 32.132812 591.035156 33.351562 593.90625 C 35.761719 599.632812 38.773438 605.113281 42.484375 610.039062 C 44.328125 612.507812 46.355469 614.828125 48.566406 616.933594 C 50.773438 619.039062 53.164062 620.933594 55.734375 622.503906 C 57.007812 623.3125 58.355469 623.988281 59.699219 624.636719 C 61.074219 625.222656 62.457031 625.789062 63.886719 626.191406 C 66.734375 627.046875 69.695312 627.484375 72.660156 627.449219 C 78.59375 627.496094 84.460938 625.636719 89.796875 622.8125 C 95.179688 619.992188 100.050781 616.140625 104.609375 611.957031 L 106.296875 610.367188 L 107.949219 608.722656 C 109.042969 607.609375 110.105469 606.457031 111.183594 605.324219 C 112.273438 604.210938 113.289062 603.011719 114.320312 601.847656 L 115.875 600.082031 C 116.378906 599.496094 116.863281 598.878906 117.363281 598.273438 C 118.347656 597.058594 119.378906 595.890625 120.308594 594.632812 L 123.15625 590.90625 L 125.871094 587.085938 C 126.792969 585.8125 127.609375 584.480469 128.488281 583.1875 C 131.902344 577.953125 135.0625 572.546875 137.917969 566.980469 C 143.582031 555.835938 148.214844 544.136719 151.703125 532.109375 C 155.261719 520.097656 157.710938 507.765625 159.285156 495.332031 C 162.339844 470.417969 161.582031 445.121094 157.449219 420.335938 C 156.519531 414.121094 155.226562 407.964844 153.976562 401.796875 L 151.859375 392.605469 C 151.128906 389.542969 150.269531 386.519531 149.480469 383.46875 C 146.175781 371.320312 142.339844 359.304688 138.035156 347.453125 C 133.695312 335.609375 128.941406 323.898438 123.894531 312.316406 C 118.871094 300.71875 113.449219 289.28125 107.925781 277.890625 C 85.804688 232.3125 60.640625 187.992188 40.480469 141.046875 C 37.9375 135.195312 35.5625 129.261719 33.171875 123.34375 L 29.742188 114.390625 C 28.597656 111.414062 27.570312 108.382812 26.476562 105.378906 C 25.949219 103.875 25.375 102.382812 24.878906 100.863281 L 23.375 96.308594 C 22.371094 93.273438 21.347656 90.25 20.414062 87.175781 C 18.550781 81.027344 16.847656 74.773438 15.671875 68.359375 C 15.34375 66.765625 15.125 65.136719 14.867188 63.527344 C 14.671875 61.898438 14.433594 60.285156 14.316406 58.640625 C 13.996094 55.363281 13.914062 52.050781 14.019531 48.734375 C 14.085938 45.417969 14.511719 42.101562 15.085938 38.816406 C 15.421875 37.179688 15.746094 35.539062 16.222656 33.894531 C 16.691406 32.261719 17.253906 30.671875 17.878906 29.097656 C 20.425781 22.84375 24.195312 17.101562 29.007812 12.339844 C 33.828125 7.589844 39.8125 3.808594 46.546875 2.078125 C 48.226562 1.636719 49.9375 1.332031 51.679688 1.183594 C 53.402344 1.011719 55.15625 1 56.882812 1.140625 C 60.324219 1.382812 63.746094 2.160156 66.949219 3.46875 C 70.160156 4.765625 73.136719 6.582031 75.78125 8.742188 C 78.425781 10.890625 80.753906 13.371094 82.792969 16.03125 C 86.859375 21.359375 89.804688 27.339844 92.027344 33.5 C 94.242188 39.664062 95.707031 46.042969 96.578125 52.492188 C 97.007812 55.710938 97.285156 58.953125 97.394531 62.203125 C 97.445312 63.824219 97.445312 65.421875 97.46875 67.027344 L 97.5 69.4375 C 97.5 70.242188 97.46875 71.042969 97.453125 71.847656 L 97.34375 76.65625 L 97.074219 81.460938 C 97.007812 83.066406 96.863281 84.667969 96.714844 86.257812 C 96.566406 87.855469 96.457031 89.453125 96.269531 91.050781 C 95.875 94.234375 95.535156 97.417969 94.996094 100.585938 C 94.546875 103.761719 93.917969 106.90625 93.328125 110.050781 C 93.023438 111.617188 92.652344 113.179688 92.320312 114.746094 C 91.976562 116.308594 91.636719 117.875 91.21875 119.425781 L 90.042969 124.078125 L 88.703125 128.6875 L 88.035156 130.992188 L 87.300781 133.277344 C 86.796875 134.800781 86.328125 136.332031 85.808594 137.839844 C 84.722656 140.847656 83.6875 143.878906 82.484375 146.839844 C 81.347656 149.835938 80.070312 152.765625 78.8125 155.699219 C 78.183594 157.171875 77.472656 158.609375 76.816406 160.058594 C 76.140625 161.507812 75.480469 162.964844 74.746094 164.382812 L 72.59375 168.664062 L 70.328125 172.878906 L 69.179688 174.984375 L 67.976562 177.058594 L 65.566406 181.191406 C 62.234375 186.644531 58.730469 191.980469 54.957031 197.125 C 51.167969 202.257812 47.253906 207.296875 43.035156 212.070312 L 41.472656 213.878906 L 39.859375 215.640625 L 36.617188 219.15625 C 34.371094 221.417969 32.199219 223.746094 29.859375 225.910156 C 20.691406 234.746094 10.664062 242.65625 0.0703125 249.660156 Z M 0.0703125 249.660156 " fill-opacity="1" fill-rule="nonzero"/></g></g></g></g></g></g></g></g></g></g></svg>