<svg xmlns="http://www.w3.org/2000/svg" xmlns:xlink="http://www.w3.org/1999/xlink" width="775" zoomAndPan="magnify" viewBox="0 0 581.25 254.999984" height="340" preserveAspectRatio="xMidYMid meet" version="1.0"><defs><clipPath id="703e0470d6"><path d="M 16 0.164062 L 557 0.164062 L 557 254.085938 L 16 254.085938 Z M 16 0.164062 " clip-rule="nonzero"/></clipPath></defs><path fill="#727171" d="M 334.566406 205.867188 L 334.738281 207.496094 L 288.425781 207.496094 L 288.464844 205.867188 Z M 383.964844 205.867188 L 384.34375 207.496094 L 430.585938 207.496094 L 429.996094 205.867188 Z M 0.566406 207.496094 L 46.886719 207.496094 L 47.972656 205.867188 L 0.566406 205.867188 Z M 336.207031 205.867188 L 336.378906 207.496094 L 382.667969 207.496094 L 382.289062 205.867188 Z M 192.558594 207.496094 L 238.835938 207.496094 L 239.082031 205.867188 L 193.015625 205.867188 Z M 48.847656 207.496094 L 94.890625 207.496094 L 95.765625 205.867188 L 49.933594 205.867188 Z M 527.300781 205.867188 L 528.308594 207.496094 L 574.691406 207.496094 L 574.691406 205.867188 Z M 479.511719 205.867188 L 480.3125 207.496094 L 526.394531 207.496094 L 525.386719 205.867188 Z M 96.742188 207.496094 L 142.882812 207.496094 L 143.550781 205.867188 L 97.617188 205.867188 Z M 144.644531 207.496094 L 190.867188 207.496094 L 191.324219 205.867188 L 145.3125 205.867188 Z M 431.730469 205.867188 L 432.320312 207.496094 L 478.496094 207.496094 L 477.695312 205.867188 Z M 240.484375 207.496094 L 286.792969 207.496094 L 286.832031 205.867188 L 240.734375 205.867188 Z M 73.878906 169.851562 L 115.09375 169.851562 L 115.96875 168.21875 L 74.964844 168.21875 Z M 203.101562 169.851562 L 244.546875 169.851562 L 244.792969 168.21875 L 203.558594 168.21875 Z M 375.5625 169.851562 L 416.976562 169.851562 L 416.386719 168.21875 L 375.183594 168.21875 Z M 418.710938 169.851562 L 460.054688 169.851562 L 459.253906 168.21875 L 418.121094 168.21875 Z M 160.015625 169.851562 L 201.40625 169.851562 L 201.863281 168.21875 L 160.683594 168.21875 Z M 116.941406 169.851562 L 158.253906 169.851562 L 158.921875 168.21875 L 117.816406 168.21875 Z M 461.871094 169.851562 L 503.121094 169.851562 L 502.113281 168.21875 L 461.070312 168.21875 Z M 73.003906 168.21875 L 30.429688 168.21875 L 30.429688 169.851562 L 71.921875 169.851562 Z M 332.429688 169.851562 L 373.886719 169.851562 L 373.507812 168.21875 L 332.257812 168.21875 Z M 330.617188 168.21875 L 289.34375 168.21875 L 289.304688 169.851562 L 330.789062 169.851562 Z M 505.039062 169.851562 L 546.589844 169.851562 L 546.589844 168.21875 L 504.03125 168.21875 Z M 246.195312 169.851562 L 287.675781 169.851562 L 287.710938 168.21875 L 246.445312 168.21875 Z M 444.996094 139.109375 L 444.195312 137.476562 L 407.007812 137.476562 L 407.597656 139.109375 Z M 327.390625 137.476562 L 290.0625 137.476562 L 290.023438 139.109375 L 327.5625 139.109375 Z M 366.71875 139.109375 L 366.339844 137.476562 L 329.03125 137.476562 L 329.203125 139.109375 Z M 405.863281 139.109375 L 405.273438 137.476562 L 368.011719 137.476562 L 368.394531 139.109375 Z M 249.457031 137.476562 L 212.164062 137.476562 L 211.707031 139.109375 L 249.210938 139.109375 Z M 251.105469 137.476562 L 250.859375 139.109375 L 288.394531 139.109375 L 288.429688 137.476562 Z M 210.472656 137.476562 L 173.234375 137.476562 L 172.566406 139.109375 L 210.015625 139.109375 Z M 93.445312 137.476562 L 54.8125 137.476562 L 54.8125 139.109375 L 92.359375 139.109375 Z M 523.640625 139.109375 L 523.640625 137.476562 L 485.027344 137.476562 L 486.035156 139.109375 Z M 171.472656 137.476562 L 134.316406 137.476562 L 133.4375 139.109375 L 170.808594 139.109375 Z M 132.464844 137.476562 L 95.402344 137.476562 L 94.320312 139.109375 L 131.589844 139.109375 Z M 484.117188 139.109375 L 483.109375 137.476562 L 446.011719 137.476562 L 446.8125 139.109375 Z M 484.117188 139.109375 " fill-opacity="1" fill-rule="nonzero"/><path fill="#969696" d="M 324.707031 111.902344 L 324.878906 113.53125 L 290.621094 113.53125 L 290.660156 111.902344 Z M 326.347656 111.902344 L 326.519531 113.53125 L 360.753906 113.53125 L 360.371094 111.902344 Z M 75.101562 113.53125 L 109.367188 113.53125 L 110.453125 111.902344 L 75.101562 111.902344 Z M 362.046875 111.902344 L 362.425781 113.53125 L 396.613281 113.53125 L 396.023438 111.902344 Z M 433.484375 111.902344 L 434.28125 113.53125 L 468.308594 113.53125 L 467.300781 111.902344 Z M 254.738281 113.53125 L 288.992188 113.53125 L 289.027344 111.902344 L 254.988281 111.902344 Z M 469.214844 111.902344 L 470.226562 113.53125 L 504.550781 113.53125 L 504.550781 111.902344 Z M 397.757812 111.902344 L 398.347656 113.53125 L 432.464844 113.53125 L 431.667969 111.902344 Z M 218.871094 113.53125 L 253.089844 113.53125 L 253.335938 111.902344 L 219.324219 111.902344 Z M 147.164062 113.53125 L 181.25 113.53125 L 181.917969 111.902344 L 148.039062 111.902344 Z M 183.011719 113.53125 L 217.175781 113.53125 L 217.632812 111.902344 L 183.675781 111.902344 Z M 111.324219 113.53125 L 145.3125 113.53125 L 146.1875 111.902344 L 112.410156 111.902344 Z M 111.324219 113.53125 " fill-opacity="1" fill-rule="nonzero"/><g clip-path="url(#703e0470d6)"><path fill="#eff2f6" d="M 528.308594 207.496094 L 527.300781 205.867188 L 505.039062 169.851562 L 504.03125 168.21875 L 486.035156 139.109375 L 485.027344 137.476562 L 470.226562 113.53125 L 469.214844 111.902344 L 456.863281 91.917969 L 488.414062 91.917969 L 488.414062 90.289062 L 455.855469 90.289062 L 445.425781 73.414062 L 474.601562 73.414062 L 474.601562 71.78125 L 444.417969 71.78125 L 435.523438 57.390625 L 462.644531 57.390625 L 462.644531 55.761719 L 434.511719 55.761719 L 426.863281 43.386719 L 452.1875 43.386719 L 452.1875 41.753906 L 425.855469 41.753906 L 419.230469 31.035156 L 442.96875 31.035156 L 442.96875 29.40625 L 418.222656 29.40625 L 412.449219 20.066406 L 434.78125 20.066406 L 434.78125 18.433594 L 411.4375 18.433594 L 406.382812 10.253906 L 427.457031 10.253906 L 427.457031 8.625 L 405.375 8.625 L 400.160156 0.1875 L 398.773438 1.042969 L 403.457031 8.625 L 382.894531 8.625 L 378.792969 0.257812 L 377.328125 0.972656 L 381.078125 8.625 L 360.421875 8.625 L 357.425781 0.339844 L 355.890625 0.894531 L 358.6875 8.625 L 337.960938 8.625 L 336.046875 0.429688 L 334.460938 0.800781 L 336.285156 8.625 L 315.511719 8.625 L 314.660156 0.53125 L 313.039062 0.699219 L 313.871094 8.625 L 293.074219 8.625 L 293.261719 0.632812 L 291.632812 0.597656 L 291.445312 8.625 L 270.652344 8.625 L 271.847656 0.738281 L 270.234375 0.492188 L 269.003906 8.625 L 248.242188 8.625 L 250.421875 0.835938 L 248.851562 0.394531 L 246.550781 8.625 L 225.84375 8.625 L 228.988281 0.925781 L 227.480469 0.308594 L 224.082031 8.625 L 203.457031 8.625 L 207.546875 1 L 206.113281 0.230469 L 201.605469 8.625 L 181.082031 8.625 L 186.105469 1.066406 L 184.746094 0.164062 L 179.121094 8.625 L 157.023438 8.625 L 157.023438 10.253906 L 178.039062 10.253906 L 172.597656 18.433594 L 149.242188 18.433594 L 149.242188 20.066406 L 171.515625 20.066406 L 165.304688 29.40625 L 140.539062 29.40625 L 140.539062 31.035156 L 164.222656 31.035156 L 157.09375 41.753906 L 130.742188 41.753906 L 130.742188 43.386719 L 156.007812 43.386719 L 147.78125 55.761719 L 119.632812 55.761719 L 119.632812 57.390625 L 146.695312 57.390625 L 137.128906 71.78125 L 106.925781 71.78125 L 106.925781 73.414062 L 136.042969 73.414062 L 124.824219 90.289062 L 92.246094 90.289062 L 92.246094 91.917969 L 123.738281 91.917969 L 110.453125 111.902344 L 109.367188 113.53125 L 93.445312 137.476562 L 92.359375 139.109375 L 73.003906 168.21875 L 71.921875 169.851562 L 47.972656 205.867188 L 46.886719 207.496094 L 16.367188 253.402344 L 17.726562 254.304688 L 48.847656 207.496094 L 49.933594 205.867188 L 73.878906 169.851562 L 74.964844 168.21875 L 94.320312 139.109375 L 95.402344 137.476562 L 111.324219 113.53125 L 112.410156 111.902344 L 125.695312 91.917969 L 156.910156 91.917969 L 146.1875 111.902344 L 145.3125 113.53125 L 132.464844 137.476562 L 131.589844 139.109375 L 115.96875 168.21875 L 115.09375 169.851562 L 95.765625 205.867188 L 94.890625 207.496094 L 70.222656 253.464844 L 71.660156 254.238281 L 96.742188 207.496094 L 97.617188 205.867188 L 116.941406 169.851562 L 117.816406 168.21875 L 133.4375 139.109375 L 134.316406 137.476562 L 147.164062 113.53125 L 148.039062 111.902344 L 158.761719 91.917969 L 190.074219 91.917969 L 181.917969 111.902344 L 181.25 113.53125 L 171.472656 137.476562 L 170.808594 139.109375 L 158.921875 168.21875 L 158.253906 169.851562 L 143.550781 205.867188 L 142.882812 207.496094 L 124.082031 253.542969 L 125.59375 254.160156 L 144.644531 207.496094 L 145.3125 205.867188 L 160.015625 169.851562 L 160.683594 168.21875 L 172.566406 139.109375 L 173.234375 137.476562 L 183.011719 113.53125 L 183.675781 111.902344 L 191.835938 91.917969 L 223.226562 91.917969 L 217.632812 111.902344 L 217.175781 113.53125 L 210.472656 137.476562 L 210.015625 139.109375 L 201.863281 168.21875 L 201.40625 169.851562 L 191.324219 205.867188 L 190.867188 207.496094 L 177.949219 253.632812 L 179.519531 254.070312 L 192.558594 207.496094 L 193.015625 205.867188 L 203.101562 169.851562 L 203.558594 168.21875 L 211.707031 139.109375 L 212.164062 137.476562 L 218.871094 113.53125 L 219.324219 111.902344 L 224.921875 91.917969 L 256.367188 91.917969 L 253.335938 111.902344 L 253.089844 113.53125 L 249.457031 137.476562 L 249.210938 139.109375 L 244.792969 168.21875 L 244.546875 169.851562 L 239.082031 205.867188 L 238.835938 207.496094 L 231.824219 253.730469 L 233.4375 253.976562 L 240.484375 207.496094 L 240.734375 205.867188 L 246.195312 169.851562 L 246.445312 168.21875 L 250.859375 139.109375 L 251.105469 137.476562 L 254.738281 113.53125 L 254.988281 111.902344 L 258.019531 91.917969 L 289.496094 91.917969 L 289.027344 111.902344 L 288.992188 113.53125 L 288.429688 137.476562 L 288.394531 139.109375 L 287.710938 168.21875 L 287.675781 169.851562 L 286.832031 205.867188 L 286.792969 207.496094 L 285.710938 253.832031 L 287.339844 253.871094 L 288.425781 207.496094 L 288.464844 205.867188 L 289.304688 169.851562 L 289.34375 168.21875 L 290.023438 139.109375 L 290.0625 137.476562 L 290.621094 113.53125 L 290.660156 111.902344 L 291.128906 91.917969 L 322.609375 91.917969 L 324.707031 111.902344 L 324.878906 113.53125 L 327.390625 137.476562 L 327.5625 139.109375 L 330.617188 168.21875 L 330.789062 169.851562 L 334.566406 205.867188 L 334.738281 207.496094 L 339.609375 253.9375 L 341.234375 253.765625 L 336.378906 207.496094 L 336.207031 205.867188 L 332.429688 169.851562 L 332.257812 168.21875 L 329.203125 139.109375 L 329.03125 137.476562 L 326.519531 113.53125 L 326.347656 111.902344 L 324.25 91.917969 L 355.710938 91.917969 L 360.371094 111.902344 L 360.753906 113.53125 L 366.339844 137.476562 L 366.71875 139.109375 L 373.507812 168.21875 L 373.886719 169.851562 L 382.289062 205.867188 L 382.667969 207.496094 L 393.523438 254.039062 L 395.113281 253.667969 L 384.34375 207.496094 L 383.964844 205.867188 L 375.5625 169.851562 L 375.183594 168.21875 L 368.394531 139.109375 L 368.011719 137.476562 L 362.425781 113.53125 L 362.046875 111.902344 L 357.386719 91.917969 L 388.800781 91.917969 L 396.023438 111.902344 L 396.613281 113.53125 L 405.273438 137.476562 L 405.863281 139.109375 L 416.386719 168.21875 L 416.976562 169.851562 L 429.996094 205.867188 L 430.585938 207.496094 L 447.449219 254.128906 L 448.980469 253.574219 L 432.320312 207.496094 L 431.730469 205.867188 L 418.710938 169.851562 L 418.121094 168.21875 L 407.597656 139.109375 L 407.007812 137.476562 L 398.347656 113.53125 L 397.757812 111.902344 L 390.535156 91.917969 L 421.878906 91.917969 L 431.667969 111.902344 L 432.464844 113.53125 L 444.195312 137.476562 L 444.996094 139.109375 L 459.253906 168.21875 L 460.054688 169.851562 L 477.695312 205.867188 L 478.496094 207.496094 L 501.378906 254.210938 L 502.84375 253.492188 L 480.3125 207.496094 L 479.511719 205.867188 L 461.871094 169.851562 L 461.070312 168.21875 L 446.8125 139.109375 L 446.011719 137.476562 L 434.28125 113.53125 L 433.484375 111.902344 L 423.695312 91.917969 L 454.945312 91.917969 L 467.300781 111.902344 L 468.308594 113.53125 L 483.109375 137.476562 L 484.117188 139.109375 L 502.113281 168.21875 L 503.121094 169.851562 L 525.386719 205.867188 L 526.394531 207.496094 L 555.3125 254.28125 L 556.699219 253.421875 Z M 442.5 71.78125 L 413.832031 71.78125 L 406.78125 57.390625 L 433.605469 57.390625 Z M 371.253906 43.386719 L 375.726562 55.761719 L 348.953125 55.761719 L 346.066406 43.386719 Z M 345.6875 41.753906 L 343.1875 31.035156 L 366.789062 31.035156 L 370.664062 41.753906 Z M 372.988281 43.386719 L 398.105469 43.386719 L 404.167969 55.761719 L 377.460938 55.761719 Z M 372.398438 41.753906 L 368.523438 31.035156 L 392.054688 31.035156 L 397.304688 41.753906 Z M 367.933594 29.40625 L 364.558594 20.066406 L 386.679688 20.066406 L 391.257812 29.40625 Z M 366.199219 29.40625 L 342.804688 29.40625 L 340.628906 20.066406 L 362.824219 20.066406 Z M 341.132812 29.40625 L 317.691406 29.40625 L 316.710938 20.066406 L 338.953125 20.066406 Z M 341.511719 31.035156 L 344.011719 41.753906 L 318.988281 41.753906 L 317.863281 31.035156 Z M 344.390625 43.386719 L 347.277344 55.761719 L 320.457031 55.761719 L 319.15625 43.386719 Z M 347.660156 57.390625 L 351.015625 71.78125 L 322.136719 71.78125 L 320.628906 57.390625 Z M 349.332031 57.390625 L 376.316406 57.390625 L 381.519531 71.78125 L 352.691406 71.78125 Z M 378.050781 57.390625 L 404.964844 57.390625 L 412.015625 71.78125 L 383.253906 71.78125 Z M 432.597656 55.761719 L 405.984375 55.761719 L 399.921875 43.386719 L 424.945312 43.386719 Z M 423.9375 41.753906 L 399.121094 41.753906 L 393.871094 31.035156 L 417.3125 31.035156 Z M 416.304688 29.40625 L 393.074219 29.40625 L 388.496094 20.066406 L 410.53125 20.066406 Z M 404.464844 10.253906 L 409.523438 18.433594 L 387.699219 18.433594 L 383.691406 10.253906 Z M 381.875 10.253906 L 385.882812 18.433594 L 363.96875 18.433594 L 361.011719 10.253906 Z M 359.277344 10.253906 L 362.234375 18.433594 L 340.246094 18.433594 L 338.339844 10.253906 Z M 336.664062 10.253906 L 338.574219 18.433594 L 316.539062 18.433594 L 315.683594 10.253906 Z M 293.035156 10.253906 L 314.042969 10.253906 L 314.898438 18.433594 L 292.84375 18.433594 Z M 292.808594 20.066406 L 315.070312 20.066406 L 316.050781 29.40625 L 292.589844 29.40625 Z M 292.550781 31.035156 L 316.222656 31.035156 L 317.347656 41.753906 L 292.300781 41.753906 Z M 292.261719 43.386719 L 317.519531 43.386719 L 318.816406 55.761719 L 291.972656 55.761719 Z M 291.933594 57.390625 L 318.988281 57.390625 L 320.496094 71.78125 L 291.597656 71.78125 Z M 270.40625 10.253906 L 291.40625 10.253906 L 291.214844 18.433594 L 269.164062 18.433594 Z M 247.785156 10.253906 L 268.753906 10.253906 L 267.515625 18.433594 L 245.496094 18.433594 Z M 212.316406 41.753906 L 216.695312 31.035156 L 240.273438 31.035156 L 237.273438 41.753906 Z M 236.816406 43.386719 L 233.351562 55.761719 L 206.597656 55.761719 L 211.652344 43.386719 Z M 217.359375 29.40625 L 221.175781 20.066406 L 243.347656 20.066406 L 240.730469 29.40625 Z M 215.597656 29.40625 L 192.308594 29.40625 L 197.320312 20.066406 L 219.414062 20.066406 Z M 214.933594 31.035156 L 210.558594 41.753906 L 185.679688 41.753906 L 191.433594 31.035156 Z M 209.890625 43.386719 L 204.839844 55.761719 L 178.164062 55.761719 L 184.804688 43.386719 Z M 204.171875 57.390625 L 198.296875 71.78125 L 169.566406 71.78125 L 177.289062 57.390625 Z M 205.933594 57.390625 L 232.894531 57.390625 L 228.867188 71.78125 L 200.058594 71.78125 Z M 234.589844 57.390625 L 261.605469 57.390625 L 259.421875 71.78125 L 230.558594 71.78125 Z M 235.042969 55.761719 L 238.511719 43.386719 L 263.730469 43.386719 L 261.851562 55.761719 Z M 238.964844 41.753906 L 241.96875 31.035156 L 265.601562 31.035156 L 263.976562 41.753906 Z M 242.425781 29.40625 L 245.039062 20.066406 L 267.265625 20.066406 L 265.851562 29.40625 Z M 225.179688 10.253906 L 246.09375 10.253906 L 243.800781 18.433594 L 221.839844 18.433594 Z M 202.582031 10.253906 L 223.417969 10.253906 L 220.078125 18.433594 L 198.195312 18.433594 Z M 179.996094 10.253906 L 200.730469 10.253906 L 196.34375 18.433594 L 174.558594 18.433594 Z M 173.472656 20.066406 L 195.46875 20.066406 L 190.457031 29.40625 L 167.261719 29.40625 Z M 166.179688 31.035156 L 189.582031 31.035156 L 183.828125 41.753906 L 159.050781 41.753906 Z M 157.96875 43.386719 L 182.953125 43.386719 L 176.3125 55.761719 L 149.738281 55.761719 Z M 148.652344 57.390625 L 175.4375 57.390625 L 167.714844 71.78125 L 139.085938 71.78125 Z M 157.785156 90.289062 L 126.78125 90.289062 L 138 73.414062 L 166.839844 73.414062 Z M 190.742188 90.289062 L 159.636719 90.289062 L 168.691406 73.414062 L 197.628906 73.414062 Z M 223.683594 90.289062 L 192.503906 90.289062 L 199.390625 73.414062 L 228.410156 73.414062 Z M 256.617188 90.289062 L 225.378906 90.289062 L 230.101562 73.414062 L 259.175781 73.414062 Z M 289.535156 90.289062 L 258.265625 90.289062 L 260.824219 73.414062 L 289.929688 73.414062 Z M 289.96875 71.78125 L 261.070312 71.78125 L 263.253906 57.390625 L 290.304688 57.390625 Z M 290.339844 55.761719 L 263.503906 55.761719 L 265.378906 43.386719 L 290.632812 43.386719 Z M 290.667969 41.753906 L 265.625 41.753906 L 267.253906 31.035156 L 290.917969 31.035156 Z M 290.957031 29.40625 L 267.5 29.40625 L 268.917969 20.066406 L 291.175781 20.066406 Z M 291.164062 90.289062 L 291.558594 73.414062 L 320.667969 73.414062 L 322.441406 90.289062 Z M 324.078125 90.289062 L 322.308594 73.414062 L 351.394531 73.414062 L 355.332031 90.289062 Z M 357.007812 90.289062 L 353.070312 73.414062 L 382.109375 73.414062 L 388.210938 90.289062 Z M 389.945312 90.289062 L 383.84375 73.414062 L 412.8125 73.414062 L 421.078125 90.289062 Z M 422.894531 90.289062 L 414.628906 73.414062 L 443.507812 73.414062 L 453.9375 90.289062 Z M 422.894531 90.289062 " fill-opacity="1" fill-rule="nonzero"/></g></svg>